<svg xmlns="http://www.w3.org/2000/svg" xmlns:xlink="http://www.w3.org/1999/xlink" width="752" height="500" viewBox="27.0 -302.4261 432.0 286.9987"><style>svg {
  color-scheme: light dark;
}
{
  .canvas g, .title g, .axisbar g, .ticktext g, .tickglyph g, .ticklines g, .legendContent g text {
    fill: rgb(5%, 5%, 5%);
  }
  .ticklines g, .tickglyph g, .legendBorder g {
    stroke: rgb(5%, 5%, 5%);
  }
  .legendBorder g {
    fill: rgb(94%, 94%, 94%);
  }
}
@media (prefers-color-scheme:dark) {
  .canvas g, .title g, .axisbar g, .ticktext g, .tickglyph g, .ticklines g, .legendContent g text {
    fill: rgb(94%, 94%, 94%);
  }
  .ticklines g, .tickglyph g, .legendBorder g {
    stroke: rgb(94%, 94%, 94%);
  }
  .legendBorder g {
    fill: rgb(5%, 5%, 5%);
  }
}</style><g class="chart"><g class="edges"><g stroke-width="1.0" stroke="rgb(33%, -22%, 26%)" stroke-opacity="1.0" fill="rgb(0%, 0%, 0%)" fill-opacity="0"><path d="M 198.5493,-243.8961 C 198.5493,-252.1955 198.5493,-262.4050 198.5493,-271.4006 L 198.5493,-277.3946"/></g><g stroke-width="1.0" stroke="rgb(33%, -22%, 26%)" stroke-opacity="1.0" fill="rgb(0%, 0%, 0%)" fill-opacity="0"><path d="M 179.2097,-243.8961 C 182.6677,-252.7695 186.9786,-263.8164 190.6519,-273.2355 L 192.1829,-277.1593"/></g><g stroke-width="1.0" stroke="rgb(33%, -22%, 26%)" stroke-opacity="1.0" fill="rgb(0%, 0%, 0%)" fill-opacity="0"><path d="M 171.8414,-176.1465 C 172.0117,-184.4458 172.2210,-194.6553 172.4059,-203.6509 L 172.5289,-209.6449"/></g><g stroke-width="1.0" stroke="rgb(33%, -22%, 26%)" stroke-opacity="1.0" fill="rgb(0%, 0%, 0%)" fill-opacity="0"><path d="M 198.5493,-176.1465 C 198.5493,-184.4458 198.5493,-194.6553 198.5493,-203.6509 L 198.5493,-209.6449"/></g><g stroke-width="1.0" stroke="rgb(33%, -22%, 26%)" stroke-opacity="1.0" fill="rgb(0%, 0%, 0%)" fill-opacity="0"><path d="M 278.3239,-108.3968 C 278.3239,-116.6961 278.3239,-126.9056 278.3239,-135.9013 L 278.3239,-141.8952"/></g><g stroke-width="1.0" stroke="rgb(33%, -22%, 26%)" stroke-opacity="1.0" fill="rgb(0%, 0%, 0%)" fill-opacity="0"><path d="M 271.5566,-176.1465 C 267.8687,-185.0198 263.2749,-196.0667 259.3606,-205.4858 L 257.7279,-209.4097"/></g><g stroke-width="1.0" stroke="rgb(33%, -22%, 26%)" stroke-opacity="1.0" fill="rgb(0%, 0%, 0%)" fill-opacity="0"><path d="M 317.5352,-40.6499 C 317.5352,-48.9455 317.5352,-59.1541 317.5352,-68.1478 L 317.5352,-74.1418"/></g><g stroke-width="1.0" stroke="rgb(33%, -22%, 26%)" stroke-opacity="1.0" fill="rgb(0%, 0%, 0%)" fill-opacity="0"><path d="M 218.9054,-243.8961 C 215.2682,-252.7695 210.7285,-263.8164 206.8614,-273.2355 L 205.2524,-277.1593"/></g><g stroke-width="1.0" stroke="rgb(33%, -22%, 26%)" stroke-opacity="1.0" fill="rgb(0%, 0%, 0%)" fill-opacity="0"><path d="M 225.5915,-176.1465 C 225.5915,-184.4458 225.5915,-194.6553 225.5915,-203.6509 L 225.5915,-209.6449"/></g><g stroke-width="1.0" stroke="rgb(33%, -22%, 26%)" stroke-opacity="1.0" fill="rgb(0%, 0%, 0%)" fill-opacity="0"><path d="M 224.5741,-108.3968 C 224.7431,-116.6961 224.9527,-126.9056 225.1386,-135.9013 L 225.2603,-141.8952"/></g><g stroke-width="1.0" stroke="rgb(33%, -22%, 26%)" stroke-opacity="1.0" fill="rgb(0%, 0%, 0%)" fill-opacity="0"><path d="M 250.6901,-176.1465 C 250.7307,-184.4458 250.7848,-194.6553 250.8287,-203.6509 L 250.8625,-209.6449"/></g><g stroke-width="1.0" stroke="rgb(33%, -22%, 26%)" stroke-opacity="1.0" fill="rgb(0%, 0%, 0%)" fill-opacity="0"><path d="M 244.4231,-176.1465 C 241.0868,-184.9351 236.9324,-195.8691 233.3763,-205.2318 L 231.7910,-209.4097"/></g><g stroke-width="1.0" stroke="rgb(33%, -22%, 26%)" stroke-opacity="1.0" fill="rgb(0%, 0%, 0%)" fill-opacity="0"><path d="M 267.8890,-40.6499 C 269.6873,-49.1854 271.9082,-59.7450 273.8383,-68.9232 L 274.9369,-74.1418"/></g><g stroke-width="1.0" stroke="rgb(33%, -22%, 26%)" stroke-opacity="1.0" fill="rgb(0%, 0%, 0%)" fill-opacity="0"><path d="M 261.0406,-40.6499 C 259.2423,-49.1854 257.0214,-59.7450 255.0913,-68.9232 L 253.9927,-74.1418"/></g><g stroke-width="1.0" stroke="rgb(33%, -22%, 26%)" stroke-opacity="1.0" fill="rgb(0%, 0%, 0%)" fill-opacity="0"><path d="M 250.6056,-108.3968 C 250.6056,-116.6961 250.6056,-126.9056 250.6056,-135.9013 L 250.6056,-141.8952"/></g></g><g class="shapes"><g stroke-width="1.0" stroke="rgb(33%, -22%, 26%)" stroke-opacity="1.0" fill="rgb(2%, 29%, 48%)" fill-opacity="0.1"><rect width="22.5" height="15.0" x="187.2993" y="-234.1764"/></g><g stroke-width="1.0" stroke="rgb(33%, -22%, 26%)" stroke-opacity="1.0" fill="rgb(2%, 29%, 48%)" fill-opacity="0.1"><rect width="22.5" height="15.0" x="306.2852" y="-98.6771"/></g><g stroke-width="1.0" stroke="rgb(33%, -22%, 26%)" stroke-opacity="1.0" fill="rgb(2%, 29%, 48%)" fill-opacity="0.1"><rect width="22.5" height="15.0" x="187.2993" y="-301.9261"/></g><g stroke-width="1.0" stroke="rgb(33%, -22%, 26%)" stroke-opacity="1.0" fill="rgb(2%, 29%, 48%)" fill-opacity="0.1"><rect width="22.5" height="15.0" x="161.6092" y="-234.1764"/></g><g stroke-width="1.0" stroke="rgb(33%, -22%, 26%)" stroke-opacity="1.0" fill="rgb(2%, 29%, 48%)" fill-opacity="0.1"><rect width="22.5" height="15.0" x="160.2570" y="-166.4267"/></g><g stroke-width="1.0" stroke="rgb(33%, -22%, 26%)" stroke-opacity="1.0" fill="rgb(2%, 29%, 48%)" fill-opacity="0.1"><rect width="29.1666" height="15.0" x="183.9660" y="-166.4267"/></g><g stroke-width="1.0" stroke="rgb(33%, -22%, 26%)" stroke-opacity="1.0" fill="rgb(2%, 29%, 48%)" fill-opacity="0.1"><rect width="25.8333" height="15.0" x="265.4073" y="-98.6771"/></g><g stroke-width="1.0" stroke="rgb(33%, -22%, 26%)" stroke-opacity="1.0" fill="rgb(2%, 29%, 48%)" fill-opacity="0.1"><rect width="29.5833" height="15.0" x="263.5323" y="-166.4267"/></g><g stroke-width="1.0" stroke="rgb(33%, -22%, 26%)" stroke-opacity="1.0" fill="rgb(2%, 29%, 48%)" fill-opacity="0.1"><rect width="24.5832" height="15.0" x="305.2436" y="-30.9274"/></g><g stroke-width="1.0" stroke="rgb(33%, -22%, 26%)" stroke-opacity="1.0" fill="rgb(2%, 29%, 48%)" fill-opacity="0.1"><rect width="22.5" height="15.0" x="280.5951" y="-30.9274"/></g><g stroke-width="1.0" stroke="rgb(33%, -22%, 26%)" stroke-opacity="1.0" fill="rgb(2%, 29%, 48%)" fill-opacity="0.1"><rect width="22.5" height="15.0" x="239.6937" y="-234.1764"/></g><g stroke-width="1.0" stroke="rgb(33%, -22%, 26%)" stroke-opacity="1.0" fill="rgb(2%, 29%, 48%)" fill-opacity="0.1"><rect width="22.5" height="15.0" x="214.3415" y="-234.1764"/></g><g stroke-width="1.0" stroke="rgb(33%, -22%, 26%)" stroke-opacity="1.0" fill="rgb(2%, 29%, 48%)" fill-opacity="0.1"><rect width="22.5" height="15.0" x="214.3415" y="-166.4267"/></g><g stroke-width="1.0" stroke="rgb(33%, -22%, 26%)" stroke-opacity="1.0" fill="rgb(2%, 29%, 48%)" fill-opacity="0.1"><rect width="22.5" height="15.0" x="212.9894" y="-98.6771"/></g><g stroke-width="1.0" stroke="rgb(33%, -22%, 26%)" stroke-opacity="1.0" fill="rgb(2%, 29%, 48%)" fill-opacity="0.1"><rect width="22.5" height="15.0" x="239.3556" y="-166.4267"/></g><g stroke-width="1.0" stroke="rgb(33%, -22%, 26%)" stroke-opacity="1.0" fill="rgb(2%, 29%, 48%)" fill-opacity="0.1"><rect width="28.7499" height="15.0" x="250.0898" y="-30.9274"/></g><g stroke-width="1.0" stroke="rgb(33%, -22%, 26%)" stroke-opacity="1.0" fill="rgb(2%, 29%, 48%)" fill-opacity="0.1"><rect width="27.0834" height="15.0" x="237.0639" y="-98.6771"/></g></g><g class="labels"><g stroke-width="0.0" stroke="none" fill="rgb(33%, -22%, 26%)" fill-opacity="1.0" font-size="6.7606" text-anchor="middle"><text x="198.5493" y="-223.1948"><a href="https://hackage.haskell.org/package/base/docs/Data-Bits.html#t:Bits">Bits</a></text><text x="317.5352" y="-87.6955"><a href="https://hackage.haskell.org/package/base/docs/GHC-Enum.html#t:Enum">Enum</a></text><text x="198.5493" y="-290.9445"><a href="https://hackage.haskell.org/package/base/docs/Data-Eq.html#t:Eq">Eq</a></text><text x="172.8592" y="-223.1948"><a href="https://hackage.haskell.org/package/base/docs/Data-Functor-Classes.html#t:Eq1">Eq1</a></text><text x="171.5070" y="-155.4452"><a href="https://hackage.haskell.org/package/base/docs/Data-Functor-Classes.html#t:Eq2">Eq2</a></text><text x="198.5493" y="-155.4452"><a href="https://hackage.haskell.org/package/base/docs/Data-Bits.html#t:FiniteBits">FiniteBits</a></text><text x="278.3239" y="-87.6955"><a href="https://hackage.haskell.org/package/base/docs/GHC-Float.html#t:Floating">Floating</a></text><text x="278.3239" y="-155.4452"><a href="https://hackage.haskell.org/package/base/docs/GHC-Real.html#t:Fractional">Fractional</a></text><text x="317.5352" y="-19.9458"><a href="https://hackage.haskell.org/package/base/docs/GHC-Real.html#t:Integral">Integral</a></text><text x="291.8451" y="-19.9458"><a href="https://hackage.haskell.org/package/base/docs/Data-Ix.html#t:Ix">Ix</a></text><text x="250.9437" y="-223.1948"><a href="https://hackage.haskell.org/package/base/docs/GHC-Num.html#t:Num">Num</a></text><text x="225.5915" y="-223.1948"><a href="https://hackage.haskell.org/package/base/docs/Data-Ord.html#t:Ord">Ord</a></text><text x="225.5915" y="-155.4452"><a href="https://hackage.haskell.org/package/base/docs/Data-Functor-Classes.html#t:Ord1">Ord1</a></text><text x="224.2394" y="-87.6955"><a href="https://hackage.haskell.org/package/base/docs/Data-Functor-Classes.html#t:Ord2">Ord2</a></text><text x="250.6056" y="-155.4452"><a href="https://hackage.haskell.org/package/base/docs/GHC-Real.html#t:Real">Real</a></text><text x="264.4648" y="-19.9458"><a href="https://hackage.haskell.org/package/base/docs/GHC-Float.html#t:RealFloat">RealFloat</a></text><text x="250.6056" y="-87.6955"><a href="https://hackage.haskell.org/package/base/docs/GHC-Real.html#t:RealFrac">RealFrac</a></text></g></g></g><g class="hud"></g></svg>