<?xml version="1.0" encoding="UTF-8" standalone="no"?>
<!DOCTYPE svg PUBLIC "-//W3C//DTD SVG 1.1//EN"
 "http://www.w3.org/Graphics/SVG/1.1/DTD/svg11.dtd">
<!-- Generated by graphviz version 7.1.0 (20230121.1956)
 -->
<!-- Pages: 1 -->
<svg width="291pt" height="133pt"
 viewBox="0.00 0.00 291.00 133.00" xmlns="http://www.w3.org/2000/svg" xmlns:xlink="http://www.w3.org/1999/xlink">
<g id="graph0" class="graph" transform="scale(1 1) rotate(0) translate(4 129)">
<polygon fill="white" stroke="none" points="-4,4 -4,-129 287,-129 287,4 -4,4"/>
<!-- tbl -->
<g id="node1" class="node">
<title>tbl</title>
<polygon fill="none" stroke="blue" points="8.5,-99.5 8.5,-120.5 125.5,-120.5 125.5,-99.5 8.5,-99.5"/>
<text text-anchor="start" x="57.5" y="-106.3" font-family="Times,serif" font-size="14.00">foo</text>
<polygon fill="none" stroke="blue" points="125.5,-99.5 125.5,-120.5 199.5,-120.5 199.5,-99.5 125.5,-99.5"/>
<text text-anchor="start" x="153.5" y="-106.3" font-family="Times,serif" font-size="14.00">bar</text>
<polygon fill="none" stroke="blue" points="199.5,-99.5 199.5,-120.5 275.5,-120.5 275.5,-99.5 199.5,-99.5"/>
<text text-anchor="start" x="228" y="-106.3" font-family="Times,serif" font-size="14.00">baz</text>
<polygon fill="none" stroke="blue" points="8.5,-24.5 8.5,-99.5 125.5,-99.5 125.5,-24.5 8.5,-24.5"/>
<polygon fill="none" stroke="orange" points="14.5,-72.5 14.5,-93.5 51.5,-93.5 51.5,-72.5 14.5,-72.5"/>
<text text-anchor="start" x="19" y="-79.3" font-family="Times,serif" font-size="14.00">one &#160;</text>
<polygon fill="none" stroke="orange" points="51.5,-72.5 51.5,-93.5 85.5,-93.5 85.5,-72.5 51.5,-72.5"/>
<text text-anchor="start" x="54.5" y="-79.3" font-family="Times,serif" font-size="14.00">two &#160;</text>
<polygon fill="none" stroke="orange" points="85.5,-72.5 85.5,-93.5 119.5,-93.5 119.5,-72.5 85.5,-72.5"/>
<text text-anchor="start" x="88.5" y="-79.3" font-family="Times,serif" font-size="14.00">three</text>
<polygon fill="none" stroke="orange" points="14.5,-51.5 14.5,-72.5 51.5,-72.5 51.5,-51.5 14.5,-51.5"/>
<text text-anchor="start" x="19.5" y="-58.3" font-family="Times,serif" font-size="14.00">four </text>
<polygon fill="none" stroke="orange" points="51.5,-51.5 51.5,-72.5 85.5,-72.5 85.5,-51.5 51.5,-51.5"/>
<text text-anchor="start" x="56" y="-58.3" font-family="Times,serif" font-size="14.00">five </text>
<polygon fill="none" stroke="orange" points="85.5,-51.5 85.5,-72.5 119.5,-72.5 119.5,-51.5 85.5,-51.5"/>
<text text-anchor="start" x="90.5" y="-58.3" font-family="Times,serif" font-size="14.00">six &#160;</text>
<polygon fill="none" stroke="orange" points="14.5,-30.5 14.5,-51.5 51.5,-51.5 51.5,-30.5 14.5,-30.5"/>
<text text-anchor="start" x="17.5" y="-37.3" font-family="Times,serif" font-size="14.00">seven</text>
<polygon fill="none" stroke="orange" points="51.5,-30.5 51.5,-51.5 85.5,-51.5 85.5,-30.5 51.5,-30.5"/>
<text text-anchor="start" x="54.5" y="-37.3" font-family="Times,serif" font-size="14.00">eight</text>
<polygon fill="none" stroke="orange" points="85.5,-30.5 85.5,-51.5 119.5,-51.5 119.5,-30.5 85.5,-30.5"/>
<text text-anchor="start" x="88.5" y="-37.3" font-family="Times,serif" font-size="14.00">nine </text>
<polygon fill="none" stroke="orange" points="13.5,-29.5 13.5,-94.5 120.5,-94.5 120.5,-29.5 13.5,-29.5"/>
<polygon fill="none" stroke="blue" points="125.5,-3.5 125.5,-99.5 275.5,-99.5 275.5,-3.5 125.5,-3.5"/>
<polygon fill="none" stroke="pink" points="128.5,-51.5 128.5,-96.5 172.5,-96.5 172.5,-51.5 128.5,-51.5"/>
<text text-anchor="start" x="139.5" y="-70.3" font-family="Times,serif" font-size="14.00">eins</text>
<polygon fill="none" stroke="pink" points="172.5,-51.5 172.5,-96.5 220.5,-96.5 220.5,-51.5 172.5,-51.5"/>
<text text-anchor="start" x="183.5" y="-70.3" font-family="Times,serif" font-size="14.00">zwei</text>
<polygon fill="none" stroke="pink" points="220.5,-6.5 220.5,-96.5 272.5,-96.5 272.5,-6.5 220.5,-6.5"/>
<text text-anchor="start" x="235.5" y="-55.3" font-family="Times,serif" font-size="14.00">drei</text>
<text text-anchor="start" x="231.5" y="-40.3" font-family="Times,serif" font-size="14.00">sechs</text>
<polygon fill="none" stroke="pink" points="128.5,-6.5 128.5,-51.5 172.5,-51.5 172.5,-6.5 128.5,-6.5"/>
<text text-anchor="start" x="139.5" y="-25.3" font-family="Times,serif" font-size="14.00">vier</text>
<polygon fill="none" stroke="pink" points="172.5,-6.5 172.5,-51.5 220.5,-51.5 220.5,-6.5 172.5,-6.5"/>
<text text-anchor="start" x="185" y="-25.3" font-family="Times,serif" font-size="14.00">fünf</text>
<polygon fill="none" stroke="blue" points="8.5,-3.5 8.5,-24.5 125.5,-24.5 125.5,-3.5 8.5,-3.5"/>
<text text-anchor="start" x="57.5" y="-10.3" font-family="Times,serif" font-size="14.00">abc</text>
</g>
</g>
</svg>
