<?xml version="1.0" encoding="UTF-8" standalone="no"?>
<!DOCTYPE svg PUBLIC "-//W3C//DTD SVG 1.1//EN"
 "http://www.w3.org/Graphics/SVG/1.1/DTD/svg11.dtd">
<!-- Generated by graphviz version 2.49.3 (20211023.0002)
 -->
<!-- Pages: 1 -->
<svg width="296pt" height="133pt"
 viewBox="0.00 0.00 296.00 133.00" xmlns="http://www.w3.org/2000/svg" xmlns:xlink="http://www.w3.org/1999/xlink">
<g id="graph0" class="graph" transform="scale(1 1) rotate(0) translate(4 129)">
<polygon fill="white" stroke="transparent" points="-4,4 -4,-129 292,-129 292,4 -4,4"/>
<!-- tbl -->
<g id="node1" class="node">
<title>tbl</title>
<polygon fill="none" stroke="blue" points="8,-99.5 8,-120.5 127,-120.5 127,-99.5 8,-99.5"/>
<text text-anchor="start" x="58" y="-106.3" font-family="Times,serif" font-size="14.00">foo</text>
<polygon fill="none" stroke="blue" points="127,-99.5 127,-120.5 202,-120.5 202,-99.5 127,-99.5"/>
<text text-anchor="start" x="155.5" y="-106.3" font-family="Times,serif" font-size="14.00">bar</text>
<polygon fill="none" stroke="blue" points="202,-99.5 202,-120.5 280,-120.5 280,-99.5 202,-99.5"/>
<text text-anchor="start" x="231" y="-106.3" font-family="Times,serif" font-size="14.00">baz</text>
<polygon fill="none" stroke="blue" points="8,-24.5 8,-99.5 127,-99.5 127,-24.5 8,-24.5"/>
<polygon fill="none" stroke="orange" points="14,-72.5 14,-93.5 52,-93.5 52,-72.5 14,-72.5"/>
<text text-anchor="start" x="19" y="-79.3" font-family="Times,serif" font-size="14.00">one &#160;</text>
<polygon fill="none" stroke="orange" points="52,-72.5 52,-93.5 87,-93.5 87,-72.5 52,-72.5"/>
<text text-anchor="start" x="55" y="-79.3" font-family="Times,serif" font-size="14.00">two &#160;</text>
<polygon fill="none" stroke="orange" points="87,-72.5 87,-93.5 121,-93.5 121,-72.5 87,-72.5"/>
<text text-anchor="start" x="90" y="-79.3" font-family="Times,serif" font-size="14.00">three</text>
<polygon fill="none" stroke="orange" points="14,-51.5 14,-72.5 52,-72.5 52,-51.5 14,-51.5"/>
<text text-anchor="start" x="19.5" y="-58.3" font-family="Times,serif" font-size="14.00">four </text>
<polygon fill="none" stroke="orange" points="52,-51.5 52,-72.5 87,-72.5 87,-51.5 52,-51.5"/>
<text text-anchor="start" x="57" y="-58.3" font-family="Times,serif" font-size="14.00">five </text>
<polygon fill="none" stroke="orange" points="87,-51.5 87,-72.5 121,-72.5 121,-51.5 87,-51.5"/>
<text text-anchor="start" x="92" y="-58.3" font-family="Times,serif" font-size="14.00">six &#160;</text>
<polygon fill="none" stroke="orange" points="14,-30.5 14,-51.5 52,-51.5 52,-30.5 14,-30.5"/>
<text text-anchor="start" x="17" y="-37.3" font-family="Times,serif" font-size="14.00">seven</text>
<polygon fill="none" stroke="orange" points="52,-30.5 52,-51.5 87,-51.5 87,-30.5 52,-30.5"/>
<text text-anchor="start" x="55.5" y="-37.3" font-family="Times,serif" font-size="14.00">eight</text>
<polygon fill="none" stroke="orange" points="87,-30.5 87,-51.5 121,-51.5 121,-30.5 87,-30.5"/>
<text text-anchor="start" x="90" y="-37.3" font-family="Times,serif" font-size="14.00">nine </text>
<polygon fill="none" stroke="orange" points="13,-29.5 13,-94.5 122,-94.5 122,-29.5 13,-29.5"/>
<polygon fill="none" stroke="blue" points="127,-3.5 127,-99.5 280,-99.5 280,-3.5 127,-3.5"/>
<polygon fill="none" stroke="pink" points="130,-51.5 130,-96.5 175,-96.5 175,-51.5 130,-51.5"/>
<text text-anchor="start" x="141" y="-70.3" font-family="Times,serif" font-size="14.00">eins</text>
<polygon fill="none" stroke="pink" points="175,-51.5 175,-96.5 224,-96.5 224,-51.5 175,-51.5"/>
<text text-anchor="start" x="186" y="-70.3" font-family="Times,serif" font-size="14.00">zwei</text>
<polygon fill="none" stroke="pink" points="224,-6.5 224,-96.5 277,-96.5 277,-6.5 224,-6.5"/>
<text text-anchor="start" x="239.5" y="-55.3" font-family="Times,serif" font-size="14.00">drei</text>
<text text-anchor="start" x="235" y="-40.3" font-family="Times,serif" font-size="14.00">sechs</text>
<polygon fill="none" stroke="pink" points="130,-6.5 130,-51.5 175,-51.5 175,-6.5 130,-6.5"/>
<text text-anchor="start" x="141.5" y="-25.3" font-family="Times,serif" font-size="14.00">vier</text>
<polygon fill="none" stroke="pink" points="175,-6.5 175,-51.5 224,-51.5 224,-6.5 175,-6.5"/>
<text text-anchor="start" x="187.5" y="-25.3" font-family="Times,serif" font-size="14.00">fünf</text>
<polygon fill="none" stroke="blue" points="8,-3.5 8,-24.5 127,-24.5 127,-3.5 8,-3.5"/>
<text text-anchor="start" x="57.5" y="-10.3" font-family="Times,serif" font-size="14.00">abc</text>
</g>
</g>
</svg>
