<?xml version="1.0" encoding="UTF-8" standalone="no"?>
<!DOCTYPE svg PUBLIC "-//W3C//DTD SVG 1.1//EN"
 "http://www.w3.org/Graphics/SVG/1.1/DTD/svg11.dtd">
<!-- Generated by graphviz version 7.1.0 (20230121.1956)
 -->
<!-- Title: D Pages: 1 -->
<svg width="62pt" height="79pt"
 viewBox="0.00 0.00 62.00 79.00" xmlns="http://www.w3.org/2000/svg" xmlns:xlink="http://www.w3.org/1999/xlink">
<g id="graph0" class="graph" transform="scale(1 1) rotate(0) translate(4 75)">
<title>D</title>
<polygon fill="white" stroke="none" points="-4,4 -4,-75 58,-75 58,4 -4,4"/>
<!-- some_node -->
<g id="node1" class="node">
<title>some_node</title>
<polygon fill="yellow" stroke="none" points="13,-45.5 13,-66.5 41,-66.5 41,-45.5 13,-45.5"/>
<polygon fill="none" stroke="black" points="13,-45.5 13,-66.5 41,-66.5 41,-45.5 13,-45.5"/>
<text text-anchor="start" x="16" y="-52.3" font-family="Times,serif" font-size="14.00">Foo</text>
<polygon fill="lightblue" stroke="none" points="13,-24.5 13,-45.5 41,-45.5 41,-24.5 13,-24.5"/>
<polygon fill="none" stroke="black" points="13,-24.5 13,-45.5 41,-45.5 41,-24.5 13,-24.5"/>
<text text-anchor="start" x="17" y="-31.3" font-family="Times,serif" font-size="14.00" fill="#0000ff">Bar</text>
<polygon fill="#f0e3ff" stroke="none" points="13,-3.5 13,-24.5 41,-24.5 41,-3.5 13,-3.5"/>
<polygon fill="none" stroke="black" points="13,-3.5 13,-24.5 41,-24.5 41,-3.5 13,-3.5"/>
<text text-anchor="start" x="16" y="-10.3" font-family="Times,serif" font-size="14.00" fill="#ff1020">Baz</text>
</g>
</g>
</svg>
