<?xml version="1.0" encoding="UTF-8" standalone="no"?>
<!DOCTYPE svg PUBLIC "-//W3C//DTD SVG 1.1//EN"
 "http://www.w3.org/Graphics/SVG/1.1/DTD/svg11.dtd">
<!-- Generated by graphviz version 2.49.3 (20211023.0002)
 -->
<!-- Title: H Pages: 1 -->
<svg width="97pt" height="62pt"
 viewBox="0.00 0.00 97.00 62.00" xmlns="http://www.w3.org/2000/svg" xmlns:xlink="http://www.w3.org/1999/xlink">
<g id="graph0" class="graph" transform="scale(1 1) rotate(0) translate(4 58)">
<title>H</title>
<polygon fill="white" stroke="transparent" points="-4,4 -4,-58 93,-58 93,4 -4,4"/>
<!-- aHtmlTable -->
<g id="node1" class="node">
<title>aHtmlTable</title>
<text text-anchor="start" x="18.5" y="-33.8" font-family="Times,serif" font-size="14.00">col 1</text>
<text text-anchor="start" x="57.5" y="-33.8" font-family="Times,serif" font-size="14.00">foo</text>
<text text-anchor="start" x="13.5" y="-12.8" font-family="Times,serif" font-size="14.00">COL 2</text>
<text text-anchor="start" x="58" y="-12.8" font-family="Times,serif" font-size="14.00">bar</text>
<path fill="none" stroke="black" d="M20,-4C20,-4 69,-4 69,-4 75,-4 81,-10 81,-16 81,-16 81,-38 81,-38 81,-44 75,-50 69,-50 69,-50 20,-50 20,-50 14,-50 8,-44 8,-38 8,-38 8,-16 8,-16 8,-10 14,-4 20,-4"/>
</g>
</g>
</svg>
