<?xml version="1.0" encoding="UTF-8" standalone="no"?>
<!DOCTYPE svg PUBLIC "-//W3C//DTD SVG 1.1//EN"
 "http://www.w3.org/Graphics/SVG/1.1/DTD/svg11.dtd">
<!-- Generated by graphviz version 7.1.0 (20230121.1956)
 -->
<!-- Title: H Pages: 1 -->
<svg width="96pt" height="62pt"
 viewBox="0.00 0.00 96.00 62.00" xmlns="http://www.w3.org/2000/svg" xmlns:xlink="http://www.w3.org/1999/xlink">
<g id="graph0" class="graph" transform="scale(1 1) rotate(0) translate(4 58)">
<title>H</title>
<polygon fill="white" stroke="none" points="-4,4 -4,-58 92,-58 92,4 -4,4"/>
<!-- aHtmlTable -->
<g id="node1" class="node">
<title>aHtmlTable</title>
<text text-anchor="start" x="17.5" y="-33.8" font-family="Times,serif" font-size="14.00">col 1</text>
<text text-anchor="start" x="56" y="-33.8" font-family="Times,serif" font-size="14.00">foo</text>
<text text-anchor="start" x="13" y="-12.8" font-family="Times,serif" font-size="14.00">COL 2</text>
<text text-anchor="start" x="56.5" y="-12.8" font-family="Times,serif" font-size="14.00">bar</text>
<path fill="none" stroke="black" d="M20,-4C20,-4 68,-4 68,-4 74,-4 80,-10 80,-16 80,-16 80,-38 80,-38 80,-44 74,-50 68,-50 68,-50 20,-50 20,-50 14,-50 8,-44 8,-38 8,-38 8,-16 8,-16 8,-10 14,-4 20,-4"/>
</g>
</g>
</svg>
