<?xml version="1.0" encoding="UTF-8" standalone="no"?>
<!DOCTYPE svg PUBLIC "-//W3C//DTD SVG 1.1//EN"
 "http://www.w3.org/Graphics/SVG/1.1/DTD/svg11.dtd">
<!-- Generated by graphviz version 7.1.0 (20230121.1956)
 -->
<!-- Title: H Pages: 1 -->
<svg width="225pt" height="138pt"
 viewBox="0.00 0.00 225.00 138.00" xmlns="http://www.w3.org/2000/svg" xmlns:xlink="http://www.w3.org/1999/xlink">
<g id="graph0" class="graph" transform="scale(1 1) rotate(0) translate(4 134)">
<title>H</title>
<polygon fill="white" stroke="none" points="-4,4 -4,-134 221,-134 221,4 -4,4"/>
<!-- parent -->
<g id="node1" class="node">
<title>parent</title>
<polygon fill="none" stroke="black" points="11.5,-102 11.5,-123 206.5,-123 206.5,-102 11.5,-102"/>
<text text-anchor="start" x="32" y="-108.8" font-family="Times,serif" font-size="14.00">The foo, the bar and the baz</text>
<polygon fill="none" stroke="black" points="11.5,-79 11.5,-100 68.5,-100 68.5,-79 11.5,-79"/>
<text text-anchor="start" x="14.5" y="-85.8" font-family="Times,serif" font-size="14.00">First port</text>
<polygon fill="none" stroke="black" points="70.5,-79 70.5,-100 142.5,-100 142.5,-79 70.5,-79"/>
<text text-anchor="start" x="73.5" y="-85.8" font-family="Times,serif" font-size="14.00">Second port</text>
<polygon fill="none" stroke="black" points="144.5,-79 144.5,-100 206.5,-100 206.5,-79 144.5,-79"/>
<text text-anchor="start" x="147.5" y="-85.8" font-family="Times,serif" font-size="14.00">Third port</text>
<polygon fill="none" stroke="black" points="8,-76 8,-126 209,-126 209,-76 8,-76"/>
</g>
<!-- child_one -->
<g id="node2" class="node">
<title>child_one</title>
<text text-anchor="start" x="31.5" y="-13.8" font-family="Times,serif" font-size="14.00">1</text>
<polygon fill="none" stroke="black" points="26,-5.5 26,-30.5 43,-30.5 43,-5.5 26,-5.5"/>
</g>
<!-- parent&#45;&gt;child_one -->
<g id="edge1" class="edge">
<title>parent:port_one&#45;&gt;child_one</title>
<path fill="none" stroke="black" d="M39.5,-78C39.5,-67.84 38.75,-56.73 37.84,-46.92"/>
<polygon fill="black" stroke="black" points="41.35,-46.84 36.84,-37.26 34.39,-47.57 41.35,-46.84"/>
</g>
<!-- child_two -->
<g id="node3" class="node">
<title>child_two</title>
<text text-anchor="start" x="103.5" y="-13.8" font-family="Times,serif" font-size="14.00">2</text>
<polygon fill="none" stroke="black" points="98,-5.5 98,-30.5 115,-30.5 115,-5.5 98,-5.5"/>
</g>
<!-- parent&#45;&gt;child_two -->
<g id="edge2" class="edge">
<title>parent:port_two&#45;&gt;child_two</title>
<path fill="none" stroke="black" d="M106.5,-78C106.5,-67.99 106.5,-57.02 106.5,-47.29"/>
<polygon fill="black" stroke="black" points="110,-47.3 106.5,-37.3 103,-47.3 110,-47.3"/>
</g>
<!-- child_three -->
<g id="node4" class="node">
<title>child_three</title>
<text text-anchor="start" x="175.5" y="-13.8" font-family="Times,serif" font-size="14.00">3</text>
<polygon fill="none" stroke="black" points="170,-5.5 170,-30.5 187,-30.5 187,-5.5 170,-5.5"/>
</g>
<!-- parent&#45;&gt;child_three -->
<g id="edge3" class="edge">
<title>parent:port_three&#45;&gt;child_three</title>
<path fill="none" stroke="black" d="M175.5,-78C175.5,-67.86 175.95,-56.76 176.5,-46.95"/>
<polygon fill="black" stroke="black" points="179.97,-47.48 177.1,-37.28 172.98,-47.05 179.97,-47.48"/>
</g>
</g>
</svg>
