<?xml version="1.0" encoding="UTF-8" standalone="no"?>
<!DOCTYPE svg PUBLIC "-//W3C//DTD SVG 1.1//EN"
 "http://www.w3.org/Graphics/SVG/1.1/DTD/svg11.dtd">
<!-- Generated by graphviz version 2.49.3 (20211023.0002)
 -->
<!-- Title: H Pages: 1 -->
<svg width="230pt" height="138pt"
 viewBox="0.00 0.00 230.00 138.00" xmlns="http://www.w3.org/2000/svg" xmlns:xlink="http://www.w3.org/1999/xlink">
<g id="graph0" class="graph" transform="scale(1 1) rotate(0) translate(4 134)">
<title>H</title>
<polygon fill="white" stroke="transparent" points="-4,4 -4,-134 226,-134 226,4 -4,4"/>
<!-- parent -->
<g id="node1" class="node">
<title>parent</title>
<polygon fill="none" stroke="black" points="11,-102 11,-123 211,-123 211,-102 11,-102"/>
<text text-anchor="start" x="32.5" y="-108.8" font-family="Times,serif" font-size="14.00">The foo, the bar and the baz</text>
<polygon fill="none" stroke="black" points="11,-79 11,-100 69,-100 69,-79 11,-79"/>
<text text-anchor="start" x="14" y="-85.8" font-family="Times,serif" font-size="14.00">First port</text>
<polygon fill="none" stroke="black" points="71,-79 71,-100 145,-100 145,-79 71,-79"/>
<text text-anchor="start" x="74" y="-85.8" font-family="Times,serif" font-size="14.00">Second port</text>
<polygon fill="none" stroke="black" points="147,-79 147,-100 211,-100 211,-79 147,-79"/>
<text text-anchor="start" x="150" y="-85.8" font-family="Times,serif" font-size="14.00">Third port</text>
<polygon fill="none" stroke="black" points="8,-76 8,-126 214,-126 214,-76 8,-76"/>
</g>
<!-- child_one -->
<g id="node2" class="node">
<title>child_one</title>
<text text-anchor="start" x="32" y="-13.8" font-family="Times,serif" font-size="14.00">1</text>
<polygon fill="none" stroke="black" points="27,-5.5 27,-30.5 45,-30.5 45,-5.5 27,-5.5"/>
</g>
<!-- parent&#45;&gt;child_one -->
<g id="edge1" class="edge">
<title>parent:port_one&#45;&gt;child_one</title>
<path fill="none" stroke="black" d="M40,-78C40,-67.6 39.37,-56.18 38.62,-46.19"/>
<polygon fill="black" stroke="black" points="42.09,-45.69 37.77,-36.02 35.11,-46.28 42.09,-45.69"/>
</g>
<!-- child_two -->
<g id="node3" class="node">
<title>child_two</title>
<text text-anchor="start" x="104" y="-13.8" font-family="Times,serif" font-size="14.00">2</text>
<polygon fill="none" stroke="black" points="99,-5.5 99,-30.5 117,-30.5 117,-5.5 99,-5.5"/>
</g>
<!-- parent&#45;&gt;child_two -->
<g id="edge2" class="edge">
<title>parent:port_two&#45;&gt;child_two</title>
<path fill="none" stroke="black" d="M108,-78C108,-67.62 108,-56.21 108,-46.22"/>
<polygon fill="black" stroke="black" points="111.5,-46.04 108,-36.04 104.5,-46.04 111.5,-46.04"/>
</g>
<!-- child_three -->
<g id="node4" class="node">
<title>child_three</title>
<text text-anchor="start" x="176" y="-13.8" font-family="Times,serif" font-size="14.00">3</text>
<polygon fill="none" stroke="black" points="171,-5.5 171,-30.5 189,-30.5 189,-5.5 171,-5.5"/>
</g>
<!-- parent&#45;&gt;child_three -->
<g id="edge3" class="edge">
<title>parent:port_three&#45;&gt;child_three</title>
<path fill="none" stroke="black" d="M179,-78C179,-67.62 179.16,-56.21 179.35,-46.21"/>
<polygon fill="black" stroke="black" points="182.85,-46.11 179.56,-36.04 175.85,-45.96 182.85,-46.11"/>
</g>
</g>
</svg>
