<?xml version="1.0" encoding="UTF-8" standalone="no"?>
<!DOCTYPE svg PUBLIC "-//W3C//DTD SVG 1.1//EN"
 "http://www.w3.org/Graphics/SVG/1.1/DTD/svg11.dtd">
<!-- Generated by graphviz version 2.49.3 (20211023.0002)
 -->
<!-- Title: D Pages: 1 -->
<svg width="199pt" height="328pt"
 viewBox="0.00 0.00 198.50 328.00" xmlns="http://www.w3.org/2000/svg" xmlns:xlink="http://www.w3.org/1999/xlink">
<g id="graph0" class="graph" transform="scale(1 1) rotate(0) translate(4 324)">
<title>D</title>
<polygon fill="white" stroke="transparent" points="-4,4 -4,-324 194.5,-324 194.5,4 -4,4"/>
<!-- task_menu -->
<g id="node1" class="node">
<title>task_menu</title>
<text text-anchor="start" x="15" y="-306.1" font-family="Sans serif" font-weight="bold" font-size="8.00">Task 1</text>
<text text-anchor="start" x="15" y="-291.1" font-family="Sans serif" font-size="8.00">Choose Menu</text>
<text text-anchor="start" x="15" y="-277.1" font-family="Sans serif" font-size="8.00" fill="darkgreen">done</text>
<polygon fill="none" stroke="black" points="11,-271 11,-316 69,-316 69,-271 11,-271"/>
</g>
<!-- task_ingredients -->
<g id="node2" class="node">
<title>task_ingredients</title>
<text text-anchor="start" x="12" y="-217.1" font-family="Sans serif" font-weight="bold" font-size="8.00">Task 2</text>
<text text-anchor="start" x="12" y="-202.1" font-family="Sans serif" font-size="8.00">Buy ingredients</text>
<text text-anchor="start" x="12" y="-188.1" font-family="Sans serif" font-size="8.00" fill="darkgreen">done</text>
<polygon fill="none" stroke="black" points="8,-182 8,-227 72,-227 72,-182 8,-182"/>
</g>
<!-- task_menu&#45;&gt;task_ingredients -->
<g id="edge1" class="edge">
<title>task_menu&#45;&gt;task_ingredients</title>
<path fill="none" stroke="black" d="M40,-266.87C40,-258.89 40,-249.93 40,-241.38"/>
<polygon fill="black" stroke="black" points="43.5,-241.25 40,-231.25 36.5,-241.25 43.5,-241.25"/>
</g>
<!-- task_cook -->
<g id="node4" class="node">
<title>task_cook</title>
<text text-anchor="start" x="76" y="-128.1" font-family="Sans serif" font-weight="bold" font-size="8.00">Task 5</text>
<text text-anchor="start" x="76" y="-113.1" font-family="Sans serif" font-size="8.00">Cook</text>
<text text-anchor="start" x="76" y="-99.1" font-family="Sans serif" font-size="8.00" fill="red">todo</text>
<polygon fill="none" stroke="black" points="71.5,-93 71.5,-138 104.5,-138 104.5,-93 71.5,-93"/>
</g>
<!-- task_ingredients&#45;&gt;task_cook -->
<g id="edge2" class="edge">
<title>task_ingredients&#45;&gt;task_cook</title>
<path fill="none" stroke="black" d="M54.14,-177.87C58.74,-169.53 63.92,-160.14 68.82,-151.26"/>
<polygon fill="black" stroke="black" points="72.03,-152.7 73.79,-142.25 65.9,-149.31 72.03,-152.7"/>
</g>
<!-- task_invitation -->
<g id="node3" class="node">
<title>task_invitation</title>
<text text-anchor="start" x="111" y="-217.1" font-family="Sans serif" font-weight="bold" font-size="8.00">Task 4</text>
<text text-anchor="start" x="111" y="-202.1" font-family="Sans serif" font-size="8.00">Send invitation</text>
<text text-anchor="start" x="111" y="-188.1" font-family="Sans serif" font-size="8.00" fill="darkgreen">done</text>
<polygon fill="none" stroke="black" points="106.5,-182 106.5,-227 167.5,-227 167.5,-182 106.5,-182"/>
</g>
<!-- task_invitation&#45;&gt;task_cook -->
<g id="edge3" class="edge">
<title>task_invitation&#45;&gt;task_cook</title>
<path fill="none" stroke="black" d="M122.56,-177.87C117.82,-169.45 112.47,-159.95 107.42,-150.98"/>
<polygon fill="black" stroke="black" points="110.46,-149.25 102.5,-142.25 104.36,-152.68 110.46,-149.25"/>
</g>
<!-- task_eat -->
<g id="node6" class="node">
<title>task_eat</title>
<text text-anchor="start" x="113" y="-39.1" font-family="Sans serif" font-weight="bold" font-size="8.00">Task 6</text>
<text text-anchor="start" x="113" y="-24.1" font-family="Sans serif" font-size="8.00">Eat</text>
<text text-anchor="start" x="113" y="-10.1" font-family="Sans serif" font-size="8.00" fill="red">todo</text>
<polygon fill="none" stroke="black" points="108.5,-4 108.5,-49 141.5,-49 141.5,-4 108.5,-4"/>
</g>
<!-- task_cook&#45;&gt;task_eat -->
<g id="edge5" class="edge">
<title>task_cook&#45;&gt;task_eat</title>
<path fill="none" stroke="black" d="M98.9,-88.87C102.41,-80.62 106.36,-71.34 110.1,-62.54"/>
<polygon fill="black" stroke="black" points="113.36,-63.82 114.05,-53.25 106.91,-61.08 113.36,-63.82"/>
</g>
<!-- task_table -->
<g id="node5" class="node">
<title>task_table</title>
<text text-anchor="start" x="146" y="-128.1" font-family="Sans serif" font-weight="bold" font-size="8.00">Task 3</text>
<text text-anchor="start" x="146" y="-113.1" font-family="Sans serif" font-size="8.00">Lay table</text>
<text text-anchor="start" x="146" y="-99.1" font-family="Sans serif" font-size="8.00" fill="red">todo</text>
<polygon fill="none" stroke="black" points="141.5,-93 141.5,-138 182.5,-138 182.5,-93 141.5,-93"/>
</g>
<!-- task_table&#45;&gt;task_eat -->
<g id="edge4" class="edge">
<title>task_table&#45;&gt;task_eat</title>
<path fill="none" stroke="black" d="M151.1,-88.87C147.59,-80.62 143.64,-71.34 139.9,-62.54"/>
<polygon fill="black" stroke="black" points="143.09,-61.08 135.95,-53.25 136.64,-63.82 143.09,-61.08"/>
</g>
</g>
</svg>
