<?xml version="1.0" encoding="UTF-8" standalone="no"?>
<!DOCTYPE svg PUBLIC "-//W3C//DTD SVG 1.1//EN"
 "http://www.w3.org/Graphics/SVG/1.1/DTD/svg11.dtd">
<!-- Generated by graphviz version 7.1.0 (20230121.1956)
 -->
<!-- Title: D Pages: 1 -->
<svg width="198pt" height="328pt"
 viewBox="0.00 0.00 198.00 328.00" xmlns="http://www.w3.org/2000/svg" xmlns:xlink="http://www.w3.org/1999/xlink">
<g id="graph0" class="graph" transform="scale(1 1) rotate(0) translate(4 324)">
<title>D</title>
<polygon fill="white" stroke="none" points="-4,4 -4,-324 194,-324 194,4 -4,4"/>
<!-- task_menu -->
<g id="node1" class="node">
<title>task_menu</title>
<text text-anchor="start" x="14.5" y="-306.1" font-family="Sans serif" font-weight="bold" font-size="8.00">Task 1</text>
<text text-anchor="start" x="14.5" y="-291.1" font-family="Sans serif" font-size="8.00">Choose Menu</text>
<text text-anchor="start" x="14.5" y="-277.1" font-family="Sans serif" font-size="8.00" fill="darkgreen">done</text>
<polygon fill="none" stroke="black" points="10,-271 10,-316 69,-316 69,-271 10,-271"/>
</g>
<!-- task_ingredients -->
<g id="node2" class="node">
<title>task_ingredients</title>
<text text-anchor="start" x="12.5" y="-217.1" font-family="Sans serif" font-weight="bold" font-size="8.00">Task 2</text>
<text text-anchor="start" x="12.5" y="-202.1" font-family="Sans serif" font-size="8.00">Buy ingredients</text>
<text text-anchor="start" x="12.5" y="-188.1" font-family="Sans serif" font-size="8.00" fill="darkgreen">done</text>
<polygon fill="none" stroke="black" points="8,-182 8,-227 71,-227 71,-182 8,-182"/>
</g>
<!-- task_menu&#45;&gt;task_ingredients -->
<g id="edge1" class="edge">
<title>task_menu&#45;&gt;task_ingredients</title>
<path fill="none" stroke="black" d="M39.5,-267.34C39.5,-259.47 39.5,-250.62 39.5,-242.14"/>
<polygon fill="black" stroke="black" points="43,-242.42 39.5,-232.42 36,-242.42 43,-242.42"/>
</g>
<!-- task_cook -->
<g id="node4" class="node">
<title>task_cook</title>
<text text-anchor="start" x="75.5" y="-128.1" font-family="Sans serif" font-weight="bold" font-size="8.00">Task 5</text>
<text text-anchor="start" x="75.5" y="-113.1" font-family="Sans serif" font-size="8.00">Cook</text>
<text text-anchor="start" x="75.5" y="-99.1" font-family="Sans serif" font-size="8.00" fill="red">todo</text>
<polygon fill="none" stroke="black" points="71,-93 71,-138 104,-138 104,-93 71,-93"/>
</g>
<!-- task_ingredients&#45;&gt;task_cook -->
<g id="edge2" class="edge">
<title>task_ingredients&#45;&gt;task_cook</title>
<path fill="none" stroke="black" d="M53.38,-178.34C57.92,-170.11 63.05,-160.82 67.92,-151.98"/>
<polygon fill="black" stroke="black" points="70.98,-153.68 72.75,-143.23 64.85,-150.3 70.98,-153.68"/>
</g>
<!-- task_invitation -->
<g id="node3" class="node">
<title>task_invitation</title>
<text text-anchor="start" x="109.5" y="-217.1" font-family="Sans serif" font-weight="bold" font-size="8.00">Task 4</text>
<text text-anchor="start" x="109.5" y="-202.1" font-family="Sans serif" font-size="8.00">Send invitation</text>
<text text-anchor="start" x="109.5" y="-188.1" font-family="Sans serif" font-size="8.00" fill="darkgreen">done</text>
<polygon fill="none" stroke="black" points="105.5,-182 105.5,-227 165.5,-227 165.5,-182 105.5,-182"/>
</g>
<!-- task_invitation&#45;&gt;task_cook -->
<g id="edge3" class="edge">
<title>task_invitation&#45;&gt;task_cook</title>
<path fill="none" stroke="black" d="M121.62,-178.34C117.08,-170.11 111.95,-160.82 107.08,-151.98"/>
<polygon fill="black" stroke="black" points="110.15,-150.3 102.25,-143.23 104.02,-153.68 110.15,-150.3"/>
</g>
<!-- task_eat -->
<g id="node6" class="node">
<title>task_eat</title>
<text text-anchor="start" x="112.5" y="-39.1" font-family="Sans serif" font-weight="bold" font-size="8.00">Task 6</text>
<text text-anchor="start" x="112.5" y="-24.1" font-family="Sans serif" font-size="8.00">Eat</text>
<text text-anchor="start" x="112.5" y="-10.1" font-family="Sans serif" font-size="8.00" fill="red">todo</text>
<polygon fill="none" stroke="black" points="108,-4 108,-49 141,-49 141,-4 108,-4"/>
</g>
<!-- task_cook&#45;&gt;task_eat -->
<g id="edge5" class="edge">
<title>task_cook&#45;&gt;task_eat</title>
<path fill="none" stroke="black" d="M98.2,-89.34C101.66,-81.2 105.57,-72.02 109.29,-63.27"/>
<polygon fill="black" stroke="black" points="112.41,-64.87 113.1,-54.3 105.97,-62.13 112.41,-64.87"/>
</g>
<!-- task_table -->
<g id="node5" class="node">
<title>task_table</title>
<text text-anchor="start" x="145.5" y="-128.1" font-family="Sans serif" font-weight="bold" font-size="8.00">Task 3</text>
<text text-anchor="start" x="145.5" y="-113.1" font-family="Sans serif" font-size="8.00">Lay table</text>
<text text-anchor="start" x="145.5" y="-99.1" font-family="Sans serif" font-size="8.00" fill="red">todo</text>
<polygon fill="none" stroke="black" points="141,-93 141,-138 182,-138 182,-93 141,-93"/>
</g>
<!-- task_table&#45;&gt;task_eat -->
<g id="edge4" class="edge">
<title>task_table&#45;&gt;task_eat</title>
<path fill="none" stroke="black" d="M150.8,-89.34C147.34,-81.2 143.43,-72.02 139.71,-63.27"/>
<polygon fill="black" stroke="black" points="143.03,-62.13 135.9,-54.3 136.59,-64.87 143.03,-62.13"/>
</g>
</g>
</svg>
