<?xml version="1.0" encoding="UTF-8" standalone="no"?>
<!DOCTYPE svg PUBLIC "-//W3C//DTD SVG 1.1//EN"
 "http://www.w3.org/Graphics/SVG/1.1/DTD/svg11.dtd">
<!-- Generated by graphviz version 7.1.0 (20230121.1956)
 -->
<!-- Title: L Pages: 1 -->
<svg width="211pt" height="191pt"
 viewBox="0.00 0.00 211.00 191.00" xmlns="http://www.w3.org/2000/svg" xmlns:xlink="http://www.w3.org/1999/xlink">
<g id="graph0" class="graph" transform="scale(1 1) rotate(0) translate(4 187)">
<title>L</title>
<polygon fill="white" stroke="none" points="-4,4 -4,-187 207,-187 207,4 -4,4"/>
<!-- a -->
<g id="node1" class="node">
<title>a</title>
<polygon fill="none" stroke="black" points="0,-146.5 0,-182.5 203,-182.5 203,-146.5 0,-146.5"/>
<text text-anchor="middle" x="101.5" y="-160.8" font-family="Arial" font-size="14.00">onetwo threefour five six seven</text>
</g>
<!-- b -->
<g id="node2" class="node">
<title>b</title>
<polygon fill="none" stroke="black" points="0,-73.5 0,-109.5 203,-109.5 203,-73.5 0,-73.5"/>
<text text-anchor="middle" x="101.5" y="-87.8" font-family="Arial" font-size="14.00">onetwo threefour five six seven</text>
</g>
<!-- a&#45;&gt;b -->
<g id="edge1" class="edge">
<title>a&#45;&gt;b</title>
<path fill="none" stroke="black" d="M101.5,-146.67C101.5,-138.89 101.5,-129.44 101.5,-120.62"/>
<polygon fill="black" stroke="black" points="105,-120.72 101.5,-110.72 98,-120.72 105,-120.72"/>
</g>
<!-- c -->
<g id="node3" class="node">
<title>c</title>
<polygon fill="none" stroke="black" points="0,-0.5 0,-36.5 203,-36.5 203,-0.5 0,-0.5"/>
<text text-anchor="middle" x="101.5" y="-14.8" font-family="Arial" font-size="14.00">onetwo threefour five six seven</text>
</g>
<!-- b&#45;&gt;c -->
<g id="edge2" class="edge">
<title>b&#45;&gt;c</title>
<path fill="none" stroke="black" d="M101.5,-73.67C101.5,-65.89 101.5,-56.44 101.5,-47.62"/>
<polygon fill="black" stroke="black" points="105,-47.72 101.5,-37.72 98,-47.72 105,-47.72"/>
</g>
</g>
</svg>
