<?xml version="1.0" encoding="UTF-8" standalone="no"?>
<!DOCTYPE svg PUBLIC "-//W3C//DTD SVG 1.1//EN"
 "http://www.w3.org/Graphics/SVG/1.1/DTD/svg11.dtd">
<!-- Generated by graphviz version 2.49.3 (20211023.0002)
 -->
<!-- Title: L Pages: 1 -->
<svg width="137pt" height="242pt"
 viewBox="0.00 0.00 137.00 242.00" xmlns="http://www.w3.org/2000/svg" xmlns:xlink="http://www.w3.org/1999/xlink">
<g id="graph0" class="graph" transform="scale(1 1) rotate(0) translate(4 238)">
<title>L</title>
<polygon fill="white" stroke="transparent" points="-4,4 -4,-238 133,-238 133,4 -4,4"/>
<!-- a -->
<g id="node1" class="node">
<title>a</title>
<polygon fill="none" stroke="black" points="0,-180.5 0,-233.5 129,-233.5 129,-180.5 0,-180.5"/>
<text text-anchor="start" x="8" y="-218.3" font-family="Arial" font-size="14.00">one</text>
<text text-anchor="start" x="8" y="-203.3" font-family="Arial" font-size="14.00">two three</text>
<text text-anchor="start" x="8" y="-188.3" font-family="Arial" font-size="14.00">four five six seven</text>
</g>
<!-- b -->
<g id="node2" class="node">
<title>b</title>
<polygon fill="none" stroke="black" points="0,-90.5 0,-143.5 129,-143.5 129,-90.5 0,-90.5"/>
<text text-anchor="middle" x="64.5" y="-128.3" font-family="Arial" font-size="14.00">one</text>
<text text-anchor="middle" x="64.5" y="-113.3" font-family="Arial" font-size="14.00">two three</text>
<text text-anchor="middle" x="64.5" y="-98.3" font-family="Arial" font-size="14.00">four five six seven</text>
</g>
<!-- a&#45;&gt;b -->
<g id="edge1" class="edge">
<title>a&#45;&gt;b</title>
<path fill="none" stroke="black" d="M64.5,-180.07C64.5,-171.84 64.5,-162.58 64.5,-153.78"/>
<polygon fill="black" stroke="black" points="68,-153.74 64.5,-143.74 61,-153.74 68,-153.74"/>
</g>
<!-- c -->
<g id="node3" class="node">
<title>c</title>
<polygon fill="none" stroke="black" points="0,-0.5 0,-53.5 129,-53.5 129,-0.5 0,-0.5"/>
<text text-anchor="end" x="121" y="-38.3" font-family="Arial" font-size="14.00">one</text>
<text text-anchor="end" x="121" y="-23.3" font-family="Arial" font-size="14.00">two three</text>
<text text-anchor="end" x="121" y="-8.3" font-family="Arial" font-size="14.00">four five six seven</text>
</g>
<!-- b&#45;&gt;c -->
<g id="edge2" class="edge">
<title>b&#45;&gt;c</title>
<path fill="none" stroke="black" d="M64.5,-90.07C64.5,-81.84 64.5,-72.58 64.5,-63.78"/>
<polygon fill="black" stroke="black" points="68,-63.74 64.5,-53.74 61,-63.74 68,-63.74"/>
</g>
</g>
</svg>
