<?xml version="1.0" encoding="UTF-8" standalone="no"?>
<!DOCTYPE svg PUBLIC "-//W3C//DTD SVG 1.1//EN"
 "http://www.w3.org/Graphics/SVG/1.1/DTD/svg11.dtd">
<!-- Generated by graphviz version 7.1.0 (20230121.1956)
 -->
<!-- Title: D Pages: 1 -->
<svg width="134pt" height="172pt"
 viewBox="0.00 0.00 134.00 172.00" xmlns="http://www.w3.org/2000/svg" xmlns:xlink="http://www.w3.org/1999/xlink">
<g id="graph0" class="graph" transform="scale(1 1) rotate(0) translate(4 168)">
<title>D</title>
<polygon fill="white" stroke="none" points="-4,4 -4,-168 130,-168 130,4 -4,4"/>
<text text-anchor="start" x="39" y="-149.8" font-family="Times,serif" font-size="14.00">The </text>
<text text-anchor="start" x="64" y="-149.8" font-family="Times,serif" font-weight="bold" font-size="14.00" fill="red">foo</text>
<text text-anchor="start" x="83" y="-149.8" font-family="Times,serif" font-size="14.00">,</text>
<text text-anchor="start" x="25.5" y="-131" font-family="Times,serif" font-size="14.00"> the </text>
<text text-anchor="start" x="50.5" y="-131" font-family="Times,serif" font-size="20.00">bar</text>
<text text-anchor="start" x="76.5" y="-131" font-family="Times,serif" font-size="14.00"> and</text>
<text text-anchor="start" x="41" y="-115.8" font-family="Times,serif" font-size="14.00"> the </text>
<text text-anchor="start" x="66" y="-115.8" font-family="Times,serif" font-style="italic" font-size="14.00">baz</text>
<!-- FOO -->
<g id="node1" class="node">
<title>FOO</title>
<text text-anchor="middle" x="63" y="-86.3" font-family="Times,serif" font-size="14.00">FOO</text>
</g>
<!-- BAR -->
<g id="node2" class="node">
<title>BAR</title>
<text text-anchor="middle" x="27" y="-14.3" font-family="Times,serif" font-size="14.00">BAR</text>
</g>
<!-- FOO&#45;&gt;BAR -->
<g id="edge1" class="edge">
<title>FOO&#45;&gt;BAR</title>
<path fill="none" stroke="black" d="M54.29,-72.05C50.26,-64.23 45.38,-54.75 40.87,-45.98"/>
<polygon fill="black" stroke="black" points="44.01,-44.43 36.33,-37.13 37.79,-47.63 44.01,-44.43"/>
</g>
<!-- BAZ -->
<g id="node3" class="node">
<title>BAZ</title>
<text text-anchor="middle" x="99" y="-14.3" font-family="Times,serif" font-size="14.00">BAZ</text>
</g>
<!-- FOO&#45;&gt;BAZ -->
<g id="edge2" class="edge">
<title>FOO&#45;&gt;BAZ</title>
<path fill="none" stroke="black" d="M71.71,-72.05C75.74,-64.23 80.62,-54.75 85.13,-45.98"/>
<polygon fill="black" stroke="black" points="88.21,-47.63 89.67,-37.13 81.99,-44.43 88.21,-47.63"/>
</g>
</g>
</svg>
