<?xml version="1.0" encoding="UTF-8" standalone="no"?>
<!DOCTYPE svg PUBLIC "-//W3C//DTD SVG 1.1//EN"
 "http://www.w3.org/Graphics/SVG/1.1/DTD/svg11.dtd">
<!-- Generated by graphviz version 2.49.3 (20211023.0002)
 -->
<!-- Title: D Pages: 1 -->
<svg width="134pt" height="172pt"
 viewBox="0.00 0.00 134.00 172.00" xmlns="http://www.w3.org/2000/svg" xmlns:xlink="http://www.w3.org/1999/xlink">
<g id="graph0" class="graph" transform="scale(1 1) rotate(0) translate(4 168)">
<title>D</title>
<polygon fill="white" stroke="transparent" points="-4,4 -4,-168 130,-168 130,4 -4,4"/>
<text text-anchor="start" x="38.5" y="-149.8" font-family="Times,serif" font-size="14.00">The </text>
<text text-anchor="start" x="64.5" y="-149.8" font-family="Times,serif" font-weight="bold" font-size="14.00" fill="red">foo</text>
<text text-anchor="start" x="83.5" y="-149.8" font-family="Times,serif" font-size="14.00">,</text>
<text text-anchor="start" x="25.5" y="-131" font-family="Times,serif" font-size="14.00"> the </text>
<text text-anchor="start" x="50.5" y="-131" font-family="Times,serif" font-size="20.00">bar</text>
<text text-anchor="start" x="76.5" y="-131" font-family="Times,serif" font-size="14.00"> and</text>
<text text-anchor="start" x="40.5" y="-115.8" font-family="Times,serif" font-size="14.00"> the </text>
<text text-anchor="start" x="65.5" y="-115.8" font-family="Times,serif" font-style="italic" font-size="14.00">baz</text>
<!-- FOO -->
<g id="node1" class="node">
<title>FOO</title>
<text text-anchor="middle" x="63" y="-86.3" font-family="Times,serif" font-size="14.00">FOO</text>
</g>
<!-- BAR -->
<g id="node2" class="node">
<title>BAR</title>
<text text-anchor="middle" x="27" y="-14.3" font-family="Times,serif" font-size="14.00">BAR</text>
</g>
<!-- FOO&#45;&gt;BAR -->
<g id="edge1" class="edge">
<title>FOO&#45;&gt;BAR</title>
<path fill="none" stroke="black" d="M54.1,-71.7C50,-63.73 45.05,-54.1 40.51,-45.26"/>
<polygon fill="black" stroke="black" points="43.48,-43.4 35.8,-36.1 37.26,-46.6 43.48,-43.4"/>
</g>
<!-- BAZ -->
<g id="node3" class="node">
<title>BAZ</title>
<text text-anchor="middle" x="99" y="-14.3" font-family="Times,serif" font-size="14.00">BAZ</text>
</g>
<!-- FOO&#45;&gt;BAZ -->
<g id="edge2" class="edge">
<title>FOO&#45;&gt;BAZ</title>
<path fill="none" stroke="black" d="M71.9,-71.7C76,-63.73 80.95,-54.1 85.49,-45.26"/>
<polygon fill="black" stroke="black" points="88.74,-46.6 90.2,-36.1 82.52,-43.4 88.74,-46.6"/>
</g>
</g>
</svg>
