<?xml version="1.0" encoding="UTF-8" standalone="no"?>
<!DOCTYPE svg PUBLIC "-//W3C//DTD SVG 1.1//EN"
 "http://www.w3.org/Graphics/SVG/1.1/DTD/svg11.dtd">
<!-- Generated by graphviz version 2.49.3 (20211023.0002)
 -->
<!-- Title: R Pages: 1 -->
<svg width="206pt" height="260pt"
 viewBox="0.00 0.00 206.00 260.00" xmlns="http://www.w3.org/2000/svg" xmlns:xlink="http://www.w3.org/1999/xlink">
<g id="graph0" class="graph" transform="scale(1 1) rotate(0) translate(4 256)">
<title>R</title>
<polygon fill="white" stroke="transparent" points="-4,4 -4,-256 202,-256 202,4 -4,4"/>
<!-- rA -->
<g id="node1" class="node">
<title>rA</title>
<ellipse fill="none" stroke="black" cx="27" cy="-162" rx="27" ry="18"/>
<text text-anchor="middle" x="27" y="-158.3" font-family="Times,serif" font-size="14.00">rA</text>
</g>
<!-- sA -->
<g id="node2" class="node">
<title>sA</title>
<ellipse fill="none" stroke="black" cx="99" cy="-162" rx="27" ry="18"/>
<text text-anchor="middle" x="99" y="-158.3" font-family="Times,serif" font-size="14.00">sA</text>
</g>
<!-- rA&#45;&gt;sA -->
<g id="edge1" class="edge">
<title>rA&#45;&gt;sA</title>
<path fill="none" stroke="black" d="M54,-162C56.61,-162 59.23,-162 61.84,-162"/>
<polygon fill="black" stroke="black" points="61.93,-165.5 71.93,-162 61.93,-158.5 61.93,-165.5"/>
</g>
<!-- vB -->
<g id="node5" class="node">
<title>vB</title>
<ellipse fill="none" stroke="black" cx="99" cy="-90" rx="27" ry="18"/>
<text text-anchor="middle" x="99" y="-86.3" font-family="Times,serif" font-size="14.00">vB</text>
</g>
<!-- sA&#45;&gt;vB -->
<g id="edge2" class="edge">
<title>sA&#45;&gt;vB</title>
<path fill="none" stroke="black" d="M99,-143.7C99,-135.98 99,-126.71 99,-118.11"/>
<polygon fill="black" stroke="black" points="102.5,-118.1 99,-108.1 95.5,-118.1 102.5,-118.1"/>
</g>
<!-- tA -->
<g id="node3" class="node">
<title>tA</title>
<ellipse fill="none" stroke="black" cx="171" cy="-162" rx="27" ry="18"/>
<text text-anchor="middle" x="171" y="-158.3" font-family="Times,serif" font-size="14.00">tA</text>
</g>
<!-- uB -->
<g id="node4" class="node">
<title>uB</title>
<ellipse fill="none" stroke="black" cx="27" cy="-90" rx="27" ry="18"/>
<text text-anchor="middle" x="27" y="-86.3" font-family="Times,serif" font-size="14.00">uB</text>
</g>
<!-- uB&#45;&gt;vB -->
<g id="edge4" class="edge">
<title>uB&#45;&gt;vB</title>
<path fill="none" stroke="black" d="M54,-90C56.61,-90 59.23,-90 61.84,-90"/>
<polygon fill="black" stroke="black" points="61.93,-93.5 71.93,-90 61.93,-86.5 61.93,-93.5"/>
</g>
<!-- wB -->
<g id="node6" class="node">
<title>wB</title>
<ellipse fill="none" stroke="black" cx="171" cy="-90" rx="27" ry="18"/>
<text text-anchor="middle" x="171" y="-86.3" font-family="Times,serif" font-size="14.00">wB</text>
</g>
<!-- wB&#45;&gt;tA -->
<g id="edge6" class="edge">
<title>wB&#45;&gt;tA</title>
<path fill="none" stroke="black" d="M171,-108.1C171,-115.79 171,-125.05 171,-133.67"/>
<polygon fill="black" stroke="black" points="167.5,-133.7 171,-143.7 174.5,-133.7 167.5,-133.7"/>
</g>
<!-- u -->
<g id="node8" class="node">
<title>u</title>
<ellipse fill="none" stroke="black" cx="171" cy="-18" rx="27" ry="18"/>
<text text-anchor="middle" x="171" y="-14.3" font-family="Times,serif" font-size="14.00">u</text>
</g>
<!-- wB&#45;&gt;u -->
<g id="edge5" class="edge">
<title>wB&#45;&gt;u</title>
<path fill="none" stroke="black" d="M171,-71.7C171,-63.98 171,-54.71 171,-46.11"/>
<polygon fill="black" stroke="black" points="174.5,-46.1 171,-36.1 167.5,-46.1 174.5,-46.1"/>
</g>
<!-- t -->
<g id="node7" class="node">
<title>t</title>
<ellipse fill="none" stroke="black" cx="27" cy="-234" rx="27" ry="18"/>
<text text-anchor="middle" x="27" y="-230.3" font-family="Times,serif" font-size="14.00">t</text>
</g>
<!-- t&#45;&gt;rA -->
<g id="edge3" class="edge">
<title>t&#45;&gt;rA</title>
<path fill="none" stroke="black" d="M27,-215.7C27,-207.98 27,-198.71 27,-190.11"/>
<polygon fill="black" stroke="black" points="30.5,-190.1 27,-180.1 23.5,-190.1 30.5,-190.1"/>
</g>
</g>
</svg>
