<?xml version="1.0" encoding="UTF-8" standalone="no"?>
<!DOCTYPE svg PUBLIC "-//W3C//DTD SVG 1.1//EN"
 "http://www.w3.org/Graphics/SVG/1.1/DTD/svg11.dtd">
<!-- Generated by graphviz version 7.1.0 (20230121.1956)
 -->
<!-- Title: Q Pages: 1 -->
<svg width="421pt" height="260pt"
 viewBox="0.00 0.00 421.49 260.00" xmlns="http://www.w3.org/2000/svg" xmlns:xlink="http://www.w3.org/1999/xlink">
<g id="graph0" class="graph" transform="scale(1 1) rotate(0) translate(4 256)">
<title>Q</title>
<polygon fill="white" stroke="none" points="-4,4 -4,-256 417.49,-256 417.49,4 -4,4"/>
<g id="clust1" class="cluster">
<title>cluster_R</title>
<polygon fill="none" stroke="black" points="8,-64 8,-116 397,-116 397,-64 8,-64"/>
</g>
<!-- nd_1 -->
<g id="node1" class="node">
<title>nd_1</title>
<ellipse fill="none" stroke="black" cx="190" cy="-234" rx="36.29" ry="18"/>
<text text-anchor="middle" x="190" y="-230.3" font-family="Times,serif" font-size="14.00">Node 1</text>
</g>
<!-- nd_2 -->
<g id="node2" class="node">
<title>nd_2</title>
<ellipse fill="none" stroke="black" cx="190" cy="-162" rx="36.29" ry="18"/>
<text text-anchor="middle" x="190" y="-158.3" font-family="Times,serif" font-size="14.00">Node 2</text>
</g>
<!-- nd_1&#45;&gt;nd_2 -->
<g id="edge2" class="edge">
<title>nd_1&#45;&gt;nd_2</title>
<path fill="none" stroke="black" d="M190,-215.7C190,-208.41 190,-199.73 190,-191.54"/>
<polygon fill="black" stroke="black" points="193.5,-191.62 190,-181.62 186.5,-191.62 193.5,-191.62"/>
</g>
<!-- nd_3 -->
<g id="node5" class="node">
<title>nd_3</title>
<ellipse fill="none" stroke="black" cx="198" cy="-90" rx="36.29" ry="18"/>
<text text-anchor="middle" x="198" y="-86.3" font-family="Times,serif" font-size="14.00">Node 3</text>
</g>
<!-- nd_2&#45;&gt;nd_3 -->
<g id="edge3" class="edge">
<title>nd_2&#45;&gt;nd_3</title>
<path fill="none" stroke="black" d="M191.98,-143.7C192.81,-136.41 193.8,-127.73 194.74,-119.54"/>
<polygon fill="black" stroke="black" points="198.22,-119.94 195.87,-109.61 191.26,-119.15 198.22,-119.94"/>
</g>
<!-- nd_3_a -->
<g id="node3" class="node">
<title>nd_3_a</title>
<ellipse fill="none" stroke="black" cx="329" cy="-162" rx="84.49" ry="18"/>
<text text-anchor="middle" x="329" y="-158.3" font-family="Times,serif" font-size="14.00">Above Right Node 3</text>
</g>
<!-- nd_3_r -->
<g id="node6" class="node">
<title>nd_3_r</title>
<ellipse fill="none" stroke="black" cx="321" cy="-90" rx="68.49" ry="18"/>
<text text-anchor="middle" x="321" y="-86.3" font-family="Times,serif" font-size="14.00">Right of Node 3</text>
</g>
<!-- nd_3_a&#45;&gt;nd_3_r -->
<g id="edge1" class="edge">
<title>nd_3_a&#45;&gt;nd_3_r</title>
<path fill="none" stroke="black" d="M327.02,-143.7C326.19,-136.41 325.2,-127.73 324.26,-119.54"/>
<polygon fill="black" stroke="black" points="327.74,-119.15 323.13,-109.61 320.78,-119.94 327.74,-119.15"/>
</g>
<!-- nd_3_l -->
<g id="node4" class="node">
<title>nd_3_l</title>
<ellipse fill="none" stroke="black" cx="80" cy="-90" rx="63.89" ry="18"/>
<text text-anchor="middle" x="80" y="-86.3" font-family="Times,serif" font-size="14.00">Left of Node 3</text>
</g>
<!-- nd_3_l&#45;&gt;nd_3 -->
<g id="edge5" class="edge">
<title>nd_3_l&#45;&gt;nd_3</title>
<path fill="none" stroke="grey" d="M144.07,-90C149.83,-90 155.59,-90 161.34,-90"/>
</g>
<!-- nd_3&#45;&gt;nd_3_r -->
<g id="edge6" class="edge">
<title>nd_3&#45;&gt;nd_3_r</title>
<path fill="none" stroke="grey" d="M234.52,-90C240.37,-90 246.23,-90 252.08,-90"/>
</g>
<!-- nd_4 -->
<g id="node7" class="node">
<title>nd_4</title>
<ellipse fill="none" stroke="black" cx="198" cy="-18" rx="36.29" ry="18"/>
<text text-anchor="middle" x="198" y="-14.3" font-family="Times,serif" font-size="14.00">Node 4</text>
</g>
<!-- nd_3&#45;&gt;nd_4 -->
<g id="edge4" class="edge">
<title>nd_3&#45;&gt;nd_4</title>
<path fill="none" stroke="black" d="M198,-71.7C198,-64.41 198,-55.73 198,-47.54"/>
<polygon fill="black" stroke="black" points="201.5,-47.62 198,-37.62 194.5,-47.62 201.5,-47.62"/>
</g>
</g>
</svg>
