<?xml version="1.0" encoding="UTF-8" standalone="no"?>
<!DOCTYPE svg PUBLIC "-//W3C//DTD SVG 1.1//EN"
 "http://www.w3.org/Graphics/SVG/1.1/DTD/svg11.dtd">
<!-- Generated by graphviz version 2.49.3 (20211023.0002)
 -->
<!-- Title: Q Pages: 1 -->
<svg width="426pt" height="260pt"
 viewBox="0.00 0.00 426.44 260.00" xmlns="http://www.w3.org/2000/svg" xmlns:xlink="http://www.w3.org/1999/xlink">
<g id="graph0" class="graph" transform="scale(1 1) rotate(0) translate(4 256)">
<title>Q</title>
<polygon fill="white" stroke="transparent" points="-4,4 -4,-256 422.44,-256 422.44,4 -4,4"/>
<g id="clust1" class="cluster">
<title>cluster_R</title>
<polygon fill="none" stroke="black" points="8,-64 8,-116 402,-116 402,-64 8,-64"/>
</g>
<!-- nd_1 -->
<g id="node1" class="node">
<title>nd_1</title>
<ellipse fill="none" stroke="black" cx="191" cy="-234" rx="37.09" ry="18"/>
<text text-anchor="middle" x="191" y="-230.3" font-family="Times,serif" font-size="14.00">Node 1</text>
</g>
<!-- nd_2 -->
<g id="node2" class="node">
<title>nd_2</title>
<ellipse fill="none" stroke="black" cx="191" cy="-162" rx="37.09" ry="18"/>
<text text-anchor="middle" x="191" y="-158.3" font-family="Times,serif" font-size="14.00">Node 2</text>
</g>
<!-- nd_1&#45;&gt;nd_2 -->
<g id="edge2" class="edge">
<title>nd_1&#45;&gt;nd_2</title>
<path fill="none" stroke="black" d="M191,-215.7C191,-207.98 191,-198.71 191,-190.11"/>
<polygon fill="black" stroke="black" points="194.5,-190.1 191,-180.1 187.5,-190.1 194.5,-190.1"/>
</g>
<!-- nd_3 -->
<g id="node5" class="node">
<title>nd_3</title>
<ellipse fill="none" stroke="black" cx="199" cy="-90" rx="37.09" ry="18"/>
<text text-anchor="middle" x="199" y="-86.3" font-family="Times,serif" font-size="14.00">Node 3</text>
</g>
<!-- nd_2&#45;&gt;nd_3 -->
<g id="edge3" class="edge">
<title>nd_2&#45;&gt;nd_3</title>
<path fill="none" stroke="black" d="M192.98,-143.7C193.86,-135.98 194.92,-126.71 195.9,-118.11"/>
<polygon fill="black" stroke="black" points="199.39,-118.44 197.05,-108.1 192.43,-117.64 199.39,-118.44"/>
</g>
<!-- nd_3_a -->
<g id="node3" class="node">
<title>nd_3_a</title>
<ellipse fill="none" stroke="black" cx="332" cy="-162" rx="86.38" ry="18"/>
<text text-anchor="middle" x="332" y="-158.3" font-family="Times,serif" font-size="14.00">Above Right Node 3</text>
</g>
<!-- nd_3_r -->
<g id="node6" class="node">
<title>nd_3_r</title>
<ellipse fill="none" stroke="black" cx="324" cy="-90" rx="69.59" ry="18"/>
<text text-anchor="middle" x="324" y="-86.3" font-family="Times,serif" font-size="14.00">Right of Node 3</text>
</g>
<!-- nd_3_a&#45;&gt;nd_3_r -->
<g id="edge1" class="edge">
<title>nd_3_a&#45;&gt;nd_3_r</title>
<path fill="none" stroke="black" d="M330.02,-143.7C329.14,-135.98 328.08,-126.71 327.1,-118.11"/>
<polygon fill="black" stroke="black" points="330.57,-117.64 325.95,-108.1 323.61,-118.44 330.57,-117.64"/>
</g>
<!-- nd_3_l -->
<g id="node4" class="node">
<title>nd_3_l</title>
<ellipse fill="none" stroke="black" cx="80" cy="-90" rx="64.19" ry="18"/>
<text text-anchor="middle" x="80" y="-86.3" font-family="Times,serif" font-size="14.00">Left of Node 3</text>
</g>
<!-- nd_3_l&#45;&gt;nd_3 -->
<g id="edge5" class="edge">
<title>nd_3_l&#45;&gt;nd_3</title>
<path fill="none" stroke="grey" d="M144.61,-90C150.28,-90 155.94,-90 161.61,-90"/>
</g>
<!-- nd_3&#45;&gt;nd_3_r -->
<g id="edge6" class="edge">
<title>nd_3&#45;&gt;nd_3_r</title>
<path fill="none" stroke="grey" d="M236.11,-90C242.17,-90 248.24,-90 254.31,-90"/>
</g>
<!-- nd_4 -->
<g id="node7" class="node">
<title>nd_4</title>
<ellipse fill="none" stroke="black" cx="199" cy="-18" rx="37.09" ry="18"/>
<text text-anchor="middle" x="199" y="-14.3" font-family="Times,serif" font-size="14.00">Node 4</text>
</g>
<!-- nd_3&#45;&gt;nd_4 -->
<g id="edge4" class="edge">
<title>nd_3&#45;&gt;nd_4</title>
<path fill="none" stroke="black" d="M199,-71.7C199,-63.98 199,-54.71 199,-46.11"/>
<polygon fill="black" stroke="black" points="202.5,-46.1 199,-36.1 195.5,-46.1 202.5,-46.1"/>
</g>
</g>
</svg>
