<?xml version="1.0" encoding="UTF-8" standalone="no"?>
<!DOCTYPE svg PUBLIC "-//W3C//DTD SVG 1.1//EN"
 "http://www.w3.org/Graphics/SVG/1.1/DTD/svg11.dtd">
<!-- Generated by graphviz version 7.1.0 (20230121.1956)
 -->
<!-- Title: D Pages: 1 -->
<svg width="457pt" height="177pt"
 viewBox="0.00 0.00 457.00 177.00" xmlns="http://www.w3.org/2000/svg" xmlns:xlink="http://www.w3.org/1999/xlink">
<g id="graph0" class="graph" transform="scale(1 1) rotate(0) translate(4 173)">
<title>D</title>
<polygon fill="white" stroke="none" points="-4,4 -4,-173 453,-173 453,4 -4,4"/>
<g id="clust1" class="cluster">
<title>cluster_p</title>
<polygon fill="none" stroke="black" points="8,-8 8,-161 441,-161 441,-8 8,-8"/>
<text text-anchor="middle" x="224.5" y="-145.8" font-family="Times,serif" font-size="14.00">Parent</text>
</g>
<g id="clust2" class="cluster">
<title>cluster_c1</title>
<polygon fill="none" stroke="black" points="95,-16 95,-130 433,-130 433,-16 95,-16"/>
<text text-anchor="middle" x="264" y="-114.8" font-family="Times,serif" font-size="14.00">Child one</text>
</g>
<g id="clust3" class="cluster">
<title>cluster_gc_1</title>
<polygon fill="none" stroke="black" points="317,-24 317,-99 425,-99 425,-24 317,-24"/>
<text text-anchor="middle" x="371" y="-83.8" font-family="Times,serif" font-size="14.00">Grand&#45;Child one</text>
</g>
<g id="clust4" class="cluster">
<title>cluster_gc_2</title>
<polygon fill="none" stroke="black" points="167,-24 167,-99 309,-99 309,-24 167,-24"/>
<text text-anchor="middle" x="238" y="-83.8" font-family="Times,serif" font-size="14.00">Grand&#45;Child two</text>
</g>
<g id="clust5" class="cluster">
<title>cluster_c2</title>
<polygon fill="none" stroke="black" points="16,-24 16,-99 87,-99 87,-24 16,-24"/>
<text text-anchor="middle" x="51.5" y="-83.8" font-family="Times,serif" font-size="14.00">Child two</text>
</g>
<!-- a -->
<g id="node1" class="node">
<title>a</title>
<ellipse fill="none" stroke="black" cx="130" cy="-50" rx="27" ry="18"/>
<text text-anchor="middle" x="130" y="-46.3" font-family="Times,serif" font-size="14.00">a</text>
</g>
<!-- b -->
<g id="node2" class="node">
<title>b</title>
<ellipse fill="none" stroke="black" cx="371" cy="-50" rx="27" ry="18"/>
<text text-anchor="middle" x="371" y="-46.3" font-family="Times,serif" font-size="14.00">b</text>
</g>
<!-- c -->
<g id="node3" class="node">
<title>c</title>
<ellipse fill="none" stroke="black" cx="274" cy="-50" rx="27" ry="18"/>
<text text-anchor="middle" x="274" y="-46.3" font-family="Times,serif" font-size="14.00">c</text>
</g>
<!-- d -->
<g id="node4" class="node">
<title>d</title>
<ellipse fill="none" stroke="black" cx="202" cy="-50" rx="27" ry="18"/>
<text text-anchor="middle" x="202" y="-46.3" font-family="Times,serif" font-size="14.00">d</text>
</g>
<!-- e -->
<g id="node5" class="node">
<title>e</title>
<ellipse fill="none" stroke="black" cx="51" cy="-50" rx="27" ry="18"/>
<text text-anchor="middle" x="51" y="-46.3" font-family="Times,serif" font-size="14.00">e</text>
</g>
</g>
</svg>
