<?xml version="1.0" encoding="UTF-8" standalone="no"?>
<!DOCTYPE svg PUBLIC "-//W3C//DTD SVG 1.1//EN"
 "http://www.w3.org/Graphics/SVG/1.1/DTD/svg11.dtd">
<!-- Generated by graphviz version 2.49.3 (20211023.0002)
 -->
<!-- Title: D Pages: 1 -->
<svg width="461pt" height="177pt"
 viewBox="0.00 0.00 461.00 177.00" xmlns="http://www.w3.org/2000/svg" xmlns:xlink="http://www.w3.org/1999/xlink">
<g id="graph0" class="graph" transform="scale(1 1) rotate(0) translate(4 173)">
<title>D</title>
<polygon fill="white" stroke="transparent" points="-4,4 -4,-173 457,-173 457,4 -4,4"/>
<g id="clust1" class="cluster">
<title>cluster_p</title>
<polygon fill="none" stroke="black" points="8,-8 8,-161 445,-161 445,-8 8,-8"/>
<text text-anchor="middle" x="226.5" y="-145.8" font-family="Times,serif" font-size="14.00">Parent</text>
</g>
<g id="clust2" class="cluster">
<title>cluster_c1</title>
<polygon fill="none" stroke="black" points="96,-16 96,-130 437,-130 437,-16 96,-16"/>
<text text-anchor="middle" x="266.5" y="-114.8" font-family="Times,serif" font-size="14.00">Child one</text>
</g>
<g id="clust3" class="cluster">
<title>cluster_gc_1</title>
<polygon fill="none" stroke="black" points="318,-24 318,-99 429,-99 429,-24 318,-24"/>
<text text-anchor="middle" x="373.5" y="-83.8" font-family="Times,serif" font-size="14.00">Grand&#45;Child one</text>
</g>
<g id="clust4" class="cluster">
<title>cluster_gc_2</title>
<polygon fill="none" stroke="black" points="168,-24 168,-99 310,-99 310,-24 168,-24"/>
<text text-anchor="middle" x="239" y="-83.8" font-family="Times,serif" font-size="14.00">Grand&#45;Child two</text>
</g>
<g id="clust5" class="cluster">
<title>cluster_c2</title>
<polygon fill="none" stroke="black" points="16,-24 16,-99 88,-99 88,-24 16,-24"/>
<text text-anchor="middle" x="52" y="-83.8" font-family="Times,serif" font-size="14.00">Child two</text>
</g>
<!-- a -->
<g id="node1" class="node">
<title>a</title>
<ellipse fill="none" stroke="black" cx="131" cy="-50" rx="27" ry="18"/>
<text text-anchor="middle" x="131" y="-46.3" font-family="Times,serif" font-size="14.00">a</text>
</g>
<!-- b -->
<g id="node2" class="node">
<title>b</title>
<ellipse fill="none" stroke="black" cx="373" cy="-50" rx="27" ry="18"/>
<text text-anchor="middle" x="373" y="-46.3" font-family="Times,serif" font-size="14.00">b</text>
</g>
<!-- c -->
<g id="node3" class="node">
<title>c</title>
<ellipse fill="none" stroke="black" cx="275" cy="-50" rx="27" ry="18"/>
<text text-anchor="middle" x="275" y="-46.3" font-family="Times,serif" font-size="14.00">c</text>
</g>
<!-- d -->
<g id="node4" class="node">
<title>d</title>
<ellipse fill="none" stroke="black" cx="203" cy="-50" rx="27" ry="18"/>
<text text-anchor="middle" x="203" y="-46.3" font-family="Times,serif" font-size="14.00">d</text>
</g>
<!-- e -->
<g id="node5" class="node">
<title>e</title>
<ellipse fill="none" stroke="black" cx="52" cy="-50" rx="27" ry="18"/>
<text text-anchor="middle" x="52" y="-46.3" font-family="Times,serif" font-size="14.00">e</text>
</g>
</g>
</svg>
