<?xml version="1.0" encoding="UTF-8" standalone="no"?>
<!DOCTYPE svg PUBLIC "-//W3C//DTD SVG 1.1//EN"
 "http://www.w3.org/Graphics/SVG/1.1/DTD/svg11.dtd">
<!-- Generated by graphviz version 7.1.0 (20230121.1956)
 -->
<!-- Pages: 1 -->
<svg width="64pt" height="72pt"
 viewBox="0.00 0.00 64.01 72.00" xmlns="http://www.w3.org/2000/svg" xmlns:xlink="http://www.w3.org/1999/xlink">
<g id="graph0" class="graph" transform="scale(0.146645 0.146645) rotate(0) translate(4 486.98)">
<polygon fill="white" stroke="none" points="-4,4 -4,-486.98 432.5,-486.98 432.5,4 -4,4"/>
<!-- 9 -->
<g id="node1" class="node">
<title>9</title>
<ellipse fill="none" stroke="black" cx="18" cy="-392.98" rx="18" ry="18"/>
<text text-anchor="middle" x="18" y="-389.28" font-family="Times,serif" font-size="14.00">9</text>
</g>
<!-- 8 -->
<g id="node2" class="node">
<title>8</title>
<ellipse fill="none" stroke="black" cx="265" cy="-19.5" rx="18" ry="18"/>
<text text-anchor="middle" x="265" y="-15.8" font-family="Times,serif" font-size="14.00">8</text>
</g>
<!-- 7 -->
<g id="node3" class="node">
<title>7</title>
<ellipse fill="none" stroke="black" cx="354" cy="-94.49" rx="18" ry="18"/>
<text text-anchor="middle" x="354" y="-90.79" font-family="Times,serif" font-size="14.00">7</text>
</g>
<!-- 6 -->
<g id="node4" class="node">
<title>6</title>
<ellipse fill="none" stroke="black" cx="272" cy="-169.49" rx="18" ry="18"/>
<text text-anchor="middle" x="272" y="-165.79" font-family="Times,serif" font-size="14.00">6</text>
</g>
<!-- 5 -->
<g id="node5" class="node">
<title>5</title>
<ellipse fill="none" stroke="black" cx="271" cy="-319.48" rx="18" ry="18"/>
<text text-anchor="middle" x="271" y="-315.78" font-family="Times,serif" font-size="14.00">5</text>
</g>
<!-- 17 -->
<g id="node11" class="node">
<title>17</title>
<ellipse fill="none" stroke="black" cx="243" cy="-244.49" rx="19.5" ry="19.5"/>
<text text-anchor="middle" x="243" y="-240.79" font-family="Times,serif" font-size="14.00">17</text>
</g>
<!-- 5&#45;&gt;17 -->
<g id="edge1" class="edge">
<title>5&#45;&gt;17</title>
<path fill="none" stroke="black" d="M264.79,-302.28C261.03,-292.5 256.19,-279.87 252.02,-269"/>
<polygon fill="black" stroke="black" points="253.75,-268.63 250.33,-264.59 250.48,-269.88 253.75,-268.63"/>
</g>
<!-- 11 -->
<g id="node17" class="node">
<title>11</title>
<ellipse fill="none" stroke="black" cx="300" cy="-244.49" rx="19.5" ry="19.5"/>
<text text-anchor="middle" x="300" y="-240.79" font-family="Times,serif" font-size="14.00">11</text>
</g>
<!-- 5&#45;&gt;11 -->
<g id="edge2" class="edge">
<title>5&#45;&gt;11</title>
<path fill="none" stroke="black" d="M277.44,-302.28C281.32,-292.5 286.34,-279.87 290.66,-269"/>
<polygon fill="black" stroke="black" points="292.19,-269.88 292.41,-264.58 288.94,-268.58 292.19,-269.88"/>
</g>
<!-- 0 -->
<g id="node20" class="node">
<title>0</title>
<ellipse fill="none" stroke="black" cx="355" cy="-244.49" rx="18" ry="18"/>
<text text-anchor="middle" x="355" y="-240.79" font-family="Times,serif" font-size="14.00">0</text>
</g>
<!-- 5&#45;&gt;0 -->
<g id="edge3" class="edge">
<title>5&#45;&gt;0</title>
<path fill="none" stroke="black" d="M284.12,-307.08C298.34,-294.72 321.12,-274.93 337,-261.13"/>
<polygon fill="black" stroke="black" points="337.92,-262.65 340.55,-258.05 335.63,-260.01 337.92,-262.65"/>
</g>
<!-- 4 -->
<g id="node6" class="node">
<title>4</title>
<ellipse fill="none" stroke="black" cx="298" cy="-392.98" rx="18" ry="18"/>
<text text-anchor="middle" x="298" y="-389.28" font-family="Times,serif" font-size="14.00">4</text>
</g>
<!-- 4&#45;&gt;5 -->
<g id="edge4" class="edge">
<title>4&#45;&gt;5</title>
<path fill="none" stroke="black" d="M291.87,-375.76C288.18,-365.98 283.42,-353.38 279.38,-342.69"/>
<polygon fill="black" stroke="black" points="281.04,-342.12 277.64,-338.06 277.77,-343.36 281.04,-342.12"/>
</g>
<!-- 16 -->
<g id="node12" class="node">
<title>16</title>
<ellipse fill="none" stroke="black" cx="326" cy="-319.48" rx="19.5" ry="19.5"/>
<text text-anchor="middle" x="326" y="-315.78" font-family="Times,serif" font-size="14.00">16</text>
</g>
<!-- 4&#45;&gt;16 -->
<g id="edge5" class="edge">
<title>4&#45;&gt;16</title>
<path fill="none" stroke="black" d="M304.35,-375.76C308.02,-366.39 312.7,-354.44 316.77,-344.05"/>
<polygon fill="black" stroke="black" points="318.34,-344.85 318.53,-339.56 315.08,-343.57 318.34,-344.85"/>
</g>
<!-- 10 -->
<g id="node18" class="node">
<title>10</title>
<ellipse fill="none" stroke="black" cx="383" cy="-319.48" rx="19.5" ry="19.5"/>
<text text-anchor="middle" x="383" y="-315.78" font-family="Times,serif" font-size="14.00">10</text>
</g>
<!-- 4&#45;&gt;10 -->
<g id="edge6" class="edge">
<title>4&#45;&gt;10</title>
<path fill="none" stroke="black" d="M311.28,-380.81C325.33,-368.99 347.63,-350.23 363.64,-336.77"/>
<polygon fill="black" stroke="black" points="364.53,-338.31 367.23,-333.75 362.28,-335.63 364.53,-338.31"/>
</g>
<!-- 3 -->
<g id="node7" class="node">
<title>3</title>
<ellipse fill="none" stroke="black" cx="138" cy="-464.98" rx="18" ry="18"/>
<text text-anchor="middle" x="138" y="-461.28" font-family="Times,serif" font-size="14.00">3</text>
</g>
<!-- 3&#45;&gt;9 -->
<g id="edge7" class="edge">
<title>3&#45;&gt;9</title>
<path fill="none" stroke="black" d="M122.8,-455.12C101.55,-442.72 62.87,-420.16 38.92,-406.18"/>
<polygon fill="black" stroke="black" points="39.96,-404.77 34.76,-403.76 38.2,-407.79 39.96,-404.77"/>
</g>
<!-- 3&#45;&gt;4 -->
<g id="edge8" class="edge">
<title>3&#45;&gt;4</title>
<path fill="none" stroke="black" d="M154.52,-456.76C183.53,-444.06 243.64,-417.77 276.08,-403.57"/>
<polygon fill="black" stroke="black" points="276.54,-405.28 280.42,-401.67 275.14,-402.07 276.54,-405.28"/>
</g>
<!-- 15 -->
<g id="node13" class="node">
<title>15</title>
<ellipse fill="none" stroke="black" cx="111" cy="-94.49" rx="19.5" ry="19.5"/>
<text text-anchor="middle" x="111" y="-90.79" font-family="Times,serif" font-size="14.00">15</text>
</g>
<!-- 3&#45;&gt;15 -->
<g id="edge9" class="edge">
<title>3&#45;&gt;15</title>
<path fill="none" stroke="black" d="M133.57,-447.33C126.88,-420.73 115,-366.91 115,-320.48 115,-320.48 115,-320.48 115,-243.49 115,-200.24 113.27,-149.9 112.09,-120.48"/>
<polygon fill="black" stroke="black" points="113.84,-120.62 111.89,-115.69 110.35,-120.76 113.84,-120.62"/>
</g>
<!-- 2 -->
<g id="node8" class="node">
<title>2</title>
<ellipse fill="none" stroke="black" cx="207" cy="-94.49" rx="18" ry="18"/>
<text text-anchor="middle" x="207" y="-90.79" font-family="Times,serif" font-size="14.00">2</text>
</g>
<!-- 2&#45;&gt;8 -->
<g id="edge10" class="edge">
<title>2&#45;&gt;8</title>
<path fill="none" stroke="black" d="M217.91,-79.76C227.06,-68.24 240.22,-51.68 250.3,-38.99"/>
<polygon fill="black" stroke="black" points="251.46,-40.36 253.2,-35.35 248.72,-38.18 251.46,-40.36"/>
</g>
<!-- 2&#45;&gt;3 -->
<g id="edge11" class="edge">
<title>2&#45;&gt;3</title>
<path fill="none" stroke="black" d="M204.88,-112.78C201.68,-140.37 196,-196.08 196,-243.49 196,-320.48 196,-320.48 196,-320.48 196,-362.1 188.77,-372.9 172,-410.98 166.72,-422.97 158.94,-435.35 152.15,-445.12"/>
<polygon fill="black" stroke="black" points="150.84,-443.94 149.38,-449.03 153.7,-445.96 150.84,-443.94"/>
</g>
<!-- 19 -->
<g id="node9" class="node">
<title>19</title>
<ellipse fill="none" stroke="black" cx="96" cy="-19.5" rx="19.5" ry="19.5"/>
<text text-anchor="middle" x="96" y="-15.8" font-family="Times,serif" font-size="14.00">19</text>
</g>
<!-- 2&#45;&gt;19 -->
<g id="edge12" class="edge">
<title>2&#45;&gt;19</title>
<path fill="none" stroke="black" d="M192.03,-83.65C172.83,-71.02 139.39,-49.03 117.48,-34.62"/>
<polygon fill="black" stroke="black" points="118.57,-33.25 113.43,-31.96 116.65,-36.17 118.57,-33.25"/>
</g>
<!-- 18 -->
<g id="node10" class="node">
<title>18</title>
<ellipse fill="none" stroke="black" cx="153" cy="-19.5" rx="19.5" ry="19.5"/>
<text text-anchor="middle" x="153" y="-15.8" font-family="Times,serif" font-size="14.00">18</text>
</g>
<!-- 2&#45;&gt;18 -->
<g id="edge13" class="edge">
<title>2&#45;&gt;18</title>
<path fill="none" stroke="black" d="M196.59,-79.42C188.49,-68.47 177.14,-53.13 168.05,-40.85"/>
<polygon fill="black" stroke="black" points="169.59,-39.99 165.21,-37.01 166.78,-42.07 169.59,-39.99"/>
</g>
<!-- 14 -->
<g id="node14" class="node">
<title>14</title>
<ellipse fill="none" stroke="black" cx="210" cy="-19.5" rx="19.5" ry="19.5"/>
<text text-anchor="middle" x="210" y="-15.8" font-family="Times,serif" font-size="14.00">14</text>
</g>
<!-- 2&#45;&gt;14 -->
<g id="edge14" class="edge">
<title>2&#45;&gt;14</title>
<path fill="none" stroke="black" d="M207.71,-76.2C208.08,-67.13 208.55,-55.87 208.96,-45.84"/>
<polygon fill="black" stroke="black" points="210.7,-46.05 209.16,-40.98 207.2,-45.9 210.7,-46.05"/>
</g>
<!-- 19&#45;&gt;3 -->
<g id="edge15" class="edge">
<title>19&#45;&gt;3</title>
<path fill="none" stroke="black" d="M89.68,-38C80.35,-65.43 64,-120.39 64,-168.49 64,-320.48 64,-320.48 64,-320.48 64,-370.68 100.2,-420.86 121.97,-446.49"/>
<polygon fill="black" stroke="black" points="120.53,-447.5 125.12,-450.14 123.17,-445.21 120.53,-447.5"/>
</g>
<!-- 18&#45;&gt;3 -->
<g id="edge16" class="edge">
<title>18&#45;&gt;3</title>
<path fill="none" stroke="black" d="M154.04,-39.18C155.5,-67.25 158,-121.96 158,-168.49 158,-320.48 158,-320.48 158,-320.48 158,-363.33 149.14,-412.69 143.22,-440.93"/>
<polygon fill="black" stroke="black" points="141.51,-440.56 142.17,-445.82 144.93,-441.29 141.51,-440.56"/>
</g>
<!-- 15&#45;&gt;19 -->
<g id="edge17" class="edge">
<title>15&#45;&gt;19</title>
<path fill="none" stroke="black" d="M107.21,-75.07C105.35,-66 103.07,-54.92 101.06,-45.13"/>
<polygon fill="black" stroke="black" points="102.81,-44.94 100.09,-40.4 99.38,-45.64 102.81,-44.94"/>
</g>
<!-- 15&#45;&gt;18 -->
<g id="edge18" class="edge">
<title>15&#45;&gt;18</title>
<path fill="none" stroke="black" d="M120.53,-76.93C126.38,-66.76 133.95,-53.6 140.31,-42.56"/>
<polygon fill="black" stroke="black" points="141.78,-43.52 142.75,-38.31 138.74,-41.77 141.78,-43.52"/>
</g>
<!-- 13 -->
<g id="node15" class="node">
<title>13</title>
<ellipse fill="none" stroke="black" cx="409" cy="-94.49" rx="19.5" ry="19.5"/>
<text text-anchor="middle" x="409" y="-90.79" font-family="Times,serif" font-size="14.00">13</text>
</g>
<!-- 12 -->
<g id="node16" class="node">
<title>12</title>
<ellipse fill="none" stroke="black" cx="327" cy="-169.49" rx="19.5" ry="19.5"/>
<text text-anchor="middle" x="327" y="-165.79" font-family="Times,serif" font-size="14.00">12</text>
</g>
<!-- 1 -->
<g id="node19" class="node">
<title>1</title>
<ellipse fill="none" stroke="black" cx="382" cy="-169.49" rx="18" ry="18"/>
<text text-anchor="middle" x="382" y="-165.79" font-family="Times,serif" font-size="14.00">1</text>
</g>
<!-- 1&#45;&gt;7 -->
<g id="edge19" class="edge">
<title>1&#45;&gt;7</title>
<path fill="none" stroke="black" d="M375.79,-152.29C371.87,-142.08 366.76,-128.77 362.48,-117.6"/>
<polygon fill="black" stroke="black" points="364.16,-117.1 360.74,-113.06 360.9,-118.36 364.16,-117.1"/>
</g>
<!-- 1&#45;&gt;2 -->
<g id="edge20" class="edge">
<title>1&#45;&gt;2</title>
<path fill="none" stroke="black" d="M367.84,-157.82C363.81,-155.06 359.34,-152.24 355,-149.99 312.98,-128.29 260.29,-111.07 230.46,-102.16"/>
<polygon fill="black" stroke="black" points="231.19,-100.55 225.9,-100.81 230.2,-103.9 231.19,-100.55"/>
</g>
<!-- 1&#45;&gt;13 -->
<g id="edge21" class="edge">
<title>1&#45;&gt;13</title>
<path fill="none" stroke="black" d="M387.99,-152.29C391.61,-142.51 396.28,-129.88 400.3,-119.01"/>
<polygon fill="black" stroke="black" points="401.84,-119.9 401.93,-114.6 398.56,-118.68 401.84,-119.9"/>
</g>
<!-- 0&#45;&gt;6 -->
<g id="edge22" class="edge">
<title>0&#45;&gt;6</title>
<path fill="none" stroke="black" d="M341.66,-231.76C327.63,-219.41 305.45,-199.91 289.9,-186.23"/>
<polygon fill="black" stroke="black" points="291.35,-185.18 286.44,-183.19 289.04,-187.81 291.35,-185.18"/>
</g>
<!-- 0&#45;&gt;12 -->
<g id="edge23" class="edge">
<title>0&#45;&gt;12</title>
<path fill="none" stroke="black" d="M348.79,-227.29C345.03,-217.51 340.19,-204.87 336.02,-194.01"/>
<polygon fill="black" stroke="black" points="337.75,-193.63 334.33,-189.59 334.48,-194.89 337.75,-193.63"/>
</g>
<!-- 0&#45;&gt;1 -->
<g id="edge24" class="edge">
<title>0&#45;&gt;1</title>
<path fill="none" stroke="black" d="M360.99,-227.29C364.74,-217.15 369.62,-203.95 373.74,-192.83"/>
<polygon fill="black" stroke="black" points="375.31,-193.61 375.41,-188.32 372.03,-192.4 375.31,-193.61"/>
</g>
</g>
</svg>
