<svg xmlns="http://www.w3.org/2000/svg" xmlns:xlink="http://www.w3.org/1999/xlink" width="445" height="500" viewBox="-0.4457 -0.5000 0.8914 1.0"><style>svg {
  color-scheme: light dark;
}
{
  .canvas g, .title g, .axisbar g, .ticktext g, .tickglyph g, .ticklines g, .legendContent g text {
    fill: rgb(5%, 5%, 5%);
  }
  .ticklines g, .tickglyph g, .legendBorder g {
    stroke: rgb(5%, 5%, 5%);
  }
  .legendBorder g {
    fill: rgb(94%, 94%, 94%);
  }
}
@media (prefers-color-scheme:dark) {
  .canvas g, .title g, .axisbar g, .ticktext g, .tickglyph g, .ticklines g, .legendContent g text {
    fill: rgb(94%, 94%, 94%);
  }
  .ticklines g, .tickglyph g, .legendBorder g {
    stroke: rgb(94%, 94%, 94%);
  }
  .legendBorder g {
    fill: rgb(5%, 5%, 5%);
  }
}
svg { font-family: system-ui,-apple-system,"Segoe UI",Roboto,"Helvetica Neue",Arial,"Noto Sans","Liberation Sans",sans-serif,"Apple Color Emoji","Segoe UI Emoji","Segoe UI Symbol","Noto Color Emoji";
}

ticktext { font-family: SFMono-Regular,Menlo,Monaco,Consolas,"Liberation Mono","Courier New",monospace;
}

</style><g class="chart"><g class="edges"><g stroke-width="0.0020" stroke="rgb(40%, 40%, 40%)" stroke-opacity="0.8" fill="rgb(0%, 0%, 0%)" fill-opacity="0"><path d="M 0.3022,0.0262 C 0.3103,0.0477 0.3210,0.0761 0.3299,0.0997 L 0.3344,0.1116"/></g><g stroke-width="0.0020" stroke="rgb(40%, 40%, 40%)" stroke-opacity="0.8" fill="rgb(0%, 0%, 0%)" fill-opacity="0"><path d="M 0.2630,0.0170 C 0.2340,0.0427 0.1874,0.0838 0.1550,0.1125 L 0.1455,0.1209"/></g><g stroke-width="0.0020" stroke="rgb(40%, 40%, 40%)" stroke-opacity="0.8" fill="rgb(0%, 0%, 0%)" fill-opacity="0"><path d="M 0.2774,0.0262 C 0.2697,0.0465 0.2598,0.0729 0.2512,0.0957 L 0.2466,0.1078"/></g><g stroke-width="0.0020" stroke="rgb(40%, 40%, 40%)" stroke-opacity="0.8" fill="rgb(0%, 0%, 0%)" fill-opacity="0"><path d="M 0.3187,0.1712 C 0.3103,0.1772 0.3010,0.1833 0.2918,0.1881 C 0.2036,0.2342 0.0923,0.2696 0.0298,0.2875 L 0.0172,0.2911"/></g><g stroke-width="0.0020" stroke="rgb(40%, 40%, 40%)" stroke-opacity="0.8" fill="rgb(0%, 0%, 0%)" fill-opacity="0"><path d="M 0.3345,0.1819 C 0.3264,0.2034 0.3157,0.2318 0.3068,0.2554 L 0.3024,0.2673"/></g><g stroke-width="0.0020" stroke="rgb(40%, 40%, 40%)" stroke-opacity="0.8" fill="rgb(0%, 0%, 0%)" fill-opacity="0"><path d="M 0.3594,0.1819 C 0.3670,0.2022 0.3770,0.2286 0.3855,0.2514 L 0.3901,0.2636"/></g><g stroke-width="0.0020" stroke="rgb(40%, 40%, 40%)" stroke-opacity="0.8" fill="rgb(0%, 0%, 0%)" fill-opacity="0"><path d="M -0.0227,0.2657 C -0.0292,0.2087 -0.0410,0.0923 -0.0410,-0.0067 C -0.0410,-0.1664 -0.0410,-0.1664 -0.0410,-0.1664 C -0.0410,-0.2519 -0.0545,-0.2747 -0.0900,-0.3525 C -0.1012,-0.3773 -0.1181,-0.4026 -0.1328,-0.4224 L -0.1407,-0.4329"/></g><g stroke-width="0.0020" stroke="rgb(40%, 40%, 40%)" stroke-opacity="0.8" fill="rgb(0%, 0%, 0%)" fill-opacity="0"><path d="M 0.0041,0.3318 C 0.0247,0.3564 0.0551,0.3928 0.0777,0.4200 L 0.0856,0.4295"/></g><g stroke-width="0.0020" stroke="rgb(40%, 40%, 40%)" stroke-opacity="0.8" fill="rgb(0%, 0%, 0%)" fill-opacity="0"><path d="M -0.0157,0.3399 C -0.0141,0.3589 -0.0122,0.3827 -0.0105,0.4038 L -0.0095,0.4166"/></g><g stroke-width="0.0020" stroke="rgb(40%, 40%, 40%)" stroke-opacity="0.8" fill="rgb(0%, 0%, 0%)" fill-opacity="0"><path d="M -0.0390,0.3340 C -0.0547,0.3564 -0.0766,0.3877 -0.0944,0.4131 L -0.1017,0.4235"/></g><g stroke-width="0.0020" stroke="rgb(40%, 40%, 40%)" stroke-opacity="0.8" fill="rgb(0%, 0%, 0%)" fill-opacity="0"><path d="M -0.0488,0.3252 C -0.0874,0.3513 -0.1545,0.3966 -0.1989,0.4265 L -0.2096,0.4338"/></g><g stroke-width="0.0020" stroke="rgb(40%, 40%, 40%)" stroke-opacity="0.8" fill="rgb(0%, 0%, 0%)" fill-opacity="0"><path d="M -0.1299,-0.4465 C -0.0691,-0.4207 0.0593,-0.3662 0.1279,-0.3371 L 0.1400,-0.3320"/></g><g stroke-width="0.0020" stroke="rgb(40%, 40%, 40%)" stroke-opacity="0.8" fill="rgb(0%, 0%, 0%)" fill-opacity="0"><path d="M -0.1945,-0.4426 C -0.2379,-0.4173 -0.3168,-0.3712 -0.3658,-0.3427 L -0.3769,-0.3362"/></g><g stroke-width="0.0020" stroke="rgb(40%, 40%, 40%)" stroke-opacity="0.8" fill="rgb(0%, 0%, 0%)" fill-opacity="0"><path d="M -0.1717,-0.4265 C -0.1842,-0.3719 -0.2063,-0.2614 -0.2063,-0.1664 C -0.2063,-0.1664 -0.2063,-0.1664 -0.2063,-0.0067 C -0.2063,0.0827 -0.2107,0.1865 -0.2137,0.2478 L -0.2144,0.2609"/></g><g stroke-width="0.0020" stroke="rgb(40%, 40%, 40%)" stroke-opacity="0.8" fill="rgb(0%, 0%, 0%)" fill-opacity="0"><path d="M 0.1604,-0.2803 C 0.1525,-0.2599 0.1423,-0.2337 0.1338,-0.2116 L 0.1292,-0.1997"/></g><g stroke-width="0.0020" stroke="rgb(40%, 40%, 40%)" stroke-opacity="0.8" fill="rgb(0%, 0%, 0%)" fill-opacity="0"><path d="M 0.2008,-0.2907 C 0.2297,-0.2665 0.2754,-0.2282 0.3084,-0.2005 L 0.3182,-0.1923"/></g><g stroke-width="0.0020" stroke="rgb(40%, 40%, 40%)" stroke-opacity="0.8" fill="rgb(0%, 0%, 0%)" fill-opacity="0"><path d="M 0.1864,-0.2803 C 0.1938,-0.2613 0.2031,-0.2371 0.2114,-0.2159 L 0.2160,-0.2039"/></g><g stroke-width="0.0020" stroke="rgb(40%, 40%, 40%)" stroke-opacity="0.8" fill="rgb(0%, 0%, 0%)" fill-opacity="0"><path d="M 0.1434,-0.1387 C 0.1729,-0.1129 0.2203,-0.0714 0.2532,-0.0427 L 0.2628,-0.0343"/></g><g stroke-width="0.0020" stroke="rgb(40%, 40%, 40%)" stroke-opacity="0.8" fill="rgb(0%, 0%, 0%)" fill-opacity="0"><path d="M 0.1291,-0.1295 C 0.1370,-0.1092 0.1473,-0.0828 0.1562,-0.0600 L 0.1609,-0.0478"/></g><g stroke-width="0.0020" stroke="rgb(40%, 40%, 40%)" stroke-opacity="0.8" fill="rgb(0%, 0%, 0%)" fill-opacity="0"><path d="M 0.1034,-0.1295 C 0.0955,-0.1092 0.0852,-0.0828 0.0763,-0.0600 L 0.0715,-0.0478"/></g><g stroke-width="0.0020" stroke="rgb(40%, 40%, 40%)" stroke-opacity="0.8" fill="rgb(0%, 0%, 0%)" fill-opacity="0"><path d="M -0.1957,0.3391 C -0.1828,0.3605 -0.1660,0.3881 -0.1520,0.4112 L -0.1454,0.4221"/></g><g stroke-width="0.0020" stroke="rgb(40%, 40%, 40%)" stroke-opacity="0.8" fill="rgb(0%, 0%, 0%)" fill-opacity="0"><path d="M -0.2234,0.3438 C -0.2266,0.3622 -0.2305,0.3845 -0.2340,0.4043 L -0.2362,0.4169"/></g><g stroke-width="0.0020" stroke="rgb(40%, 40%, 40%)" stroke-opacity="0.8" fill="rgb(0%, 0%, 0%)" fill-opacity="0"><path d="M -0.1234,0.4166 C -0.1216,0.3580 -0.1185,0.2451 -0.1185,0.1490 C -0.1185,-0.1664 -0.1185,-0.1664 -0.1185,-0.1664 C -0.1185,-0.2548 -0.1386,-0.3565 -0.1519,-0.4142 L -0.1548,-0.4265"/></g><g stroke-width="0.0020" stroke="rgb(40%, 40%, 40%)" stroke-opacity="0.8" fill="rgb(0%, 0%, 0%)" fill-opacity="0"><path d="M -0.2575,0.4191 C -0.2784,0.3620 -0.3145,0.2487 -0.3145,0.1490 C -0.3145,-0.1664 -0.3145,-0.1664 -0.3145,-0.1664 C -0.3145,-0.2693 -0.2406,-0.3722 -0.1962,-0.4248 L -0.1877,-0.4346"/></g></g><g class="shapes"><g stroke-width="0.0010" stroke="rgb(40%, 40%, 40%)" stroke-opacity="0.8" fill="rgb(50%, 50%, 50%)" fill-opacity="0.2"><circle cx="0.2898" cy="-0.0087" r="0.0367"/></g><g stroke-width="0.0010" stroke="rgb(40%, 40%, 40%)" stroke-opacity="0.8" fill="rgb(50%, 50%, 50%)" fill-opacity="0.2"><circle cx="0.3469" cy="0.1470" r="0.0367"/></g><g stroke-width="0.0010" stroke="rgb(40%, 40%, 40%)" stroke-opacity="0.8" fill="rgb(50%, 50%, 50%)" fill-opacity="0.2"><circle cx="-0.0185" cy="0.3027" r="0.0367"/></g><g stroke-width="0.0010" stroke="rgb(40%, 40%, 40%)" stroke-opacity="0.8" fill="rgb(50%, 50%, 50%)" fill-opacity="0.2"><circle cx="-0.1635" cy="-0.4627" r="0.0367"/></g><g stroke-width="0.0010" stroke="rgb(40%, 40%, 40%)" stroke-opacity="0.8" fill="rgb(50%, 50%, 50%)" fill-opacity="0.2"><circle cx="0.1734" cy="-0.3157" r="0.0367"/></g><g stroke-width="0.0010" stroke="rgb(40%, 40%, 40%)" stroke-opacity="0.8" fill="rgb(50%, 50%, 50%)" fill-opacity="0.2"><circle cx="0.1162" cy="-0.1644" r="0.0367"/></g><g stroke-width="0.0010" stroke="rgb(40%, 40%, 40%)" stroke-opacity="0.8" fill="rgb(50%, 50%, 50%)" fill-opacity="0.2"><circle cx="0.1183" cy="0.1470" r="0.0367"/></g><g stroke-width="0.0010" stroke="rgb(40%, 40%, 40%)" stroke-opacity="0.8" fill="rgb(50%, 50%, 50%)" fill-opacity="0.2"><circle cx="0.2898" cy="0.3027" r="0.0367"/></g><g stroke-width="0.0010" stroke="rgb(40%, 40%, 40%)" stroke-opacity="0.8" fill="rgb(50%, 50%, 50%)" fill-opacity="0.2"><circle cx="0.1081" cy="0.4584" r="0.0367"/></g><g stroke-width="0.0010" stroke="rgb(40%, 40%, 40%)" stroke-opacity="0.8" fill="rgb(50%, 50%, 50%)" fill-opacity="0.2"><circle cx="-0.4085" cy="-0.3157" r="0.0367"/></g><g stroke-width="0.0010" stroke="rgb(40%, 40%, 40%)" stroke-opacity="0.8" fill="rgb(50%, 50%, 50%)" fill-opacity="0.2"><circle cx="0.3490" cy="-0.1644" r="0.0411"/></g><g stroke-width="0.0010" stroke="rgb(40%, 40%, 40%)" stroke-opacity="0.8" fill="rgb(50%, 50%, 50%)" fill-opacity="0.2"><circle cx="0.1754" cy="-0.0087" r="0.0411"/></g><g stroke-width="0.0010" stroke="rgb(40%, 40%, 40%)" stroke-opacity="0.8" fill="rgb(50%, 50%, 50%)" fill-opacity="0.2"><circle cx="0.2326" cy="0.1470" r="0.0411"/></g><g stroke-width="0.0010" stroke="rgb(40%, 40%, 40%)" stroke-opacity="0.8" fill="rgb(50%, 50%, 50%)" fill-opacity="0.2"><circle cx="0.4041" cy="0.3027" r="0.0411"/></g><g stroke-width="0.0010" stroke="rgb(40%, 40%, 40%)" stroke-opacity="0.8" fill="rgb(50%, 50%, 50%)" fill-opacity="0.2"><circle cx="-0.0063" cy="0.4584" r="0.0411"/></g><g stroke-width="0.0010" stroke="rgb(40%, 40%, 40%)" stroke-opacity="0.8" fill="rgb(50%, 50%, 50%)" fill-opacity="0.2"><circle cx="-0.2165" cy="0.3027" r="0.0411"/></g><g stroke-width="0.0010" stroke="rgb(40%, 40%, 40%)" stroke-opacity="0.8" fill="rgb(50%, 50%, 50%)" fill-opacity="0.2"><circle cx="0.2306" cy="-0.1644" r="0.0411"/></g><g stroke-width="0.0010" stroke="rgb(40%, 40%, 40%)" stroke-opacity="0.8" fill="rgb(50%, 50%, 50%)" fill-opacity="0.2"><circle cx="0.0570" cy="-0.0087" r="0.0411"/></g><g stroke-width="0.0010" stroke="rgb(40%, 40%, 40%)" stroke-opacity="0.8" fill="rgb(50%, 50%, 50%)" fill-opacity="0.2"><circle cx="-0.1247" cy="0.4584" r="0.0411"/></g><g stroke-width="0.0010" stroke="rgb(40%, 40%, 40%)" stroke-opacity="0.8" fill="rgb(50%, 50%, 50%)" fill-opacity="0.2"><circle cx="-0.2431" cy="0.4584" r="0.0411"/></g></g><g class="labels"><g stroke-width="0.0" stroke="none" fill="rgb(40%, 40%, 40%)" fill-opacity="0.8" font-size="0.0327" text-anchor="middle"><text x="0.2898" y="0.0035">0</text><text x="0.3469" y="0.1592">1</text><text x="-0.0185" y="0.3149">2</text><text x="-0.1635" y="-0.4505">3</text><text x="0.1734" y="-0.3035">4</text><text x="0.1162" y="-0.1522">5</text><text x="0.1183" y="0.1592">6</text><text x="0.2898" y="0.3149">7</text><text x="0.1081" y="0.4706">8</text><text x="-0.4085" y="-0.3035">9</text><text x="0.3490" y="-0.1522">10</text><text x="0.1754" y="0.0035">11</text><text x="0.2326" y="0.1592">12</text><text x="0.4041" y="0.3149">13</text><text x="-0.0063" y="0.4706">14</text><text x="-0.2165" y="0.3149">15</text><text x="0.2306" y="-0.1522">16</text><text x="0.0570" y="0.0035">17</text><text x="-0.1247" y="0.4706">18</text><text x="-0.2431" y="0.4706">19</text></g></g></g><g class="hud"></g></svg>