<svg xmlns="http://www.w3.org/2000/svg" xmlns:xlink="http://www.w3.org/1999/xlink" width="499" height="500" viewBox="-20.3878 -20.3887 40.7756 40.7774"><style>svg {
  color-scheme: light dark;
}
{
  .canvas g, .title g, .axisbar g, .ticktext g, .tickglyph g, .ticklines g, .legendContent g text {
    fill: rgb(5%, 5%, 5%);
  }
  .ticklines g, .tickglyph g, .legendBorder g {
    stroke: rgb(5%, 5%, 5%);
  }
  .legendBorder g {
    fill: rgb(94%, 94%, 94%);
  }
}
@media (prefers-color-scheme:dark) {
  .canvas g, .title g, .axisbar g, .ticktext g, .tickglyph g, .ticklines g, .legendContent g text {
    fill: rgb(94%, 94%, 94%);
  }
  .ticklines g, .tickglyph g, .legendBorder g {
    stroke: rgb(94%, 94%, 94%);
  }
  .legendBorder g {
    fill: rgb(5%, 5%, 5%);
  }
}
svg { font-family: system-ui,-apple-system,"Segoe UI",Roboto,"Helvetica Neue",Arial,"Noto Sans","Liberation Sans",sans-serif,"Apple Color Emoji","Segoe UI Emoji","Segoe UI Symbol","Noto Color Emoji";
}

ticktext { font-family: SFMono-Regular,Menlo,Monaco,Consolas,"Liberation Mono","Courier New",monospace;
}

</style><g class="chart"><g class="edges"><g stroke-width="1.0" stroke="rgb(-51%, 30%, 37%)" stroke-opacity="1.0" fill="rgb(0%, 0%, 0%)" fill-opacity="0"><path d="M 0.0045,-0.0029 C 0.0047,-0.0024 0.0049,-0.0017 0.0051,-0.0011 L 0.0052,-0.0009"/></g><g stroke-width="1.0" stroke="rgb(-51%, 30%, 37%)" stroke-opacity="1.0" fill="rgb(0%, 0%, 0%)" fill-opacity="0"><path d="M 0.0037,-0.0031 C 0.0031,-0.0025 0.0022,-0.0015 0.0015,-0.0008 L 0.0013,-0.0006"/></g><g stroke-width="1.0" stroke="rgb(-51%, 30%, 37%)" stroke-opacity="1.0" fill="rgb(0%, 0%, 0%)" fill-opacity="0"><path d="M 0.0040,-0.0029 C 0.0039,-0.0024 0.0036,-0.0018 0.0035,-0.0012 L 0.0034,-0.0009"/></g><g stroke-width="1.0" stroke="rgb(-51%, 30%, 37%)" stroke-opacity="1.0" fill="rgb(0%, 0%, 0%)" fill-opacity="0"><path d="M 0.0048,0.0006 C 0.0047,0.0007 0.0045,0.0009 0.0043,0.0010 C 0.0025,0.0021 0.0002,0.0030 -0.0010,0.0034 L -0.0013,0.0035"/></g><g stroke-width="1.0" stroke="rgb(-51%, 30%, 37%)" stroke-opacity="1.0" fill="rgb(0%, 0%, 0%)" fill-opacity="0"><path d="M 0.0052,0.0008 C 0.0050,0.0014 0.0048,0.0020 0.0046,0.0026 L 0.0045,0.0029"/></g><g stroke-width="1.0" stroke="rgb(-51%, 30%, 37%)" stroke-opacity="1.0" fill="rgb(0%, 0%, 0%)" fill-opacity="0"><path d="M 0.0057,0.0008 C 0.0058,0.0013 0.0060,0.0020 0.0062,0.0025 L 0.0063,0.0028"/></g><g stroke-width="1.0" stroke="rgb(-51%, 30%, 37%)" stroke-opacity="1.0" fill="rgb(0%, 0%, 0%)" fill-opacity="0"><path d="M -0.0021,0.0029 C -0.0022,0.0015 -0.0025,-0.0013 -0.0025,-0.0037 C -0.0025,-0.0076 -0.0025,-0.0076 -0.0025,-0.0076 C -0.0025,-0.0096 -0.0027,-0.0102 -0.0035,-0.0121 C -0.0037,-0.0127 -0.0040,-0.0133 -0.0043,-0.0138 L -0.0045,-0.0140"/></g><g stroke-width="1.0" stroke="rgb(-51%, 30%, 37%)" stroke-opacity="1.0" fill="rgb(0%, 0%, 0%)" fill-opacity="0"><path d="M -0.0016,0.0045 C -0.0011,0.0051 -0.0005,0.0059 -0.0001,0.0066 L 0.0001,0.0068"/></g><g stroke-width="1.0" stroke="rgb(-51%, 30%, 37%)" stroke-opacity="1.0" fill="rgb(0%, 0%, 0%)" fill-opacity="0"><path d="M -0.0020,0.0047 C -0.0019,0.0051 -0.0019,0.0057 -0.0019,0.0062 L -0.0018,0.0065"/></g><g stroke-width="1.0" stroke="rgb(-51%, 30%, 37%)" stroke-opacity="1.0" fill="rgb(0%, 0%, 0%)" fill-opacity="0"><path d="M -0.0024,0.0045 C -0.0028,0.0051 -0.0032,0.0058 -0.0036,0.0064 L -0.0037,0.0067"/></g><g stroke-width="1.0" stroke="rgb(-51%, 30%, 37%)" stroke-opacity="1.0" fill="rgb(0%, 0%, 0%)" fill-opacity="0"><path d="M -0.0026,0.0043 C -0.0034,0.0049 -0.0048,0.0060 -0.0057,0.0068 L -0.0059,0.0069"/></g><g stroke-width="1.0" stroke="rgb(-51%, 30%, 37%)" stroke-opacity="1.0" fill="rgb(0%, 0%, 0%)" fill-opacity="0"><path d="M -0.0043,-0.0143 C -0.0030,-0.0137 -0.0004,-0.0124 0.0010,-0.0117 L 0.0012,-0.0116"/></g><g stroke-width="1.0" stroke="rgb(-51%, 30%, 37%)" stroke-opacity="1.0" fill="rgb(0%, 0%, 0%)" fill-opacity="0"><path d="M -0.0056,-0.0142 C -0.0065,-0.0136 -0.0081,-0.0125 -0.0091,-0.0118 L -0.0093,-0.0117"/></g><g stroke-width="1.0" stroke="rgb(-51%, 30%, 37%)" stroke-opacity="1.0" fill="rgb(0%, 0%, 0%)" fill-opacity="0"><path d="M -0.0051,-0.0139 C -0.0054,-0.0125 -0.0058,-0.0099 -0.0058,-0.0076 C -0.0058,-0.0076 -0.0058,-0.0076 -0.0058,-0.0037 C -0.0058,-0.0016 -0.0059,0.0010 -0.0060,0.0024 L -0.0060,0.0028"/></g><g stroke-width="1.0" stroke="rgb(-51%, 30%, 37%)" stroke-opacity="1.0" fill="rgb(0%, 0%, 0%)" fill-opacity="0"><path d="M 0.0016,-0.0103 C 0.0015,-0.0098 0.0013,-0.0092 0.0011,-0.0087 L 0.0010,-0.0084"/></g><g stroke-width="1.0" stroke="rgb(-51%, 30%, 37%)" stroke-opacity="1.0" fill="rgb(0%, 0%, 0%)" fill-opacity="0"><path d="M 0.0025,-0.0106 C 0.0030,-0.0100 0.0040,-0.0091 0.0046,-0.0084 L 0.0048,-0.0082"/></g><g stroke-width="1.0" stroke="rgb(-51%, 30%, 37%)" stroke-opacity="1.0" fill="rgb(0%, 0%, 0%)" fill-opacity="0"><path d="M 0.0022,-0.0103 C 0.0023,-0.0099 0.0025,-0.0093 0.0027,-0.0088 L 0.0028,-0.0085"/></g><g stroke-width="1.0" stroke="rgb(-51%, 30%, 37%)" stroke-opacity="1.0" fill="rgb(0%, 0%, 0%)" fill-opacity="0"><path d="M 0.0013,-0.0069 C 0.0019,-0.0063 0.0028,-0.0053 0.0035,-0.0046 L 0.0037,-0.0044"/></g><g stroke-width="1.0" stroke="rgb(-51%, 30%, 37%)" stroke-opacity="1.0" fill="rgb(0%, 0%, 0%)" fill-opacity="0"><path d="M 0.0010,-0.0067 C 0.0012,-0.0062 0.0014,-0.0056 0.0015,-0.0050 L 0.0016,-0.0047"/></g><g stroke-width="1.0" stroke="rgb(-51%, 30%, 37%)" stroke-opacity="1.0" fill="rgb(0%, 0%, 0%)" fill-opacity="0"><path d="M 0.0005,-0.0067 C 0.0003,-0.0062 0.0001,-0.0056 -0.0001,-0.0050 L -0.0002,-0.0047"/></g><g stroke-width="1.0" stroke="rgb(-51%, 30%, 37%)" stroke-opacity="1.0" fill="rgb(0%, 0%, 0%)" fill-opacity="0"><path d="M -0.0056,0.0046 C -0.0054,0.0052 -0.0050,0.0058 -0.0047,0.0064 L -0.0046,0.0066"/></g><g stroke-width="1.0" stroke="rgb(-51%, 30%, 37%)" stroke-opacity="1.0" fill="rgb(0%, 0%, 0%)" fill-opacity="0"><path d="M -0.0062,0.0048 C -0.0063,0.0052 -0.0063,0.0057 -0.0064,0.0062 L -0.0064,0.0065"/></g><g stroke-width="1.0" stroke="rgb(-51%, 30%, 37%)" stroke-opacity="1.0" fill="rgb(0%, 0%, 0%)" fill-opacity="0"><path d="M -0.0042,0.0065 C -0.0041,0.0051 -0.0041,0.0024 -0.0041,0.0000 C -0.0041,-0.0076 -0.0041,-0.0076 -0.0041,-0.0076 C -0.0041,-0.0097 -0.0045,-0.0122 -0.0047,-0.0136 L -0.0048,-0.0139"/></g><g stroke-width="1.0" stroke="rgb(-51%, 30%, 37%)" stroke-opacity="1.0" fill="rgb(0%, 0%, 0%)" fill-opacity="0"><path d="M -0.0069,0.0066 C -0.0073,0.0052 -0.0080,0.0025 -0.0080,0.0000 C -0.0080,-0.0076 -0.0080,-0.0076 -0.0080,-0.0076 C -0.0080,-0.0101 -0.0065,-0.0125 -0.0056,-0.0138 L -0.0055,-0.0141"/></g></g><g class="shapes"><g stroke-width="0.5" stroke="rgb(-51%, 30%, 37%)" stroke-opacity="1.0" fill="rgb(2%, 73%, 80%)" fill-opacity="0.2"><circle cx="0.0043" cy="-0.0038" r="18.0"/></g><g stroke-width="0.5" stroke="rgb(-51%, 30%, 37%)" stroke-opacity="1.0" fill="rgb(2%, 73%, 80%)" fill-opacity="0.2"><circle cx="0.0054" cy="0" r="18.0"/></g><g stroke-width="0.5" stroke="rgb(-51%, 30%, 37%)" stroke-opacity="1.0" fill="rgb(2%, 73%, 80%)" fill-opacity="0.2"><circle cx="-0.0020" cy="0.0038" r="18.0"/></g><g stroke-width="0.5" stroke="rgb(-51%, 30%, 37%)" stroke-opacity="1.0" fill="rgb(2%, 73%, 80%)" fill-opacity="0.2"><circle cx="-0.0050" cy="-0.0147" r="18.0"/></g><g stroke-width="0.5" stroke="rgb(-51%, 30%, 37%)" stroke-opacity="1.0" fill="rgb(2%, 73%, 80%)" fill-opacity="0.2"><circle cx="0.0019" cy="-0.0112" r="18.0"/></g><g stroke-width="0.5" stroke="rgb(-51%, 30%, 37%)" stroke-opacity="1.0" fill="rgb(2%, 73%, 80%)" fill-opacity="0.2"><circle cx="0.0007" cy="-0.0075" r="18.0"/></g><g stroke-width="0.5" stroke="rgb(-51%, 30%, 37%)" stroke-opacity="1.0" fill="rgb(2%, 73%, 80%)" fill-opacity="0.2"><circle cx="0.0008" cy="0" r="18.0"/></g><g stroke-width="0.5" stroke="rgb(-51%, 30%, 37%)" stroke-opacity="1.0" fill="rgb(2%, 73%, 80%)" fill-opacity="0.2"><circle cx="0.0043" cy="0.0038" r="18.0"/></g><g stroke-width="0.5" stroke="rgb(-51%, 30%, 37%)" stroke-opacity="1.0" fill="rgb(2%, 73%, 80%)" fill-opacity="0.2"><circle cx="0.0006" cy="0.0075" r="18.0"/></g><g stroke-width="0.5" stroke="rgb(-51%, 30%, 37%)" stroke-opacity="1.0" fill="rgb(2%, 73%, 80%)" fill-opacity="0.2"><circle cx="-0.0100" cy="-0.0112" r="18.0"/></g><g stroke-width="0.5" stroke="rgb(-51%, 30%, 37%)" stroke-opacity="1.0" fill="rgb(2%, 73%, 80%)" fill-opacity="0.2"><circle cx="0.0055" cy="-0.0075" r="20.1312"/></g><g stroke-width="0.5" stroke="rgb(-51%, 30%, 37%)" stroke-opacity="1.0" fill="rgb(2%, 73%, 80%)" fill-opacity="0.2"><circle cx="0.0019" cy="-0.0038" r="20.1312"/></g><g stroke-width="0.5" stroke="rgb(-51%, 30%, 37%)" stroke-opacity="1.0" fill="rgb(2%, 73%, 80%)" fill-opacity="0.2"><circle cx="0.0031" cy="0" r="20.1312"/></g><g stroke-width="0.5" stroke="rgb(-51%, 30%, 37%)" stroke-opacity="1.0" fill="rgb(2%, 73%, 80%)" fill-opacity="0.2"><circle cx="0.0066" cy="0.0038" r="20.1312"/></g><g stroke-width="0.5" stroke="rgb(-51%, 30%, 37%)" stroke-opacity="1.0" fill="rgb(2%, 73%, 80%)" fill-opacity="0.2"><circle cx="-0.0018" cy="0.0075" r="20.1312"/></g><g stroke-width="0.5" stroke="rgb(-51%, 30%, 37%)" stroke-opacity="1.0" fill="rgb(2%, 73%, 80%)" fill-opacity="0.2"><circle cx="-0.0060" cy="0.0038" r="20.1312"/></g><g stroke-width="0.5" stroke="rgb(-51%, 30%, 37%)" stroke-opacity="1.0" fill="rgb(2%, 73%, 80%)" fill-opacity="0.2"><circle cx="0.0031" cy="-0.0075" r="20.1312"/></g><g stroke-width="0.5" stroke="rgb(-51%, 30%, 37%)" stroke-opacity="1.0" fill="rgb(2%, 73%, 80%)" fill-opacity="0.2"><circle cx="-0.0005" cy="-0.0038" r="20.1312"/></g><g stroke-width="0.5" stroke="rgb(-51%, 30%, 37%)" stroke-opacity="1.0" fill="rgb(2%, 73%, 80%)" fill-opacity="0.2"><circle cx="-0.0042" cy="0.0075" r="20.1312"/></g><g stroke-width="0.5" stroke="rgb(-51%, 30%, 37%)" stroke-opacity="1.0" fill="rgb(2%, 73%, 80%)" fill-opacity="0.2"><circle cx="-0.0066" cy="0.0075" r="20.1312"/></g></g><g class="labels"><g stroke-width="0.0" stroke="none" fill="rgb(-51%, 30%, 37%)" fill-opacity="1.0" font-size="14.0" text-anchor="middle"><text x="0.0043" y="-0.0036">0</text><text x="0.0054" y="0.0002">1</text><text x="-0.0020" y="0.0039">2</text><text x="-0.0050" y="-0.0146">3</text><text x="0.0019" y="-0.0110">4</text><text x="0.0007" y="-0.0073">5</text><text x="0.0008" y="0.0002">6</text><text x="0.0043" y="0.0039">7</text><text x="0.0006" y="0.0077">8</text><text x="-0.0100" y="-0.0110">9</text><text x="0.0055" y="-0.0073">10</text><text x="0.0019" y="-0.0036">11</text><text x="0.0031" y="0.0002">12</text><text x="0.0066" y="0.0039">13</text><text x="-0.0018" y="0.0077">14</text><text x="-0.0060" y="0.0039">15</text><text x="0.0031" y="-0.0073">16</text><text x="-0.0005" y="-0.0036">17</text><text x="-0.0042" y="0.0077">18</text><text x="-0.0066" y="0.0077">19</text></g></g></g><g class="hud"></g></svg>