<svg height="500" viewBox="-0.25 -483.23 428.9983 483.4803" width="443" xmlns="http://www.w3.org/2000/svg" xmlns:xlink="http://www.w3.org/1999/xlink"><style>svg {
  color-scheme: light dark;
}
{
  .canvas g, .title g, .axisbar g, .ticktext g, .tickglyph g, .ticklines g, .legendContent g text {
    fill: rgb(5%, 5%, 5%);
  }
  .ticklines g, .tickglyph g, .legendBorder g {
    stroke: rgb(5%, 5%, 5%);
  }
  .legendBorder g {
    fill: rgb(94%, 94%, 94%);
  }
}
@media (prefers-color-scheme:dark) {
  .canvas g, .title g, .axisbar g, .ticktext g, .tickglyph g, .ticklines g, .legendContent g text {
    fill: rgb(94%, 94%, 94%);
  }
  .ticklines g, .tickglyph g, .legendBorder g {
    stroke: rgb(94%, 94%, 94%);
  }
  .legendBorder g {
    fill: rgb(5%, 5%, 5%);
  }
}</style><g class="chart"><g class="edges"><g fill="rgb(0%, 0%, 0%)" fill-opacity="0" stroke="rgb(-51%, 30%, 37%)" stroke-opacity="1.0" stroke-width="1.0"><path d="M 360.9900,-227.29 C 364.7400,-217.15 369.6200,-203.9500 373.74,-192.83 L 375.9300,-186.9"/></g><g fill="rgb(0%, 0%, 0%)" fill-opacity="0" stroke="rgb(-51%, 30%, 37%)" stroke-opacity="1.0" stroke-width="1.0"><path d="M 341.66,-231.76 C 327.63,-219.4100 305.45,-199.91 289.9000,-186.23 L 285.3,-182.19"/></g><g fill="rgb(0%, 0%, 0%)" fill-opacity="0" stroke="rgb(-51%, 30%, 37%)" stroke-opacity="1.0" stroke-width="1.0"><path d="M 348.79,-227.29 C 345.0300,-217.51 340.19,-204.8700 336.02,-194.01 L 333.78,-188.18"/></g><g fill="rgb(0%, 0%, 0%)" fill-opacity="0" stroke="rgb(-51%, 30%, 37%)" stroke-opacity="1.0" stroke-width="1.0"><path d="M 367.8400,-157.82 C 363.81,-155.06 359.3400,-152.24 355.0,-149.99 C 312.9800,-128.2900 260.2900,-111.07 230.46,-102.16 L 224.4500,-100.38"/></g><g fill="rgb(0%, 0%, 0%)" fill-opacity="0" stroke="rgb(-51%, 30%, 37%)" stroke-opacity="1.0" stroke-width="1.0"><path d="M 375.7900,-152.29 C 371.87,-142.08 366.76,-128.77 362.4800,-117.6 L 360.2,-111.65"/></g><g fill="rgb(0%, 0%, 0%)" fill-opacity="0" stroke="rgb(-51%, 30%, 37%)" stroke-opacity="1.0" stroke-width="1.0"><path d="M 387.99,-152.29 C 391.61,-142.51 396.2800,-129.88 400.3000,-119.01 L 402.4600,-113.18"/></g><g fill="rgb(0%, 0%, 0%)" fill-opacity="0" stroke="rgb(-51%, 30%, 37%)" stroke-opacity="1.0" stroke-width="1.0"><path d="M 204.88,-112.78 C 201.68,-140.37 196.0000,-196.0800 196.0000,-243.49 C 196.0000,-320.48 196.0000,-320.48 196.0000,-320.48 C 196.0000,-362.1 188.7700,-372.9 172.0,-410.9800 C 166.72,-422.97 158.9400,-435.35 152.1500,-445.12 L 148.5,-450.26"/></g><g fill="rgb(0%, 0%, 0%)" fill-opacity="0" stroke="rgb(-51%, 30%, 37%)" stroke-opacity="1.0" stroke-width="1.0"><path d="M 217.9100,-79.7650 C 227.0600,-68.243 240.2200,-51.6830 250.3000,-38.994 L 254.1400,-34.167"/></g><g fill="rgb(0%, 0%, 0%)" fill-opacity="0" stroke="rgb(-51%, 30%, 37%)" stroke-opacity="1.0" stroke-width="1.0"><path d="M 207.7100,-76.196 C 208.08,-67.134 208.5500,-55.866 208.96,-45.841 L 209.2200,-39.467"/></g><g fill="rgb(0%, 0%, 0%)" fill-opacity="0" stroke="rgb(-51%, 30%, 37%)" stroke-opacity="1.0" stroke-width="1.0"><path d="M 196.59,-79.42 C 188.4900,-68.4730 177.1400,-53.13 168.0500,-40.846 L 164.31,-35.7900"/></g><g fill="rgb(0%, 0%, 0%)" fill-opacity="0" stroke="rgb(-51%, 30%, 37%)" stroke-opacity="1.0" stroke-width="1.0"><path d="M 192.0300,-83.65 C 172.8300,-71.022 139.39,-49.034 117.4800,-34.622 L 112.17,-31.1320"/></g><g fill="rgb(0%, 0%, 0%)" fill-opacity="0" stroke="rgb(-51%, 30%, 37%)" stroke-opacity="1.0" stroke-width="1.0"><path d="M 154.52,-456.76 C 183.53,-444.06 243.6400,-417.77 276.08,-403.57 L 281.8100,-401.0700"/></g><g fill="rgb(0%, 0%, 0%)" fill-opacity="0" stroke="rgb(-51%, 30%, 37%)" stroke-opacity="1.0" stroke-width="1.0"><path d="M 122.8,-455.1200 C 101.55,-442.72 62.8730,-420.16 38.9150,-406.18 L 33.454,-403.0"/></g><g fill="rgb(0%, 0%, 0%)" fill-opacity="0" stroke="rgb(-51%, 30%, 37%)" stroke-opacity="1.0" stroke-width="1.0"><path d="M 133.57,-447.3300 C 126.8800,-420.73 115.0000,-366.91 115.0000,-320.48 C 115.0000,-320.48 115.0000,-320.48 115.0000,-243.49 C 115.0000,-200.2400 113.2700,-149.9 112.0900,-120.4800 L 111.83,-114.18"/></g><g fill="rgb(0%, 0%, 0%)" fill-opacity="0" stroke="rgb(-51%, 30%, 37%)" stroke-opacity="1.0" stroke-width="1.0"><path d="M 291.8700,-375.76 C 288.1800,-365.98 283.4200,-353.38 279.38,-342.69 L 277.1,-336.64"/></g><g fill="rgb(0%, 0%, 0%)" fill-opacity="0" stroke="rgb(-51%, 30%, 37%)" stroke-opacity="1.0" stroke-width="1.0"><path d="M 311.28,-380.81 C 325.33,-368.99 347.6300,-350.2300 363.64,-336.77 L 368.39,-332.78"/></g><g fill="rgb(0%, 0%, 0%)" fill-opacity="0" stroke="rgb(-51%, 30%, 37%)" stroke-opacity="1.0" stroke-width="1.0"><path d="M 304.35,-375.76 C 308.02,-366.39 312.7,-354.44 316.7700,-344.05 L 319.08,-338.15"/></g><g fill="rgb(0%, 0%, 0%)" fill-opacity="0" stroke="rgb(-51%, 30%, 37%)" stroke-opacity="1.0" stroke-width="1.0"><path d="M 284.12,-307.08 C 298.3400,-294.72 321.1200,-274.93 337.0,-261.13 L 341.69,-257.0500"/></g><g fill="rgb(0%, 0%, 0%)" fill-opacity="0" stroke="rgb(-51%, 30%, 37%)" stroke-opacity="1.0" stroke-width="1.0"><path d="M 277.44,-302.28 C 281.32,-292.5 286.34,-279.87 290.66,-269.0 L 292.9700,-263.1800"/></g><g fill="rgb(0%, 0%, 0%)" fill-opacity="0" stroke="rgb(-51%, 30%, 37%)" stroke-opacity="1.0" stroke-width="1.0"><path d="M 264.7900,-302.28 C 261.03,-292.5 256.19,-279.87 252.02,-269.0 L 249.7800,-263.1800"/></g><g fill="rgb(0%, 0%, 0%)" fill-opacity="0" stroke="rgb(-51%, 30%, 37%)" stroke-opacity="1.0" stroke-width="1.0"><path d="M 120.53,-76.9310 C 126.38,-66.758 133.95,-53.604 140.31,-42.556 L 143.51,-36.997"/></g><g fill="rgb(0%, 0%, 0%)" fill-opacity="0" stroke="rgb(-51%, 30%, 37%)" stroke-opacity="1.0" stroke-width="1.0"><path d="M 107.2100,-75.0750 C 105.35,-65.9970 103.0700,-54.924 101.06,-45.13 L 99.7840,-38.912"/></g><g fill="rgb(0%, 0%, 0%)" fill-opacity="0" stroke="rgb(-51%, 30%, 37%)" stroke-opacity="1.0" stroke-width="1.0"><path d="M 154.0400,-39.181 C 155.5000,-67.246 158.0000,-121.96 158.0000,-168.49 C 158.0000,-320.48 158.0000,-320.48 158.0000,-320.48 C 158.0000,-363.33 149.1400,-412.69 143.2200,-440.93 L 141.86,-447.3000"/></g><g fill="rgb(0%, 0%, 0%)" fill-opacity="0" stroke="rgb(-51%, 30%, 37%)" stroke-opacity="1.0" stroke-width="1.0"><path d="M 89.6780,-38.0020 C 80.352,-65.432 64.0,-120.3900 64.0,-168.49 C 64.0,-320.48 64.0,-320.48 64.0,-320.48 C 64.0,-370.68 100.2,-420.86 121.9700,-446.49 L 126.11,-451.28"/></g></g><g class="shapes"><g fill="rgb(2%, 73%, 80%)" fill-opacity="0.2" stroke="rgb(-51%, 30%, 37%)" stroke-opacity="1.0" stroke-width="0.5"><circle cx="355.0" cy="-244.49" r="18.0"/></g><g fill="rgb(2%, 73%, 80%)" fill-opacity="0.2" stroke="rgb(-51%, 30%, 37%)" stroke-opacity="1.0" stroke-width="0.5"><circle cx="382.0" cy="-169.49" r="18.0"/></g><g fill="rgb(2%, 73%, 80%)" fill-opacity="0.2" stroke="rgb(-51%, 30%, 37%)" stroke-opacity="1.0" stroke-width="0.5"><circle cx="207.0000" cy="-94.495" r="18.0"/></g><g fill="rgb(2%, 73%, 80%)" fill-opacity="0.2" stroke="rgb(-51%, 30%, 37%)" stroke-opacity="1.0" stroke-width="0.5"><circle cx="138.0" cy="-464.98" r="18.0"/></g><g fill="rgb(2%, 73%, 80%)" fill-opacity="0.2" stroke="rgb(-51%, 30%, 37%)" stroke-opacity="1.0" stroke-width="0.5"><circle cx="298.0000" cy="-392.98" r="18.0"/></g><g fill="rgb(2%, 73%, 80%)" fill-opacity="0.2" stroke="rgb(-51%, 30%, 37%)" stroke-opacity="1.0" stroke-width="0.5"><circle cx="271.0" cy="-319.48" r="18.0"/></g><g fill="rgb(2%, 73%, 80%)" fill-opacity="0.2" stroke="rgb(-51%, 30%, 37%)" stroke-opacity="1.0" stroke-width="0.5"><circle cx="272.0" cy="-169.49" r="18.0"/></g><g fill="rgb(2%, 73%, 80%)" fill-opacity="0.2" stroke="rgb(-51%, 30%, 37%)" stroke-opacity="1.0" stroke-width="0.5"><circle cx="354.0" cy="-94.495" r="18.0"/></g><g fill="rgb(2%, 73%, 80%)" fill-opacity="0.2" stroke="rgb(-51%, 30%, 37%)" stroke-opacity="1.0" stroke-width="0.5"><circle cx="265.0" cy="-19.498" r="18.0"/></g><g fill="rgb(2%, 73%, 80%)" fill-opacity="0.2" stroke="rgb(-51%, 30%, 37%)" stroke-opacity="1.0" stroke-width="0.5"><circle cx="18.0" cy="-392.98" r="18.0"/></g><g fill="rgb(2%, 73%, 80%)" fill-opacity="0.2" stroke="rgb(-51%, 30%, 37%)" stroke-opacity="1.0" stroke-width="0.5"><circle cx="383.0000" cy="-319.48" r="19.4983"/></g><g fill="rgb(2%, 73%, 80%)" fill-opacity="0.2" stroke="rgb(-51%, 30%, 37%)" stroke-opacity="1.0" stroke-width="0.5"><circle cx="300.0000" cy="-244.49" r="19.4983"/></g><g fill="rgb(2%, 73%, 80%)" fill-opacity="0.2" stroke="rgb(-51%, 30%, 37%)" stroke-opacity="1.0" stroke-width="0.5"><circle cx="327.0" cy="-169.49" r="19.4983"/></g><g fill="rgb(2%, 73%, 80%)" fill-opacity="0.2" stroke="rgb(-51%, 30%, 37%)" stroke-opacity="1.0" stroke-width="0.5"><circle cx="409.0" cy="-94.495" r="19.4983"/></g><g fill="rgb(2%, 73%, 80%)" fill-opacity="0.2" stroke="rgb(-51%, 30%, 37%)" stroke-opacity="1.0" stroke-width="0.5"><circle cx="210.0" cy="-19.498" r="19.4983"/></g><g fill="rgb(2%, 73%, 80%)" fill-opacity="0.2" stroke="rgb(-51%, 30%, 37%)" stroke-opacity="1.0" stroke-width="0.5"><circle cx="111.0" cy="-94.495" r="19.4983"/></g><g fill="rgb(2%, 73%, 80%)" fill-opacity="0.2" stroke="rgb(-51%, 30%, 37%)" stroke-opacity="1.0" stroke-width="0.5"><circle cx="326.0" cy="-319.48" r="19.4983"/></g><g fill="rgb(2%, 73%, 80%)" fill-opacity="0.2" stroke="rgb(-51%, 30%, 37%)" stroke-opacity="1.0" stroke-width="0.5"><circle cx="243.0" cy="-244.49" r="19.4983"/></g><g fill="rgb(2%, 73%, 80%)" fill-opacity="0.2" stroke="rgb(-51%, 30%, 37%)" stroke-opacity="1.0" stroke-width="0.5"><circle cx="153.0" cy="-19.498" r="19.4983"/></g><g fill="rgb(2%, 73%, 80%)" fill-opacity="0.2" stroke="rgb(-51%, 30%, 37%)" stroke-opacity="1.0" stroke-width="0.5"><circle cx="96.0000" cy="-19.498" r="19.4983"/></g></g><g class="labels"><g fill="rgb(-51%, 30%, 37%)" fill-opacity="1.0" font-size="14.0" stroke="none" stroke-width="0.0" text-anchor="middle"><text x="355.0" y="-240.7900">0</text><text x="382.0" y="-165.7900">1</text><text x="207.0000" y="-90.795">2</text><text x="138.0" y="-461.28">3</text><text x="298.0000" y="-389.2800">4</text><text x="271.0" y="-315.7800">5</text><text x="272.0" y="-165.7900">6</text><text x="354.0" y="-90.795">7</text><text x="265.0" y="-15.7980">8</text><text x="18.0" y="-389.2800">9</text><text x="383.0000" y="-315.7800">10</text><text x="300.0000" y="-240.7900">11</text><text x="327.0" y="-165.7900">12</text><text x="409.0" y="-90.795">13</text><text x="210.0" y="-15.7980">14</text><text x="111.0" y="-90.795">15</text><text x="326.0" y="-315.7800">16</text><text x="243.0" y="-240.7900">17</text><text x="153.0" y="-15.7980">18</text><text x="96.0000" y="-15.7980">19</text></g></g></g><g class="hud"/></svg>