<svg height="500" viewBox="-308.4 -324.5 1305.15 325.0" width="2007" xmlns="http://www.w3.org/2000/svg" xmlns:xlink="http://www.w3.org/1999/xlink"><style>svg {
  color-scheme: light dark;
}
{
  .canvas g, .title g, .axisbar g, .ticktext g, .tickglyph g, .ticklines g, .legendContent g text {
    fill: rgb(5%, 5%, 5%);
  }
  .ticklines g, .tickglyph g, .legendBorder g {
    stroke: rgb(5%, 5%, 5%);
  }
  .legendBorder g {
    fill: rgb(94%, 94%, 94%);
  }
}
@media (prefers-color-scheme:dark) {
  .canvas g, .title g, .axisbar g, .ticktext g, .tickglyph g, .ticklines g, .legendContent g text {
    fill: rgb(94%, 94%, 94%);
  }
  .ticklines g, .tickglyph g, .legendBorder g {
    stroke: rgb(94%, 94%, 94%);
  }
  .legendBorder g {
    fill: rgb(5%, 5%, 5%);
  }
}</style><g class="chart"><g class="edges"><g fill="rgb(0%, 0%, 0%)" fill-opacity="0" stroke="rgb(-51%, 30%, 37%)" stroke-opacity="1.0" stroke-width="1.0"><path d="M 259.67,-107.24 C 235.33,-118.75 202.8400,-134.12 178.83,-145.47 L 173.23,-148.12"/></g><g fill="rgb(0%, 0%, 0%)" fill-opacity="0" stroke="rgb(-51%, 30%, 37%)" stroke-opacity="1.0" stroke-width="1.0"><path d="M 142.89,-252.3000 C 136.48,-261.46 128.5400,-272.81 121.66,-282.62 L 117.97,-287.9"/></g><g fill="rgb(0%, 0%, 0%)" fill-opacity="0" stroke="rgb(-51%, 30%, 37%)" stroke-opacity="1.0" stroke-width="1.0"><path d="M 185.97,-252.48 C 203.26,-262.25 224.89,-274.46 242.95,-284.65 L 248.42,-287.74"/></g><g fill="rgb(0%, 0%, 0%)" fill-opacity="0" stroke="rgb(-51%, 30%, 37%)" stroke-opacity="1.0" stroke-width="1.0"><path d="M 372.94,-180.49 C 372.1000,-199.56 368.35,-230.2400 354.0000,-252.0000 C 345.4,-265.0400 332.39,-275.87 319.61,-284.26 L 314.1600,-287.71"/></g><g fill="rgb(0%, 0%, 0%)" fill-opacity="0" stroke="rgb(-51%, 30%, 37%)" stroke-opacity="1.0" stroke-width="1.0"><path d="M 459.28,-36.4830 C 442.88,-46.465 422.27,-59.009 405.3100,-69.333 L 400.1700,-72.461"/></g><g fill="rgb(0%, 0%, 0%)" fill-opacity="0" stroke="rgb(-51%, 30%, 37%)" stroke-opacity="1.0" stroke-width="1.0"><path d="M 373.0,-108.3 C 373.0,-117.12 373.0,-127.9700 373.0,-137.53 L 373.0,-143.9"/></g><g fill="rgb(0%, 0%, 0%)" fill-opacity="0" stroke="rgb(-51%, 30%, 37%)" stroke-opacity="1.0" stroke-width="1.0"><path d="M 345.6900,-104.49 C 342.7800,-105.7400 339.85,-106.94 337.0,-108.0000 C 308.06,-118.7600 225.8500,-140.48 179.26,-152.5 L 173.2100,-154.06"/></g><g fill="rgb(0%, 0%, 0%)" fill-opacity="0" stroke="rgb(-51%, 30%, 37%)" stroke-opacity="1.0" stroke-width="1.0"><path d="M 195.69,-108.3 C 186.89,-117.63 175.96,-129.23 166.59,-139.17 L 162.13,-143.9"/></g><g fill="rgb(0%, 0%, 0%)" fill-opacity="0" stroke="rgb(-51%, 30%, 37%)" stroke-opacity="1.0" stroke-width="1.0"><path d="M 373.0,-36.303 C 373.0,-45.119 373.0,-55.968 373.0,-65.526 L 373.0,-71.896"/></g><g fill="rgb(0%, 0%, 0%)" fill-opacity="0" stroke="rgb(-51%, 30%, 37%)" stroke-opacity="1.0" stroke-width="1.0"><path d="M 229.2700,-180.48 C 215.7100,-190.0800 198.79,-202.04 184.53,-212.1200 L 179.41,-215.7400"/></g><g fill="rgb(0%, 0%, 0%)" fill-opacity="0" stroke="rgb(-51%, 30%, 37%)" stroke-opacity="1.0" stroke-width="1.0"><path d="M 260.18,-180.3000 C 263.36,-189.2000 267.28,-200.18 270.7100,-209.8 L 272.89,-215.9000"/></g><g fill="rgb(0%, 0%, 0%)" fill-opacity="0" stroke="rgb(-51%, 30%, 37%)" stroke-opacity="1.0" stroke-width="1.0"><path d="M 279.0,-252.3000 C 279.0,-261.1200 279.0,-271.97 279.0,-281.53 L 279.0,-287.9"/></g><g fill="rgb(0%, 0%, 0%)" fill-opacity="0" stroke="rgb(-51%, 30%, 37%)" stroke-opacity="1.0" stroke-width="1.0"><path d="M 139.2200,-108.3 C 140.36,-117.12 141.75,-127.9700 142.98,-137.53 L 143.8,-143.9"/></g><g fill="rgb(0%, 0%, 0%)" fill-opacity="0" stroke="rgb(-51%, 30%, 37%)" stroke-opacity="1.0" stroke-width="1.0"><path d="M 131.24,-33.243 C 134.87,-34.222 138.49,-35.1540 142.0,-36.0 C 227.68,-56.6240 253.1200,-44.958 337.0,-72.0 C 337.9000,-72.292 338.8200,-72.601 339.73,-72.925 L 345.78,-75.254"/></g><g fill="rgb(0%, 0%, 0%)" fill-opacity="0" stroke="rgb(-51%, 30%, 37%)" stroke-opacity="1.0" stroke-width="1.0"><path d="M 85.457,-36.2 C 86.536,-54.7390 90.012,-84.716 101.0,-108.0000 C 106.3000,-119.2400 114.6200,-130.01 122.66,-138.87 L 127.08,-143.58"/></g><g fill="rgb(0%, 0%, 0%)" fill-opacity="0" stroke="rgb(-51%, 30%, 37%)" stroke-opacity="1.0" stroke-width="1.0"><path d="M 291.22,-36.4830 C 306.29,-46.161 325.11,-58.2460 340.9,-68.383 L 346.12,-71.739"/></g><g fill="rgb(0%, 0%, 0%)" fill-opacity="0" stroke="rgb(-51%, 30%, 37%)" stroke-opacity="1.0" stroke-width="1.0"><path d="M 148.2200,-180.3000 C 149.36,-189.1200 150.75,-199.97 151.98,-209.5300 L 152.8,-215.9000"/></g><g fill="rgb(0%, 0%, 0%)" fill-opacity="0" stroke="rgb(-51%, 30%, 37%)" stroke-opacity="1.0" stroke-width="1.0"><path d="M 124.0000,-180.3000 C 111.9100,-189.81 96.818,-201.6800 84.019,-211.7500 L 79.055,-215.65"/></g><g fill="rgb(0%, 0%, 0%)" fill-opacity="0" stroke="rgb(-51%, 30%, 37%)" stroke-opacity="1.0" stroke-width="1.0"><path d="M 54.301,-107.06 C 71.837,-117.37 94.714,-130.83 113.23,-141.72 L 118.83,-145.0200"/></g><g fill="rgb(0%, 0%, 0%)" fill-opacity="0" stroke="rgb(-51%, 30%, 37%)" stroke-opacity="1.0" stroke-width="1.0"><path d="M 69.112,-252.3000 C 75.521,-261.46 83.464,-272.81 90.336,-282.62 L 94.027,-287.9"/></g><g fill="rgb(0%, 0%, 0%)" fill-opacity="0" stroke="rgb(-51%, 30%, 37%)" stroke-opacity="1.0" stroke-width="1.0"><path d="M 219.2,-32.726 C 222.1700,-33.855 225.13,-34.96 228.0,-36.0 C 275.96,-53.3860 289.62,-53.072 337.0,-72.0 C 337.88,-72.353 338.77,-72.716 339.6700,-73.089 L 345.64,-75.655"/></g><g fill="rgb(0%, 0%, 0%)" fill-opacity="0" stroke="rgb(-51%, 30%, 37%)" stroke-opacity="1.0" stroke-width="1.0"><path d="M 545.55,-36.4830 C 501.66,-49.843 442.69,-67.791 406.2900,-78.867 L 400.21,-80.718"/></g></g><g class="shapes"><g fill="rgb(2%, 73%, 80%)" fill-opacity="0.2" stroke="rgb(-51%, 30%, 37%)" stroke-opacity="1.0" stroke-width="1.0"><rect height="36.0" width="64.0001" x="74.0000" y="-324.0"/></g><g fill="rgb(2%, 73%, 80%)" fill-opacity="0.2" stroke="rgb(-51%, 30%, 37%)" stroke-opacity="1.0" stroke-width="1.0"><rect height="36.0" width="67.9997" x="260.0002" y="-108.0"/></g><g fill="rgb(2%, 73%, 80%)" fill-opacity="0.2" stroke="rgb(-51%, 30%, 37%)" stroke-opacity="1.0" stroke-width="1.0"><rect height="36.0" width="81.0" x="114.5" y="-252.0"/></g><g fill="rgb(2%, 73%, 80%)" fill-opacity="0.2" stroke="rgb(-51%, 30%, 37%)" stroke-opacity="1.0" stroke-width="1.0"><rect height="36.0" width="61.9999" x="342.0000" y="-180.0"/></g><g fill="rgb(2%, 73%, 80%)" fill-opacity="0.2" stroke="rgb(-51%, 30%, 37%)" stroke-opacity="1.0" stroke-width="1.0"><rect height="36.0" width="66.0002" x="454.9999" y="-36.0"/></g><g fill="rgb(2%, 73%, 80%)" fill-opacity="0.2" stroke="rgb(-51%, 30%, 37%)" stroke-opacity="1.0" stroke-width="1.0"><rect height="36.0" width="54.0" x="346.0" y="-108.0"/></g><g fill="rgb(2%, 73%, 80%)" fill-opacity="0.2" stroke="rgb(-51%, 30%, 37%)" stroke-opacity="1.0" stroke-width="1.0"><rect height="36.0" width="58.9997" x="182.5002" y="-108.0"/></g><g fill="rgb(2%, 73%, 80%)" fill-opacity="0.2" stroke="rgb(-51%, 30%, 37%)" stroke-opacity="1.0" stroke-width="1.0"><rect height="36.0" width="128.0016" x="308.9992" y="-36.0"/></g><g fill="rgb(2%, 73%, 80%)" fill-opacity="0.2" stroke="rgb(-51%, 30%, 37%)" stroke-opacity="1.0" stroke-width="1.0"><rect height="36.0" width="58.9997" x="224.5002" y="-180.0"/></g><g fill="rgb(2%, 73%, 80%)" fill-opacity="0.2" stroke="rgb(-51%, 30%, 37%)" stroke-opacity="1.0" stroke-width="1.0"><rect height="36.0" width="94.0032" x="231.9984" y="-324.0"/></g><g fill="rgb(2%, 73%, 80%)" fill-opacity="0.2" stroke="rgb(-51%, 30%, 37%)" stroke-opacity="1.0" stroke-width="1.0"><rect height="36.0" width="130.9968" x="213.5016" y="-252.0"/></g><g fill="rgb(2%, 73%, 80%)" fill-opacity="0.2" stroke="rgb(-51%, 30%, 37%)" stroke-opacity="1.0" stroke-width="1.0"><rect height="36.0" width="54.0" x="110.0" y="-108.0"/></g><g fill="rgb(2%, 73%, 80%)" fill-opacity="0.2" stroke="rgb(-51%, 30%, 37%)" stroke-opacity="1.0" stroke-width="1.0"><rect height="36.0" width="92.0016" x="38.9992" y="-36.0"/></g><g fill="rgb(2%, 73%, 80%)" fill-opacity="0.2" stroke="rgb(-51%, 30%, 37%)" stroke-opacity="1.0" stroke-width="1.0"><rect height="36.0" width="54.0" x="237.0" y="-36.0"/></g><g fill="rgb(2%, 73%, 80%)" fill-opacity="0.2" stroke="rgb(-51%, 30%, 37%)" stroke-opacity="1.0" stroke-width="1.0"><rect height="36.0" width="54.0" x="119.0" y="-180.0"/></g><g fill="rgb(2%, 73%, 80%)" fill-opacity="0.2" stroke="rgb(-51%, 30%, 37%)" stroke-opacity="1.0" stroke-width="1.0"><rect height="36.0" width="54.0" x="0" y="-108.0"/></g><g fill="rgb(2%, 73%, 80%)" fill-opacity="0.2" stroke="rgb(-51%, 30%, 37%)" stroke-opacity="1.0" stroke-width="1.0"><rect height="36.0" width="77.9976" x="18.0012" y="-252.0"/></g><g fill="rgb(2%, 73%, 80%)" fill-opacity="0.2" stroke="rgb(-51%, 30%, 37%)" stroke-opacity="1.0" stroke-width="1.0"><rect height="36.0" width="67.9997" x="151.0002" y="-36.0"/></g><g fill="rgb(2%, 73%, 80%)" fill-opacity="0.2" stroke="rgb(-51%, 30%, 37%)" stroke-opacity="1.0" stroke-width="1.0"><rect height="36.0" width="127.0008" x="539.4996" y="-36.0"/></g></g><g class="labels"><g fill="rgb(-51%, 30%, 37%)" fill-opacity="1.0" font-size="14.0" stroke="none" stroke-width="0.0" text-anchor="middle"><text x="106.0000" y="-302.3"><a href="https://hackage.haskell.org/package/numhask/docs/NumHask-Algebra-Additive.html:Additive">Additive</a></text><text x="294.0" y="-86.3"><a href="https://hackage.haskell.org/package/numhask/docs/NumHask-Algebra-Metric.html:Direction">Direction</a></text><text x="155.0" y="-230.3"><a href="https://hackage.haskell.org/package/numhask/docs/NumHask-Algebra-Distributive.html:Distributive">Distributive</a></text><text x="373.0" y="-158.3"><a href="https://hackage.haskell.org/package/numhask/docs/NumHask-Algebra-Multiplicative.html:Divisive">Divisive</a></text><text x="488.0" y="-14.3"><a href="https://hackage.haskell.org/package/numhask/docs/NumHask-Algebra-Field.html:ExpField">ExpField</a></text><text x="373.0" y="-86.3"><a href="https://hackage.haskell.org/package/numhask/docs/NumHask-Algebra-Field.html:Field">Field</a></text><text x="212.0000" y="-86.3"><a href="https://hackage.haskell.org/package/numhask/docs/NumHask-Data-Integral.html:Integral">Integral</a></text><text x="373.0" y="-14.3"><a href="https://hackage.haskell.org/package/numhask/docs/NumHask-Algebra-Field.html:LowerBoundedField">LowerBoundedField</a></text><text x="254.0" y="-158.3"><a href="https://hackage.haskell.org/package/numhask/docs/NumHask-Algebra-Module.html:Module">Module</a></text><text x="279.0" y="-302.3"><a href="https://hackage.haskell.org/package/numhask/docs/NumHask-Algebra-Multiplicative.html:Multiplicative">Multiplicative</a></text><text x="279.0" y="-230.3"><a href="https://hackage.haskell.org/package/numhask/docs/NumHask-Algebra-Module.html:MultiplicativeAction">MultiplicativeAction</a></text><text x="137.0" y="-86.3"><a href="https://hackage.haskell.org/package/numhask/docs/NumHask-Algebra-Metric.html:Norm">Norm</a></text><text x="85.0" y="-14.3"><a href="https://hackage.haskell.org/package/numhask/docs/NumHask-Algebra-Field.html:QuotientField">QuotientField</a></text><text x="264.0" y="-14.3"><a href="https://hackage.haskell.org/package/numhask/docs/NumHask-Data-Rational.html:Ratio">Ratio</a></text><text x="146.0" y="-158.3"><a href="https://hackage.haskell.org/package/numhask/docs/NumHask-Algebra-Ring.html:Ring">Ring</a></text><text x="27.0" y="-86.3"><a href="https://hackage.haskell.org/package/numhask/docs/NumHask-Algebra-Metric.html:Signed">Signed</a></text><text x="57.0" y="-230.3"><a href="https://hackage.haskell.org/package/numhask/docs/NumHask-Algebra-Additive.html:Subtractive">Subtractive</a></text><text x="185.0000" y="-14.3"><a href="https://hackage.haskell.org/package/numhask/docs/NumHask-Algebra-Field.html:TrigField">TrigField</a></text><text x="603.0" y="-14.3"><a href="https://hackage.haskell.org/package/numhask/docs/NumHask-Algebra-Field.html:UpperBoundedField">UpperBoundedField</a></text></g></g></g><g class="hud"/></svg>