<svg xmlns="http://www.w3.org/2000/svg" width="2476.6587800331736" xmlns:xlink="http://www.w3.org/1999/xlink" viewBox="-0.24920000000000186 -739.9907999999998 3666.6428 740.2397999999998" height="500.0"><style>svg {
  color-scheme: light dark;
}
{
  .canvas g, .title g, .axisbar g, .ticktext g, .tickglyph g, .ticklines g, .legendContent g text {
    fill: #0d0d0d;
  }
  .ticklines g, .tickglyph g, .legendBorder g {
    stroke: #0d0d0d;
  }
  .legendBorder g {
    fill: #f0f0f0;
  }
}
@media (prefers-color-scheme:dark) {
  .canvas g, .title g, .axisbar g, .ticktext g, .tickglyph g, .ticklines g, .legendContent g text {
    fill: #f0f0f0;
  }
  .ticklines g, .tickglyph g, .legendBorder g {
    stroke: #f0f0f0;
  }
  .legendBorder g {
    fill: #0d0d0d;
  }
}</style><g class="chart"><g><g fill="rgb(0%, 0%, 0%)" stroke="rgb(0%, 0%, 0%)" stroke-width="0.5" fill-opacity="0.0" stroke-opacity="1.0"><path d="M 617.91,-183.89 C 609.8,-173.98 599.95,-163.9500 589.04,-156.89 C 540.5,-125.4900 514.26,-149.5300 464.04,-120.8900 C 454.53,-115.46 445.33,-108.31 437.03,-100.85 L 436.64,-100.5"/></g><g fill="rgb(0%, 0%, 0%)" stroke="rgb(0%, 0%, 0%)" stroke-width="0.5" fill-opacity="0.0" stroke-opacity="1.0"><path d="M 617.34,-183.8600 C 602.62,-162.4900 583.46,-134.66 567.13,-110.94 L 566.93,-110.66"/></g><g fill="rgb(0%, 0%, 0%)" stroke="rgb(0%, 0%, 0%)" stroke-width="0.5" fill-opacity="0.0" stroke-opacity="1.0"><path d="M 642.1100,-176.67 C 642.77,-150.8100 643.6,-118.06 644.21,-94.085 L 644.22,-93.804"/></g><g fill="rgb(0%, 0%, 0%)" stroke="rgb(0%, 0%, 0%)" stroke-width="0.5" fill-opacity="0.0" stroke-opacity="1.0"><path d="M 739.47,-350.21 C 715.84,-319.02 686.79,-280.6600 666.39,-253.74 L 666.15,-253.4300"/></g><g fill="rgb(0%, 0%, 0%)" stroke="rgb(0%, 0%, 0%)" stroke-width="0.5" fill-opacity="0.0" stroke-opacity="1.0"><path d="M 547.82,-359.3500 C 569.28,-327.34 597.83,-284.75 617.66,-255.17 L 617.89,-254.82"/></g><g fill="rgb(0%, 0%, 0%)" stroke="rgb(0%, 0%, 0%)" stroke-width="0.5" fill-opacity="0.0" stroke-opacity="1.0"><path d="M 490.36,-358.41 C 474.61,-332.6200 454.82,-300.1900 438.37,-273.2300 L 438.17,-272.92"/></g><g fill="rgb(0%, 0%, 0%)" stroke="rgb(0%, 0%, 0%)" stroke-width="0.5" fill-opacity="0.0" stroke-opacity="1.0"><path d="M 423.75,-367.8500 C 432.78,-352.12 443.93,-333.65 455.04,-317.68 C 469.98,-296.23 488.28,-273.48 503.51,-255.36 L 503.86,-254.9300"/></g><g fill="rgb(0%, 0%, 0%)" stroke="rgb(0%, 0%, 0%)" stroke-width="0.5" fill-opacity="0.0" stroke-opacity="1.0"><path d="M 404.49,-363.0500 C 404.75,-339.28 405.08,-308.81 405.37,-282.13 L 405.37,-281.82"/></g><g fill="rgb(0%, 0%, 0%)" stroke="rgb(0%, 0%, 0%)" stroke-width="0.5" fill-opacity="0.0" stroke-opacity="1.0"><path d="M 404.04,-567.44 C 404.04,-528.56 404.04,-480.42 404.04,-446.83 L 404.04,-446.43"/></g><g fill="rgb(0%, 0%, 0%)" stroke="rgb(0%, 0%, 0%)" stroke-width="0.5" fill-opacity="0.0" stroke-opacity="1.0"><path d="M 298.31,-605.33 C 305.27,-583.72 316.14,-553.1400 329.04,-527.86 C 337.79,-510.73 342.81,-508.14 353.04,-491.86 C 363.32,-475.52 374.29,-457.14 383.41,-441.58 L 383.62,-441.21"/></g><g fill="rgb(0%, 0%, 0%)" stroke="rgb(0%, 0%, 0%)" stroke-width="0.5" fill-opacity="0.0" stroke-opacity="1.0"><path d="M 525.54,-594.8 C 524.07,-557.71 521.82,-500.9300 520.17,-459.28 L 520.15,-458.7900"/></g><g fill="rgb(0%, 0%, 0%)" stroke="rgb(0%, 0%, 0%)" stroke-width="0.5" fill-opacity="0.0" stroke-opacity="1.0"><path d="M 404.08,-156.7500 C 403.64,-142.7800 403.17,-128.07 402.74,-114.49 L 402.73,-114.17"/></g><g fill="rgb(0%, 0%, 0%)" stroke="rgb(0%, 0%, 0%)" stroke-width="0.5" fill-opacity="0.0" stroke-opacity="1.0"><path d="M 444.84,-170.37 C 460.76,-150.71 479.14,-128.01 494.99,-108.45 L 495.3600,-107.98"/></g><g fill="rgb(0%, 0%, 0%)" stroke="rgb(0%, 0%, 0%)" stroke-width="0.5" fill-opacity="0.0" stroke-opacity="1.0"><path d="M 451.0700,-175.56 C 459.89,-168.63 469.41,-162.05 479.04,-156.89 C 529.25,-129.98 555.5100,-153.74 602.04,-120.8900 C 613.2,-113.02 622.54,-101.32 629.65,-90.381 L 629.82,-90.1220"/></g><g fill="rgb(0%, 0%, 0%)" stroke="rgb(0%, 0%, 0%)" stroke-width="0.5" fill-opacity="0.0" stroke-opacity="1.0"><path d="M 311.47,-336.75 C 329.78,-314.2 349.84,-289.5000 366.76,-268.67 L 367.15,-268.1800"/></g><g fill="rgb(0%, 0%, 0%)" stroke="rgb(0%, 0%, 0%)" stroke-width="0.5" fill-opacity="0.0" stroke-opacity="1.0"><path d="M 629.76,-604.96 C 632.03,-568.2100 636.06,-502.8100 638.88,-457.0100 L 638.9,-456.74"/></g><g fill="rgb(0%, 0%, 0%)" stroke="rgb(0%, 0%, 0%)" stroke-width="0.5" fill-opacity="0.0" stroke-opacity="1.0"><path d="M 641.77,-352.6600 C 641.61,-324.03 641.42,-288.8 641.27,-261.88 L 641.27,-261.5600"/></g><g fill="rgb(0%, 0%, 0%)" stroke="rgb(0%, 0%, 0%)" stroke-width="0.5" fill-opacity="0.0" stroke-opacity="1.0"><path d="M 615.9,-359.3500 C 597.99,-328.9300 574.45,-288.9400 557.22,-259.6500 L 557.01,-259.3100"/></g><g fill="rgb(0%, 0%, 0%)" stroke="rgb(0%, 0%, 0%)" stroke-width="0.5" fill-opacity="0.0" stroke-opacity="1.0"><path d="M 718.19,-564.38 C 700.83,-528.22 679.98,-484.78 664.48,-452.5100 L 664.3,-452.1300"/></g><g fill="rgb(0%, 0%, 0%)" stroke="rgb(0%, 0%, 0%)" stroke-width="0.5" fill-opacity="0.0" stroke-opacity="1.0"><circle cy="-633.7999999999998" cx="63.044" r="63.0432"/></g><g fill="rgb(0%, 0%, 0%)" stroke="rgb(0%, 0%, 0%)" stroke-width="0.5" fill-opacity="0.0" stroke-opacity="1.0"><circle cy="-633.7999999999998" cx="193.03999999999996" r="49.3956"/></g><g fill="rgb(0%, 0%, 0%)" stroke="rgb(0%, 0%, 0%)" stroke-width="0.5" fill-opacity="0.0" stroke-opacity="1.0"><circle cy="-219.28" cx="641.04" r="42.246"/></g><g fill="rgb(0%, 0%, 0%)" stroke="rgb(0%, 0%, 0%)" stroke-width="0.5" fill-opacity="0.0" stroke-opacity="1.0"><circle cy="-404.7699999999999" cx="780.04" r="67.59360000000001"/></g><g fill="rgb(0%, 0%, 0%)" stroke="rgb(0%, 0%, 0%)" stroke-width="0.5" fill-opacity="0.0" stroke-opacity="1.0"><circle cy="-60.445" cx="401.04" r="53.294399999999996"/></g><g fill="rgb(0%, 0%, 0%)" stroke="rgb(0%, 0%, 0%)" stroke-width="0.5" fill-opacity="0.0" stroke-opacity="1.0"><circle cy="-633.7999999999998" cx="876.04" r="30.547439999999998"/></g><g fill="rgb(0%, 0%, 0%)" stroke="rgb(0%, 0%, 0%)" stroke-width="0.5" fill-opacity="0.0" stroke-opacity="1.0"><circle cy="-633.7999999999998" cx="1027.0" r="102.69"/></g><g fill="rgb(0%, 0%, 0%)" stroke="rgb(0%, 0%, 0%)" stroke-width="0.5" fill-opacity="0.0" stroke-opacity="1.0"><circle cy="-633.7999999999998" cx="1217.0" r="68.8932"/></g><g fill="rgb(0%, 0%, 0%)" stroke="rgb(0%, 0%, 0%)" stroke-width="0.5" fill-opacity="0.0" stroke-opacity="1.0"><circle cy="-633.7999999999998" cx="1410.0" r="105.9408"/></g><g fill="rgb(0%, 0%, 0%)" stroke="rgb(0%, 0%, 0%)" stroke-width="0.5" fill-opacity="0.0" stroke-opacity="1.0"><circle cy="-60.445" cx="533.04" r="60.444"/></g><g fill="rgb(0%, 0%, 0%)" stroke="rgb(0%, 0%, 0%)" stroke-width="0.5" fill-opacity="0.0" stroke-opacity="1.0"><circle cy="-633.7999999999998" cx="1579.0" r="44.8452"/></g><g fill="rgb(0%, 0%, 0%)" stroke="rgb(0%, 0%, 0%)" stroke-width="0.5" fill-opacity="0.0" stroke-opacity="1.0"><circle cy="-404.7699999999999" cx="518.0400000000001" r="53.946"/></g><g fill="rgb(0%, 0%, 0%)" stroke="rgb(0%, 0%, 0%)" stroke-width="0.5" fill-opacity="0.0" stroke-opacity="1.0"><circle cy="-404.7699999999999" cx="404.04" r="41.598"/></g><g fill="rgb(0%, 0%, 0%)" stroke="rgb(0%, 0%, 0%)" stroke-width="0.5" fill-opacity="0.0" stroke-opacity="1.0"><circle cy="-633.7999999999998" cx="404.04" r="66.294"/></g><g fill="rgb(0%, 0%, 0%)" stroke="rgb(0%, 0%, 0%)" stroke-width="0.5" fill-opacity="0.0" stroke-opacity="1.0"><circle cy="-633.7999999999998" cx="1680.0" r="38.3472"/></g><g fill="rgb(0%, 0%, 0%)" stroke="rgb(0%, 0%, 0%)" stroke-width="0.5" fill-opacity="0.0" stroke-opacity="1.0"><circle cy="-633.7999999999998" cx="1781.0" r="44.1972"/></g><g fill="rgb(0%, 0%, 0%)" stroke="rgb(0%, 0%, 0%)" stroke-width="0.5" fill-opacity="0.0" stroke-opacity="1.0"><circle cy="-633.7999999999998" cx="290.04" r="29.24748"/></g><g fill="rgb(0%, 0%, 0%)" stroke="rgb(0%, 0%, 0%)" stroke-width="0.5" fill-opacity="0.0" stroke-opacity="1.0"><circle cy="-633.7999999999998" cx="1877.0" r="33.79716"/></g><g fill="rgb(0%, 0%, 0%)" stroke="rgb(0%, 0%, 0%)" stroke-width="0.5" fill-opacity="0.0" stroke-opacity="1.0"><circle cy="-633.7999999999998" cx="1981.0" r="51.9948"/></g><g fill="rgb(0%, 0%, 0%)" stroke="rgb(0%, 0%, 0%)" stroke-width="0.5" fill-opacity="0.0" stroke-opacity="1.0"><circle cy="-633.7999999999998" cx="2090.0" r="38.9952"/></g><g fill="rgb(0%, 0%, 0%)" stroke="rgb(0%, 0%, 0%)" stroke-width="0.5" fill-opacity="0.0" stroke-opacity="1.0"><circle cy="-633.7999999999998" cx="2215.0" r="68.24520000000001"/></g><g fill="rgb(0%, 0%, 0%)" stroke="rgb(0%, 0%, 0%)" stroke-width="0.5" fill-opacity="0.0" stroke-opacity="1.0"><circle cy="-219.28" cx="534.04" r="46.144800000000004"/></g><g fill="rgb(0%, 0%, 0%)" stroke="rgb(0%, 0%, 0%)" stroke-width="0.5" fill-opacity="0.0" stroke-opacity="1.0"><circle cy="-633.7999999999998" cx="2371.0" r="69.5448"/></g><g fill="rgb(0%, 0%, 0%)" stroke="rgb(0%, 0%, 0%)" stroke-width="0.5" fill-opacity="0.0" stroke-opacity="1.0"><circle cy="-633.7999999999998" cx="2493.9999999999995" r="35.74692"/></g><g fill="rgb(0%, 0%, 0%)" stroke="rgb(0%, 0%, 0%)" stroke-width="0.5" fill-opacity="0.0" stroke-opacity="1.0"><circle cy="-633.7999999999998" cx="2634.0" r="85.79159999999999"/></g><g fill="rgb(0%, 0%, 0%)" stroke="rgb(0%, 0%, 0%)" stroke-width="0.5" fill-opacity="0.0" stroke-opacity="1.0"><circle cy="-633.7999999999998" cx="2776.0" r="38.3472"/></g><g fill="rgb(0%, 0%, 0%)" stroke="rgb(0%, 0%, 0%)" stroke-width="0.5" fill-opacity="0.0" stroke-opacity="1.0"><circle cy="-633.7999999999998" cx="2906.0" r="73.44359999999999"/></g><g fill="rgb(0%, 0%, 0%)" stroke="rgb(0%, 0%, 0%)" stroke-width="0.5" fill-opacity="0.0" stroke-opacity="1.0"><circle cy="-633.7999999999998" cx="527.0400000000001" r="38.9952"/></g><g fill="rgb(0%, 0%, 0%)" stroke="rgb(0%, 0%, 0%)" stroke-width="0.5" fill-opacity="0.0" stroke-opacity="1.0"><circle cy="-219.28" cx="406.04" r="62.3952"/></g><g fill="rgb(0%, 0%, 0%)" stroke="rgb(0%, 0%, 0%)" stroke-width="0.5" fill-opacity="0.0" stroke-opacity="1.0"><circle cy="-404.7699999999999" cx="257.04" r="87.0912"/></g><g fill="rgb(0%, 0%, 0%)" stroke="rgb(0%, 0%, 0%)" stroke-width="0.5" fill-opacity="0.0" stroke-opacity="1.0"><circle cy="-633.7999999999998" cx="3029.0" r="31.84704"/></g><g fill="rgb(0%, 0%, 0%)" stroke="rgb(0%, 0%, 0%)" stroke-width="0.5" fill-opacity="0.0" stroke-opacity="1.0"><circle cy="-633.7999999999998" cx="3140.0" r="61.095600000000005"/></g><g fill="rgb(0%, 0%, 0%)" stroke="rgb(0%, 0%, 0%)" stroke-width="0.5" fill-opacity="0.0" stroke-opacity="1.0"><circle cy="-633.7999999999998" cx="3250.0" r="30.547439999999998"/></g><g fill="rgb(0%, 0%, 0%)" stroke="rgb(0%, 0%, 0%)" stroke-width="0.5" fill-opacity="0.0" stroke-opacity="1.0"><circle cy="-633.7999999999998" cx="628.04" r="28.59732"/></g><g fill="rgb(0%, 0%, 0%)" stroke="rgb(0%, 0%, 0%)" stroke-width="0.5" fill-opacity="0.0" stroke-opacity="1.0"><circle cy="-633.7999999999998" cx="3333.9999999999995" r="35.74692"/></g><g fill="rgb(0%, 0%, 0%)" stroke="rgb(0%, 0%, 0%)" stroke-width="0.5" fill-opacity="0.0" stroke-opacity="1.0"><circle cy="-404.7699999999999" cx="642.04" r="51.9948"/></g><g fill="rgb(0%, 0%, 0%)" stroke="rgb(0%, 0%, 0%)" stroke-width="0.5" fill-opacity="0.0" stroke-opacity="1.0"><circle cy="-633.7999999999998" cx="751.04" r="76.6944"/></g><g fill="rgb(0%, 0%, 0%)" stroke="rgb(0%, 0%, 0%)" stroke-width="0.5" fill-opacity="0.0" stroke-opacity="1.0"><circle cy="-633.7999999999998" cx="3433.0" r="44.8452"/></g><g fill="rgb(0%, 0%, 0%)" stroke="rgb(0%, 0%, 0%)" stroke-width="0.5" fill-opacity="0.0" stroke-opacity="1.0"><circle cy="-60.445" cx="645.04" r="33.147"/></g><g fill="rgb(0%, 0%, 0%)" stroke="rgb(0%, 0%, 0%)" stroke-width="0.5" fill-opacity="0.0" stroke-opacity="1.0"><circle cy="-633.7999999999998" cx="3581.0" r="85.14359999999999"/></g><g fill="rgb(5%, 5%, 5%)" stroke="none" stroke-width="0.0" font-size="14.0" fill-opacity="1.0" text-anchor="middle"><text x="63.044" y="-630.0999999999999">AbelianGroup</text><text x="193.03999999999996" y="-630.0999999999999">Absorbing</text><text x="641.04" y="-215.58">Additive</text><text x="780.04" y="-401.06999999999994">AdditiveAction</text><text x="401.04" y="-56.745">Associative</text><text x="876.04" y="-630.0999999999999">Basis</text><text x="1027.0" y="-630.0999999999999">BoundedJoinSemiLattice</text><text x="1217.0" y="-630.0999999999999">BoundedLattice</text><text x="1410.0" y="-630.0999999999999">BoundedMeetSemiLattice</text><text x="533.04" y="-56.745">Commutative</text><text x="1579.0" y="-630.0999999999999">Direction</text><text x="518.0400000000001" y="-401.06999999999994">Distributive</text><text x="404.04" y="-401.06999999999994">Divisive</text><text x="404.04" y="-630.0999999999999">DivisiveAction</text><text x="1680.0" y="-630.0999999999999">Epsilon</text><text x="1781.0" y="-630.0999999999999">ExpField</text><text x="290.04" y="-630.0999999999999">Field</text><text x="1877.0" y="-630.0999999999999">Group</text><text x="1981.0" y="-630.0999999999999">Idempotent</text><text x="2090.0" y="-630.0999999999999">Integral</text><text x="2215.0" y="-630.0999999999999">IntegralDomain</text><text x="534.04" y="-215.58">Invertible</text><text x="2371.0" y="-630.0999999999999">JoinSemiLattice</text><text x="2493.9999999999995" y="-630.0999999999999">Lattice</text><text x="2634.0" y="-630.0999999999999">LowerBoundedField</text><text x="2776.0" y="-630.0999999999999">Magma</text><text x="2906.0" y="-630.0999999999999">MeetSemiLattice</text><text x="527.0400000000001" y="-630.0999999999999">Module</text><text x="406.04" y="-215.58">Multiplicative</text><text x="257.04" y="-401.06999999999994">MultiplicativeAction</text><text x="3029.0" y="-630.0999999999999">Norm</text><text x="3140.0" y="-630.0999999999999">QuotientField</text><text x="3250.0" y="-630.0999999999999">Ratio</text><text x="628.04" y="-630.0999999999999">Ring</text><text x="3333.9999999999995" y="-630.0999999999999">Signed</text><text x="642.04" y="-401.06999999999994">Subtractive</text><text x="751.04" y="-630.0999999999999">SubtractiveAction</text><text x="3433.0" y="-630.0999999999999">TrigField</text><text x="645.04" y="-56.745">Unital</text><text x="3581.0" y="-630.0999999999999">UpperBoundedField</text></g></g></g><g class="hud"></g></svg>