<svg xmlns="http://www.w3.org/2000/svg" width="2487.1314673974575" xmlns:xlink="http://www.w3.org/1999/xlink" viewBox="-0.25019999999999953 -739.9907999999998 3682.1474000000003 740.2397999999998" height="500.0"><style>svg {
  color-scheme: light dark;
}
{
  .canvas g, .title g, .axisbar g, .ticktext g, .tickglyph g, .ticklines g, .legendContent g text {
    fill: #0d0d0d;
  }
  .ticklines g, .tickglyph g, .legendBorder g {
    stroke: #0d0d0d;
  }
  .legendBorder g {
    fill: #f0f0f0;
  }
}
@media (prefers-color-scheme:dark) {
  .canvas g, .title g, .axisbar g, .ticktext g, .tickglyph g, .ticklines g, .legendContent g text {
    fill: #f0f0f0;
  }
  .ticklines g, .tickglyph g, .legendBorder g {
    stroke: #f0f0f0;
  }
  .legendBorder g {
    fill: #0d0d0d;
  }
}</style><g class="chart"><g><g fill="rgb(0%, 0%, 0%)" stroke="rgb(0%, 0%, 0%)" stroke-width="0.5" fill-opacity="0.0" stroke-opacity="1.0"><path d="M 470.6400,-186.08 C 462.8200,-176.66 454.2500,-166.3600 446.3500,-156.89 C 431.3700,-138.94 414.7600,-119.12 400.59,-102.2100 L 400.2500,-101.82"/></g><g fill="rgb(0%, 0%, 0%)" stroke="rgb(0%, 0%, 0%)" stroke-width="0.5" fill-opacity="0.0" stroke-opacity="1.0"><path d="M 497.6100,-176.67 C 497.72,-159.74 497.85,-139.85 497.9600,-121.41 L 497.9700,-120.97"/></g><g fill="rgb(0%, 0%, 0%)" stroke="rgb(0%, 0%, 0%)" stroke-width="0.5" fill-opacity="0.0" stroke-opacity="1.0"><path d="M 474.6500,-183.3500 C 466.75,-173.54 457.1300,-163.6900 446.3500,-156.89 C 391.29,-122.1400 358.01,-157.7600 304.3500,-120.8900 C 293.19,-113.22 284.01,-101.56 277.11,-90.586 L 276.95,-90.327"/></g><g fill="rgb(0%, 0%, 0%)" stroke="rgb(0%, 0%, 0%)" stroke-width="0.5" fill-opacity="0.0" stroke-opacity="1.0"><path d="M 596.48,-350.21 C 572.68,-319.02 543.42,-280.6600 522.8700,-253.74 L 522.6300,-253.4300"/></g><g fill="rgb(0%, 0%, 0%)" stroke="rgb(0%, 0%, 0%)" stroke-width="0.5" fill-opacity="0.0" stroke-opacity="1.0"><path d="M 404.88,-359.3500 C 426.1600,-327.34 454.49,-284.75 474.1500,-255.17 L 474.38,-254.82"/></g><g fill="rgb(0%, 0%, 0%)" stroke="rgb(0%, 0%, 0%)" stroke-width="0.5" fill-opacity="0.0" stroke-opacity="1.0"><path d="M 347.6600,-358.41 C 331.92,-332.6200 312.1200,-300.1900 295.67,-273.2300 L 295.47,-272.92"/></g><g fill="rgb(0%, 0%, 0%)" stroke="rgb(0%, 0%, 0%)" stroke-width="0.5" fill-opacity="0.0" stroke-opacity="1.0"><path d="M 281.05,-367.8500 C 290.08,-352.12 301.23,-333.65 312.3500,-317.68 C 327.28,-296.23 345.58,-273.48 360.81,-255.36 L 361.17,-254.9300"/></g><g fill="rgb(0%, 0%, 0%)" stroke="rgb(0%, 0%, 0%)" stroke-width="0.5" fill-opacity="0.0" stroke-opacity="1.0"><path d="M 261.79,-363.0500 C 262.05,-339.28 262.38,-308.81 262.67,-282.13 L 262.68,-281.82"/></g><g fill="rgb(0%, 0%, 0%)" stroke="rgb(0%, 0%, 0%)" stroke-width="0.5" fill-opacity="0.0" stroke-opacity="1.0"><path d="M 187.75,-572.86 C 205.79,-531.9 229.15,-478.86 244.66,-443.6500 L 244.84,-443.2400"/></g><g fill="rgb(0%, 0%, 0%)" stroke="rgb(0%, 0%, 0%)" stroke-width="0.5" fill-opacity="0.0" stroke-opacity="1.0"><path d="M 273.6,-604.51 C 271.1500,-564.77 266.68,-492.18 263.86,-446.5900 L 263.85,-446.33"/></g><g fill="rgb(0%, 0%, 0%)" stroke="rgb(0%, 0%, 0%)" stroke-width="0.5" fill-opacity="0.0" stroke-opacity="1.0"><path d="M 375.3500,-594.8 C 375.3500,-557.71 375.3500,-500.9300 375.3500,-459.28 L 375.3500,-458.7900"/></g><g fill="rgb(0%, 0%, 0%)" stroke="rgb(0%, 0%, 0%)" stroke-width="0.5" fill-opacity="0.0" stroke-opacity="1.0"><path d="M 297.36,-166.49 C 310.2600,-146.8400 324.8300,-124.6500 337.2500,-105.75 L 337.54,-105.31"/></g><g fill="rgb(0%, 0%, 0%)" stroke="rgb(0%, 0%, 0%)" stroke-width="0.5" fill-opacity="0.0" stroke-opacity="1.0"><path d="M 308.76,-176.2500 C 317.5500,-169.26 326.95,-162.4700 336.3500,-156.89 C 374.0900,-134.4600 390.6500,-143.4100 428.3500,-120.8900 C 437.1000,-115.66 445.8600,-109.3300 454.0600,-102.7700 L 454.4500,-102.46"/></g><g fill="rgb(0%, 0%, 0%)" stroke="rgb(0%, 0%, 0%)" stroke-width="0.5" fill-opacity="0.0" stroke-opacity="1.0"><path d="M 262.95,-156.7500 C 262.82,-135.46 262.67,-112.43 262.56,-94.343 L 262.55,-93.917"/></g><g fill="rgb(0%, 0%, 0%)" stroke="rgb(0%, 0%, 0%)" stroke-width="0.5" fill-opacity="0.0" stroke-opacity="1.0"><path d="M 168.7700,-336.75 C 187.0800,-314.2 207.1400,-289.5000 224.0600,-268.67 L 224.4600,-268.1800"/></g><g fill="rgb(0%, 0%, 0%)" stroke="rgb(0%, 0%, 0%)" stroke-width="0.5" fill-opacity="0.0" stroke-opacity="1.0"><path d="M 482.6800,-604.96 C 485.75,-568.2100 491.2300,-502.8100 495.0600,-457.0100 L 495.0800,-456.74"/></g><g fill="rgb(0%, 0%, 0%)" stroke="rgb(0%, 0%, 0%)" stroke-width="0.5" fill-opacity="0.0" stroke-opacity="1.0"><path d="M 498.79,-352.6600 C 498.4800,-324.03 498.09,-288.8 497.8,-261.88 L 497.8,-261.5600"/></g><g fill="rgb(0%, 0%, 0%)" stroke="rgb(0%, 0%, 0%)" stroke-width="0.5" fill-opacity="0.0" stroke-opacity="1.0"><path d="M 473.2000,-359.3500 C 455.2900,-328.9300 431.7600,-288.9400 414.52,-259.6500 L 414.32,-259.3100"/></g><g fill="rgb(0%, 0%, 0%)" stroke="rgb(0%, 0%, 0%)" stroke-width="0.5" fill-opacity="0.0" stroke-opacity="1.0"><path d="M 571.72,-563.7600 C 555.2300,-527.77 535.5000,-484.6800 520.8,-452.61 L 520.6300,-452.23"/></g><g fill="rgb(0%, 0%, 0%)" stroke="rgb(0%, 0%, 0%)" stroke-width="0.5" fill-opacity="0.0" stroke-opacity="1.0"><circle cy="-633.7999999999998" cx="1085.3000000000002" r="63.0432"/></g><g fill="rgb(0%, 0%, 0%)" stroke="rgb(0%, 0%, 0%)" stroke-width="0.5" fill-opacity="0.0" stroke-opacity="1.0"><circle cy="-633.7999999999998" cx="869.35" r="49.3956"/></g><g fill="rgb(0%, 0%, 0%)" stroke="rgb(0%, 0%, 0%)" stroke-width="0.5" fill-opacity="0.0" stroke-opacity="1.0"><circle cy="-219.28" cx="497.3500000000001" r="42.246"/></g><g fill="rgb(0%, 0%, 0%)" stroke="rgb(0%, 0%, 0%)" stroke-width="0.5" fill-opacity="0.0" stroke-opacity="1.0"><circle cy="-404.7699999999999" cx="637.35" r="67.59360000000001"/></g><g fill="rgb(0%, 0%, 0%)" stroke="rgb(0%, 0%, 0%)" stroke-width="0.5" fill-opacity="0.0" stroke-opacity="1.0"><circle cy="-60.445" cx="366.35" r="53.294399999999996"/></g><g fill="rgb(0%, 0%, 0%)" stroke="rgb(0%, 0%, 0%)" stroke-width="0.5" fill-opacity="0.0" stroke-opacity="1.0"><circle cy="-633.7999999999998" cx="3449.3" r="30.547439999999998"/></g><g fill="rgb(0%, 0%, 0%)" stroke="rgb(0%, 0%, 0%)" stroke-width="0.5" fill-opacity="0.0" stroke-opacity="1.0"><circle cy="-633.7999999999998" cx="2565.3" r="102.69"/></g><g fill="rgb(0%, 0%, 0%)" stroke="rgb(0%, 0%, 0%)" stroke-width="0.5" fill-opacity="0.0" stroke-opacity="1.0"><circle cy="-633.7999999999998" cx="2985.3" r="68.8932"/></g><g fill="rgb(0%, 0%, 0%)" stroke="rgb(0%, 0%, 0%)" stroke-width="0.5" fill-opacity="0.0" stroke-opacity="1.0"><circle cy="-633.7999999999998" cx="2792.3" r="105.9408"/></g><g fill="rgb(0%, 0%, 0%)" stroke="rgb(0%, 0%, 0%)" stroke-width="0.5" fill-opacity="0.0" stroke-opacity="1.0"><circle cy="-60.445" cx="498.3500000000001" r="60.444"/></g><g fill="rgb(0%, 0%, 0%)" stroke="rgb(0%, 0%, 0%)" stroke-width="0.5" fill-opacity="0.0" stroke-opacity="1.0"><circle cy="-633.7999999999998" cx="3542.3" r="44.8452"/></g><g fill="rgb(0%, 0%, 0%)" stroke="rgb(0%, 0%, 0%)" stroke-width="0.5" fill-opacity="0.0" stroke-opacity="1.0"><circle cy="-404.7699999999999" cx="375.3500000000001" r="53.946"/></g><g fill="rgb(0%, 0%, 0%)" stroke="rgb(0%, 0%, 0%)" stroke-width="0.5" fill-opacity="0.0" stroke-opacity="1.0"><circle cy="-404.7699999999999" cx="261.35" r="41.598"/></g><g fill="rgb(0%, 0%, 0%)" stroke="rgb(0%, 0%, 0%)" stroke-width="0.5" fill-opacity="0.0" stroke-opacity="1.0"><circle cy="-633.7999999999998" cx="161.35" r="66.294"/></g><g fill="rgb(0%, 0%, 0%)" stroke="rgb(0%, 0%, 0%)" stroke-width="0.5" fill-opacity="0.0" stroke-opacity="1.0"><circle cy="-633.7999999999998" cx="3643.3" r="38.3472"/></g><g fill="rgb(0%, 0%, 0%)" stroke="rgb(0%, 0%, 0%)" stroke-width="0.5" fill-opacity="0.0" stroke-opacity="1.0"><circle cy="-633.7999999999998" cx="1364.3000000000002" r="44.1972"/></g><g fill="rgb(0%, 0%, 0%)" stroke="rgb(0%, 0%, 0%)" stroke-width="0.5" fill-opacity="0.0" stroke-opacity="1.0"><circle cy="-633.7999999999998" cx="275.35" r="29.24748"/></g><g fill="rgb(0%, 0%, 0%)" stroke="rgb(0%, 0%, 0%)" stroke-width="0.5" fill-opacity="0.0" stroke-opacity="1.0"><circle cy="-633.7999999999998" cx="970.3500000000003" r="33.79716"/></g><g fill="rgb(0%, 0%, 0%)" stroke="rgb(0%, 0%, 0%)" stroke-width="0.5" fill-opacity="0.0" stroke-opacity="1.0"><circle cy="-633.7999999999998" cx="750.35" r="51.9948"/></g><g fill="rgb(0%, 0%, 0%)" stroke="rgb(0%, 0%, 0%)" stroke-width="0.5" fill-opacity="0.0" stroke-opacity="1.0"><circle cy="-633.7999999999998" cx="3111.3000000000006" r="38.9952"/></g><g fill="rgb(0%, 0%, 0%)" stroke="rgb(0%, 0%, 0%)" stroke-width="0.5" fill-opacity="0.0" stroke-opacity="1.0"><circle cy="-633.7999999999998" cx="1234.3" r="68.24520000000001"/></g><g fill="rgb(0%, 0%, 0%)" stroke="rgb(0%, 0%, 0%)" stroke-width="0.5" fill-opacity="0.0" stroke-opacity="1.0"><circle cy="-219.28" cx="391.3500000000001" r="46.144800000000004"/></g><g fill="rgb(0%, 0%, 0%)" stroke="rgb(0%, 0%, 0%)" stroke-width="0.5" fill-opacity="0.0" stroke-opacity="1.0"><circle cy="-633.7999999999998" cx="2121.3" r="69.5448"/></g><g fill="rgb(0%, 0%, 0%)" stroke="rgb(0%, 0%, 0%)" stroke-width="0.5" fill-opacity="0.0" stroke-opacity="1.0"><circle cy="-633.7999999999998" cx="2409.3" r="35.74692"/></g><g fill="rgb(0%, 0%, 0%)" stroke="rgb(0%, 0%, 0%)" stroke-width="0.5" fill-opacity="0.0" stroke-opacity="1.0"><circle cy="-633.7999999999998" cx="1840.3000000000002" r="85.79159999999999"/></g><g fill="rgb(0%, 0%, 0%)" stroke="rgb(0%, 0%, 0%)" stroke-width="0.5" fill-opacity="0.0" stroke-opacity="1.0"><circle cy="-633.7999999999998" cx="38.347" r="38.3472"/></g><g fill="rgb(0%, 0%, 0%)" stroke="rgb(0%, 0%, 0%)" stroke-width="0.5" fill-opacity="0.0" stroke-opacity="1.0"><circle cy="-633.7999999999998" cx="2282.3" r="73.44359999999999"/></g><g fill="rgb(0%, 0%, 0%)" stroke="rgb(0%, 0%, 0%)" stroke-width="0.5" fill-opacity="0.0" stroke-opacity="1.0"><circle cy="-633.7999999999998" cx="375.3500000000001" r="38.9952"/></g><g fill="rgb(0%, 0%, 0%)" stroke="rgb(0%, 0%, 0%)" stroke-width="0.5" fill-opacity="0.0" stroke-opacity="1.0"><circle cy="-219.28" cx="263.35" r="62.3952"/></g><g fill="rgb(0%, 0%, 0%)" stroke="rgb(0%, 0%, 0%)" stroke-width="0.5" fill-opacity="0.0" stroke-opacity="1.0"><circle cy="-404.7699999999999" cx="114.35" r="87.0912"/></g><g fill="rgb(0%, 0%, 0%)" stroke="rgb(0%, 0%, 0%)" stroke-width="0.5" fill-opacity="0.0" stroke-opacity="1.0"><circle cy="-633.7999999999998" cx="3369.3000000000006" r="31.84704"/></g><g fill="rgb(0%, 0%, 0%)" stroke="rgb(0%, 0%, 0%)" stroke-width="0.5" fill-opacity="0.0" stroke-opacity="1.0"><circle cy="-633.7999999999998" cx="1487.3" r="61.095600000000005"/></g><g fill="rgb(0%, 0%, 0%)" stroke="rgb(0%, 0%, 0%)" stroke-width="0.5" fill-opacity="0.0" stroke-opacity="1.0"><circle cy="-633.7999999999998" cx="3199.3" r="30.547439999999998"/></g><g fill="rgb(0%, 0%, 0%)" stroke="rgb(0%, 0%, 0%)" stroke-width="0.5" fill-opacity="0.0" stroke-opacity="1.0"><circle cy="-633.7999999999998" cx="480.35" r="28.59732"/></g><g fill="rgb(0%, 0%, 0%)" stroke="rgb(0%, 0%, 0%)" stroke-width="0.5" fill-opacity="0.0" stroke-opacity="1.0"><circle cy="-633.7999999999998" cx="3283.3000000000006" r="35.74692"/></g><g fill="rgb(0%, 0%, 0%)" stroke="rgb(0%, 0%, 0%)" stroke-width="0.5" fill-opacity="0.0" stroke-opacity="1.0"><circle cy="-404.7699999999999" cx="499.35" r="51.9948"/></g><g fill="rgb(0%, 0%, 0%)" stroke="rgb(0%, 0%, 0%)" stroke-width="0.5" fill-opacity="0.0" stroke-opacity="1.0"><circle cy="-633.7999999999998" cx="603.35" r="76.6944"/></g><g fill="rgb(0%, 0%, 0%)" stroke="rgb(0%, 0%, 0%)" stroke-width="0.5" fill-opacity="0.0" stroke-opacity="1.0"><circle cy="-633.7999999999998" cx="1989.3000000000002" r="44.8452"/></g><g fill="rgb(0%, 0%, 0%)" stroke="rgb(0%, 0%, 0%)" stroke-width="0.5" fill-opacity="0.0" stroke-opacity="1.0"><circle cy="-60.445" cx="262.35" r="33.147"/></g><g fill="rgb(0%, 0%, 0%)" stroke="rgb(0%, 0%, 0%)" stroke-width="0.5" fill-opacity="0.0" stroke-opacity="1.0"><circle cy="-633.7999999999998" cx="1651.3000000000002" r="85.14359999999999"/></g><g fill="rgb(5%, 5%, 5%)" stroke="none" stroke-width="0.0" font-size="14.0" fill-opacity="1.0" text-anchor="middle"><text x="1085.3000000000002" y="-630.0999999999999">AbelianGroup</text><text x="869.35" y="-630.0999999999999">Absorbing</text><text x="497.3500000000001" y="-215.58">Additive</text><text x="637.35" y="-401.06999999999994">AdditiveAction</text><text x="366.35" y="-56.745">Associative</text><text x="3449.3" y="-630.0999999999999">Basis</text><text x="2565.3" y="-630.0999999999999">BoundedJoinSemiLattice</text><text x="2985.3" y="-630.0999999999999">BoundedLattice</text><text x="2792.3" y="-630.0999999999999">BoundedMeetSemiLattice</text><text x="498.3500000000001" y="-56.745">Commutative</text><text x="3542.3" y="-630.0999999999999">Direction</text><text x="375.3500000000001" y="-401.06999999999994">Distributive</text><text x="261.35" y="-401.06999999999994">Divisive</text><text x="161.35" y="-630.0999999999999">DivisiveAction</text><text x="3643.3" y="-630.0999999999999">Epsilon</text><text x="1364.3000000000002" y="-630.0999999999999">ExpField</text><text x="275.35" y="-630.0999999999999">Field</text><text x="970.3500000000003" y="-630.0999999999999">Group</text><text x="750.35" y="-630.0999999999999">Idempotent</text><text x="3111.3000000000006" y="-630.0999999999999">Integral</text><text x="1234.3" y="-630.0999999999999">IntegralDomain</text><text x="391.3500000000001" y="-215.58">Invertible</text><text x="2121.3" y="-630.0999999999999">JoinSemiLattice</text><text x="2409.3" y="-630.0999999999999">Lattice</text><text x="1840.3000000000002" y="-630.0999999999999">LowerBoundedField</text><text x="38.347" y="-630.0999999999999">Magma</text><text x="2282.3" y="-630.0999999999999">MeetSemiLattice</text><text x="375.3500000000001" y="-630.0999999999999">Module</text><text x="263.35" y="-215.58">Multiplicative</text><text x="114.35" y="-401.06999999999994">MultiplicativeAction</text><text x="3369.3000000000006" y="-630.0999999999999">Norm</text><text x="1487.3" y="-630.0999999999999">QuotientField</text><text x="3199.3" y="-630.0999999999999">Ratio</text><text x="480.35" y="-630.0999999999999">Ring</text><text x="3283.3000000000006" y="-630.0999999999999">Signed</text><text x="499.35" y="-401.06999999999994">Subtractive</text><text x="603.35" y="-630.0999999999999">SubtractiveAction</text><text x="1989.3000000000002" y="-630.0999999999999">TrigField</text><text x="262.35" y="-56.745">Unital</text><text x="1651.3000000000002" y="-630.0999999999999">UpperBoundedField</text></g></g></g><g class="hud"></g></svg>