<svg xmlns="http://www.w3.org/2000/svg" width="677.3946027554284" xmlns:xlink="http://www.w3.org/1999/xlink" viewBox="-0.24920000000000186 -787.6916 1067.4964 787.9428" height="500.0"><style>svg {
  color-scheme: light dark;
}
{
  .canvas g, .title g, .axisbar g, .ticktext g, .tickglyph g, .ticklines g, .legendContent g text {
    fill: #0d0d0d;
  }
  .ticklines g, .tickglyph g, .legendBorder g {
    stroke: #0d0d0d;
  }
  .legendBorder g {
    fill: #f0f0f0;
  }
}
@media (prefers-color-scheme:dark) {
  .canvas g, .title g, .axisbar g, .ticktext g, .tickglyph g, .ticklines g, .legendContent g text {
    fill: #f0f0f0;
  }
  .ticklines g, .tickglyph g, .legendBorder g {
    stroke: #f0f0f0;
  }
  .legendBorder g {
    fill: #0d0d0d;
  }
}</style><g class="chart"><g><g fill="rgb(0%, 0%, 0%)" stroke="rgb(0%, 0%, 0%)" stroke-width="0.5" fill-opacity="0.0" stroke-opacity="1.0"><path d="M 315.8500,-504.24 C 315.8500,-485.16 315.8500,-460.5600 315.8500,-441.79 L 315.8500,-441.35"/></g><g fill="rgb(0%, 0%, 0%)" stroke="rgb(0%, 0%, 0%)" stroke-width="0.5" fill-opacity="0.0" stroke-opacity="1.0"><path d="M 77.849,-504.3 C 84.514,-499.15 91.6820,-494.1800 98.846,-490.17 C 162.33,-454.6000 245.3300,-430.87 287.94,-420.14 L 288.18,-420.07"/></g><g fill="rgb(0%, 0%, 0%)" stroke="rgb(0%, 0%, 0%)" stroke-width="0.5" fill-opacity="0.0" stroke-opacity="1.0"><path d="M 343.7400,-196.26 C 333.8100,-166.88 321.4900,-130.42 312.27,-103.13 L 312.16,-102.8"/></g><g fill="rgb(0%, 0%, 0%)" stroke="rgb(0%, 0%, 0%)" stroke-width="0.5" fill-opacity="0.0" stroke-opacity="1.0"><path d="M 391.0500,-203.02 C 401.07,-189.18 412.5600,-174.05 423.85,-160.79 C 439.5700,-142.31 458.0400,-123.06 474.55,-106.61 L 474.9400,-106.22"/></g><g fill="rgb(0%, 0%, 0%)" stroke="rgb(0%, 0%, 0%)" stroke-width="0.5" fill-opacity="0.0" stroke-opacity="1.0"><path d="M 640.01,-371.26 C 644.8,-319.9 647.1200,-229.5500 615.8500,-160.79 C 605.46,-137.95 587.2900,-117.37 569.53,-101.08 L 569.11,-100.7000"/></g><g fill="rgb(0%, 0%, 0%)" stroke="rgb(0%, 0%, 0%)" stroke-width="0.5" fill-opacity="0.0" stroke-opacity="1.0"><path d="M 1006.2000,-660.68 C 997.5400,-644.54 985.4900,-627.1 969.8500,-615.86 C 874.1400,-547.09 727.21,-536.88 664.67,-535.83 L 664.31,-535.82"/></g><g fill="rgb(0%, 0%, 0%)" stroke="rgb(0%, 0%, 0%)" stroke-width="0.5" fill-opacity="0.0" stroke-opacity="1.0"><path d="M 634.85,-505.4700 C 634.85,-490.2800 634.85,-471.34 634.85,-454.61 L 634.85,-454.21"/></g><g fill="rgb(0%, 0%, 0%)" stroke="rgb(0%, 0%, 0%)" stroke-width="0.5" fill-opacity="0.0" stroke-opacity="1.0"><path d="M 607.65,-523.74 C 547.35,-500.98 403.0200,-446.48 342.8800,-423.78 L 342.52,-423.64"/></g><g fill="rgb(0%, 0%, 0%)" stroke="rgb(0%, 0%, 0%)" stroke-width="0.5" fill-opacity="0.0" stroke-opacity="1.0"><path d="M 174.56,-507.19 C 181.0300,-501.35 188.03,-495.37 194.8500,-490.17 C 226.3400,-466.11 265.51,-442.32 290.6,-427.79 L 290.9000,-427.62"/></g><g fill="rgb(0%, 0%, 0%)" stroke="rgb(0%, 0%, 0%)" stroke-width="0.5" fill-opacity="0.0" stroke-opacity="1.0"><path d="M 554.5800,-634.63 C 576.54,-607.65 600.4800,-578.23 616.45,-558.61 L 616.83,-558.1500"/></g><g fill="rgb(0%, 0%, 0%)" stroke="rgb(0%, 0%, 0%)" stroke-width="0.5" fill-opacity="0.0" stroke-opacity="1.0"><path d="M 457.1800,-380.5900 C 438.9100,-355.61 413.0000,-320.18 392.6500,-292.37 L 392.41,-292.04"/></g><g fill="rgb(0%, 0%, 0%)" stroke="rgb(0%, 0%, 0%)" stroke-width="0.5" fill-opacity="0.0" stroke-opacity="1.0"><path d="M 489.02,-374.25 C 492.0700,-361.87 495.5900,-347.54 499.1400,-333.09 L 499.2200,-332.75"/></g><g fill="rgb(0%, 0%, 0%)" stroke="rgb(0%, 0%, 0%)" stroke-width="0.5" fill-opacity="0.0" stroke-opacity="1.0"><path d="M 519.85,-160.7800 C 519.85,-148.77 519.85,-136.63 519.85,-125.19 L 519.85,-124.9200"/></g><g fill="rgb(0%, 0%, 0%)" stroke="rgb(0%, 0%, 0%)" stroke-width="0.5" fill-opacity="0.0" stroke-opacity="1.0"><path d="M 253.01,-508.17 C 266.95,-487.19 286.45,-457.83 300.02,-437.4 L 300.3400,-436.92"/></g><g fill="rgb(0%, 0%, 0%)" stroke="rgb(0%, 0%, 0%)" stroke-width="0.5" fill-opacity="0.0" stroke-opacity="1.0"><path d="M 369.63,-650.54 C 380.0500,-637.88 392.3700,-625.24 405.85,-615.86 C 439.2100,-592.63 552.56,-559.01 606.23,-543.89 L 606.54,-543.8"/></g><g fill="rgb(0%, 0%, 0%)" stroke="rgb(0%, 0%, 0%)" stroke-width="0.5" fill-opacity="0.0" stroke-opacity="1.0"><path d="M 351.7,-642.27 C 360.8100,-599.6 368.22,-540.61 355.85,-490.17 C 351.16,-471.08 340.8000,-451.48 331.8000,-436.88 L 331.59,-436.5400"/></g><g fill="rgb(0%, 0%, 0%)" stroke="rgb(0%, 0%, 0%)" stroke-width="0.5" fill-opacity="0.0" stroke-opacity="1.0"><path d="M 634.85,-670.84 C 634.85,-640.75 634.85,-594.59 634.85,-564.85 L 634.85,-564.5"/></g><g fill="rgb(0%, 0%, 0%)" stroke="rgb(0%, 0%, 0%)" stroke-width="0.5" fill-opacity="0.0" stroke-opacity="1.0"><path d="M 323.28,-384.71 C 329.59,-361.87 338.8400,-328.44 346.58,-300.46 L 346.67,-300.13"/></g><g fill="rgb(0%, 0%, 0%)" stroke="rgb(0%, 0%, 0%)" stroke-width="0.5" fill-opacity="0.0" stroke-opacity="1.0"><path d="M 303.68,-386.51 C 291.91,-362.27 273.79,-324.95 259.38,-295.29 L 259.21,-294.94"/></g><g fill="rgb(0%, 0%, 0%)" stroke="rgb(0%, 0%, 0%)" stroke-width="0.5" fill-opacity="0.0" stroke-opacity="1.0"><path d="M 413.6600,-509.35 C 390.84,-487.0000 357.6200,-454.47 336.37,-433.6700 L 336.1200,-433.42"/></g><g fill="rgb(0%, 0%, 0%)" stroke="rgb(0%, 0%, 0%)" stroke-width="0.5" fill-opacity="0.0" stroke-opacity="1.0"><path d="M 253.3000,-198.19 C 263.34,-168.47 276.01,-130.96 285.44,-103.06 L 285.55,-102.73"/></g><g fill="rgb(0%, 0%, 0%)" stroke="rgb(0%, 0%, 0%)" stroke-width="0.5" fill-opacity="0.0" stroke-opacity="1.0"><path d="M 706.0400,-662.05 C 688.5000,-631.0 664.36,-588.25 649.1800,-561.38 L 649.0000,-561.07"/></g><g fill="rgb(0%, 0%, 0%)" stroke="rgb(0%, 0%, 0%)" stroke-width="0.5" fill-opacity="0.0" stroke-opacity="1.0"><path d="M 814.8800,-641.93 C 804.22,-632.76 792.9700,-623.73 781.8500,-615.86 C 742.29,-587.87 691.85,-562.45 661.5200,-548.14 L 661.17,-547.97"/></g><g fill="rgb(0%, 0%, 0%)" stroke="rgb(0%, 0%, 0%)" stroke-width="0.5" fill-opacity="0.0" stroke-opacity="1.0"><circle cy="-62.394" cx="298.85" r="42.246"/></g><g fill="rgb(0%, 0%, 0%)" stroke="rgb(0%, 0%, 0%)" stroke-width="0.5" fill-opacity="0.0" stroke-opacity="1.0"><circle cy="-535.01" cx="315.8500000000001" r="30.547439999999998"/></g><g fill="rgb(0%, 0%, 0%)" stroke="rgb(0%, 0%, 0%)" stroke-width="0.5" fill-opacity="0.0" stroke-opacity="1.0"><circle cy="-535.01" cx="44.846" r="44.8452"/></g><g fill="rgb(0%, 0%, 0%)" stroke="rgb(0%, 0%, 0%)" stroke-width="0.5" fill-opacity="0.0" stroke-opacity="1.0"><circle cy="-247.88" cx="360.8500000000001" r="53.946"/></g><g fill="rgb(0%, 0%, 0%)" stroke="rgb(0%, 0%, 0%)" stroke-width="0.5" fill-opacity="0.0" stroke-opacity="1.0"><circle cy="-412.57" cx="634.85" r="41.598"/></g><g fill="rgb(0%, 0%, 0%)" stroke="rgb(0%, 0%, 0%)" stroke-width="0.5" fill-opacity="0.0" stroke-opacity="1.0"><circle cy="-701.65" cx="1022.8" r="44.1972"/></g><g fill="rgb(0%, 0%, 0%)" stroke="rgb(0%, 0%, 0%)" stroke-width="0.5" fill-opacity="0.0" stroke-opacity="1.0"><circle cy="-535.01" cx="634.85" r="29.24748"/></g><g fill="rgb(0%, 0%, 0%)" stroke="rgb(0%, 0%, 0%)" stroke-width="0.5" fill-opacity="0.0" stroke-opacity="1.0"><circle cy="-535.01" cx="146.85" r="38.9952"/></g><g fill="rgb(0%, 0%, 0%)" stroke="rgb(0%, 0%, 0%)" stroke-width="0.5" fill-opacity="0.0" stroke-opacity="1.0"><circle cy="-701.65" cx="500.8500000000001" r="85.79159999999999"/></g><g fill="rgb(0%, 0%, 0%)" stroke="rgb(0%, 0%, 0%)" stroke-width="0.5" fill-opacity="0.0" stroke-opacity="1.0"><circle cy="-412.57" cx="479.8500000000001" r="38.9952"/></g><g fill="rgb(0%, 0%, 0%)" stroke="rgb(0%, 0%, 0%)" stroke-width="0.5" fill-opacity="0.0" stroke-opacity="1.0"><circle cy="-62.394" cx="519.85" r="62.3952"/></g><g fill="rgb(0%, 0%, 0%)" stroke="rgb(0%, 0%, 0%)" stroke-width="0.5" fill-opacity="0.0" stroke-opacity="1.0"><circle cy="-247.88" cx="519.85" r="87.0912"/></g><g fill="rgb(0%, 0%, 0%)" stroke="rgb(0%, 0%, 0%)" stroke-width="0.5" fill-opacity="0.0" stroke-opacity="1.0"><circle cy="-535.01" cx="235.85" r="31.84704"/></g><g fill="rgb(0%, 0%, 0%)" stroke="rgb(0%, 0%, 0%)" stroke-width="0.5" fill-opacity="0.0" stroke-opacity="1.0"><circle cy="-701.65" cx="335.85" r="61.095600000000005"/></g><g fill="rgb(0%, 0%, 0%)" stroke="rgb(0%, 0%, 0%)" stroke-width="0.5" fill-opacity="0.0" stroke-opacity="1.0"><circle cy="-701.65" cx="634.85" r="30.547439999999998"/></g><g fill="rgb(0%, 0%, 0%)" stroke="rgb(0%, 0%, 0%)" stroke-width="0.5" fill-opacity="0.0" stroke-opacity="1.0"><circle cy="-412.57" cx="315.8500000000001" r="28.59732"/></g><g fill="rgb(0%, 0%, 0%)" stroke="rgb(0%, 0%, 0%)" stroke-width="0.5" fill-opacity="0.0" stroke-opacity="1.0"><circle cy="-535.01" cx="438.85" r="35.74692"/></g><g fill="rgb(0%, 0%, 0%)" stroke="rgb(0%, 0%, 0%)" stroke-width="0.5" fill-opacity="0.0" stroke-opacity="1.0"><circle cy="-247.88" cx="236.85" r="51.9948"/></g><g fill="rgb(0%, 0%, 0%)" stroke="rgb(0%, 0%, 0%)" stroke-width="0.5" fill-opacity="0.0" stroke-opacity="1.0"><circle cy="-701.65" cx="727.85" r="44.8452"/></g><g fill="rgb(0%, 0%, 0%)" stroke="rgb(0%, 0%, 0%)" stroke-width="0.5" fill-opacity="0.0" stroke-opacity="1.0"><circle cy="-701.65" cx="875.85" r="85.14359999999999"/></g><g fill="rgb(5%, 5%, 5%)" stroke="none" stroke-width="0.0" font-size="14.0" fill-opacity="1.0" text-anchor="middle"><text x="298.85" y="-58.693999999999996">Additive</text><text x="315.8500000000001" y="-531.31">Basis</text><text x="44.846" y="-531.31">Direction</text><text x="360.8500000000001" y="-244.18">Distributive</text><text x="634.85" y="-408.87">Divisive</text><text x="1022.8" y="-697.9499999999999">ExpField</text><text x="634.85" y="-531.31">Field</text><text x="146.85" y="-531.31">Integral</text><text x="500.8500000000001" y="-697.9499999999999">LowerBoundedField</text><text x="479.8500000000001" y="-408.87">Module</text><text x="519.85" y="-58.693999999999996">Multiplicative</text><text x="519.85" y="-244.18">MultiplicativeAction</text><text x="235.85" y="-531.31">Norm</text><text x="335.85" y="-697.9499999999999">QuotientField</text><text x="634.85" y="-697.9499999999999">Ratio</text><text x="315.8500000000001" y="-408.87">Ring</text><text x="438.85" y="-531.31">Signed</text><text x="236.85" y="-244.18">Subtractive</text><text x="727.85" y="-697.9499999999999">TrigField</text><text x="875.85" y="-697.9499999999999">UpperBoundedField</text></g></g></g><g class="hud"></g></svg>