<svg xmlns="http://www.w3.org/2000/svg" xmlns:xlink="http://www.w3.org/1999/xlink" width="14747" height="500" viewBox="-546.0 -18.5117 1092.0 37.0234"><style>svg {
  color-scheme: light dark;
}
{
  .canvas g, .title g, .axisbar g, .ticktext g, .tickglyph g, .ticklines g, .legendContent g text {
    fill: rgb(5%, 5%, 5%);
  }
  .ticklines g, .tickglyph g, .legendBorder g {
    stroke: rgb(5%, 5%, 5%);
  }
  .legendBorder g {
    fill: rgb(94%, 94%, 94%);
  }
}
@media (prefers-color-scheme:dark) {
  .canvas g, .title g, .axisbar g, .ticktext g, .tickglyph g, .ticklines g, .legendContent g text {
    fill: rgb(94%, 94%, 94%);
  }
  .ticklines g, .tickglyph g, .legendBorder g {
    stroke: rgb(94%, 94%, 94%);
  }
  .legendBorder g {
    fill: rgb(5%, 5%, 5%);
  }
}
svg { font-family: system-ui,-apple-system,"Segoe UI",Roboto,"Helvetica Neue",Arial,"Noto Sans","Liberation Sans",sans-serif,"Apple Color Emoji","Segoe UI Emoji","Segoe UI Symbol","Noto Color Emoji";
}

ticktext { font-family: SFMono-Regular,Menlo,Monaco,Consolas,"Liberation Mono","Courier New",monospace;
}

</style><g class="chart"><g class="edges"><g stroke-width="1.0" stroke="rgb(33%, -22%, 26%)" stroke-opacity="1.0" fill="rgb(0%, 0%, 0%)" fill-opacity="0"><path d="M 0.0000,-0.0015 C 0.0000,-0.0022 0.0000,-0.0032 0.0000,-0.0040 L 0.0000,-0.0044"/></g><g stroke-width="1.0" stroke="rgb(33%, -22%, 26%)" stroke-opacity="1.0" fill="rgb(0%, 0%, 0%)" fill-opacity="0"><path d="M 0.0000,-0.0015 C 0.0000,-0.0022 0.0000,-0.0031 0.0000,-0.0039 L 0.0000,-0.0044"/></g><g stroke-width="1.0" stroke="rgb(33%, -22%, 26%)" stroke-opacity="1.0" fill="rgb(0%, 0%, 0%)" fill-opacity="0"><path d="M 0,-0.0015 C 0.0000,-0.0023 0.0000,-0.0032 0.0000,-0.0040 L 0.0000,-0.0044"/></g><g stroke-width="1.0" stroke="rgb(33%, -22%, 26%)" stroke-opacity="1.0" fill="rgb(0%, 0%, 0%)" fill-opacity="0"><path d="M 0.0000,-0.0073 C 0.0000,-0.0081 0.0000,-0.0090 0.0000,-0.0098 L 0.0000,-0.0102"/></g><g stroke-width="1.0" stroke="rgb(33%, -22%, 26%)" stroke-opacity="1.0" fill="rgb(0%, 0%, 0%)" fill-opacity="0"><path d="M 0.0000,-0.0073 C 0.0000,-0.0081 0.0000,-0.0091 0.0000,-0.0099 L 0.0000,-0.0102"/></g><g stroke-width="1.0" stroke="rgb(33%, -22%, 26%)" stroke-opacity="1.0" fill="rgb(0%, 0%, 0%)" fill-opacity="0"><path d="M -0.0000,-0.0073 C -0.0000,-0.0081 -0.0000,-0.0090 -0.0000,-0.0098 L -0.0000,-0.0102"/></g><g stroke-width="1.0" stroke="rgb(33%, -22%, 26%)" stroke-opacity="1.0" fill="rgb(0%, 0%, 0%)" fill-opacity="0"><path d="M 0.0000,0.0102 C 0.0000,0.0095 0.0000,0.0086 0.0000,0.0078 L 0.0000,0.0073"/></g><g stroke-width="1.0" stroke="rgb(33%, -22%, 26%)" stroke-opacity="1.0" fill="rgb(0%, 0%, 0%)" fill-opacity="0"><path d="M 0.0000,0.0053 C -0.0000,0.0048 -0.0000,0.0037 -0.0000,0.0015 C -0.0000,-0.0002 -0.0000,-0.0024 -0.0000,-0.0039 L -0.0000,-0.0044"/></g><g stroke-width="1.0" stroke="rgb(33%, -22%, 26%)" stroke-opacity="1.0" fill="rgb(0%, 0%, 0%)" fill-opacity="0"><path d="M 0.0000,0.0049 C 0.0000,0.0040 0.0000,0.0027 0.0000,0.0015 C 0.0000,0.0014 0.0000,0.0014 0.0000,0.0014 L 0.0000,0.0011"/></g><g stroke-width="1.0" stroke="rgb(33%, -22%, 26%)" stroke-opacity="1.0" fill="rgb(0%, 0%, 0%)" fill-opacity="0"><path d="M 0.0001,0.0044 C 0.0001,0.0036 0.0001,0.0027 0.0001,0.0019 L 0.0000,0.0015"/></g><g stroke-width="1.0" stroke="rgb(33%, -22%, 26%)" stroke-opacity="1.0" fill="rgb(0%, 0%, 0%)" fill-opacity="0"><path d="M 0.0000,0.0102 C 0.0000,0.0093 0.0000,0.0082 0.0000,0.0073 L 0.0000,0.0071"/></g><g stroke-width="1.0" stroke="rgb(33%, -22%, 26%)" stroke-opacity="1.0" fill="rgb(0%, 0%, 0%)" fill-opacity="0"><path d="M 0.0000,0.0102 C 0.0000,0.0081 0.0000,0.0043 0.0000,0.0020 L 0.0000,0.0015"/></g><g stroke-width="1.0" stroke="rgb(33%, -22%, 26%)" stroke-opacity="1.0" fill="rgb(0%, 0%, 0%)" fill-opacity="0"><path d="M 0.0000,0.0102 C 0.0000,0.0095 0.0000,0.0086 0.0000,0.0078 L 0.0000,0.0073"/></g><g stroke-width="1.0" stroke="rgb(33%, -22%, 26%)" stroke-opacity="1.0" fill="rgb(0%, 0%, 0%)" fill-opacity="0"><path d="M 0.0000,-0.0012 C 0.0000,-0.0021 0.0000,-0.0032 0.0000,-0.0041 L 0.0000,-0.0044"/></g><g stroke-width="1.0" stroke="rgb(33%, -22%, 26%)" stroke-opacity="1.0" fill="rgb(0%, 0%, 0%)" fill-opacity="0"><path d="M 0.0000,-0.0015 C 0.0000,-0.0022 0.0000,-0.0031 0.0000,-0.0039 L 0.0000,-0.0044"/></g><g stroke-width="1.0" stroke="rgb(33%, -22%, 26%)" stroke-opacity="1.0" fill="rgb(0%, 0%, 0%)" fill-opacity="0"><path d="M 0.0000,-0.0073 C 0.0000,-0.0081 0.0000,-0.0090 0.0000,-0.0098 L 0.0000,-0.0102"/></g><g stroke-width="1.0" stroke="rgb(33%, -22%, 26%)" stroke-opacity="1.0" fill="rgb(0%, 0%, 0%)" fill-opacity="0"><path d="M -0.0000,0.0102 C -0.0000,0.0094 -0.0000,0.0083 0.0000,0.0075 L 0.0000,0.0073"/></g></g><g class="shapes"><g stroke-width="1.0" stroke="rgb(33%, -22%, 26%)" stroke-opacity="1.0" fill="rgb(2%, 29%, 48%)" fill-opacity="0.1"><rect width="58.0003" height="36.0" x="-29.0001" y="-18.0"/></g><g stroke-width="1.0" stroke="rgb(33%, -22%, 26%)" stroke-opacity="1.0" fill="rgb(2%, 29%, 48%)" fill-opacity="0.1"><rect width="63.2498" height="36.0" x="-31.6249" y="-18.0117"/></g><g stroke-width="1.0" stroke="rgb(33%, -22%, 26%)" stroke-opacity="1.0" fill="rgb(2%, 29%, 48%)" fill-opacity="0.1"><rect width="54.0" height="36.0" x="-27.0000" y="-18.0"/></g><g stroke-width="1.0" stroke="rgb(33%, -22%, 26%)" stroke-opacity="1.0" fill="rgb(2%, 29%, 48%)" fill-opacity="0.1"><rect width="67.0003" height="36.0" x="-33.5002" y="-18.0"/></g><g stroke-width="1.0" stroke="rgb(33%, -22%, 26%)" stroke-opacity="1.0" fill="rgb(2%, 29%, 48%)" fill-opacity="0.1"><rect width="80.5032" height="36.0" x="-40.2516" y="-18.0058"/></g><g stroke-width="1.0" stroke="rgb(33%, -22%, 26%)" stroke-opacity="1.0" fill="rgb(2%, 29%, 48%)" fill-opacity="0.1"><rect width="61.7501" height="36.0" x="-30.8751" y="-18.0058"/></g><g stroke-width="1.0" stroke="rgb(33%, -22%, 26%)" stroke-opacity="1.0" fill="rgb(2%, 29%, 48%)" fill-opacity="0.1"><rect width="65.4998" height="36.0" x="-32.7499" y="-17.9883"/></g><g stroke-width="1.0" stroke="rgb(33%, -22%, 26%)" stroke-opacity="1.0" fill="rgb(2%, 29%, 48%)" fill-opacity="0.1"><rect width="54.0" height="36.0" x="-27.0000" y="-17.9942"/></g><g stroke-width="1.0" stroke="rgb(33%, -22%, 26%)" stroke-opacity="1.0" fill="rgb(2%, 29%, 48%)" fill-opacity="0.1"><rect width="58.0003" height="36.0" x="-29.0001" y="-17.9942"/></g><g stroke-width="1.0" stroke="rgb(33%, -22%, 26%)" stroke-opacity="1.0" fill="rgb(2%, 29%, 48%)" fill-opacity="0.1"><rect width="93.2472" height="36.0" x="-46.6236" y="-18.0117"/></g><g stroke-width="1.0" stroke="rgb(33%, -22%, 26%)" stroke-opacity="1.0" fill="rgb(2%, 29%, 48%)" fill-opacity="0.1"><rect width="91.0008" height="36.0" x="-45.5004" y="-17.9883"/></g><g stroke-width="1.0" stroke="rgb(33%, -22%, 26%)" stroke-opacity="1.0" fill="rgb(2%, 29%, 48%)" fill-opacity="0.1"><rect width="54.0" height="36.0" x="-27.0000" y="-17.9883"/></g><g stroke-width="1.0" stroke="rgb(33%, -22%, 26%)" stroke-opacity="1.0" fill="rgb(2%, 29%, 48%)" fill-opacity="0.1"><rect width="54.0" height="36.0" x="-27.0000" y="-18.0"/></g><g stroke-width="1.0" stroke="rgb(33%, -22%, 26%)" stroke-opacity="1.0" fill="rgb(2%, 29%, 48%)" fill-opacity="0.1"><rect width="77.5008" height="36.0" x="-38.7504" y="-18.0058"/></g><g stroke-width="1.0" stroke="rgb(33%, -22%, 26%)" stroke-opacity="1.0" fill="rgb(2%, 29%, 48%)" fill-opacity="0.1"><rect width="67.0003" height="36.0" x="-33.5002" y="-17.9883"/></g></g><g class="labels"><g stroke-width="0.0" stroke="none" fill="rgb(33%, -22%, 26%)" fill-opacity="1.0" font-size="14.0" text-anchor="middle"><text x="0.0000" y="0.0003"><a href="https://hackage.haskell.org/package/numhask/docs/NumHask-Algebra-Action.html#t:Actions">Actions</a></text><text x="0.0000" y="-0.0114"><a href="https://hackage.haskell.org/package/numhask/docs/NumHask-Algebra-Additive.html#t:Additive">Additive</a></text><text x="0.0000" y="0.0003"><a href="https://hackage.haskell.org/package/numhask/docs/NumHask-Algebra-Metric.html#t:Basis">Basis</a></text><text x="-0.0000" y="0.0003"><a href="https://hackage.haskell.org/package/numhask/docs/NumHask-Algebra-Metric.html#t:Direction">Direction</a></text><text x="0.0000" y="-0.0055"><a href="https://hackage.haskell.org/package/numhask/docs/NumHask-Algebra-Distributive.html#t:Distributive">Distributive</a></text><text x="-0.0000" y="-0.0055"><a href="https://hackage.haskell.org/package/numhask/docs/NumHask-Algebra-Multiplicative.html#t:Divisive">Divisive</a></text><text x="0.0000" y="0.0120"><a href="https://hackage.haskell.org/package/numhask/docs/NumHask-Algebra-Field.html#t:ExpField">ExpField</a></text><text x="0.0000" y="0.0061"><a href="https://hackage.haskell.org/package/numhask/docs/NumHask-Algebra-Field.html#t:Field">Field</a></text><text x="0.0001" y="0.0061"><a href="https://hackage.haskell.org/package/numhask/docs/NumHask-Data-Integral.html#t:Integral">Integral</a></text><text x="0" y="-0.0114"><a href="https://hackage.haskell.org/package/numhask/docs/NumHask-Algebra-Multiplicative.html#t:Multiplicative">Multiplicative</a></text><text x="0.0000" y="0.0120"><a href="https://hackage.haskell.org/package/numhask/docs/NumHask-Algebra-Field.html#t:QuotientField">QuotientField</a></text><text x="0" y="0.0120"><a href="https://hackage.haskell.org/package/numhask/docs/NumHask-Data-Rational.html#t:Ratio">Ratio</a></text><text x="0.0000" y="0.0003"><a href="https://hackage.haskell.org/package/numhask/docs/NumHask-Algebra-Ring.html#t:Ring">Ring</a></text><text x="0.0000" y="-0.0055"><a href="https://hackage.haskell.org/package/numhask/docs/NumHask-Algebra-Additive.html#t:Subtractive">Subtractive</a></text><text x="-0.0000" y="0.0120"><a href="https://hackage.haskell.org/package/numhask/docs/NumHask-Algebra-Field.html#t:TrigField">TrigField</a></text></g></g></g><g class="hud"></g></svg>