<svg xmlns="http://www.w3.org/2000/svg" xmlns:xlink="http://www.w3.org/1999/xlink" height="500" viewBox="-0.5654 -0.5000 1.13 1.0"><style>svg {
  color-scheme: light dark;
}
{
  .canvas g, .title g, .axisbar g, .ticktext g, .tickglyph g, .ticklines g, .legendContent g text {
    fill: rgb(5%, 5%, 5%);
  }
  .ticklines g, .tickglyph g, .legendBorder g {
    stroke: rgb(5%, 5%, 5%);
  }
  .legendBorder g {
    fill: rgb(94%, 94%, 94%);
  }
}
@media (prefers-color-scheme:dark) {
  .canvas g, .title g, .axisbar g, .ticktext g, .tickglyph g, .ticklines g, .legendContent g text {
    fill: rgb(94%, 94%, 94%);
  }
  .ticklines g, .tickglyph g, .legendBorder g {
    stroke: rgb(94%, 94%, 94%);
  }
  .legendBorder g {
    fill: rgb(5%, 5%, 5%);
  }
}
svg { font-family: system-ui,-apple-system,"Segoe UI",Roboto,"Helvetica Neue",Arial,"Noto Sans","Liberation Sans",sans-serif,"Apple Color Emoji","Segoe UI Emoji","Segoe UI Symbol","Noto Color Emoji";
}

ticktext { font-family: SFMono-Regular,Menlo,Monaco,Consolas,"Liberation Mono","Courier New",monospace;
}

</style><g class="chart"><g class="edges"><g stroke-width="0.0031" stroke="rgb(40%, 40%, 40%)" stroke-opacity="0.8" fill="rgb(0%, 0%, 0%)" fill-opacity="0"><path d="M 0.1278,-0.0563 C 0.1028,-0.0850 0.0717,-0.1207 0.0450,-0.1513 L 0.0323,-0.1658"/></g><g stroke-width="0.0031" stroke="rgb(40%, 40%, 40%)" stroke-opacity="0.8" fill="rgb(0%, 0%, 0%)" fill-opacity="0"><path d="M -0.0437,-0.0563 C -0.0386,-0.0834 -0.0324,-0.1168 -0.0270,-0.1462 L -0.0233,-0.1658"/></g><g stroke-width="0.0031" stroke="rgb(40%, 40%, 40%)" stroke-opacity="0.8" fill="rgb(0%, 0%, 0%)" fill-opacity="0"><path d="M -0.2266,-0.0563 C -0.1882,-0.0856 -0.1402,-0.1221 -0.0995,-0.1531 L -0.0837,-0.1651"/></g><g stroke-width="0.0031" stroke="rgb(40%, 40%, 40%)" stroke-opacity="0.8" fill="rgb(0%, 0%, 0%)" fill-opacity="0"><path d="M 0.0230,-0.2778 C 0.0423,-0.3060 0.0662,-0.3410 0.0870,-0.3711 L 0.0981,-0.3874"/></g><g stroke-width="0.0031" stroke="rgb(40%, 40%, 40%)" stroke-opacity="0.8" fill="rgb(0%, 0%, 0%)" fill-opacity="0"><path d="M -0.0675,-0.2778 C -0.0969,-0.3068 -0.1335,-0.3429 -0.1647,-0.3737 L -0.1786,-0.3874"/></g><g stroke-width="0.0031" stroke="rgb(40%, 40%, 40%)" stroke-opacity="0.8" fill="rgb(0%, 0%, 0%)" fill-opacity="0"><path d="M -0.3339,-0.2778 C -0.3162,-0.3060 -0.2943,-0.3410 -0.2753,-0.3711 L -0.2651,-0.3874"/></g><g stroke-width="0.0031" stroke="rgb(40%, 40%, 40%)" stroke-opacity="0.8" fill="rgb(0%, 0%, 0%)" fill-opacity="0"><path d="M -0.0124,0.3868 C -0.0280,0.3588 -0.0472,0.3243 -0.0639,0.2943 L -0.0734,0.2772"/></g><g stroke-width="0.0031" stroke="rgb(40%, 40%, 40%)" stroke-opacity="0.8" fill="rgb(0%, 0%, 0%)" fill-opacity="0"><path d="M -0.1864,0.2025 C -0.2644,0.1826 -0.3763,0.1405 -0.4289,0.0554 C -0.4672,-0.0066 -0.4398,-0.0896 -0.4103,-0.1479 L -0.4012,-0.1652"/></g><g stroke-width="0.0031" stroke="rgb(40%, 40%, 40%)" stroke-opacity="0.8" fill="rgb(0%, 0%, 0%)" fill-opacity="0"><path d="M -0.0193,0.1853 C 0.0608,0.1531 0.1848,0.1024 0.2911,0.0554 C 0.2938,0.0542 0.2965,0.0530 0.2992,0.0518 L 0.3174,0.0435"/></g><g stroke-width="0.0031" stroke="rgb(40%, 40%, 40%)" stroke-opacity="0.8" fill="rgb(0%, 0%, 0%)" fill-opacity="0"><path d="M 0.4667,0.1652 C 0.4556,0.1376 0.4420,0.1034 0.4301,0.0736 L 0.4229,0.0557"/></g><g stroke-width="0.0031" stroke="rgb(40%, 40%, 40%)" stroke-opacity="0.8" fill="rgb(0%, 0%, 0%)" fill-opacity="0"><path d="M 0.2089,0.3862 C 0.1447,0.3529 0.0628,0.3105 -0.0010,0.2774 L -0.0185,0.2683"/></g><g stroke-width="0.0031" stroke="rgb(40%, 40%, 40%)" stroke-opacity="0.8" fill="rgb(0%, 0%, 0%)" fill-opacity="0"><path d="M 0.3236,0.3864 C 0.3396,0.3080 0.3694,0.1619 0.3873,0.0745 L 0.3911,0.0557"/></g><g stroke-width="0.0031" stroke="rgb(40%, 40%, 40%)" stroke-opacity="0.8" fill="rgb(0%, 0%, 0%)" fill-opacity="0"><path d="M -0.1931,0.3868 C -0.1776,0.3588 -0.1583,0.3243 -0.1416,0.2943 L -0.1321,0.2772"/></g><g stroke-width="0.0031" stroke="rgb(40%, 40%, 40%)" stroke-opacity="0.8" fill="rgb(0%, 0%, 0%)" fill-opacity="0"><path d="M 0.3178,-0.0467 C 0.2573,-0.0780 0.1748,-0.1208 0.1073,-0.1558 L 0.0895,-0.1650"/></g><g stroke-width="0.0031" stroke="rgb(40%, 40%, 40%)" stroke-opacity="0.8" fill="rgb(0%, 0%, 0%)" fill-opacity="0"><path d="M 0.3920,-0.0563 C 0.3869,-0.0834 0.3807,-0.1168 0.3753,-0.1462 L 0.3716,-0.1658"/></g><g stroke-width="0.0031" stroke="rgb(40%, 40%, 40%)" stroke-opacity="0.8" fill="rgb(0%, 0%, 0%)" fill-opacity="0"><path d="M 0.3056,-0.2778 C 0.2752,-0.3066 0.2374,-0.3423 0.2050,-0.3730 L 0.1906,-0.3866"/></g><g stroke-width="0.0031" stroke="rgb(40%, 40%, 40%)" stroke-opacity="0.8" fill="rgb(0%, 0%, 0%)" fill-opacity="0"><path d="M -0.3752,0.3862 C -0.3230,0.3553 -0.2574,0.3163 -0.2036,0.2844 L -0.1873,0.2748"/></g></g><g class="shapes"><g stroke-width="0.0031" stroke="rgb(40%, 40%, 40%)" stroke-opacity="0.8" fill="rgb(50%, 50%, 50%)" fill-opacity="0.2"><rect width="0.1785" height="0.1108" x="0.0849" y="-0.0554"/></g><g stroke-width="0.0031" stroke="rgb(40%, 40%, 40%)" stroke-opacity="0.8" fill="rgb(50%, 50%, 50%)" fill-opacity="0.2"><rect width="0.1946" height="0.1108" x="0.0368" y="-0.4985"/></g><g stroke-width="0.0031" stroke="rgb(40%, 40%, 40%)" stroke-opacity="0.8" fill="rgb(50%, 50%, 50%)" fill-opacity="0.2"><rect width="0.1662" height="0.1108" x="-0.1366" y="-0.0554"/></g><g stroke-width="0.0031" stroke="rgb(40%, 40%, 40%)" stroke-opacity="0.8" fill="rgb(50%, 50%, 50%)" fill-opacity="0.2"><rect width="0.2062" height="0.1108" x="-0.3997" y="-0.0554"/></g><g stroke-width="0.0031" stroke="rgb(40%, 40%, 40%)" stroke-opacity="0.8" fill="rgb(50%, 50%, 50%)" fill-opacity="0.2"><rect width="0.2477" height="0.1108" x="-0.1374" y="-0.2769"/></g><g stroke-width="0.0031" stroke="rgb(40%, 40%, 40%)" stroke-opacity="0.8" fill="rgb(50%, 50%, 50%)" fill-opacity="0.2"><rect width="0.1900" height="0.1108" x="-0.4624" y="-0.2769"/></g><g stroke-width="0.0031" stroke="rgb(40%, 40%, 40%)" stroke-opacity="0.8" fill="rgb(50%, 50%, 50%)" fill-opacity="0.2"><rect width="0.2015" height="0.1108" x="-0.0835" y="0.3877"/></g><g stroke-width="0.0031" stroke="rgb(40%, 40%, 40%)" stroke-opacity="0.8" fill="rgb(50%, 50%, 50%)" fill-opacity="0.2"><rect width="0.1662" height="0.1108" x="-0.1858" y="0.1662"/></g><g stroke-width="0.0031" stroke="rgb(40%, 40%, 40%)" stroke-opacity="0.8" fill="rgb(50%, 50%, 50%)" fill-opacity="0.2"><rect width="0.1785" height="0.1108" x="0.3988" y="0.1662"/></g><g stroke-width="0.0031" stroke="rgb(40%, 40%, 40%)" stroke-opacity="0.8" fill="rgb(50%, 50%, 50%)" fill-opacity="0.2"><rect width="0.2869" height="0.1108" x="-0.3755" y="-0.4985"/></g><g stroke-width="0.0031" stroke="rgb(40%, 40%, 40%)" stroke-opacity="0.8" fill="rgb(50%, 50%, 50%)" fill-opacity="0.2"><rect width="0.2800" height="0.1108" x="0.1726" y="0.3877"/></g><g stroke-width="0.0031" stroke="rgb(40%, 40%, 40%)" stroke-opacity="0.8" fill="rgb(50%, 50%, 50%)" fill-opacity="0.2"><rect width="0.1662" height="0.1108" x="-0.3058" y="0.3877"/></g><g stroke-width="0.0031" stroke="rgb(40%, 40%, 40%)" stroke-opacity="0.8" fill="rgb(50%, 50%, 50%)" fill-opacity="0.2"><rect width="0.1662" height="0.1108" x="0.3188" y="-0.0554"/></g><g stroke-width="0.0031" stroke="rgb(40%, 40%, 40%)" stroke-opacity="0.8" fill="rgb(50%, 50%, 50%)" fill-opacity="0.2"><rect width="0.2385" height="0.1108" x="0.2426" y="-0.2769"/></g><g stroke-width="0.0031" stroke="rgb(40%, 40%, 40%)" stroke-opacity="0.8" fill="rgb(50%, 50%, 50%)" fill-opacity="0.2"><rect width="0.2062" height="0.1108" x="-0.5689" y="0.3877"/></g></g><g class="labels"><g stroke-width="0.0" stroke="none" fill="rgb(40%, 40%, 40%)" fill-opacity="0.8" font-size="0.0369" text-anchor="middle"><text x="0.1742" y="0.0123"><a href="https://hackage.haskell.org/package/numhask/docs/NumHask-Algebra-Action.html#t:Actions">Actions</a></text><text x="0.1342" y="-0.4308"><a href="https://hackage.haskell.org/package/numhask/docs/NumHask-Algebra-Additive.html#t:Additive">Additive</a></text><text x="-0.0535" y="0.0123"><a href="https://hackage.haskell.org/package/numhask/docs/NumHask-Algebra-Metric.html#t:Basis">Basis</a></text><text x="-0.2966" y="0.0123"><a href="https://hackage.haskell.org/package/numhask/docs/NumHask-Algebra-Metric.html#t:Direction">Direction</a></text><text x="-0.0135" y="-0.2092"><a href="https://hackage.haskell.org/package/numhask/docs/NumHask-Algebra-Distributive.html#t:Distributive">Distributive</a></text><text x="-0.3674" y="-0.2092"><a href="https://hackage.haskell.org/package/numhask/docs/NumHask-Algebra-Multiplicative.html#t:Divisive">Divisive</a></text><text x="0.0172" y="0.4554"><a href="https://hackage.haskell.org/package/numhask/docs/NumHask-Algebra-Field.html#t:ExpField">ExpField</a></text><text x="-0.1028" y="0.2338"><a href="https://hackage.haskell.org/package/numhask/docs/NumHask-Algebra-Field.html#t:Field">Field</a></text><text x="0.488" y="0.2338"><a href="https://hackage.haskell.org/package/numhask/docs/NumHask-Data-Integral.html#t:Integral">Integral</a></text><text x="-0.2320" y="-0.4308"><a href="https://hackage.haskell.org/package/numhask/docs/NumHask-Algebra-Multiplicative.html#t:Multiplicative">Multiplicative</a></text><text x="0.3126" y="0.4554"><a href="https://hackage.haskell.org/package/numhask/docs/NumHask-Algebra-Field.html#t:QuotientField">QuotientField</a></text><text x="-0.2228" y="0.4554"><a href="https://hackage.haskell.org/package/numhask/docs/NumHask-Data-Rational.html#t:Ratio">Ratio</a></text><text x="0.4018" y="0.0123"><a href="https://hackage.haskell.org/package/numhask/docs/NumHask-Algebra-Ring.html#t:Ring">Ring</a></text><text x="0.3618" y="-0.2092"><a href="https://hackage.haskell.org/package/numhask/docs/NumHask-Algebra-Additive.html#t:Subtractive">Subtractive</a></text><text x="-0.4658" y="0.4554"><a href="https://hackage.haskell.org/package/numhask/docs/NumHask-Algebra-Field.html#t:TrigField">TrigField</a></text></g></g></g><g class="hud"></g></svg>
