<?xml version="1.0" encoding="UTF-8" standalone="no"?>
<!DOCTYPE svg PUBLIC "-//W3C//DTD SVG 1.1//EN"
 "http://www.w3.org/Graphics/SVG/1.1/DTD/svg11.dtd">
<!-- Generated by graphviz version 2.49.3 (20211023.0002)
 -->
<!-- Pages: 1 -->
<svg width="72pt" height="15pt"
 viewBox="0.00 0.00 72.00 14.57" xmlns="http://www.w3.org/2000/svg" xmlns:xlink="http://www.w3.org/1999/xlink">
<g id="graph0" class="graph" transform="scale(0.02 0.02) rotate(0) translate(4 744)">
<polygon fill="white" stroke="transparent" points="-4,4 -4,-744 3692,-744 3692,4 -4,4"/>
<!-- Magma -->
<g id="node1" class="node">
<title>Magma</title>
<ellipse fill="none" stroke="black" cx="38.5" cy="-634" rx="38.5" ry="38.5"/>
<text text-anchor="middle" x="38.5" y="-630.3" font-family="Times,serif" font-size="14.00">Magma</text>
</g>
<!-- Unital -->
<g id="node2" class="node">
<title>Unital</title>
<ellipse fill="none" stroke="black" cx="261.5" cy="-60.5" rx="33" ry="33"/>
<text text-anchor="middle" x="261.5" y="-56.8" font-family="Times,serif" font-size="14.00">Unital</text>
</g>
<!-- Associative -->
<g id="node3" class="node">
<title>Associative</title>
<ellipse fill="none" stroke="black" cx="366.5" cy="-60.5" rx="53.5" ry="53.5"/>
<text text-anchor="middle" x="366.5" y="-56.8" font-family="Times,serif" font-size="14.00">Associative</text>
</g>
<!-- Commutative -->
<g id="node4" class="node">
<title>Commutative</title>
<ellipse fill="none" stroke="black" cx="498.5" cy="-60.5" rx="60.5" ry="60.5"/>
<text text-anchor="middle" x="498.5" y="-56.8" font-family="Times,serif" font-size="14.00">Commutative</text>
</g>
<!-- Invertible -->
<g id="node5" class="node">
<title>Invertible</title>
<ellipse fill="none" stroke="black" cx="391.5" cy="-219.5" rx="46" ry="46"/>
<text text-anchor="middle" x="391.5" y="-215.8" font-family="Times,serif" font-size="14.00">Invertible</text>
</g>
<!-- Idempotent -->
<g id="node6" class="node">
<title>Idempotent</title>
<ellipse fill="none" stroke="black" cx="750.5" cy="-634" rx="52" ry="52"/>
<text text-anchor="middle" x="750.5" y="-630.3" font-family="Times,serif" font-size="14.00">Idempotent</text>
</g>
<!-- Absorbing -->
<g id="node7" class="node">
<title>Absorbing</title>
<ellipse fill="none" stroke="black" cx="870.5" cy="-634" rx="49.5" ry="49.5"/>
<text text-anchor="middle" x="870.5" y="-630.3" font-family="Times,serif" font-size="14.00">Absorbing</text>
</g>
<!-- Group -->
<g id="node8" class="node">
<title>Group</title>
<ellipse fill="none" stroke="black" cx="972.5" cy="-634" rx="34" ry="34"/>
<text text-anchor="middle" x="972.5" y="-630.3" font-family="Times,serif" font-size="14.00">Group</text>
</g>
<!-- AbelianGroup -->
<g id="node9" class="node">
<title>AbelianGroup</title>
<ellipse fill="none" stroke="black" cx="1087.5" cy="-634" rx="63" ry="63"/>
<text text-anchor="middle" x="1087.5" y="-630.3" font-family="Times,serif" font-size="14.00">AbelianGroup</text>
</g>
<!-- Additive -->
<g id="node10" class="node">
<title>Additive</title>
<ellipse fill="none" stroke="black" cx="497.5" cy="-219.5" rx="42" ry="42"/>
<text text-anchor="middle" x="497.5" y="-215.8" font-family="Times,serif" font-size="14.00">Additive</text>
</g>
<!-- Additive&#45;&gt;Unital -->
<g id="edge1" class="edge">
<title>Additive&#45;&gt;Unital</title>
<path fill="none" stroke="black" d="M475.07,-183.83C467.12,-173.89 457.41,-163.89 446.5,-157 391.45,-122.23 358.36,-157.58 304.5,-121 293.1,-113.26 283.66,-101.44 276.55,-90.37"/>
<polygon fill="black" stroke="black" points="276.38,-90.1 276.38,-90.1 276.38,-90.1 276.38,-90.1"/>
</g>
<!-- Additive&#45;&gt;Associative -->
<g id="edge2" class="edge">
<title>Additive&#45;&gt;Associative</title>
<path fill="none" stroke="black" d="M471.06,-186.56C463.17,-177.04 454.49,-166.59 446.5,-157 431.52,-139.03 414.92,-119.2 400.74,-102.29"/>
<polygon fill="black" stroke="black" points="400.41,-101.89 400.41,-101.89 400.41,-101.89 400.41,-101.89"/>
</g>
<!-- Additive&#45;&gt;Commutative -->
<g id="edge3" class="edge">
<title>Additive&#45;&gt;Commutative</title>
<path fill="none" stroke="black" d="M497.76,-177.25C497.87,-160.21 498,-140.13 498.12,-121.51"/>
<polygon fill="black" stroke="black" points="498.12,-121.08 498.12,-121.08 498.12,-121.08 498.12,-121.08"/>
</g>
<!-- Subtractive -->
<g id="node11" class="node">
<title>Subtractive</title>
<ellipse fill="none" stroke="black" cx="499.5" cy="-405" rx="52" ry="52"/>
<text text-anchor="middle" x="499.5" y="-401.3" font-family="Times,serif" font-size="14.00">Subtractive</text>
</g>
<!-- Subtractive&#45;&gt;Invertible -->
<g id="edge4" class="edge">
<title>Subtractive&#45;&gt;Invertible</title>
<path fill="none" stroke="black" d="M473.36,-359.58C455.45,-329.15 431.91,-289.16 414.67,-259.87"/>
<polygon fill="black" stroke="black" points="414.47,-259.53 414.47,-259.53 414.47,-259.53 414.47,-259.53"/>
</g>
<!-- Subtractive&#45;&gt;Additive -->
<g id="edge5" class="edge">
<title>Subtractive&#45;&gt;Additive</title>
<path fill="none" stroke="black" d="M498.94,-352.89C498.63,-324.26 498.25,-289.02 497.95,-262.1"/>
<polygon fill="black" stroke="black" points="497.95,-261.78 497.95,-261.78 497.95,-261.78 497.95,-261.78"/>
</g>
<!-- Multiplicative -->
<g id="node12" class="node">
<title>Multiplicative</title>
<ellipse fill="none" stroke="black" cx="263.5" cy="-219.5" rx="62.5" ry="62.5"/>
<text text-anchor="middle" x="263.5" y="-215.8" font-family="Times,serif" font-size="14.00">Multiplicative</text>
</g>
<!-- Multiplicative&#45;&gt;Unital -->
<g id="edge6" class="edge">
<title>Multiplicative&#45;&gt;Unital</title>
<path fill="none" stroke="black" d="M262.72,-156.9C262.44,-135.42 262.15,-112.17 261.91,-94"/>
<polygon fill="black" stroke="black" points="261.91,-93.57 261.91,-93.57 261.91,-93.57 261.91,-93.57"/>
</g>
<!-- Multiplicative&#45;&gt;Associative -->
<g id="edge7" class="edge">
<title>Multiplicative&#45;&gt;Associative</title>
<path fill="none" stroke="black" d="M297.51,-166.66C310.36,-147.07 324.86,-124.98 337.23,-106.11"/>
<polygon fill="black" stroke="black" points="337.53,-105.66 337.53,-105.66 337.53,-105.66 337.53,-105.66"/>
</g>
<!-- Multiplicative&#45;&gt;Commutative -->
<g id="edge8" class="edge">
<title>Multiplicative&#45;&gt;Commutative</title>
<path fill="none" stroke="black" d="M308.89,-176.37C317.68,-169.36 327.09,-162.57 336.5,-157 374.64,-134.41 391.5,-143.81 429.5,-121 438.04,-115.87 446.56,-109.67 454.55,-103.22"/>
<polygon fill="black" stroke="black" points="454.93,-102.91 454.93,-102.91 454.93,-102.91 454.93,-102.91"/>
</g>
<!-- Divisive -->
<g id="node13" class="node">
<title>Divisive</title>
<ellipse fill="none" stroke="black" cx="261.5" cy="-405" rx="41.5" ry="41.5"/>
<text text-anchor="middle" x="261.5" y="-401.3" font-family="Times,serif" font-size="14.00">Divisive</text>
</g>
<!-- Divisive&#45;&gt;Invertible -->
<g id="edge9" class="edge">
<title>Divisive&#45;&gt;Invertible</title>
<path fill="none" stroke="black" d="M281.21,-368.13C290.24,-352.41 301.39,-333.96 312.5,-318 327.57,-296.36 346.05,-273.38 361.35,-255.17"/>
<polygon fill="black" stroke="black" points="361.71,-254.74 361.71,-254.74 361.71,-254.74 361.71,-254.74"/>
</g>
<!-- Divisive&#45;&gt;Multiplicative -->
<g id="edge10" class="edge">
<title>Divisive&#45;&gt;Multiplicative</title>
<path fill="none" stroke="black" d="M261.94,-363.28C262.2,-339.51 262.54,-309.04 262.83,-282.36"/>
<polygon fill="black" stroke="black" points="262.83,-282.04 262.83,-282.04 262.83,-282.04 262.83,-282.04"/>
</g>
<!-- Distributive -->
<g id="node14" class="node">
<title>Distributive</title>
<ellipse fill="none" stroke="black" cx="375.5" cy="-405" rx="54" ry="54"/>
<text text-anchor="middle" x="375.5" y="-401.3" font-family="Times,serif" font-size="14.00">Distributive</text>
</g>
<!-- Distributive&#45;&gt;Additive -->
<g id="edge11" class="edge">
<title>Distributive&#45;&gt;Additive</title>
<path fill="none" stroke="black" d="M405.03,-359.58C426.32,-327.57 454.64,-284.97 474.31,-255.39"/>
<polygon fill="black" stroke="black" points="474.54,-255.04 474.54,-255.04 474.54,-255.04 474.54,-255.04"/>
</g>
<!-- Distributive&#45;&gt;Multiplicative -->
<g id="edge12" class="edge">
<title>Distributive&#45;&gt;Multiplicative</title>
<path fill="none" stroke="black" d="M347.53,-358.17C331.84,-332.47 312.21,-300.3 295.86,-273.53"/>
<polygon fill="black" stroke="black" points="295.67,-273.21 295.67,-273.21 295.67,-273.21 295.67,-273.21"/>
</g>
<!-- Ring -->
<g id="node15" class="node">
<title>Ring</title>
<ellipse fill="none" stroke="black" cx="480.5" cy="-634" rx="28.5" ry="28.5"/>
<text text-anchor="middle" x="480.5" y="-630.3" font-family="Times,serif" font-size="14.00">Ring</text>
</g>
<!-- Ring&#45;&gt;Subtractive -->
<g id="edge13" class="edge">
<title>Ring&#45;&gt;Subtractive</title>
<path fill="none" stroke="black" d="M482.83,-605.17C485.91,-568.42 491.38,-503.03 495.21,-457.23"/>
<polygon fill="black" stroke="black" points="495.23,-456.96 495.23,-456.96 495.23,-456.96 495.23,-456.96"/>
</g>
<!-- IntegralDomain -->
<g id="node16" class="node">
<title>IntegralDomain</title>
<ellipse fill="none" stroke="black" cx="1236.5" cy="-634" rx="68" ry="68"/>
<text text-anchor="middle" x="1236.5" y="-630.3" font-family="Times,serif" font-size="14.00">IntegralDomain</text>
</g>
<!-- Field -->
<g id="node17" class="node">
<title>Field</title>
<ellipse fill="none" stroke="black" cx="275.5" cy="-634" rx="29" ry="29"/>
<text text-anchor="middle" x="275.5" y="-630.3" font-family="Times,serif" font-size="14.00">Field</text>
</g>
<!-- Field&#45;&gt;Divisive -->
<g id="edge14" class="edge">
<title>Field&#45;&gt;Divisive</title>
<path fill="none" stroke="black" d="M273.76,-604.71C271.3,-564.97 266.83,-492.4 264.02,-446.82"/>
<polygon fill="black" stroke="black" points="264,-446.55 264,-446.55 264,-446.55 264,-446.55"/>
</g>
<!-- ExpField -->
<g id="node18" class="node">
<title>ExpField</title>
<ellipse fill="none" stroke="black" cx="1366.5" cy="-634" rx="44" ry="44"/>
<text text-anchor="middle" x="1366.5" y="-630.3" font-family="Times,serif" font-size="14.00">ExpField</text>
</g>
<!-- QuotientField -->
<g id="node19" class="node">
<title>QuotientField</title>
<ellipse fill="none" stroke="black" cx="1489.5" cy="-634" rx="61" ry="61"/>
<text text-anchor="middle" x="1489.5" y="-630.3" font-family="Times,serif" font-size="14.00">QuotientField</text>
</g>
<!-- UpperBoundedField -->
<g id="node20" class="node">
<title>UpperBoundedField</title>
<ellipse fill="none" stroke="black" cx="1653.5" cy="-634" rx="85" ry="85"/>
<text text-anchor="middle" x="1653.5" y="-630.3" font-family="Times,serif" font-size="14.00">UpperBoundedField</text>
</g>
<!-- LowerBoundedField -->
<g id="node21" class="node">
<title>LowerBoundedField</title>
<ellipse fill="none" stroke="black" cx="1842.5" cy="-634" rx="86" ry="86"/>
<text text-anchor="middle" x="1842.5" y="-630.3" font-family="Times,serif" font-size="14.00">LowerBoundedField</text>
</g>
<!-- TrigField -->
<g id="node22" class="node">
<title>TrigField</title>
<ellipse fill="none" stroke="black" cx="1991.5" cy="-634" rx="45" ry="45"/>
<text text-anchor="middle" x="1991.5" y="-630.3" font-family="Times,serif" font-size="14.00">TrigField</text>
</g>
<!-- AdditiveAction -->
<g id="node23" class="node">
<title>AdditiveAction</title>
<ellipse fill="none" stroke="black" cx="637.5" cy="-405" rx="67.5" ry="67.5"/>
<text text-anchor="middle" x="637.5" y="-401.3" font-family="Times,serif" font-size="14.00">AdditiveAction</text>
</g>
<!-- AdditiveAction&#45;&gt;Additive -->
<g id="edge15" class="edge">
<title>AdditiveAction&#45;&gt;Additive</title>
<path fill="none" stroke="black" d="M597.01,-350.92C573.03,-319.5 543.41,-280.68 522.75,-253.59"/>
<polygon fill="black" stroke="black" points="522.51,-253.28 522.51,-253.28 522.51,-253.28 522.51,-253.28"/>
</g>
<!-- SubtractiveAction -->
<g id="node24" class="node">
<title>SubtractiveAction</title>
<ellipse fill="none" stroke="black" cx="603.5" cy="-634" rx="76.5" ry="76.5"/>
<text text-anchor="middle" x="603.5" y="-630.3" font-family="Times,serif" font-size="14.00">SubtractiveAction</text>
</g>
<!-- SubtractiveAction&#45;&gt;Subtractive -->
<g id="edge16" class="edge">
<title>SubtractiveAction&#45;&gt;Subtractive</title>
<path fill="none" stroke="black" d="M572.01,-564.28C555.52,-528.27 535.74,-485.11 521.01,-452.96"/>
<polygon fill="black" stroke="black" points="520.84,-452.58 520.84,-452.58 520.84,-452.58 520.84,-452.58"/>
</g>
<!-- MultiplicativeAction -->
<g id="node25" class="node">
<title>MultiplicativeAction</title>
<ellipse fill="none" stroke="black" cx="114.5" cy="-405" rx="87" ry="87"/>
<text text-anchor="middle" x="114.5" y="-401.3" font-family="Times,serif" font-size="14.00">MultiplicativeAction</text>
</g>
<!-- MultiplicativeAction&#45;&gt;Multiplicative -->
<g id="edge17" class="edge">
<title>MultiplicativeAction&#45;&gt;Multiplicative</title>
<path fill="none" stroke="black" d="M168.92,-336.97C187.15,-314.52 207.12,-289.94 223.98,-269.17"/>
<polygon fill="black" stroke="black" points="224.38,-268.68 224.38,-268.68 224.38,-268.68 224.38,-268.68"/>
</g>
<!-- DivisiveAction -->
<g id="node26" class="node">
<title>DivisiveAction</title>
<ellipse fill="none" stroke="black" cx="161.5" cy="-634" rx="66.5" ry="66.5"/>
<text text-anchor="middle" x="161.5" y="-630.3" font-family="Times,serif" font-size="14.00">DivisiveAction</text>
</g>
<!-- DivisiveAction&#45;&gt;Divisive -->
<g id="edge18" class="edge">
<title>DivisiveAction&#45;&gt;Divisive</title>
<path fill="none" stroke="black" d="M188.04,-572.76C206.08,-531.81 229.39,-478.9 244.86,-443.77"/>
<polygon fill="black" stroke="black" points="245.04,-443.36 245.04,-443.36 245.04,-443.36 245.04,-443.36"/>
</g>
<!-- Module -->
<g id="node27" class="node">
<title>Module</title>
<ellipse fill="none" stroke="black" cx="375.5" cy="-634" rx="39" ry="39"/>
<text text-anchor="middle" x="375.5" y="-630.3" font-family="Times,serif" font-size="14.00">Module</text>
</g>
<!-- Module&#45;&gt;Distributive -->
<g id="edge19" class="edge">
<title>Module&#45;&gt;Distributive</title>
<path fill="none" stroke="black" d="M375.5,-594.75C375.5,-557.75 375.5,-501.32 375.5,-459.8"/>
<polygon fill="black" stroke="black" points="375.5,-459.31 375.5,-459.31 375.5,-459.31 375.5,-459.31"/>
</g>
<!-- JoinSemiLattice -->
<g id="node28" class="node">
<title>JoinSemiLattice</title>
<ellipse fill="none" stroke="black" cx="2124.5" cy="-634" rx="69.5" ry="69.5"/>
<text text-anchor="middle" x="2124.5" y="-630.3" font-family="Times,serif" font-size="14.00">JoinSemiLattice</text>
</g>
<!-- MeetSemiLattice -->
<g id="node29" class="node">
<title>MeetSemiLattice</title>
<ellipse fill="none" stroke="black" cx="2285.5" cy="-634" rx="73.5" ry="73.5"/>
<text text-anchor="middle" x="2285.5" y="-630.3" font-family="Times,serif" font-size="14.00">MeetSemiLattice</text>
</g>
<!-- Lattice -->
<g id="node30" class="node">
<title>Lattice</title>
<ellipse fill="none" stroke="black" cx="2412.5" cy="-634" rx="35.5" ry="35.5"/>
<text text-anchor="middle" x="2412.5" y="-630.3" font-family="Times,serif" font-size="14.00">Lattice</text>
</g>
<!-- BoundedJoinSemiLattice -->
<g id="node31" class="node">
<title>BoundedJoinSemiLattice</title>
<ellipse fill="none" stroke="black" cx="2568.5" cy="-634" rx="102.5" ry="102.5"/>
<text text-anchor="middle" x="2568.5" y="-630.3" font-family="Times,serif" font-size="14.00">BoundedJoinSemiLattice</text>
</g>
<!-- BoundedMeetSemiLattice -->
<g id="node32" class="node">
<title>BoundedMeetSemiLattice</title>
<ellipse fill="none" stroke="black" cx="2795.5" cy="-634" rx="106" ry="106"/>
<text text-anchor="middle" x="2795.5" y="-630.3" font-family="Times,serif" font-size="14.00">BoundedMeetSemiLattice</text>
</g>
<!-- BoundedLattice -->
<g id="node33" class="node">
<title>BoundedLattice</title>
<ellipse fill="none" stroke="black" cx="2988.5" cy="-634" rx="69" ry="69"/>
<text text-anchor="middle" x="2988.5" y="-630.3" font-family="Times,serif" font-size="14.00">BoundedLattice</text>
</g>
<!-- Integral -->
<g id="node34" class="node">
<title>Integral</title>
<ellipse fill="none" stroke="black" cx="3114.5" cy="-634" rx="39" ry="39"/>
<text text-anchor="middle" x="3114.5" y="-630.3" font-family="Times,serif" font-size="14.00">Integral</text>
</g>
<!-- Ratio -->
<g id="node35" class="node">
<title>Ratio</title>
<ellipse fill="none" stroke="black" cx="3202.5" cy="-634" rx="30.5" ry="30.5"/>
<text text-anchor="middle" x="3202.5" y="-630.3" font-family="Times,serif" font-size="14.00">Ratio</text>
</g>
<!-- Signed -->
<g id="node36" class="node">
<title>Signed</title>
<ellipse fill="none" stroke="black" cx="3286.5" cy="-634" rx="35.5" ry="35.5"/>
<text text-anchor="middle" x="3286.5" y="-630.3" font-family="Times,serif" font-size="14.00">Signed</text>
</g>
<!-- Norm -->
<g id="node37" class="node">
<title>Norm</title>
<ellipse fill="none" stroke="black" cx="3372.5" cy="-634" rx="32" ry="32"/>
<text text-anchor="middle" x="3372.5" y="-630.3" font-family="Times,serif" font-size="14.00">Norm</text>
</g>
<!-- Basis -->
<g id="node38" class="node">
<title>Basis</title>
<ellipse fill="none" stroke="black" cx="3453.5" cy="-634" rx="30.5" ry="30.5"/>
<text text-anchor="middle" x="3453.5" y="-630.3" font-family="Times,serif" font-size="14.00">Basis</text>
</g>
<!-- Direction -->
<g id="node39" class="node">
<title>Direction</title>
<ellipse fill="none" stroke="black" cx="3547.5" cy="-634" rx="45" ry="45"/>
<text text-anchor="middle" x="3547.5" y="-630.3" font-family="Times,serif" font-size="14.00">Direction</text>
</g>
<!-- Epsilon -->
<g id="node40" class="node">
<title>Epsilon</title>
<ellipse fill="none" stroke="black" cx="3649.5" cy="-634" rx="38.5" ry="38.5"/>
<text text-anchor="middle" x="3649.5" y="-630.3" font-family="Times,serif" font-size="14.00">Epsilon</text>
</g>
</g>
</svg>
