<svg xmlns="http://www.w3.org/2000/svg" xmlns:xlink="http://www.w3.org/1999/xlink" width="1766" height="500" viewBox="-1.7665 -0.5000 3.5329 1.0"><style>svg {
  color-scheme: light dark;
}
{
  .canvas g, .title g, .axisbar g, .ticktext g, .tickglyph g, .ticklines g, .legendContent g text {
    fill: rgb(5%, 5%, 5%);
  }
  .ticklines g, .tickglyph g, .legendBorder g {
    stroke: rgb(5%, 5%, 5%);
  }
  .legendBorder g {
    fill: rgb(94%, 94%, 94%);
  }
}
@media (prefers-color-scheme:dark) {
  .canvas g, .title g, .axisbar g, .ticktext g, .tickglyph g, .ticklines g, .legendContent g text {
    fill: rgb(94%, 94%, 94%);
  }
  .ticklines g, .tickglyph g, .legendBorder g {
    stroke: rgb(94%, 94%, 94%);
  }
  .legendBorder g {
    fill: rgb(5%, 5%, 5%);
  }
}
svg { font-family: system-ui,-apple-system,"Segoe UI",Roboto,"Helvetica Neue",Arial,"Noto Sans","Liberation Sans",sans-serif,"Apple Color Emoji","Segoe UI Emoji","Segoe UI Symbol","Noto Color Emoji";
}

ticktext { font-family: SFMono-Regular,Menlo,Monaco,Consolas,"Liberation Mono","Courier New",monospace;
}

</style><g class="chart"><g class="edges"><g stroke-width="0.0031" stroke="rgb(40%, 40%, 40%)" stroke-opacity="0.8" fill="rgb(0%, 0%, 0%)" fill-opacity="0"><path d="M -0.2315,-0.0563 C -0.2048,-0.0850 -0.1717,-0.1207 -0.1433,-0.1513 L -0.1298,-0.1658"/></g><g stroke-width="0.0031" stroke="rgb(40%, 40%, 40%)" stroke-opacity="0.8" fill="rgb(0%, 0%, 0%)" fill-opacity="0"><path d="M -0.0485,-0.0563 C -0.0539,-0.0834 -0.0606,-0.1168 -0.0665,-0.1462 L -0.0704,-0.1658"/></g><g stroke-width="0.0031" stroke="rgb(40%, 40%, 40%)" stroke-opacity="0.8" fill="rgb(0%, 0%, 0%)" fill-opacity="0"><path d="M -0.1250,-0.2778 C -0.1486,-0.3063 -0.1778,-0.3416 -0.2030,-0.3720 L -0.2158,-0.3874"/></g><g stroke-width="0.0031" stroke="rgb(40%, 40%, 40%)" stroke-opacity="0.8" fill="rgb(0%, 0%, 0%)" fill-opacity="0"><path d="M -0.0421,-0.2778 C -0.0214,-0.3063 0.0043,-0.3416 0.0264,-0.3720 L 0.0377,-0.3874"/></g><g stroke-width="0.0031" stroke="rgb(40%, 40%, 40%)" stroke-opacity="0.8" fill="rgb(0%, 0%, 0%)" fill-opacity="0"><path d="M 0.1941,-0.2778 C 0.1734,-0.3063 0.1477,-0.3416 0.1256,-0.3720 L 0.1143,-0.3874"/></g><g stroke-width="0.0031" stroke="rgb(40%, 40%, 40%)" stroke-opacity="0.8" fill="rgb(0%, 0%, 0%)" fill-opacity="0"><path d="M 0.5271,0.3868 C 0.5104,0.3588 0.4897,0.3243 0.4717,0.2943 L 0.4614,0.2772"/></g><g stroke-width="0.0031" stroke="rgb(40%, 40%, 40%)" stroke-opacity="0.8" fill="rgb(0%, 0%, 0%)" fill-opacity="0"><path d="M 0.4262,0.1655 C 0.4207,0.1084 0.4066,0.0162 0.3714,-0.0554 C 0.3539,-0.0909 0.3270,-0.1251 0.3015,-0.1529 L 0.2892,-0.1661"/></g><g stroke-width="0.0031" stroke="rgb(40%, 40%, 40%)" stroke-opacity="0.8" fill="rgb(0%, 0%, 0%)" fill-opacity="0"><path d="M 0.3462,0.1759 C 0.3372,0.1722 0.3280,0.1689 0.3191,0.1662 C 0.0134,0.0723 -0.0861,0.1492 -0.3917,0.0554 C -0.3945,0.0545 -0.3973,0.0536 -0.4001,0.0526 L -0.4188,0.0456"/></g><g stroke-width="0.0031" stroke="rgb(40%, 40%, 40%)" stroke-opacity="0.8" fill="rgb(0%, 0%, 0%)" fill-opacity="0"><path d="M 0.1704,0.1652 C 0.1810,0.1376 0.1942,0.1034 0.2057,0.0736 L 0.2126,0.0557"/></g><g stroke-width="0.0031" stroke="rgb(40%, 40%, 40%)" stroke-opacity="0.8" fill="rgb(0%, 0%, 0%)" fill-opacity="0"><path d="M -0.4182,-0.0462 C -0.3566,-0.0776 -0.2722,-0.1207 -0.2032,-0.1560 L -0.1860,-0.1648"/></g><g stroke-width="0.0031" stroke="rgb(40%, 40%, 40%)" stroke-opacity="0.8" fill="rgb(0%, 0%, 0%)" fill-opacity="0"><path d="M -0.4918,-0.0563 C -0.4864,-0.0834 -0.4797,-0.1168 -0.4738,-0.1462 L -0.4699,-0.1658"/></g><g stroke-width="0.0031" stroke="rgb(40%, 40%, 40%)" stroke-opacity="0.8" fill="rgb(0%, 0%, 0%)" fill-opacity="0"><path d="M 0.1545,-0.0569 C 0.1115,-0.0864 0.0579,-0.1232 0.0127,-0.1542 L -0.0035,-0.1654"/></g><g stroke-width="0.0031" stroke="rgb(40%, 40%, 40%)" stroke-opacity="0.8" fill="rgb(0%, 0%, 0%)" fill-opacity="0"><path d="M 0.2329,-0.0563 C 0.2329,-0.0834 0.2329,-0.1168 0.2329,-0.1462 L 0.2329,-0.1658"/></g><g stroke-width="0.0031" stroke="rgb(40%, 40%, 40%)" stroke-opacity="0.8" fill="rgb(0%, 0%, 0%)" fill-opacity="0"><path d="M -0.4099,-0.2778 C -0.3833,-0.3066 -0.3502,-0.3422 -0.3218,-0.3728 L -0.3083,-0.3874"/></g><g stroke-width="0.0031" stroke="rgb(40%, 40%, 40%)" stroke-opacity="0.8" fill="rgb(0%, 0%, 0%)" fill-opacity="0"><path d="M 0.3326,0.3868 C 0.3493,0.3588 0.3700,0.3243 0.3880,0.2943 L 0.3983,0.2772"/></g></g><g class="shapes"><g stroke-width="0.0031" stroke="rgb(40%, 40%, 40%)" stroke-opacity="0.8" fill="rgb(50%, 50%, 50%)" fill-opacity="0.2"><rect width="0.1946" height="0.1108" x="-0.3567" y="-0.4985"/></g><g stroke-width="0.0031" stroke="rgb(40%, 40%, 40%)" stroke-opacity="0.8" fill="rgb(50%, 50%, 50%)" fill-opacity="0.2"><rect width="0.1662" height="0.1108" x="-0.3640" y="-0.0554"/></g><g stroke-width="0.0031" stroke="rgb(40%, 40%, 40%)" stroke-opacity="0.8" fill="rgb(50%, 50%, 50%)" fill-opacity="0.2"><rect width="0.2062" height="0.1108" x="-0.1409" y="-0.0554"/></g><g stroke-width="0.0031" stroke="rgb(40%, 40%, 40%)" stroke-opacity="0.8" fill="rgb(50%, 50%, 50%)" fill-opacity="0.2"><rect width="0.2477" height="0.1108" x="-0.2048" y="-0.2769"/></g><g stroke-width="0.0031" stroke="rgb(40%, 40%, 40%)" stroke-opacity="0.8" fill="rgb(50%, 50%, 50%)" fill-opacity="0.2"><rect width="0.1900" height="0.1108" x="0.1379" y="-0.2769"/></g><g stroke-width="0.0031" stroke="rgb(40%, 40%, 40%)" stroke-opacity="0.8" fill="rgb(50%, 50%, 50%)" fill-opacity="0.2"><rect width="0.2015" height="0.1108" x="0.4583" y="0.3877"/></g><g stroke-width="0.0031" stroke="rgb(40%, 40%, 40%)" stroke-opacity="0.8" fill="rgb(50%, 50%, 50%)" fill-opacity="0.2"><rect width="0.1662" height="0.1108" x="0.3468" y="0.1662"/></g><g stroke-width="0.0031" stroke="rgb(40%, 40%, 40%)" stroke-opacity="0.8" fill="rgb(50%, 50%, 50%)" fill-opacity="0.2"><rect width="0.2869" height="0.1108" x="-0.0675" y="-0.4985"/></g><g stroke-width="0.0031" stroke="rgb(40%, 40%, 40%)" stroke-opacity="0.8" fill="rgb(50%, 50%, 50%)" fill-opacity="0.2"><rect width="0.2800" height="0.1108" x="0.0098" y="0.1662"/></g><g stroke-width="0.0031" stroke="rgb(40%, 40%, 40%)" stroke-opacity="0.8" fill="rgb(50%, 50%, 50%)" fill-opacity="0.2"><rect width="0.1662" height="0.1108" x="-0.5855" y="-0.0554"/></g><g stroke-width="0.0031" stroke="rgb(40%, 40%, 40%)" stroke-opacity="0.8" fill="rgb(50%, 50%, 50%)" fill-opacity="0.2"><rect width="0.2223" height="0.1108" x="0.1218" y="-0.0554"/></g><g stroke-width="0.0031" stroke="rgb(40%, 40%, 40%)" stroke-opacity="0.8" fill="rgb(50%, 50%, 50%)" fill-opacity="0.2"><rect width="0.2385" height="0.1108" x="-0.5786" y="-0.2769"/></g><g stroke-width="0.0031" stroke="rgb(40%, 40%, 40%)" stroke-opacity="0.8" fill="rgb(50%, 50%, 50%)" fill-opacity="0.2"><rect width="0.2062" height="0.1108" x="0.1975" y="0.3877"/></g></g><g class="labels"><g stroke-width="0.0" stroke="none" fill="rgb(40%, 40%, 40%)" fill-opacity="0.8" font-size="0.0369" text-anchor="middle"><text x="-0.2594" y="-0.4308"><a href="https://hackage.haskell.org/package/numhask/docs/NumHask-Algebra-Additive.html#t:Additive">Additive</a></text><text x="-0.2809" y="0.0123"><a href="https://hackage.haskell.org/package/numhask/docs/NumHask-Algebra-Metric.html#t:Basis">Basis</a></text><text x="-0.0378" y="0.0123"><a href="https://hackage.haskell.org/package/numhask/docs/NumHask-Algebra-Metric.html#t:Direction">Direction</a></text><text x="-0.0809" y="-0.2092"><a href="https://hackage.haskell.org/package/numhask/docs/NumHask-Algebra-Ring.html#t:Distributive">Distributive</a></text><text x="0.2329" y="-0.2092"><a href="https://hackage.haskell.org/package/numhask/docs/NumHask-Algebra-Multiplicative.html#t:Divisive">Divisive</a></text><text x="0.5591" y="0.4554"><a href="https://hackage.haskell.org/package/numhask/docs/NumHask-Algebra-Field.html#t:ExpField">ExpField</a></text><text x="0.4298" y="0.2338"><a href="https://hackage.haskell.org/package/numhask/docs/NumHask-Algebra-Field.html#t:Field">Field</a></text><text x="0.0760" y="-0.4308"><a href="https://hackage.haskell.org/package/numhask/docs/NumHask-Algebra-Multiplicative.html#t:Multiplicative">Multiplicative</a></text><text x="0.1498" y="0.2338"><a href="https://hackage.haskell.org/package/numhask/docs/NumHask-Algebra-Field.html#t:QuotientField">QuotientField</a></text><text x="-0.5025" y="0.0123"><a href="https://hackage.haskell.org/package/numhask/docs/NumHask-Algebra-Ring.html#t:Ring">Ring</a></text><text x="0.2329" y="0.0123"><a href="https://hackage.haskell.org/package/numhask/docs/NumHask-Algebra-Field.html#t:SemiField">SemiField</a></text><text x="-0.4594" y="-0.2092"><a href="https://hackage.haskell.org/package/numhask/docs/NumHask-Algebra-Additive.html#t:Subtractive">Subtractive</a></text><text x="0.3006" y="0.4554"><a href="https://hackage.haskell.org/package/numhask/docs/NumHask-Algebra-Field.html#t:TrigField">TrigField</a></text></g></g></g><g class="hud"></g></svg>