<?xml version="1.0" encoding="UTF-8" standalone="no"?>
<!DOCTYPE svg PUBLIC "-//W3C//DTD SVG 1.1//EN"
 "http://www.w3.org/Graphics/SVG/1.1/DTD/svg11.dtd">
<!-- Generated by graphviz version 7.1.0 (20230121.1956)
 -->
<!-- Pages: 1 -->
<svg width="360pt" height="224pt"
 viewBox="0.00 0.00 360.00 224.24" xmlns="http://www.w3.org/2000/svg" xmlns:xlink="http://www.w3.org/1999/xlink">
<g id="graph0" class="graph" transform="scale(0.675422 0.675422) rotate(0) translate(4 328)">
<polygon fill="white" stroke="none" points="-4,4 -4,-328 529,-328 529,4 -4,4"/>
<!-- RealFrac -->
<g id="node1" class="node">
<title>RealFrac</title>
<polygon fill="none" stroke="black" points="145.5,-108 80.5,-108 80.5,-72 145.5,-72 145.5,-108"/>
<text text-anchor="middle" x="113" y="-86.3" font-family="Times,serif" font-size="14.00">RealFrac</text>
</g>
<!-- RealFloat -->
<g id="node2" class="node">
<title>RealFloat</title>
<polygon fill="none" stroke="black" points="106.5,-36 37.5,-36 37.5,0 106.5,0 106.5,-36"/>
<text text-anchor="middle" x="72" y="-14.3" font-family="Times,serif" font-size="14.00">RealFloat</text>
</g>
<!-- RealFrac&#45;&gt;RealFloat -->
<g id="edge1" class="edge">
<title>RealFrac&#45;&gt;RealFloat</title>
<path fill="none" stroke="black" d="M102.87,-71.7C97.55,-62.63 90.98,-51.4 85.27,-41.65"/>
<polygon fill="black" stroke="black" points="86.82,-40.84 82.78,-37.41 83.8,-42.61 86.82,-40.84"/>
</g>
<!-- Real -->
<g id="node3" class="node">
<title>Real</title>
<polygon fill="none" stroke="black" points="144,-180 90,-180 90,-144 144,-144 144,-180"/>
<text text-anchor="middle" x="117" y="-158.3" font-family="Times,serif" font-size="14.00">Real</text>
</g>
<!-- Real&#45;&gt;RealFrac -->
<g id="edge2" class="edge">
<title>Real&#45;&gt;RealFrac</title>
<path fill="none" stroke="black" d="M116.01,-143.7C115.51,-134.88 114.89,-124.03 114.34,-114.47"/>
<polygon fill="black" stroke="black" points="116.1,-114.51 114.06,-109.62 112.6,-114.71 116.1,-114.51"/>
</g>
<!-- Integral -->
<g id="node9" class="node">
<title>Integral</title>
<polygon fill="none" stroke="black" points="222.5,-108 163.5,-108 163.5,-72 222.5,-72 222.5,-108"/>
<text text-anchor="middle" x="193" y="-86.3" font-family="Times,serif" font-size="14.00">Integral</text>
</g>
<!-- Real&#45;&gt;Integral -->
<g id="edge3" class="edge">
<title>Real&#45;&gt;Integral</title>
<path fill="none" stroke="black" d="M135.79,-143.7C146.02,-134.27 158.77,-122.53 169.64,-112.52"/>
<polygon fill="black" stroke="black" points="170.56,-114.05 173.05,-109.37 168.19,-111.47 170.56,-114.05"/>
</g>
<!-- Ord2 -->
<g id="node4" class="node">
<title>Ord2</title>
<polygon fill="none" stroke="black" points="295,-108 241,-108 241,-72 295,-72 295,-108"/>
<text text-anchor="middle" x="268" y="-86.3" font-family="Times,serif" font-size="14.00">Ord2</text>
</g>
<!-- Ord1 -->
<g id="node5" class="node">
<title>Ord1</title>
<polygon fill="none" stroke="black" points="293,-180 239,-180 239,-144 293,-144 293,-180"/>
<text text-anchor="middle" x="266" y="-158.3" font-family="Times,serif" font-size="14.00">Ord1</text>
</g>
<!-- Ord1&#45;&gt;Ord2 -->
<g id="edge4" class="edge">
<title>Ord1&#45;&gt;Ord2</title>
<path fill="none" stroke="black" d="M266.49,-143.7C266.75,-134.88 267.06,-124.03 267.33,-114.47"/>
<polygon fill="black" stroke="black" points="269.07,-114.67 267.47,-109.62 265.58,-114.57 269.07,-114.67"/>
</g>
<!-- Ord -->
<g id="node6" class="node">
<title>Ord</title>
<polygon fill="none" stroke="black" points="329,-252 275,-252 275,-216 329,-216 329,-252"/>
<text text-anchor="middle" x="302" y="-230.3" font-family="Times,serif" font-size="14.00">Ord</text>
</g>
<!-- Ord&#45;&gt;Real -->
<g id="edge5" class="edge">
<title>Ord&#45;&gt;Real</title>
<path fill="none" stroke="black" d="M274.58,-223.45C245.31,-213.15 197.63,-196.05 157,-180 154.84,-179.15 152.62,-178.25 150.38,-177.34"/>
<polygon fill="black" stroke="black" points="151.15,-175.76 145.86,-175.47 149.82,-179 151.15,-175.76"/>
</g>
<!-- Ord&#45;&gt;Ord1 -->
<g id="edge6" class="edge">
<title>Ord&#45;&gt;Ord1</title>
<path fill="none" stroke="black" d="M293.1,-215.7C288.44,-206.63 282.67,-195.4 277.65,-185.65"/>
<polygon fill="black" stroke="black" points="279.33,-185.1 275.49,-181.45 276.22,-186.7 279.33,-185.1"/>
</g>
<!-- Ix -->
<g id="node8" class="node">
<title>Ix</title>
<polygon fill="none" stroke="black" points="365,-180 311,-180 311,-144 365,-144 365,-180"/>
<text text-anchor="middle" x="338" y="-158.3" font-family="Times,serif" font-size="14.00">Ix</text>
</g>
<!-- Ord&#45;&gt;Ix -->
<g id="edge7" class="edge">
<title>Ord&#45;&gt;Ix</title>
<path fill="none" stroke="black" d="M310.9,-215.7C315.56,-206.63 321.33,-195.4 326.35,-185.65"/>
<polygon fill="black" stroke="black" points="327.78,-186.7 328.51,-181.45 324.67,-185.1 327.78,-186.7"/>
</g>
<!-- Num -->
<g id="node7" class="node">
<title>Num</title>
<polygon fill="none" stroke="black" points="104,-252 50,-252 50,-216 104,-216 104,-252"/>
<text text-anchor="middle" x="77" y="-230.3" font-family="Times,serif" font-size="14.00">Num</text>
</g>
<!-- Num&#45;&gt;Real -->
<g id="edge8" class="edge">
<title>Num&#45;&gt;Real</title>
<path fill="none" stroke="black" d="M86.89,-215.7C92.07,-206.63 98.48,-195.4 104.06,-185.65"/>
<polygon fill="black" stroke="black" points="105.51,-186.63 106.48,-181.42 102.47,-184.89 105.51,-186.63"/>
</g>
<!-- Fractional -->
<g id="node10" class="node">
<title>Fractional</title>
<polygon fill="none" stroke="black" points="71.5,-180 0.5,-180 0.5,-144 71.5,-144 71.5,-180"/>
<text text-anchor="middle" x="36" y="-158.3" font-family="Times,serif" font-size="14.00">Fractional</text>
</g>
<!-- Num&#45;&gt;Fractional -->
<g id="edge9" class="edge">
<title>Num&#45;&gt;Fractional</title>
<path fill="none" stroke="black" d="M66.87,-215.7C61.55,-206.63 54.98,-195.4 49.27,-185.65"/>
<polygon fill="black" stroke="black" points="50.82,-184.84 46.78,-181.41 47.8,-186.61 50.82,-184.84"/>
</g>
<!-- Floating -->
<g id="node11" class="node">
<title>Floating</title>
<polygon fill="none" stroke="black" points="62,-108 0,-108 0,-72 62,-72 62,-108"/>
<text text-anchor="middle" x="31" y="-86.3" font-family="Times,serif" font-size="14.00">Floating</text>
</g>
<!-- Fractional&#45;&gt;Floating -->
<g id="edge10" class="edge">
<title>Fractional&#45;&gt;Floating</title>
<path fill="none" stroke="black" d="M34.76,-143.7C34.13,-134.88 33.36,-124.03 32.68,-114.47"/>
<polygon fill="black" stroke="black" points="34.43,-114.48 32.33,-109.61 30.94,-114.73 34.43,-114.48"/>
</g>
<!-- Floating&#45;&gt;RealFloat -->
<g id="edge11" class="edge">
<title>Floating&#45;&gt;RealFloat</title>
<path fill="none" stroke="black" d="M41.13,-71.7C46.45,-62.63 53.02,-51.4 58.73,-41.65"/>
<polygon fill="black" stroke="black" points="60.2,-42.61 61.22,-37.41 57.18,-40.84 60.2,-42.61"/>
</g>
<!-- FiniteBits -->
<g id="node12" class="node">
<title>FiniteBits</title>
<polygon fill="none" stroke="black" points="525,-180 455,-180 455,-144 525,-144 525,-180"/>
<text text-anchor="middle" x="490" y="-158.3" font-family="Times,serif" font-size="14.00">FiniteBits</text>
</g>
<!-- Eq2 -->
<g id="node13" class="node">
<title>Eq2</title>
<polygon fill="none" stroke="black" points="437,-180 383,-180 383,-144 437,-144 437,-180"/>
<text text-anchor="middle" x="410" y="-158.3" font-family="Times,serif" font-size="14.00">Eq2</text>
</g>
<!-- Eq1 -->
<g id="node14" class="node">
<title>Eq1</title>
<polygon fill="none" stroke="black" points="437,-252 383,-252 383,-216 437,-216 437,-252"/>
<text text-anchor="middle" x="410" y="-230.3" font-family="Times,serif" font-size="14.00">Eq1</text>
</g>
<!-- Eq1&#45;&gt;Eq2 -->
<g id="edge12" class="edge">
<title>Eq1&#45;&gt;Eq2</title>
<path fill="none" stroke="black" d="M410,-215.7C410,-206.88 410,-196.03 410,-186.47"/>
<polygon fill="black" stroke="black" points="411.75,-186.62 410,-181.62 408.25,-186.62 411.75,-186.62"/>
</g>
<!-- Eq -->
<g id="node15" class="node">
<title>Eq</title>
<polygon fill="none" stroke="black" points="437,-324 383,-324 383,-288 437,-288 437,-324"/>
<text text-anchor="middle" x="410" y="-302.3" font-family="Times,serif" font-size="14.00">Eq</text>
</g>
<!-- Eq&#45;&gt;Ord -->
<g id="edge13" class="edge">
<title>Eq&#45;&gt;Ord</title>
<path fill="none" stroke="black" d="M383.03,-287.52C368.09,-277.84 349.45,-265.75 333.81,-255.62"/>
<polygon fill="black" stroke="black" points="335.05,-254.33 329.9,-253.08 333.14,-257.27 335.05,-254.33"/>
</g>
<!-- Eq&#45;&gt;Eq1 -->
<g id="edge14" class="edge">
<title>Eq&#45;&gt;Eq1</title>
<path fill="none" stroke="black" d="M410,-287.7C410,-278.88 410,-268.03 410,-258.47"/>
<polygon fill="black" stroke="black" points="411.75,-258.62 410,-253.62 408.25,-258.62 411.75,-258.62"/>
</g>
<!-- Bits -->
<g id="node17" class="node">
<title>Bits</title>
<polygon fill="none" stroke="black" points="513,-252 459,-252 459,-216 513,-216 513,-252"/>
<text text-anchor="middle" x="486" y="-230.3" font-family="Times,serif" font-size="14.00">Bits</text>
</g>
<!-- Eq&#45;&gt;Bits -->
<g id="edge15" class="edge">
<title>Eq&#45;&gt;Bits</title>
<path fill="none" stroke="black" d="M428.79,-287.7C439.02,-278.27 451.77,-266.53 462.64,-256.52"/>
<polygon fill="black" stroke="black" points="463.56,-258.05 466.05,-253.37 461.19,-255.47 463.56,-258.05"/>
</g>
<!-- Enum -->
<g id="node16" class="node">
<title>Enum</title>
<polygon fill="none" stroke="black" points="220,-180 166,-180 166,-144 220,-144 220,-180"/>
<text text-anchor="middle" x="193" y="-158.3" font-family="Times,serif" font-size="14.00">Enum</text>
</g>
<!-- Enum&#45;&gt;Integral -->
<g id="edge16" class="edge">
<title>Enum&#45;&gt;Integral</title>
<path fill="none" stroke="black" d="M193,-143.7C193,-134.88 193,-124.03 193,-114.47"/>
<polygon fill="black" stroke="black" points="194.75,-114.62 193,-109.62 191.25,-114.62 194.75,-114.62"/>
</g>
<!-- Bits&#45;&gt;FiniteBits -->
<g id="edge17" class="edge">
<title>Bits&#45;&gt;FiniteBits</title>
<path fill="none" stroke="black" d="M486.99,-215.7C487.49,-206.88 488.11,-196.03 488.66,-186.47"/>
<polygon fill="black" stroke="black" points="490.4,-186.71 488.94,-181.62 486.9,-186.51 490.4,-186.71"/>
</g>
</g>
</svg>
