<?xml version="1.0" encoding="UTF-8" standalone="no"?>
<!DOCTYPE svg PUBLIC "-//W3C//DTD SVG 1.1//EN"
 "http://www.w3.org/Graphics/SVG/1.1/DTD/svg11.dtd">
<!-- Generated by graphviz version 2.49.3 (20211023.0002)
 -->
<!-- Pages: 1 -->
<svg width="72pt" height="71pt"
 viewBox="0.00 0.00 72.00 71.50" xmlns="http://www.w3.org/2000/svg" xmlns:xlink="http://www.w3.org/1999/xlink">
<g id="graph0" class="graph" transform="scale(0.14 0.14) rotate(0) translate(4 496)">
<polygon fill="white" stroke="transparent" points="-4,4 -4,-496 499.5,-496 499.5,4 -4,4"/>
<!-- 0 -->
<g id="node1" class="node">
<title>0</title>
<ellipse fill="none" stroke="black" cx="384.5" cy="-474" rx="18" ry="18"/>
<text text-anchor="middle" x="384.5" y="-470.3" font-family="Times,serif" font-size="14.00">0</text>
</g>
<!-- 1 -->
<g id="node2" class="node">
<title>1</title>
<ellipse fill="none" stroke="black" cx="357.5" cy="-400" rx="18" ry="18"/>
<text text-anchor="middle" x="357.5" y="-396.3" font-family="Times,serif" font-size="14.00">1</text>
</g>
<!-- 0&#45;&gt;1 -->
<g id="edge1" class="edge">
<title>0&#45;&gt;1</title>
<path fill="none" stroke="black" d="M378.51,-457.02C374.1,-445.26 368.12,-429.33 363.67,-417.46"/>
<polygon fill="black" stroke="black" points="363.57,-417.18 363.57,-417.18 363.57,-417.18 363.57,-417.18"/>
</g>
<!-- 6 -->
<g id="node3" class="node">
<title>6</title>
<ellipse fill="none" stroke="black" cx="411.5" cy="-400" rx="18" ry="18"/>
<text text-anchor="middle" x="411.5" y="-396.3" font-family="Times,serif" font-size="14.00">6</text>
</g>
<!-- 0&#45;&gt;6 -->
<g id="edge2" class="edge">
<title>0&#45;&gt;6</title>
<path fill="none" stroke="black" d="M390.49,-457.02C394.9,-445.26 400.88,-429.33 405.33,-417.46"/>
<polygon fill="black" stroke="black" points="405.43,-417.18 405.43,-417.18 405.43,-417.18 405.43,-417.18"/>
</g>
<!-- 12 -->
<g id="node4" class="node">
<title>12</title>
<ellipse fill="none" stroke="black" cx="467.5" cy="-400" rx="20" ry="20"/>
<text text-anchor="middle" x="467.5" y="-396.3" font-family="Times,serif" font-size="14.00">12</text>
</g>
<!-- 0&#45;&gt;12 -->
<g id="edge3" class="edge">
<title>0&#45;&gt;12</title>
<path fill="none" stroke="black" d="M397.84,-461.43C412.75,-448.5 436.85,-427.59 452.43,-414.07"/>
<polygon fill="black" stroke="black" points="452.8,-413.75 452.8,-413.75 452.8,-413.75 452.8,-413.75"/>
</g>
<!-- 2 -->
<g id="node5" class="node">
<title>2</title>
<ellipse fill="none" stroke="black" cx="330.5" cy="-324" rx="18" ry="18"/>
<text text-anchor="middle" x="330.5" y="-320.3" font-family="Times,serif" font-size="14.00">2</text>
</g>
<!-- 1&#45;&gt;2 -->
<g id="edge4" class="edge">
<title>1&#45;&gt;2</title>
<path fill="none" stroke="black" d="M351.64,-382.94C347.15,-370.63 340.97,-353.7 336.45,-341.32"/>
<polygon fill="black" stroke="black" points="336.35,-341.03 336.35,-341.03 336.35,-341.03 336.35,-341.03"/>
</g>
<!-- 7 -->
<g id="node6" class="node">
<title>7</title>
<ellipse fill="none" stroke="black" cx="384.5" cy="-324" rx="18" ry="18"/>
<text text-anchor="middle" x="384.5" y="-320.3" font-family="Times,serif" font-size="14.00">7</text>
</g>
<!-- 1&#45;&gt;7 -->
<g id="edge5" class="edge">
<title>1&#45;&gt;7</title>
<path fill="none" stroke="black" d="M363.36,-382.94C367.85,-370.63 374.03,-353.7 378.55,-341.32"/>
<polygon fill="black" stroke="black" points="378.65,-341.03 378.65,-341.03 378.65,-341.03 378.65,-341.03"/>
</g>
<!-- 13 -->
<g id="node7" class="node">
<title>13</title>
<ellipse fill="none" stroke="black" cx="440.5" cy="-324" rx="20" ry="20"/>
<text text-anchor="middle" x="440.5" y="-320.3" font-family="Times,serif" font-size="14.00">13</text>
</g>
<!-- 1&#45;&gt;13 -->
<g id="edge6" class="edge">
<title>1&#45;&gt;13</title>
<path fill="none" stroke="black" d="M370.47,-387.44C385.4,-374.13 409.87,-352.31 425.58,-338.3"/>
<polygon fill="black" stroke="black" points="425.95,-337.97 425.95,-337.97 425.95,-337.97 425.95,-337.97"/>
</g>
<!-- 3 -->
<g id="node8" class="node">
<title>3</title>
<ellipse fill="none" stroke="black" cx="263.5" cy="-248" rx="18" ry="18"/>
<text text-anchor="middle" x="263.5" y="-244.3" font-family="Times,serif" font-size="14.00">3</text>
</g>
<!-- 2&#45;&gt;3 -->
<g id="edge7" class="edge">
<title>2&#45;&gt;3</title>
<path fill="none" stroke="black" d="M318.83,-310.11C306.78,-296.8 288.05,-276.11 275.78,-262.56"/>
<polygon fill="black" stroke="black" points="275.49,-262.24 275.49,-262.24 275.49,-262.24 275.49,-262.24"/>
</g>
<!-- 8 -->
<g id="node9" class="node">
<title>8</title>
<ellipse fill="none" stroke="black" cx="419.5" cy="-248" rx="18" ry="18"/>
<text text-anchor="middle" x="419.5" y="-244.3" font-family="Times,serif" font-size="14.00">8</text>
</g>
<!-- 2&#45;&gt;8 -->
<g id="edge8" class="edge">
<title>2&#45;&gt;8</title>
<path fill="none" stroke="black" d="M344.02,-311.76C360.71,-297.88 388.95,-274.4 405.75,-260.43"/>
<polygon fill="black" stroke="black" points="406.15,-260.1 406.15,-260.1 406.15,-260.1 406.15,-260.1"/>
</g>
<!-- 14 -->
<g id="node10" class="node">
<title>14</title>
<ellipse fill="none" stroke="black" cx="475.5" cy="-248" rx="20" ry="20"/>
<text text-anchor="middle" x="475.5" y="-244.3" font-family="Times,serif" font-size="14.00">14</text>
</g>
<!-- 2&#45;&gt;14 -->
<g id="edge9" class="edge">
<title>2&#45;&gt;14</title>
<path fill="none" stroke="black" d="M344.4,-312.31C348.5,-309.41 353.07,-306.41 357.5,-304 394.97,-283.59 408.7,-287.79 446.5,-268 450.74,-265.78 455.14,-263.11 459.19,-260.48"/>
<polygon fill="black" stroke="black" points="459.58,-260.23 459.58,-260.23 459.58,-260.23 459.58,-260.23"/>
</g>
<!-- 18 -->
<g id="node11" class="node">
<title>18</title>
<ellipse fill="none" stroke="black" cx="239.5" cy="-96" rx="20" ry="20"/>
<text text-anchor="middle" x="239.5" y="-92.3" font-family="Times,serif" font-size="14.00">18</text>
</g>
<!-- 2&#45;&gt;18 -->
<g id="edge10" class="edge">
<title>2&#45;&gt;18</title>
<path fill="none" stroke="black" d="M313.92,-316.57C277.77,-301.45 192.94,-259.72 166.5,-192 160.04,-175.44 158.57,-167.91 166.5,-152 177.74,-129.46 203.11,-113.72 220.77,-105.02"/>
<polygon fill="black" stroke="black" points="221.18,-104.82 221.18,-104.82 221.18,-104.82 221.18,-104.82"/>
</g>
<!-- 19 -->
<g id="node12" class="node">
<title>19</title>
<ellipse fill="none" stroke="black" cx="335.5" cy="-96" rx="20" ry="20"/>
<text text-anchor="middle" x="335.5" y="-92.3" font-family="Times,serif" font-size="14.00">19</text>
</g>
<!-- 2&#45;&gt;19 -->
<g id="edge11" class="edge">
<title>2&#45;&gt;19</title>
<path fill="none" stroke="black" d="M331.55,-305.63C333.01,-280.56 335.57,-232.74 336.5,-192 336.91,-174.23 336.66,-169.78 336.5,-152 336.39,-140.16 336.15,-126.88 335.94,-116.34"/>
<polygon fill="black" stroke="black" points="335.93,-116.09 335.93,-116.09 335.93,-116.09 335.93,-116.09"/>
</g>
<!-- 4 -->
<g id="node13" class="node">
<title>4</title>
<ellipse fill="none" stroke="black" cx="101.5" cy="-172" rx="18" ry="18"/>
<text text-anchor="middle" x="101.5" y="-168.3" font-family="Times,serif" font-size="14.00">4</text>
</g>
<!-- 3&#45;&gt;4 -->
<g id="edge12" class="edge">
<title>3&#45;&gt;4</title>
<path fill="none" stroke="black" d="M247.37,-239.63C216.44,-225.51 149.09,-194.74 117.93,-180.5"/>
<polygon fill="black" stroke="black" points="117.56,-180.34 117.56,-180.34 117.56,-180.34 117.56,-180.34"/>
</g>
<!-- 9 -->
<g id="node14" class="node">
<title>9</title>
<ellipse fill="none" stroke="black" cx="193.5" cy="-172" rx="18" ry="18"/>
<text text-anchor="middle" x="193.5" y="-168.3" font-family="Times,serif" font-size="14.00">9</text>
</g>
<!-- 3&#45;&gt;9 -->
<g id="edge13" class="edge">
<title>3&#45;&gt;9</title>
<path fill="none" stroke="black" d="M251.63,-234.45C238.93,-221.03 218.89,-199.84 205.97,-186.18"/>
<polygon fill="black" stroke="black" points="205.67,-185.86 205.67,-185.86 205.67,-185.86 205.67,-185.86"/>
</g>
<!-- 15 -->
<g id="node15" class="node">
<title>15</title>
<ellipse fill="none" stroke="black" cx="287.5" cy="-172" rx="20" ry="20"/>
<text text-anchor="middle" x="287.5" y="-168.3" font-family="Times,serif" font-size="14.00">15</text>
</g>
<!-- 3&#45;&gt;15 -->
<g id="edge14" class="edge">
<title>3&#45;&gt;15</title>
<path fill="none" stroke="black" d="M268.83,-230.58C272.58,-219 277.61,-203.49 281.51,-191.48"/>
<polygon fill="black" stroke="black" points="281.6,-191.19 281.6,-191.19 281.6,-191.19 281.6,-191.19"/>
</g>
<!-- 18&#45;&gt;3 -->
<g id="edge23" class="edge">
<title>18&#45;&gt;3</title>
<path fill="none" stroke="black" d="M242.54,-115.97C247.24,-145.36 256.21,-201.45 260.74,-229.75"/>
<polygon fill="black" stroke="black" points="260.79,-230.08 260.79,-230.08 260.79,-230.08 260.79,-230.08"/>
</g>
<!-- 19&#45;&gt;3 -->
<g id="edge24" class="edge">
<title>19&#45;&gt;3</title>
<path fill="none" stroke="black" d="M334.81,-116.25C333.39,-136.23 329.13,-167.86 316.5,-192 307.11,-209.95 290.04,-226.07 277.82,-236.14"/>
<polygon fill="black" stroke="black" points="277.53,-236.38 277.53,-236.38 277.53,-236.38 277.53,-236.38"/>
</g>
<!-- 5 -->
<g id="node16" class="node">
<title>5</title>
<ellipse fill="none" stroke="black" cx="48.5" cy="-96" rx="18" ry="18"/>
<text text-anchor="middle" x="48.5" y="-92.3" font-family="Times,serif" font-size="14.00">5</text>
</g>
<!-- 4&#45;&gt;5 -->
<g id="edge15" class="edge">
<title>4&#45;&gt;5</title>
<path fill="none" stroke="black" d="M91.28,-156.73C81.91,-143.65 68.1,-124.37 58.73,-111.28"/>
<polygon fill="black" stroke="black" points="58.51,-110.97 58.51,-110.97 58.51,-110.97 58.51,-110.97"/>
</g>
<!-- 10 -->
<g id="node17" class="node">
<title>10</title>
<ellipse fill="none" stroke="black" cx="104.5" cy="-96" rx="20" ry="20"/>
<text text-anchor="middle" x="104.5" y="-92.3" font-family="Times,serif" font-size="14.00">10</text>
</g>
<!-- 4&#45;&gt;10 -->
<g id="edge16" class="edge">
<title>4&#45;&gt;10</title>
<path fill="none" stroke="black" d="M102.2,-153.84C102.65,-142.65 103.24,-128.04 103.71,-116.43"/>
<polygon fill="black" stroke="black" points="103.72,-116.15 103.72,-116.15 103.72,-116.15 103.72,-116.15"/>
</g>
<!-- 16 -->
<g id="node18" class="node">
<title>16</title>
<ellipse fill="none" stroke="black" cx="162.5" cy="-96" rx="20" ry="20"/>
<text text-anchor="middle" x="162.5" y="-92.3" font-family="Times,serif" font-size="14.00">16</text>
</g>
<!-- 4&#45;&gt;16 -->
<g id="edge17" class="edge">
<title>4&#45;&gt;16</title>
<path fill="none" stroke="black" d="M112.69,-157.43C123.2,-144.68 138.91,-125.62 149.87,-112.33"/>
<polygon fill="black" stroke="black" points="150.12,-112.01 150.12,-112.01 150.12,-112.01 150.12,-112.01"/>
</g>
<!-- 15&#45;&gt;18 -->
<g id="edge21" class="edge">
<title>15&#45;&gt;18</title>
<path fill="none" stroke="black" d="M276.85,-154.58C268.9,-142.33 258.09,-125.66 250.14,-113.41"/>
<polygon fill="black" stroke="black" points="249.96,-113.12 249.96,-113.12 249.96,-113.12 249.96,-113.12"/>
</g>
<!-- 15&#45;&gt;19 -->
<g id="edge22" class="edge">
<title>15&#45;&gt;19</title>
<path fill="none" stroke="black" d="M298.15,-154.58C306.1,-142.33 316.91,-125.66 324.86,-113.41"/>
<polygon fill="black" stroke="black" points="325.04,-113.12 325.04,-113.12 325.04,-113.12 325.04,-113.12"/>
</g>
<!-- 5&#45;&gt;0 -->
<g id="edge18" class="edge">
<title>5&#45;&gt;0</title>
<path fill="none" stroke="black" d="M49.44,-114.09C50.89,-141.93 53.5,-198.8 53.5,-247 53.5,-325 53.5,-325 53.5,-325 53.5,-462.9 295.89,-473.17 365.82,-473.26"/>
<polygon fill="black" stroke="black" points="366.23,-473.26 366.23,-473.26 366.23,-473.26 366.23,-473.26"/>
</g>
<!-- 11 -->
<g id="node19" class="node">
<title>11</title>
<ellipse fill="none" stroke="black" cx="19.5" cy="-20" rx="19.5" ry="19.5"/>
<text text-anchor="middle" x="19.5" y="-16.3" font-family="Times,serif" font-size="14.00">11</text>
</g>
<!-- 5&#45;&gt;11 -->
<g id="edge19" class="edge">
<title>5&#45;&gt;11</title>
<path fill="none" stroke="black" d="M42.21,-78.94C37.55,-67.05 31.2,-50.85 26.4,-38.6"/>
<polygon fill="black" stroke="black" points="26.29,-38.32 26.29,-38.32 26.29,-38.32 26.29,-38.32"/>
</g>
<!-- 17 -->
<g id="node20" class="node">
<title>17</title>
<ellipse fill="none" stroke="black" cx="77.5" cy="-20" rx="20" ry="20"/>
<text text-anchor="middle" x="77.5" y="-16.3" font-family="Times,serif" font-size="14.00">17</text>
</g>
<!-- 5&#45;&gt;17 -->
<g id="edge20" class="edge">
<title>5&#45;&gt;17</title>
<path fill="none" stroke="black" d="M54.79,-78.94C59.39,-67.22 65.62,-51.31 70.4,-39.13"/>
<polygon fill="black" stroke="black" points="70.51,-38.84 70.51,-38.84 70.51,-38.84 70.51,-38.84"/>
</g>
</g>
</svg>
