<svg xmlns="http://www.w3.org/2000/svg" width="301.13694025891783" xmlns:xlink="http://www.w3.org/1999/xlink" viewBox="-4.36495999999984e-2 -493.82 495.73654319999997 493.8648936" height="300.0"><style>svg {
  color-scheme: light dark;
}
{
  .canvas g, .title g, .axisbar g, .ticktext g, .tickglyph g, .ticklines g, .legendContent g text {
    fill: #0d0d0d;
  }
  .ticklines g, .tickglyph g, .legendBorder g {
    stroke: #0d0d0d;
  }
  .legendBorder g {
    fill: #f0f0f0;
  }
}
@media (prefers-color-scheme:dark) {
  .canvas g, .title g, .axisbar g, .ticktext g, .tickglyph g, .ticklines g, .legendContent g text {
    fill: #f0f0f0;
  }
  .ticklines g, .tickglyph g, .legendBorder g {
    stroke: #f0f0f0;
  }
  .legendBorder g {
    fill: #0d0d0d;
  }
}</style><g class="chart"><g><g fill="rgb(0%, 0%, 0%)" stroke="rgb(30%, 88%, 50%)" stroke-width="1.0" fill-opacity="0.0" stroke-opacity="0.6"><path d="M 378.51,-458.77 C 374.1,-446.99 368.12,-431.02 363.67,-419.13"/></g><g fill="rgb(0%, 0%, 0%)" stroke="rgb(30%, 88%, 50%)" stroke-width="1.0" fill-opacity="0.0" stroke-opacity="0.6"><path d="M 390.4900,-458.77 C 394.9000,-446.99 400.87,-431.02 405.3200,-419.13"/></g><g fill="rgb(0%, 0%, 0%)" stroke="rgb(30%, 88%, 50%)" stroke-width="1.0" fill-opacity="0.0" stroke-opacity="0.6"><path d="M 397.83,-463.19 C 412.75,-450.22 436.8500,-429.2700 452.4300,-415.73"/></g><g fill="rgb(0%, 0%, 0%)" stroke="rgb(30%, 88%, 50%)" stroke-width="1.0" fill-opacity="0.0" stroke-opacity="0.6"><path d="M 351.64,-384.51 C 347.1500,-372.14 340.97,-355.1500 336.4500,-342.72"/></g><g fill="rgb(0%, 0%, 0%)" stroke="rgb(30%, 88%, 50%)" stroke-width="1.0" fill-opacity="0.0" stroke-opacity="0.6"><path d="M 363.3600,-384.51 C 367.8500,-372.14 374.03,-355.1500 378.54,-342.72"/></g><g fill="rgb(0%, 0%, 0%)" stroke="rgb(30%, 88%, 50%)" stroke-width="1.0" fill-opacity="0.0" stroke-opacity="0.6"><path d="M 370.47,-389.02 C 385.4,-375.66 409.87,-353.75 425.58,-339.69"/></g><g fill="rgb(0%, 0%, 0%)" stroke="rgb(30%, 88%, 50%)" stroke-width="1.0" fill-opacity="0.0" stroke-opacity="0.6"><path d="M 318.83,-311.39 C 306.7,-297.94 287.81,-277.0 275.55,-263.4000"/></g><g fill="rgb(0%, 0%, 0%)" stroke="rgb(30%, 88%, 50%)" stroke-width="1.0" fill-opacity="0.0" stroke-opacity="0.6"><path d="M 344.02,-313.05 C 360.71,-299.11 388.95,-275.5400 405.75,-261.51"/></g><g fill="rgb(0%, 0%, 0%)" stroke="rgb(30%, 88%, 50%)" stroke-width="1.0" fill-opacity="0.0" stroke-opacity="0.6"><path d="M 344.39,-313.5500 C 348.48,-310.63 353.06,-307.61 357.5000,-305.19"/></g><g fill="rgb(0%, 0%, 0%)" stroke="rgb(30%, 88%, 50%)" stroke-width="1.0" fill-opacity="0.0" stroke-opacity="0.6"><path d="M 357.5000,-305.19 C 394.9300,-284.71 408.7300,-289.04 446.5000,-269.19"/></g><g fill="rgb(0%, 0%, 0%)" stroke="rgb(30%, 88%, 50%)" stroke-width="1.0" fill-opacity="0.0" stroke-opacity="0.6"><path d="M 446.5000,-269.19 C 450.6400,-267.0100 454.9300,-264.4000 458.9000,-261.81"/></g><g fill="rgb(0%, 0%, 0%)" stroke="rgb(30%, 88%, 50%)" stroke-width="1.0" fill-opacity="0.0" stroke-opacity="0.6"><path d="M 313.92,-317.87 C 277.75,-302.66 192.9,-260.73 166.5,-192.89"/></g><g fill="rgb(0%, 0%, 0%)" stroke="rgb(30%, 88%, 50%)" stroke-width="1.0" fill-opacity="0.0" stroke-opacity="0.6"><path d="M 166.5,-192.89 C 160.0000,-176.2 158.52,-168.63 166.5,-152.59"/></g><g fill="rgb(0%, 0%, 0%)" stroke="rgb(30%, 88%, 50%)" stroke-width="1.0" fill-opacity="0.0" stroke-opacity="0.6"><path d="M 166.5,-152.59 C 177.74,-130.02 203.1100,-114.24 220.7600,-105.5"/></g><g fill="rgb(0%, 0%, 0%)" stroke="rgb(30%, 88%, 50%)" stroke-width="1.0" fill-opacity="0.0" stroke-opacity="0.6"><path d="M 331.52,-307.33 C 332.98,-282.28 335.56,-234.0 336.5,-192.89"/></g><g fill="rgb(0%, 0%, 0%)" stroke="rgb(30%, 88%, 50%)" stroke-width="1.0" fill-opacity="0.0" stroke-opacity="0.6"><path d="M 336.5,-192.89 C 336.91,-174.98 336.6600,-170.5 336.5,-152.59"/></g><g fill="rgb(0%, 0%, 0%)" stroke="rgb(30%, 88%, 50%)" stroke-width="1.0" fill-opacity="0.0" stroke-opacity="0.6"><path d="M 336.5,-152.59 C 336.3900,-140.81 336.16,-127.62 335.9400,-117.09"/></g><g fill="rgb(0%, 0%, 0%)" stroke="rgb(30%, 88%, 50%)" stroke-width="1.0" fill-opacity="0.0" stroke-opacity="0.6"><path d="M 247.37,-240.64 C 216.44,-226.46 149.09,-195.57 117.92,-181.27"/></g><g fill="rgb(0%, 0%, 0%)" stroke="rgb(30%, 88%, 50%)" stroke-width="1.0" fill-opacity="0.0" stroke-opacity="0.6"><path d="M 251.6200,-235.43 C 238.9300,-221.96 218.89,-200.69 205.9700,-186.98"/></g><g fill="rgb(0%, 0%, 0%)" stroke="rgb(30%, 88%, 50%)" stroke-width="1.0" fill-opacity="0.0" stroke-opacity="0.6"><path d="M 268.8200,-231.55 C 272.58,-219.93 277.61,-204.35 281.51,-192.29"/></g><g fill="rgb(0%, 0%, 0%)" stroke="rgb(30%, 88%, 50%)" stroke-width="1.0" fill-opacity="0.0" stroke-opacity="0.6"><path d="M 91.279,-157.42 C 81.908,-144.28 68.101,-124.92 58.7270,-111.78"/></g><g fill="rgb(0%, 0%, 0%)" stroke="rgb(30%, 88%, 50%)" stroke-width="1.0" fill-opacity="0.0" stroke-opacity="0.6"><path d="M 102.19,-154.51 C 102.65,-143.2800 103.24,-128.61 103.7100,-116.95"/></g><g fill="rgb(0%, 0%, 0%)" stroke="rgb(30%, 88%, 50%)" stroke-width="1.0" fill-opacity="0.0" stroke-opacity="0.6"><path d="M 112.69,-158.11 C 123.2,-145.3100 138.91,-126.18 149.86,-112.83"/></g><g fill="rgb(0%, 0%, 0%)" stroke="rgb(30%, 88%, 50%)" stroke-width="1.0" fill-opacity="0.0" stroke-opacity="0.6"><path d="M 49.439,-114.6 C 50.887,-142.55 53.4980,-199.64 53.4980,-248.0400"/></g><g fill="rgb(0%, 0%, 0%)" stroke="rgb(30%, 88%, 50%)" stroke-width="1.0" fill-opacity="0.0" stroke-opacity="0.6"><path d="M 53.4980,-248.0400 C 53.4980,-326.33 53.4980,-326.33 53.4980,-326.33"/></g><g fill="rgb(0%, 0%, 0%)" stroke="rgb(30%, 88%, 50%)" stroke-width="1.0" fill-opacity="0.0" stroke-opacity="0.6"><path d="M 53.4980,-326.33 C 53.4980,-464.3 295.89,-474.85 365.82,-475.02"/></g><g fill="rgb(0%, 0%, 0%)" stroke="rgb(30%, 88%, 50%)" stroke-width="1.0" fill-opacity="0.0" stroke-opacity="0.6"><path d="M 42.206,-79.323 C 37.545,-67.3820 31.197,-51.119 26.397,-38.823"/></g><g fill="rgb(0%, 0%, 0%)" stroke="rgb(30%, 88%, 50%)" stroke-width="1.0" fill-opacity="0.0" stroke-opacity="0.6"><path d="M 54.791,-79.323 C 59.3860,-67.552 65.62,-51.579 70.394,-39.349"/></g><g fill="rgb(0%, 0%, 0%)" stroke="rgb(30%, 88%, 50%)" stroke-width="1.0" fill-opacity="0.0" stroke-opacity="0.6"><path d="M 276.85,-155.25 C 268.9500,-143.04 258.24,-126.45 250.31,-114.18"/></g><g fill="rgb(0%, 0%, 0%)" stroke="rgb(30%, 88%, 50%)" stroke-width="1.0" fill-opacity="0.0" stroke-opacity="0.6"><path d="M 298.1500,-155.25 C 306.04,-143.04 316.7600,-126.45 324.69,-114.18"/></g><g fill="rgb(0%, 0%, 0%)" stroke="rgb(30%, 88%, 50%)" stroke-width="1.0" fill-opacity="0.0" stroke-opacity="0.6"><path d="M 242.53,-116.49 C 247.2400,-145.99 256.21,-202.31 260.74,-230.72"/></g><g fill="rgb(0%, 0%, 0%)" stroke="rgb(30%, 88%, 50%)" stroke-width="1.0" fill-opacity="0.0" stroke-opacity="0.6"><path d="M 334.82,-116.79 C 333.4100,-136.85 329.16,-168.62 316.5,-192.89"/></g><g fill="rgb(0%, 0%, 0%)" stroke="rgb(30%, 88%, 50%)" stroke-width="1.0" fill-opacity="0.0" stroke-opacity="0.6"><path d="M 316.5,-192.89 C 307.1100,-210.88 290.05,-227.04 277.82,-237.15"/></g><g fill="rgb(2%, 73%, 80%)" stroke="rgb(2%, 29%, 48%)" stroke-width="0.0" fill-opacity="0.2" stroke-opacity="1.0"><circle cy="-475.78" cx="384.50000000000006" r="18.04"/></g><g fill="rgb(2%, 73%, 80%)" stroke="rgb(2%, 29%, 48%)" stroke-width="0.0" fill-opacity="0.2" stroke-opacity="1.0"><circle cy="-401.63" cx="357.50000000000006" r="18.04"/></g><g fill="rgb(2%, 73%, 80%)" stroke="rgb(2%, 29%, 48%)" stroke-width="0.0" fill-opacity="0.2" stroke-opacity="1.0"><circle cy="-325.33" cx="330.50000000000006" r="18.04"/></g><g fill="rgb(2%, 73%, 80%)" stroke="rgb(2%, 29%, 48%)" stroke-width="0.0" fill-opacity="0.2" stroke-opacity="1.0"><circle cy="-249.03999999999996" cx="263.50000000000006" r="18.04"/></g><g fill="rgb(2%, 73%, 80%)" stroke="rgb(2%, 29%, 48%)" stroke-width="0.0" fill-opacity="0.2" stroke-opacity="1.0"><circle cy="-172.74" cx="101.5" r="18.04"/></g><g fill="rgb(2%, 73%, 80%)" stroke="rgb(2%, 29%, 48%)" stroke-width="0.0" fill-opacity="0.2" stroke-opacity="1.0"><circle cy="-96.445" cx="48.498" r="18.04"/></g><g fill="rgb(2%, 73%, 80%)" stroke="rgb(2%, 29%, 48%)" stroke-width="0.0" fill-opacity="0.2" stroke-opacity="1.0"><circle cy="-401.63" cx="411.5" r="18.04"/></g><g fill="rgb(2%, 73%, 80%)" stroke="rgb(2%, 29%, 48%)" stroke-width="0.0" fill-opacity="0.2" stroke-opacity="1.0"><circle cy="-325.33" cx="384.50000000000006" r="18.04"/></g><g fill="rgb(2%, 73%, 80%)" stroke="rgb(2%, 29%, 48%)" stroke-width="0.0" fill-opacity="0.2" stroke-opacity="1.0"><circle cy="-249.03999999999996" cx="419.50000000000006" r="18.04"/></g><g fill="rgb(2%, 73%, 80%)" stroke="rgb(2%, 29%, 48%)" stroke-width="0.0" fill-opacity="0.2" stroke-opacity="1.0"><circle cy="-172.74" cx="193.50000000000003" r="18.04"/></g><g fill="rgb(2%, 73%, 80%)" stroke="rgb(2%, 29%, 48%)" stroke-width="0.0" fill-opacity="0.2" stroke-opacity="1.0"><circle cy="-96.445" cx="104.5" r="20.192893599999998"/></g><g fill="rgb(2%, 73%, 80%)" stroke="rgb(2%, 29%, 48%)" stroke-width="0.0" fill-opacity="0.2" stroke-opacity="1.0"><circle cy="-20.148" cx="19.498" r="19.5416496"/></g><g fill="rgb(2%, 73%, 80%)" stroke="rgb(2%, 29%, 48%)" stroke-width="0.0" fill-opacity="0.2" stroke-opacity="1.0"><circle cy="-401.63" cx="467.5" r="20.192893599999998"/></g><g fill="rgb(2%, 73%, 80%)" stroke="rgb(2%, 29%, 48%)" stroke-width="0.0" fill-opacity="0.2" stroke-opacity="1.0"><circle cy="-325.33" cx="440.5" r="20.192893599999998"/></g><g fill="rgb(2%, 73%, 80%)" stroke="rgb(2%, 29%, 48%)" stroke-width="0.0" fill-opacity="0.2" stroke-opacity="1.0"><circle cy="-249.03999999999996" cx="475.5" r="20.192893599999998"/></g><g fill="rgb(2%, 73%, 80%)" stroke="rgb(2%, 29%, 48%)" stroke-width="0.0" fill-opacity="0.2" stroke-opacity="1.0"><circle cy="-172.74" cx="287.5" r="20.192893599999998"/></g><g fill="rgb(2%, 73%, 80%)" stroke="rgb(2%, 29%, 48%)" stroke-width="0.0" fill-opacity="0.2" stroke-opacity="1.0"><circle cy="-96.445" cx="162.5" r="20.192893599999998"/></g><g fill="rgb(2%, 73%, 80%)" stroke="rgb(2%, 29%, 48%)" stroke-width="0.0" fill-opacity="0.2" stroke-opacity="1.0"><circle cy="-20.148" cx="77.498" r="20.192893599999998"/></g><g fill="rgb(2%, 73%, 80%)" stroke="rgb(2%, 29%, 48%)" stroke-width="0.0" fill-opacity="0.2" stroke-opacity="1.0"><circle cy="-96.445" cx="239.5" r="20.192893599999998"/></g><g fill="rgb(2%, 73%, 80%)" stroke="rgb(2%, 29%, 48%)" stroke-width="0.0" fill-opacity="0.2" stroke-opacity="1.0"><circle cy="-96.445" cx="335.50000000000006" r="20.192893599999998"/></g><g fill="rgb(5%, 5%, 5%)" stroke="none" stroke-width="0.0" font-size="12.0" fill-opacity="1.0" text-anchor="middle"><text x="384.50000000000006" y="-475.78">0</text><text x="357.50000000000006" y="-401.63">1</text><text x="330.50000000000006" y="-325.33">2</text><text x="263.50000000000006" y="-249.03999999999996">3</text><text x="101.5" y="-172.74">4</text><text x="48.498" y="-96.445">5</text><text x="411.5" y="-401.63">6</text><text x="384.50000000000006" y="-325.33">7</text><text x="419.50000000000006" y="-249.03999999999996">8</text><text x="193.50000000000003" y="-172.74">9</text><text x="104.5" y="-96.445">10</text><text x="19.498" y="-20.148">11</text><text x="467.5" y="-401.63">12</text><text x="440.5" y="-325.33">13</text><text x="475.5" y="-249.03999999999996">14</text><text x="287.5" y="-172.74">15</text><text x="162.5" y="-96.445">16</text><text x="77.498" y="-20.148">17</text><text x="239.5" y="-96.445">18</text><text x="335.50000000000006" y="-96.445">19</text></g></g></g><g class="hud"></g></svg>