<svg xmlns="http://www.w3.org/2000/svg" height="300.0" viewBox="-4.179199999999739e-2 -479.44 488.66430399999996 479.482512" width="305.74481348341646" xmlns:xlink="http://www.w3.org/1999/xlink"><g stroke-opacity="0.6" fill-opacity="0.0" stroke="#4ce080" stroke-width="1.0" fill="#000000"><path d="M 373.36,-444.48 C 369.07,-432.87 363.38,-417.51 359.05,-405.81"/></g><g stroke-opacity="0.6" fill-opacity="0.0" stroke="#4ce080" stroke-width="1.0" fill="#000000"><path d="M 385.89,-444.48 C 390.19,-432.87 395.87,-417.51 400.2,-405.81"/></g><g stroke-opacity="0.6" fill-opacity="0.0" stroke="#4ce080" stroke-width="1.0" fill="#000000"><path d="M 393.1700000000001,-449.36 C 407.9700000000001,-436.19 431.61000000000007,-415.15 446.88,-401.57"/></g><g stroke-opacity="0.6" fill-opacity="0.0" stroke="#4ce080" stroke-width="1.0" fill="#000000"><path d="M 346.36,-371.31 C 342.04,-359.47 336.3,-343.77 331.96,-331.88"/></g><g stroke-opacity="0.6" fill-opacity="0.0" stroke="#4ce080" stroke-width="1.0" fill="#000000"><path d="M 358.89000000000004,-371.31 C 363.22,-359.47 368.95,-343.77 373.3,-331.88"/></g><g stroke-opacity="0.6" fill-opacity="0.0" stroke="#4ce080" stroke-width="1.0" fill="#000000"><path d="M 366.17,-376.25 C 381.06,-362.83 404.9,-341.34 420.16,-327.59"/></g><g stroke-opacity="0.6" fill-opacity="0.0" stroke="#4ce080" stroke-width="1.0" fill="#000000"><path d="M 313.52,-301.0 C 301.71,-287.7699999999999 283.82,-267.73999999999995 271.93,-254.42999999999998"/></g><g stroke-opacity="0.6" fill-opacity="0.0" stroke="#4ce080" stroke-width="1.0" fill="#000000"><path d="M 339.53,-303.01 C 356.03,-289.31 383.38,-266.59 400.13,-252.69"/></g><g stroke-opacity="0.6" fill-opacity="0.0" stroke="#4ce080" stroke-width="1.0" fill="#000000"><path d="M 340.09,-303.5 C 344.04,-300.73 348.4,-297.9 352.63,-295.6"/></g><g stroke-opacity="0.6" fill-opacity="0.0" stroke="#4ce080" stroke-width="1.0" fill="#000000"><path d="M 352.63,-295.6 C 390.11000000000007,-275.21000000000004 403.9700000000001,-279.6700000000001 441.6300000000001,-259.60000000000014"/></g><g stroke-opacity="0.6" fill-opacity="0.0" stroke="#4ce080" stroke-width="1.0" fill="#000000"><path d="M 441.6300000000001,-259.60000000000014 C 445.7400000000001,-257.4100000000001 450.0000000000001,-254.75000000000006 453.9100000000001,-252.13000000000002"/></g><g stroke-opacity="0.6" fill-opacity="0.0" stroke="#4ce080" stroke-width="1.0" fill="#000000"><path d="M 308.74,-308.02 C 272.78,-292.98 189.79000000000002,-252.06 163.63000000000005,-185.7"/></g><g stroke-opacity="0.6" fill-opacity="0.0" stroke="#4ce080" stroke-width="1.0" fill="#000000"><path d="M 163.63000000000005,-185.7 C 157.45000000000005,-170.03 156.11000000000007,-162.87 163.63000000000005,-147.8"/></g><g stroke-opacity="0.6" fill-opacity="0.0" stroke="#4ce080" stroke-width="1.0" fill="#000000"><path d="M 163.63000000000005,-147.8 C 175.01000000000005,-124.99 200.88000000000005,-109.16 218.55000000000007,-100.54"/></g><g stroke-opacity="0.6" fill-opacity="0.0" stroke="#4ce080" stroke-width="1.0" fill="#000000"><path d="M 326.75000000000006,-296.21 C 328.2200000000001,-271.23 330.71000000000004,-225.1 331.63,-185.7"/></g><g stroke-opacity="0.6" fill-opacity="0.0" stroke="#4ce080" stroke-width="1.0" fill="#000000"><path d="M 331.63,-185.7 C 332.02,-168.86 331.78,-164.65 331.63,-147.8"/></g><g stroke-opacity="0.6" fill-opacity="0.0" stroke="#4ce080" stroke-width="1.0" fill="#000000"><path d="M 331.63,-147.8 C 331.52,-135.97 331.28,-122.7 331.06000000000006,-112.17"/></g><g stroke-opacity="0.6" fill-opacity="0.0" stroke="#4ce080" stroke-width="1.0" fill="#000000"><path d="M 243.0,-233.02000000000004 C 212.27000000000004,-218.92000000000002 146.88000000000002,-188.90000000000003 115.77000000000002,-174.62"/></g><g stroke-opacity="0.6" fill-opacity="0.0" stroke="#4ce080" stroke-width="1.0" fill="#000000"><path d="M 247.29000000000002,-227.44 C 234.98000000000002,-214.26 216.15000000000003,-194.09 203.62,-180.66"/></g><g stroke-opacity="0.6" fill-opacity="0.0" stroke="#4ce080" stroke-width="1.0" fill="#000000"><path d="M 265.19,-223.51 C 268.93,-212.0 273.85,-196.86 277.67,-185.11"/></g><g stroke-opacity="0.6" fill-opacity="0.0" stroke="#4ce080" stroke-width="1.0" fill="#000000"><path d="M 88.103,-151.8 C 79.15200000000002,-139.08 66.35300000000001,-120.89 57.346000000000004,-108.08"/></g><g stroke-opacity="0.6" fill-opacity="0.0" stroke="#4ce080" stroke-width="1.0" fill="#000000"><path d="M 99.368,-148.48 C 99.816,-137.46 100.39,-123.42 100.84,-112.2"/></g><g stroke-opacity="0.6" fill-opacity="0.0" stroke="#4ce080" stroke-width="1.0" fill="#000000"><path d="M 110.0,-152.5 C 120.17,-139.77 135.02,-121.16 145.43,-108.12"/></g><g stroke-opacity="0.6" fill-opacity="0.0" stroke="#4ce080" stroke-width="1.0" fill="#000000"><path d="M 47.43600000000001,-111.05 C 48.60500000000001,-138.94000000000003 50.626000000000005,-193.93000000000004 50.626,-240.65000000000003"/></g><g stroke-opacity="0.6" fill-opacity="0.0" stroke="#4ce080" stroke-width="1.0" fill="#000000"><path d="M 50.626,-240.65000000000003 C 50.626,-314.55 50.626,-314.55 50.626,-314.55"/></g><g stroke-opacity="0.6" fill-opacity="0.0" stroke="#4ce080" stroke-width="1.0" fill="#000000"><path d="M 50.626,-314.55 C 50.62600000000003,-383.22 292.65,-442.13 361.54,-457.5"/></g><g stroke-opacity="0.6" fill-opacity="0.0" stroke="#4ce080" stroke-width="1.0" fill="#000000"><path d="M 40.132,-75.71099999999998 C 35.708,-64.03499999999998 29.865000000000002,-48.611 25.385,-36.789"/></g><g stroke-opacity="0.6" fill-opacity="0.0" stroke="#4ce080" stroke-width="1.0" fill="#000000"><path d="M 53.12100000000001,-75.71099999999998 C 57.513000000000005,-64.11899999999999 63.30400000000001,-48.833999999999996 67.77,-37.047"/></g><g stroke-opacity="0.6" fill-opacity="0.0" stroke="#4ce080" stroke-width="1.0" fill="#000000"><path d="M 273.43,-150.72 C 265.61,-138.42 254.85,-121.51 246.99000000000004,-109.15"/></g><g stroke-opacity="0.6" fill-opacity="0.0" stroke="#4ce080" stroke-width="1.0" fill="#000000"><path d="M 293.82,-150.72 C 301.65,-138.42 312.4,-121.51 320.26,-109.15"/></g><g stroke-opacity="0.6" fill-opacity="0.0" stroke="#4ce080" stroke-width="1.0" fill="#000000"><path d="M 239.56,-111.67000000000002 C 244.01,-140.27 252.41,-194.3 256.8,-222.49"/></g><g stroke-opacity="0.6" fill-opacity="0.0" stroke="#4ce080" stroke-width="1.0" fill="#000000"><path d="M 329.77,-112.01 C 328.22,-131.54 323.86,-162.2 311.63,-185.7"/></g><g stroke-opacity="0.6" fill-opacity="0.0" stroke="#4ce080" stroke-width="1.0" fill="#000000"><path d="M 311.63,-185.7 C 302.48,-203.27 286.07,-219.21 274.12,-229.34"/></g><g stroke-opacity="0.8" fill-opacity="0.3" stroke="#1f78b4" stroke-width="0.0" fill="#a6cee3"><circle cy="-461.4" r="18.04" cx="379.63"/></g><g stroke-opacity="0.8" fill-opacity="0.3" stroke="#1f78b4" stroke-width="0.0" fill="#a6cee3"><circle cy="-388.45" r="18.04" cx="352.63"/></g><g stroke-opacity="0.8" fill-opacity="0.3" stroke="#1f78b4" stroke-width="0.0" fill="#a6cee3"><circle cy="-314.55" r="18.04" cx="325.63"/></g><g stroke-opacity="0.8" fill-opacity="0.3" stroke="#1f78b4" stroke-width="0.0" fill="#a6cee3"><circle cy="-240.65000000000003" r="18.04" cx="259.63"/></g><g stroke-opacity="0.8" fill-opacity="0.3" stroke="#1f78b4" stroke-width="0.0" fill="#a6cee3"><circle cy="-166.75" r="18.04" cx="98.626"/></g><g stroke-opacity="0.8" fill-opacity="0.3" stroke="#1f78b4" stroke-width="0.0" fill="#a6cee3"><circle cy="-92.851" r="18.04" cx="46.626000000000005"/></g><g stroke-opacity="0.8" fill-opacity="0.3" stroke="#1f78b4" stroke-width="0.0" fill="#a6cee3"><circle cy="-388.45" r="18.04" cx="406.63000000000005"/></g><g stroke-opacity="0.8" fill-opacity="0.3" stroke="#1f78b4" stroke-width="0.0" fill="#a6cee3"><circle cy="-314.55" r="18.04" cx="379.63"/></g><g stroke-opacity="0.8" fill-opacity="0.3" stroke="#1f78b4" stroke-width="0.0" fill="#a6cee3"><circle cy="-240.65000000000003" r="18.04" cx="414.63"/></g><g stroke-opacity="0.8" fill-opacity="0.3" stroke="#1f78b4" stroke-width="0.0" fill="#a6cee3"><circle cy="-166.75" r="18.04" cx="190.63"/></g><g stroke-opacity="0.8" fill-opacity="0.3" stroke="#1f78b4" stroke-width="0.0" fill="#a6cee3"><circle cy="-92.851" r="18.992511999999998" cx="101.63000000000002"/></g><g stroke-opacity="0.8" fill-opacity="0.3" stroke="#1f78b4" stroke-width="0.0" fill="#a6cee3"><circle cy="-18.95" r="18.667792" cx="18.626"/></g><g stroke-opacity="0.8" fill-opacity="0.3" stroke="#1f78b4" stroke-width="0.0" fill="#a6cee3"><circle cy="-388.45" r="18.992511999999998" cx="461.63"/></g><g stroke-opacity="0.8" fill-opacity="0.3" stroke="#1f78b4" stroke-width="0.0" fill="#a6cee3"><circle cy="-314.55" r="18.992511999999998" cx="434.6300000000001"/></g><g stroke-opacity="0.8" fill-opacity="0.3" stroke="#1f78b4" stroke-width="0.0" fill="#a6cee3"><circle cy="-240.65000000000003" r="18.992511999999998" cx="469.63"/></g><g stroke-opacity="0.8" fill-opacity="0.3" stroke="#1f78b4" stroke-width="0.0" fill="#a6cee3"><circle cy="-166.75" r="18.992511999999998" cx="283.63"/></g><g stroke-opacity="0.8" fill-opacity="0.3" stroke="#1f78b4" stroke-width="0.0" fill="#a6cee3"><circle cy="-92.851" r="18.992511999999998" cx="157.63"/></g><g stroke-opacity="0.8" fill-opacity="0.3" stroke="#1f78b4" stroke-width="0.0" fill="#a6cee3"><circle cy="-18.95" r="18.992511999999998" cx="74.626"/></g><g stroke-opacity="0.8" fill-opacity="0.3" stroke="#1f78b4" stroke-width="0.0" fill="#a6cee3"><circle cy="-92.851" r="18.992511999999998" cx="236.63"/></g><g stroke-opacity="0.8" fill-opacity="0.3" stroke="#1f78b4" stroke-width="0.0" fill="#a6cee3"><circle cy="-92.851" r="18.992511999999998" cx="330.63"/></g><g fill-opacity="1.0" font-size="12.0" stroke="none" stroke-width="0.0" fill="#333333" text-anchor="middle"><text x="379.63" y="-461.4">0</text><text x="352.63" y="-388.45">1</text><text x="325.63" y="-314.55">2</text><text x="259.63" y="-240.65000000000003">3</text><text x="98.626" y="-166.75">4</text><text x="46.626000000000005" y="-92.851">5</text><text x="406.63000000000005" y="-388.45">6</text><text x="379.63" y="-314.55">7</text><text x="414.63" y="-240.65000000000003">8</text><text x="190.63" y="-166.75">9</text><text x="101.63000000000002" y="-92.851">10</text><text x="18.626" y="-18.95">11</text><text x="461.63" y="-388.45">12</text><text x="434.6300000000001" y="-314.55">13</text><text x="469.63" y="-240.65000000000003">14</text><text x="283.63" y="-166.75">15</text><text x="157.63" y="-92.851">16</text><text x="74.626" y="-18.95">17</text><text x="236.63" y="-92.851">18</text><text x="330.63" y="-92.851">19</text></g></svg>