<svg xmlns="http://www.w3.org/2000/svg" width="501.88994046533776" xmlns:xlink="http://www.w3.org/1999/xlink" viewBox="-0.25031999999999854 -494.03 496.14844 494.28011999999995" height="500.0"><style>svg {
  color-scheme: light dark;
}
{
  .canvas g, .title g, .axisbar g, .ticktext g, .tickglyph g, .ticklines g, .legendContent g text {
    fill: #0d0d0d;
  }
  .ticklines g, .tickglyph g, .legendBorder g {
    stroke: #0d0d0d;
  }
  .legendBorder g {
    fill: #f0f0f0;
  }
}
@media (prefers-color-scheme:dark) {
  .canvas g, .title g, .axisbar g, .ticktext g, .tickglyph g, .ticklines g, .legendContent g text {
    fill: #f0f0f0;
  }
  .ticklines g, .tickglyph g, .legendBorder g {
    stroke: #f0f0f0;
  }
  .legendBorder g {
    fill: #0d0d0d;
  }
}</style><g class="chart"><g><g fill="rgb(0%, 0%, 0%)" stroke="rgb(0%, 0%, 0%)" stroke-width="0.5" fill-opacity="0.0" stroke-opacity="1.0"><path d="M 378.51,-458.7700 C 374.1,-446.9900 368.12,-431.0200 363.67,-419.13 L 363.57,-418.85"/></g><g fill="rgb(0%, 0%, 0%)" stroke="rgb(0%, 0%, 0%)" stroke-width="0.5" fill-opacity="0.0" stroke-opacity="1.0"><path d="M 390.4900,-458.7700 C 394.9000,-446.9900 400.87,-431.0200 405.3200,-419.13 L 405.43,-418.85"/></g><g fill="rgb(0%, 0%, 0%)" stroke="rgb(0%, 0%, 0%)" stroke-width="0.5" fill-opacity="0.0" stroke-opacity="1.0"><path d="M 397.83,-463.1900 C 412.75,-450.22 436.8500,-429.2700 452.4300,-415.73 L 452.8000,-415.41"/></g><g fill="rgb(0%, 0%, 0%)" stroke="rgb(0%, 0%, 0%)" stroke-width="0.5" fill-opacity="0.0" stroke-opacity="1.0"><path d="M 351.64,-384.51 C 347.1500,-372.14 340.97,-355.1500 336.4500,-342.72 L 336.3500,-342.42"/></g><g fill="rgb(0%, 0%, 0%)" stroke="rgb(0%, 0%, 0%)" stroke-width="0.5" fill-opacity="0.0" stroke-opacity="1.0"><path d="M 363.3600,-384.51 C 367.8500,-372.14 374.03,-355.1500 378.54,-342.72 L 378.6500,-342.42"/></g><g fill="rgb(0%, 0%, 0%)" stroke="rgb(0%, 0%, 0%)" stroke-width="0.5" fill-opacity="0.0" stroke-opacity="1.0"><path d="M 370.47,-389.02 C 385.4,-375.6600 409.87,-353.75 425.58,-339.69 L 425.95,-339.36"/></g><g fill="rgb(0%, 0%, 0%)" stroke="rgb(0%, 0%, 0%)" stroke-width="0.5" fill-opacity="0.0" stroke-opacity="1.0"><path d="M 318.83,-311.3900 C 306.7,-297.94 287.81,-277.0000 275.55,-263.4 L 275.26,-263.0800"/></g><g fill="rgb(0%, 0%, 0%)" stroke="rgb(0%, 0%, 0%)" stroke-width="0.5" fill-opacity="0.0" stroke-opacity="1.0"><path d="M 344.02,-313.05 C 360.71,-299.11 388.95,-275.54 405.75,-261.51 L 406.15,-261.1800"/></g><g fill="rgb(0%, 0%, 0%)" stroke="rgb(0%, 0%, 0%)" stroke-width="0.5" fill-opacity="0.0" stroke-opacity="1.0"><path d="M 344.39,-313.5500 C 348.48,-310.6300 353.06,-307.61 357.5000,-305.19 C 394.9300,-284.7100 408.7300,-289.0400 446.5000,-269.19 C 450.6400,-267.01 454.9300,-264.4 458.9000,-261.81 L 459.28,-261.5600"/></g><g fill="rgb(0%, 0%, 0%)" stroke="rgb(0%, 0%, 0%)" stroke-width="0.5" fill-opacity="0.0" stroke-opacity="1.0"><path d="M 313.92,-317.87 C 277.75,-302.66 192.9,-260.73 166.5,-192.8900 C 160.0000,-176.2000 158.52,-168.63 166.5,-152.59 C 177.74,-130.02 203.1100,-114.2400 220.7600,-105.5 L 221.1800,-105.3000"/></g><g fill="rgb(0%, 0%, 0%)" stroke="rgb(0%, 0%, 0%)" stroke-width="0.5" fill-opacity="0.0" stroke-opacity="1.0"><path d="M 331.52,-307.33 C 332.98,-282.28 335.56,-234.0 336.5,-192.8900 C 336.91,-174.98 336.6600,-170.5000 336.5,-152.59 C 336.3900,-140.81 336.16,-127.62 335.9400,-117.09 L 335.9400,-116.84"/></g><g fill="rgb(0%, 0%, 0%)" stroke="rgb(0%, 0%, 0%)" stroke-width="0.5" fill-opacity="0.0" stroke-opacity="1.0"><path d="M 247.37,-240.6400 C 216.44,-226.46 149.09,-195.57 117.92,-181.2700 L 117.5600,-181.11"/></g><g fill="rgb(0%, 0%, 0%)" stroke="rgb(0%, 0%, 0%)" stroke-width="0.5" fill-opacity="0.0" stroke-opacity="1.0"><path d="M 251.6200,-235.43 C 238.9300,-221.96 218.89,-200.69 205.9700,-186.98 L 205.6700,-186.66"/></g><g fill="rgb(0%, 0%, 0%)" stroke="rgb(0%, 0%, 0%)" stroke-width="0.5" fill-opacity="0.0" stroke-opacity="1.0"><path d="M 268.8200,-231.5500 C 272.58,-219.9300 277.61,-204.35 281.51,-192.2900 L 281.6000,-192.01"/></g><g fill="rgb(0%, 0%, 0%)" stroke="rgb(0%, 0%, 0%)" stroke-width="0.5" fill-opacity="0.0" stroke-opacity="1.0"><path d="M 91.279,-157.42 C 81.908,-144.28 68.101,-124.9200 58.7270,-111.78 L 58.506,-111.47"/></g><g fill="rgb(0%, 0%, 0%)" stroke="rgb(0%, 0%, 0%)" stroke-width="0.5" fill-opacity="0.0" stroke-opacity="1.0"><path d="M 102.19,-154.5100 C 102.65,-143.28 103.24,-128.61 103.7100,-116.9500 L 103.7200,-116.6700"/></g><g fill="rgb(0%, 0%, 0%)" stroke="rgb(0%, 0%, 0%)" stroke-width="0.5" fill-opacity="0.0" stroke-opacity="1.0"><path d="M 112.69,-158.1100 C 123.2,-145.3100 138.91,-126.18 149.86,-112.8300 L 150.12,-112.5200"/></g><g fill="rgb(0%, 0%, 0%)" stroke="rgb(0%, 0%, 0%)" stroke-width="0.5" fill-opacity="0.0" stroke-opacity="1.0"><path d="M 49.439,-114.6 C 50.887,-142.55 53.4980,-199.6400 53.4980,-248.0400 C 53.4980,-326.33 53.4980,-326.33 53.4980,-326.33 C 53.4980,-464.3000 295.89,-474.8500 365.82,-475.0200 L 366.2300,-475.0200"/></g><g fill="rgb(0%, 0%, 0%)" stroke="rgb(0%, 0%, 0%)" stroke-width="0.5" fill-opacity="0.0" stroke-opacity="1.0"><path d="M 42.206,-79.3230 C 37.545,-67.382 31.197,-51.119 26.397,-38.8230 L 26.284,-38.5340"/></g><g fill="rgb(0%, 0%, 0%)" stroke="rgb(0%, 0%, 0%)" stroke-width="0.5" fill-opacity="0.0" stroke-opacity="1.0"><path d="M 54.791,-79.3230 C 59.3860,-67.5520 65.62,-51.579 70.394,-39.3490 L 70.506,-39.061"/></g><g fill="rgb(0%, 0%, 0%)" stroke="rgb(0%, 0%, 0%)" stroke-width="0.5" fill-opacity="0.0" stroke-opacity="1.0"><path d="M 276.85,-155.25 C 268.9500,-143.04 258.24,-126.4500 250.31,-114.18 L 250.12,-113.8900"/></g><g fill="rgb(0%, 0%, 0%)" stroke="rgb(0%, 0%, 0%)" stroke-width="0.5" fill-opacity="0.0" stroke-opacity="1.0"><path d="M 298.1500,-155.25 C 306.04,-143.04 316.7600,-126.4500 324.69,-114.18 L 324.8800,-113.8900"/></g><g fill="rgb(0%, 0%, 0%)" stroke="rgb(0%, 0%, 0%)" stroke-width="0.5" fill-opacity="0.0" stroke-opacity="1.0"><path d="M 242.53,-116.4900 C 247.2400,-145.99 256.21,-202.31 260.74,-230.7200 L 260.7900,-231.06"/></g><g fill="rgb(0%, 0%, 0%)" stroke="rgb(0%, 0%, 0%)" stroke-width="0.5" fill-opacity="0.0" stroke-opacity="1.0"><path d="M 334.82,-116.7900 C 333.4100,-136.85 329.16,-168.62 316.5,-192.8900 C 307.1100,-210.8800 290.05,-227.04 277.82,-237.1500 L 277.53,-237.38"/></g><g fill="rgb(0%, 0%, 0%)" stroke="rgb(0%, 0%, 0%)" stroke-width="0.5" fill-opacity="0.0" stroke-opacity="1.0"><circle cy="-475.78" cx="384.50000000000006" r="18.0"/></g><g fill="rgb(0%, 0%, 0%)" stroke="rgb(0%, 0%, 0%)" stroke-width="0.5" fill-opacity="0.0" stroke-opacity="1.0"><circle cy="-401.63000000000005" cx="357.50000000000006" r="18.0"/></g><g fill="rgb(0%, 0%, 0%)" stroke="rgb(0%, 0%, 0%)" stroke-width="0.5" fill-opacity="0.0" stroke-opacity="1.0"><circle cy="-325.33000000000004" cx="330.50000000000006" r="18.0"/></g><g fill="rgb(0%, 0%, 0%)" stroke="rgb(0%, 0%, 0%)" stroke-width="0.5" fill-opacity="0.0" stroke-opacity="1.0"><circle cy="-249.04000000000002" cx="263.50000000000006" r="18.0"/></g><g fill="rgb(0%, 0%, 0%)" stroke="rgb(0%, 0%, 0%)" stroke-width="0.5" fill-opacity="0.0" stroke-opacity="1.0"><circle cy="-172.74" cx="101.5" r="18.0"/></g><g fill="rgb(0%, 0%, 0%)" stroke="rgb(0%, 0%, 0%)" stroke-width="0.5" fill-opacity="0.0" stroke-opacity="1.0"><circle cy="-96.445" cx="48.498" r="18.0"/></g><g fill="rgb(0%, 0%, 0%)" stroke="rgb(0%, 0%, 0%)" stroke-width="0.5" fill-opacity="0.0" stroke-opacity="1.0"><circle cy="-401.63000000000005" cx="411.5" r="18.0"/></g><g fill="rgb(0%, 0%, 0%)" stroke="rgb(0%, 0%, 0%)" stroke-width="0.5" fill-opacity="0.0" stroke-opacity="1.0"><circle cy="-325.33000000000004" cx="384.50000000000006" r="18.0"/></g><g fill="rgb(0%, 0%, 0%)" stroke="rgb(0%, 0%, 0%)" stroke-width="0.5" fill-opacity="0.0" stroke-opacity="1.0"><circle cy="-249.04000000000002" cx="419.50000000000006" r="18.0"/></g><g fill="rgb(0%, 0%, 0%)" stroke="rgb(0%, 0%, 0%)" stroke-width="0.5" fill-opacity="0.0" stroke-opacity="1.0"><circle cy="-172.74" cx="193.50000000000003" r="18.0"/></g><g fill="rgb(0%, 0%, 0%)" stroke="rgb(0%, 0%, 0%)" stroke-width="0.5" fill-opacity="0.0" stroke-opacity="1.0"><circle cy="-96.445" cx="104.5" r="20.14812"/></g><g fill="rgb(0%, 0%, 0%)" stroke="rgb(0%, 0%, 0%)" stroke-width="0.5" fill-opacity="0.0" stroke-opacity="1.0"><circle cy="-20.148" cx="19.498" r="19.49832"/></g><g fill="rgb(0%, 0%, 0%)" stroke="rgb(0%, 0%, 0%)" stroke-width="0.5" fill-opacity="0.0" stroke-opacity="1.0"><circle cy="-401.63000000000005" cx="467.5" r="20.14812"/></g><g fill="rgb(0%, 0%, 0%)" stroke="rgb(0%, 0%, 0%)" stroke-width="0.5" fill-opacity="0.0" stroke-opacity="1.0"><circle cy="-325.33000000000004" cx="440.5" r="20.14812"/></g><g fill="rgb(0%, 0%, 0%)" stroke="rgb(0%, 0%, 0%)" stroke-width="0.5" fill-opacity="0.0" stroke-opacity="1.0"><circle cy="-249.04000000000002" cx="475.5" r="20.14812"/></g><g fill="rgb(0%, 0%, 0%)" stroke="rgb(0%, 0%, 0%)" stroke-width="0.5" fill-opacity="0.0" stroke-opacity="1.0"><circle cy="-172.74" cx="287.5" r="20.14812"/></g><g fill="rgb(0%, 0%, 0%)" stroke="rgb(0%, 0%, 0%)" stroke-width="0.5" fill-opacity="0.0" stroke-opacity="1.0"><circle cy="-96.445" cx="162.5" r="20.14812"/></g><g fill="rgb(0%, 0%, 0%)" stroke="rgb(0%, 0%, 0%)" stroke-width="0.5" fill-opacity="0.0" stroke-opacity="1.0"><circle cy="-20.148" cx="77.498" r="20.14812"/></g><g fill="rgb(0%, 0%, 0%)" stroke="rgb(0%, 0%, 0%)" stroke-width="0.5" fill-opacity="0.0" stroke-opacity="1.0"><circle cy="-96.445" cx="239.5" r="20.14812"/></g><g fill="rgb(0%, 0%, 0%)" stroke="rgb(0%, 0%, 0%)" stroke-width="0.5" fill-opacity="0.0" stroke-opacity="1.0"><circle cy="-96.445" cx="335.50000000000006" r="20.14812"/></g><g fill="rgb(5%, 5%, 5%)" stroke="none" stroke-width="0.0" font-size="14.0" fill-opacity="1.0" text-anchor="middle"><text x="384.50000000000006" y="-472.08000000000004">0</text><text x="357.50000000000006" y="-397.93000000000006">1</text><text x="330.50000000000006" y="-321.63000000000005">2</text><text x="263.50000000000006" y="-245.34">3</text><text x="101.5" y="-169.04000000000002">4</text><text x="48.498" y="-92.745">5</text><text x="411.5" y="-397.93000000000006">6</text><text x="384.50000000000006" y="-321.63000000000005">7</text><text x="419.50000000000006" y="-245.34">8</text><text x="193.50000000000003" y="-169.04000000000002">9</text><text x="104.5" y="-92.745">10</text><text x="19.498" y="-16.448">11</text><text x="467.5" y="-397.93000000000006">12</text><text x="440.5" y="-321.63000000000005">13</text><text x="475.5" y="-245.34">14</text><text x="287.5" y="-169.04000000000002">15</text><text x="162.5" y="-92.745">16</text><text x="77.498" y="-16.448">17</text><text x="239.5" y="-92.745">18</text><text x="335.50000000000006" y="-92.745">19</text></g></g></g><g class="hud"></g></svg>