<svg height="300.0" width="757.5057446694823" xmlns:xlink="http://www.w3.org/1999/xlink" xmlns="http://www.w3.org/2000/svg" viewBox="-1.3193225052993485 -0.5225 2.6386450105986965 1.045"><g fill-opacity="0.0" stroke-opacity="1.0" fill="#000000" stroke-width="5.0e-3" stroke="#a6cfe3"><path d="M -0.4052,-0.4132 C -0.3741,-0.3728 -0.3280,-0.3131 -0.2968,-0.2726"/></g><g fill-opacity="0.0" stroke-opacity="1.0" fill="#000000" stroke-width="5.0e-3" stroke="#a6cfe3"><path d="M -0.4725,-0.4132 C -0.5030,-0.3728 -0.5480,-0.3131 -0.5785,-0.2726"/></g><g fill-opacity="0.0" stroke-opacity="1.0" fill="#000000" stroke-width="5.0e-3" stroke="#a6cfe3"><path d="M -0.2516,-0.1846 C -0.2412,-0.1441 -0.2259,-0.0844 -0.2154,-0.0440"/></g><g fill-opacity="0.0" stroke-opacity="1.0" fill="#000000" stroke-width="5.0e-3" stroke="#a6cfe3"><path d="M -1.1341,-0.4137 C -1.1893,-0.3828 -1.2540,-0.3355 -1.2856,-0.2720"/></g><g fill-opacity="0.0" stroke-opacity="1.0" fill="#000000" stroke-width="5.0e-3" stroke="#a6cfe3"><path d="M -1.2856,-0.2720 C -1.3267,-0.1896 -1.2458,-0.0967 -1.1869,-0.0436"/></g><g fill-opacity="0.0" stroke-opacity="1.0" fill="#000000" stroke-width="5.0e-3" stroke="#a6cfe3"><path d="M -0.9574,-0.4138 C -0.8814,-0.3731 -0.7686,-0.3127 -0.6927,-0.2720"/></g><g fill-opacity="0.0" stroke-opacity="1.0" fill="#000000" stroke-width="5.0e-3" stroke="#a6cfe3"><path d="M -1.0388,-0.4132 C -1.0388,-0.3728 -1.0388,-0.3131 -1.0388,-0.2726"/></g><g fill-opacity="0.0" stroke-opacity="1.0" fill="#000000" stroke-width="5.0e-3" stroke="#a6cfe3"><path d="M -1.0217,0.0276 C -0.8357,0.0738 -0.4649,0.1659 -0.2975,0.2074"/></g><g fill-opacity="0.0" stroke-opacity="1.0" fill="#000000" stroke-width="5.0e-3" stroke="#a6cfe3"><path d="M -0.5331,-0.1846 C -0.4605,-0.1438 -0.3532,-0.0836 -0.2811,-0.0432"/></g><g fill-opacity="0.0" stroke-opacity="1.0" fill="#000000" stroke-width="5.0e-3" stroke="#a6cfe3"><path d="M -0.6275,-0.1846 C -0.6421,-0.1441 -0.6636,-0.0844 -0.6781,-0.0440"/></g><g fill-opacity="0.0" stroke-opacity="1.0" fill="#000000" stroke-width="5.0e-3" stroke="#a6cfe3"><path d="M -0.2057,0.0441 C -0.2071,0.0846 -0.2091,0.1443 -0.2105,0.1847"/></g><g fill-opacity="0.0" stroke-opacity="1.0" fill="#000000" stroke-width="5.0e-3" stroke="#a6cfe3"><path d="M -0.1268,0.0021 C 0.1627,0.0109 1.1712,0.0488 1.2652,0.1538"/></g><g fill-opacity="0.0" stroke-opacity="1.0" fill="#000000" stroke-width="5.0e-3" stroke="#a6cfe3"><path d="M 1.2652,0.1538 C 1.3095,0.2032 1.3051,0.2504 1.2652,0.3036"/></g><g fill-opacity="0.0" stroke-opacity="1.0" fill="#000000" stroke-width="5.0e-3" stroke="#a6cfe3"><path d="M 1.2652,0.3036 C 1.2189,0.3652 1.0242,0.4095 0.8826,0.4342"/></g><g fill-opacity="0.0" stroke-opacity="1.0" fill="#000000" stroke-width="5.0e-3" stroke="#a6cfe3"><path d="M -0.1277,0.0066 C 0.0979,0.0266 0.7576,0.0891 0.9635,0.1538"/></g><g fill-opacity="0.0" stroke-opacity="1.0" fill="#000000" stroke-width="5.0e-3" stroke="#a6cfe3"><path d="M 0.9635,0.1538 C 0.9878,0.1614 1.0130,0.1729 1.0353,0.1846"/></g><g fill-opacity="0.0" stroke-opacity="1.0" fill="#000000" stroke-width="5.0e-3" stroke="#a6cfe3"><path d="M -0.1276,0.0037 C 0.0317,0.0135 0.4089,0.0469 0.7049,0.1538"/></g><g fill-opacity="0.0" stroke-opacity="1.0" fill="#000000" stroke-width="5.0e-3" stroke="#a6cfe3"><path d="M 0.7049,0.1538 C 0.7268,0.1617 0.7493,0.1733 0.7693,0.1850"/></g><g fill-opacity="0.0" stroke-opacity="1.0" fill="#000000" stroke-width="5.0e-3" stroke="#a6cfe3"><path d="M -0.1268,0.0082 C 0.0027,0.0240 0.2693,0.0651 0.4776,0.1538"/></g><g fill-opacity="0.0" stroke-opacity="1.0" fill="#000000" stroke-width="5.0e-3" stroke="#a6cfe3"><path d="M 0.4776,0.1538 C 0.4968,0.1619 0.5162,0.1733 0.5334,0.1847"/></g><g fill-opacity="0.0" stroke-opacity="1.0" fill="#000000" stroke-width="5.0e-3" stroke="#a6cfe3"><path d="M -0.1270,0.0212 C -0.0370,0.0472 0.1151,0.0951 0.2386,0.1538"/></g><g fill-opacity="0.0" stroke-opacity="1.0" fill="#000000" stroke-width="5.0e-3" stroke="#a6cfe3"><path d="M 0.2386,0.1538 C 0.2574,0.1627 0.2769,0.1738 0.2947,0.1847"/></g><g fill-opacity="0.0" stroke-opacity="1.0" fill="#000000" stroke-width="5.0e-3" stroke="#a6cfe3"><path d="M -0.1482,0.0441 C -0.0969,0.0846 -0.0212,0.1443 0.0301,0.1847"/></g><g fill-opacity="0.0" stroke-opacity="1.0" fill="#000000" stroke-width="5.0e-3" stroke="#a6cfe3"><path d="M -0.1432,0.2721 C -0.1230,0.2835 -0.1005,0.2950 -0.0788,0.3036"/></g><g fill-opacity="0.0" stroke-opacity="1.0" fill="#000000" stroke-width="5.0e-3" stroke="#a6cfe3"><path d="M -0.0788,0.3036 C 0.0597,0.3581 0.1068,0.3311 0.2465,0.3824"/></g><g fill-opacity="0.0" stroke-opacity="1.0" fill="#000000" stroke-width="5.0e-3" stroke="#a6cfe3"><path d="M 0.2465,0.3824 C 0.2698,0.3910 0.2943,0.4023 0.3165,0.4134"/></g><g fill-opacity="0.0" stroke-opacity="1.0" fill="#000000" stroke-width="5.0e-3" stroke="#a6cfe3"><path d="M -0.1465,0.2721 C -0.1256,0.2841 -0.1019,0.2959 -0.0788,0.3036"/></g><g fill-opacity="0.0" stroke-opacity="1.0" fill="#000000" stroke-width="5.0e-3" stroke="#a6cfe3"><path d="M -0.0788,0.3036 C 0.1847,0.3908 0.2717,0.3130 0.5403,0.3824"/></g><g fill-opacity="0.0" stroke-opacity="1.0" fill="#000000" stroke-width="5.0e-3" stroke="#a6cfe3"><path d="M 0.5403,0.3824 C 0.5709,0.3903 0.6033,0.4019 0.6323,0.4137"/></g><g fill-opacity="0.0" stroke-opacity="1.0" fill="#000000" stroke-width="5.0e-3" stroke="#a6cfe3"><path d="M -0.2120,0.2728 C -0.2120,0.3132 -0.2120,0.3729 -0.2120,0.4134"/></g><g fill-opacity="0.0" stroke-opacity="1.0" fill="#000000" stroke-width="5.0e-3" stroke="#a6cfe3"><path d="M -0.2963,0.2722 C -0.3751,0.3129 -0.4921,0.3733 -0.5708,0.4139"/></g><g fill-opacity="0.0" stroke-opacity="1.0" fill="#000000" stroke-width="5.0e-3" stroke="#a6cfe3"><path d="M -0.2968,0.2418 C -0.4251,0.2631 -0.6751,0.3103 -0.8781,0.3824"/></g><g fill-opacity="0.0" stroke-opacity="1.0" fill="#000000" stroke-width="5.0e-3" stroke="#a6cfe3"><path d="M -0.8781,0.3824 C -0.9021,0.3909 -0.9271,0.4022 -0.9499,0.4133"/></g><g fill-opacity="0.0" stroke-opacity="1.0" fill="#000000" stroke-width="5.0e-3" stroke="#a6cfe3"><path d="M -0.1463,0.2728 C -0.0859,0.3132 0.0031,0.3729 0.0634,0.4134"/></g><g fill-opacity="0.0" stroke-opacity="1.0" fill="#000000" stroke-width="5.0e-3" stroke="#a6cfe3"><path d="M -0.9723,-0.1846 C -0.9112,-0.1441 -0.8212,-0.0844 -0.7602,-0.0440"/></g><g fill-opacity="0.1" stroke-opacity="1.0" fill="#b05929" stroke-width="5.0e-3" stroke="#a6cfe3"><rect height="8.534662209045607e-2" y="-0.5" width="0.21991570718934084" x="-0.5492153086827902"/></g><g fill-opacity="0.1" stroke-opacity="1.0" fill="#b05929" stroke-width="5.0e-3" stroke="#a6cfe3"><rect height="8.534662209045618e-2" y="-0.2713366555226141" width="0.27096585110283256" x="-0.3984147413092376"/></g><g fill-opacity="0.1" stroke-opacity="1.0" fill="#b05929" stroke-width="5.0e-3" stroke="#a6cfe3"><rect height="8.534662209045607e-2" y="-0.5" width="0.32202164997549443" x="-1.1997754537988816"/></g><g fill-opacity="0.1" stroke-opacity="1.0" fill="#b05929" stroke-width="5.0e-3" stroke="#a6cfe3"><rect height="8.534662209045629e-2" y="-4.26733110452282e-2" width="0.21991570718934117" x="-1.2427628233819643"/></g><g fill-opacity="0.1" stroke-opacity="1.0" fill="#b05929" stroke-width="5.0e-3" stroke="#a6cfe3"><rect height="8.534662209045618e-2" y="-0.2713366555226141" width="0.2866781551586216" x="-0.7550038244570557"/></g><g fill-opacity="0.1" stroke-opacity="1.0" fill="#b05929" stroke-width="5.0e-3" stroke="#a6cfe3"><rect height="8.534662209045629e-2" y="-4.26733110452282e-2" width="0.15315608669964598" x="-0.28073464599754483"/></g><g fill-opacity="0.1" stroke-opacity="1.0" fill="#b05929" stroke-width="5.0e-3" stroke="#a6cfe3"><rect height="8.534662209045607e-2" y="0.18599003343215792" width="0.16886273579626399" x="-0.2964246656272005"/></g><g fill-opacity="0.1" stroke-opacity="1.0" fill="#b05929" stroke-width="5.0e-3" stroke="#a6cfe3"><rect height="8.534662209045607e-2" y="0.41465337790954393" width="0.21991570718934073" x="0.28539271748062256"/></g><g fill-opacity="0.1" stroke-opacity="1.0" fill="#b05929" stroke-width="5.0e-3" stroke="#a6cfe3"><rect height="8.534662209045607e-2" y="0.41465337790954393" width="0.30630086348094987" x="0.5752596802920484"/></g><g fill-opacity="0.1" stroke-opacity="1.0" fill="#b05929" stroke-width="5.0e-3" stroke="#a6cfe3"><rect height="8.534662209045607e-2" y="0.41465337790954393" width="0.3730576564910596" x="-0.39852212597459824"/></g><g fill-opacity="0.1" stroke-opacity="1.0" fill="#b05929" stroke-width="5.0e-3" stroke="#a6cfe3"><rect height="8.534662209045607e-2" y="0.41465337790954393" width="0.3730576564910595" x="-0.841295398070681"/></g><g fill-opacity="0.1" stroke-opacity="1.0" fill="#b05929" stroke-width="5.0e-3" stroke="#a6cfe3"><rect height="8.534662209045607e-2" y="0.41465337790954393" width="0.23562235628595918" x="-1.1487391118727674"/></g><g fill-opacity="0.1" stroke-opacity="1.0" fill="#b05929" stroke-width="5.0e-3" stroke="#a6cfe3"><rect height="8.534662209045618e-2" y="-0.2713366555226141" width="0.42412193780247787" x="-1.2508255977123734"/></g><g fill-opacity="0.1" stroke-opacity="1.0" fill="#b05929" stroke-width="5.0e-3" stroke="#a6cfe3"><rect height="8.534662209045629e-2" y="-4.26733110452282e-2" width="0.1884995815165187" x="-0.7881998359901435"/></g><g fill-opacity="0.1" stroke-opacity="1.0" fill="#b05929" stroke-width="5.0e-3" stroke="#a6cfe3"><rect height="8.534662209045607e-2" y="0.18599003343215792" width="0.21991570718934028" x="0.9985319698831632"/></g><g fill-opacity="0.1" stroke-opacity="1.0" fill="#b05929" stroke-width="5.0e-3" stroke="#a6cfe3"><rect height="8.534662209045607e-2" y="0.41465337790954393" width="0.16886273579626376" x="4.4471570411376504e-2"/></g><g fill-opacity="0.1" stroke-opacity="1.0" fill="#b05929" stroke-width="5.0e-3" stroke="#a6cfe3"><rect height="8.534662209045607e-2" y="0.18599003343215792" width="0.18849958151651913" x="0.7399557048724426"/></g><g fill-opacity="0.1" stroke-opacity="1.0" fill="#b05929" stroke-width="5.0e-3" stroke="#a6cfe3"><rect height="8.534662209045607e-2" y="0.18599003343215792" width="0.15315608669964553" x="0.5146899047591351"/></g><g fill-opacity="0.1" stroke-opacity="1.0" fill="#b05929" stroke-width="5.0e-3" stroke="#a6cfe3"><rect height="8.534662209045607e-2" y="0.18599003343215792" width="0.16886273579626399" x="0.2756540753111012"/></g><g fill-opacity="0.1" stroke-opacity="1.0" fill="#b05929" stroke-width="5.0e-3" stroke="#a6cfe3"><rect height="8.534662209045607e-2" y="0.18599003343215792" width="0.23562235628595918" x="-3.201006278087726e-2"/></g><g text-anchor="middle" fill-opacity="1.0" fill="#0d0d0d" stroke-width="0.0" stroke="none" font-size="4.0e-2"><text y="-0.4494417460417588" x="-0.43925745508811975">Additive</text><text y="-0.22077840156437267" x="-0.2629318157578213">Subtractive</text><text y="-0.4494417460417588" x="-1.0387646288111345">Multiplicative</text><text y="7.884942913013337e-3" x="-1.1328049697872937">Divisive</text><text y="-0.22077840156437267" x="-0.6116647468777449">Distributive</text><text y="7.884942913013337e-3" x="-0.20415660264772195">Ring</text><text y="0.2365482873903993" x="-0.2119932977290684">Field</text><text y="0.4652116318677853" x="0.3953505710752929">ExpField</text><text y="0.4652116318677853" x="0.7284101120325237">QuotientField</text><text y="0.4652116318677853" x="-0.2119932977290684">UpperBoundedField</text><text y="0.4652116318677853" x="-0.6547665698251511">LowerBoundedField</text><text y="0.4652116318677853" x="-1.0309279337297879">TrigField</text><text y="-0.22077840156437267" x="-1.0387646288111345">MultiplicativeAction</text><text y="7.884942913013337e-3" x="-0.6939500452318842">Module</text><text y="0.2365482873903993" x="1.108489823477832">Integral</text><text y="0.4652116318677853" x="0.12890293830950839">Ratio</text><text y="0.2365482873903993" x="0.8342054956307019">Signed</text><text y="0.2365482873903993" x="0.5912679481089582">Norm</text><text y="0.2365482873903993" x="0.36008544320923286">Basis</text><text y="0.2365482873903993" x="8.580111536210233e-2">Direction</text></g></svg>