<svg xmlns="http://www.w3.org/2000/svg" width="771.0345282386032" xmlns:xlink="http://www.w3.org/1999/xlink" viewBox="24.090146322474652 -274.3265 662.1978643475362 257.653" height="300.0"><style>svg {
  color-scheme: light dark;
}
{
  .canvas g, .title g, .axisbar g, .ticktext g, .tickglyph g, .ticklines g, .legendContent g text {
    fill: #0d0d0d;
  }
  .ticklines g, .tickglyph g, .legendBorder g {
    stroke: #0d0d0d;
  }
  .legendBorder g {
    fill: #f0f0f0;
  }
}
@media (prefers-color-scheme:dark) {
  .canvas g, .title g, .axisbar g, .ticktext g, .tickglyph g, .ticklines g, .legendContent g text {
    fill: #f0f0f0;
  }
  .ticklines g, .tickglyph g, .legendBorder g {
    stroke: #f0f0f0;
  }
  .legendBorder g {
    fill: #0d0d0d;
  }
}</style><g class="chart"><g><g fill="rgb(0%, 0%, 0%)" stroke="rgb(2%, 29%, 48%)" stroke-width="5.0e-3" fill-opacity="0.0" stroke-opacity="1.0"><path d="M 251.46,-251.7800 C 259.51,-241.5900 271.54,-226.3500 279.57,-216.1700"/></g><g fill="rgb(0%, 0%, 0%)" stroke="rgb(2%, 29%, 48%)" stroke-width="5.0e-3" fill-opacity="0.0" stroke-opacity="1.0"><path d="M 234.72,-251.7800 C 226.86,-241.5900 215.09,-226.3500 207.2400,-216.1700"/></g><g fill="rgb(0%, 0%, 0%)" stroke="rgb(2%, 29%, 48%)" stroke-width="5.0e-3" fill-opacity="0.0" stroke-opacity="1.0"><path d="M 290.82,-192.7800 C 293.5,-182.5900 297.51,-167.3500 300.1900,-157.1700"/></g><g fill="rgb(0%, 0%, 0%)" stroke="rgb(2%, 29%, 48%)" stroke-width="5.0e-3" fill-opacity="0.0" stroke-opacity="1.0"><path d="M 66.306,-251.9600 C 52.0850,-244.24 35.209,-232.26 27.0,-216.0"/></g><g fill="rgb(0%, 0%, 0%)" stroke="rgb(2%, 29%, 48%)" stroke-width="5.0e-3" fill-opacity="0.0" stroke-opacity="1.0"><path d="M 27.0,-216.0 C 16.276,-194.76 37.568,-170.68 52.695,-157.18"/></g><g fill="rgb(0%, 0%, 0%)" stroke="rgb(2%, 29%, 48%)" stroke-width="5.0e-3" fill-opacity="0.0" stroke-opacity="1.0"><path d="M 110.2500,-251.9100 C 129.82,-241.6700 159.32,-226.25 178.8600,-216.0300"/></g><g fill="rgb(0%, 0%, 0%)" stroke="rgb(2%, 29%, 48%)" stroke-width="5.0e-3" fill-opacity="0.0" stroke-opacity="1.0"><path d="M 90.0,-251.7800 C 90.0,-241.5900 90.0,-226.3500 90.0,-216.1700"/></g><g fill="rgb(0%, 0%, 0%)" stroke="rgb(2%, 29%, 48%)" stroke-width="5.0e-3" fill-opacity="0.0" stroke-opacity="1.0"><path d="M 94.346,-137.62 C 141.83,-126.11 236.45,-103.16 279.17,-92.794"/></g><g fill="rgb(0%, 0%, 0%)" stroke="rgb(2%, 29%, 48%)" stroke-width="5.0e-3" fill-opacity="0.0" stroke-opacity="1.0"><path d="M 218.56,-192.7800 C 237.16,-182.5900 264.96,-167.3500 283.53,-157.1700"/></g><g fill="rgb(0%, 0%, 0%)" stroke="rgb(2%, 29%, 48%)" stroke-width="5.0e-3" fill-opacity="0.0" stroke-opacity="1.0"><path d="M 195.05,-192.7800 C 191.3,-182.5900 185.68,-167.3500 181.93,-157.1700"/></g><g fill="rgb(0%, 0%, 0%)" stroke="rgb(2%, 29%, 48%)" stroke-width="5.0e-3" fill-opacity="0.0" stroke-opacity="1.0"><path d="M 302.62,-133.78 C 302.27,-123.59 301.73,-108.35 301.37,-98.173"/></g><g fill="rgb(0%, 0%, 0%)" stroke="rgb(2%, 29%, 48%)" stroke-width="5.0e-3" fill-opacity="0.0" stroke-opacity="1.0"><path d="M 322.73,-143.99 C 396.63,-141.86 653.99,-132.6 678.0,-106.0"/></g><g fill="rgb(0%, 0%, 0%)" stroke="rgb(2%, 29%, 48%)" stroke-width="5.0e-3" fill-opacity="0.0" stroke-opacity="1.0"><path d="M 678.0,-106.0 C 689.61,-93.133 688.4700,-80.815 678.0,-67.0"/></g><g fill="rgb(0%, 0%, 0%)" stroke="rgb(2%, 29%, 48%)" stroke-width="5.0e-3" fill-opacity="0.0" stroke-opacity="1.0"><path d="M 678.0,-67.0 C 666.18,-51.3940 616.4800,-40.354 580.33,-34.209"/></g><g fill="rgb(0%, 0%, 0%)" stroke="rgb(2%, 29%, 48%)" stroke-width="5.0e-3" fill-opacity="0.0" stroke-opacity="1.0"><path d="M 322.6500,-144.21 C 371.05,-143.03 499.4600,-136.97 601.0,-106.0"/></g><g fill="rgb(0%, 0%, 0%)" stroke="rgb(2%, 29%, 48%)" stroke-width="5.0e-3" fill-opacity="0.0" stroke-opacity="1.0"><path d="M 601.0,-106.0 C 607.32,-104.07 613.88,-101.14 619.68,-98.176"/></g><g fill="rgb(0%, 0%, 0%)" stroke="rgb(2%, 29%, 48%)" stroke-width="5.0e-3" fill-opacity="0.0" stroke-opacity="1.0"><path d="M 322.5,-143.54 C 363.12,-141.04 459.3,-132.58 535.0,-106.0"/></g><g fill="rgb(0%, 0%, 0%)" stroke="rgb(2%, 29%, 48%)" stroke-width="5.0e-3" fill-opacity="0.0" stroke-opacity="1.0"><path d="M 535.0,-106.0 C 540.7,-104.0000 546.57,-101.05 551.74,-98.085"/></g><g fill="rgb(0%, 0%, 0%)" stroke="rgb(2%, 29%, 48%)" stroke-width="5.0e-3" fill-opacity="0.0" stroke-opacity="1.0"><path d="M 322.72,-142.41 C 355.71,-138.43 423.69,-128.09 477.0,-106.0"/></g><g fill="rgb(0%, 0%, 0%)" stroke="rgb(2%, 29%, 48%)" stroke-width="5.0e-3" fill-opacity="0.0" stroke-opacity="1.0"><path d="M 477.0,-106.0 C 481.9700,-103.94 487.0200,-101.05 491.5,-98.153"/></g><g fill="rgb(0%, 0%, 0%)" stroke="rgb(2%, 29%, 48%)" stroke-width="5.0e-3" fill-opacity="0.0" stroke-opacity="1.0"><path d="M 322.67,-139.1600 C 345.61,-132.63 384.4000,-120.62 416.0000,-106.0"/></g><g fill="rgb(0%, 0%, 0%)" stroke="rgb(2%, 29%, 48%)" stroke-width="5.0e-3" fill-opacity="0.0" stroke-opacity="1.0"><path d="M 416.0000,-106.0 C 420.8900,-103.74 426.0,-100.9100 430.62,-98.146"/></g><g fill="rgb(0%, 0%, 0%)" stroke="rgb(2%, 29%, 48%)" stroke-width="5.0e-3" fill-opacity="0.0" stroke-opacity="1.0"><path d="M 316.92,-133.78 C 330.15,-123.59 349.9300,-108.35 363.1400,-98.173"/></g><g fill="rgb(0%, 0%, 0%)" stroke="rgb(2%, 29%, 48%)" stroke-width="5.0e-3" fill-opacity="0.0" stroke-opacity="1.0"><path d="M 318.23,-74.992 C 323.48,-72.104 329.36,-69.172 335.0,-67.0"/></g><g fill="rgb(0%, 0%, 0%)" stroke="rgb(2%, 29%, 48%)" stroke-width="5.0e-3" fill-opacity="0.0" stroke-opacity="1.0"><path d="M 335.0,-67.0 C 370.41,-53.371 382.2900,-59.824 418.0,-47.0"/></g><g fill="rgb(0%, 0%, 0%)" stroke="rgb(2%, 29%, 48%)" stroke-width="5.0e-3" fill-opacity="0.0" stroke-opacity="1.0"><path d="M 418.0,-47.0 C 424.08,-44.818 430.47,-41.95 436.24,-39.125"/></g><g fill="rgb(0%, 0%, 0%)" stroke="rgb(2%, 29%, 48%)" stroke-width="5.0e-3" fill-opacity="0.0" stroke-opacity="1.0"><path d="M 317.39,-74.981 C 322.81,-71.949 328.99,-68.94 335.0,-67.0"/></g><g fill="rgb(0%, 0%, 0%)" stroke="rgb(2%, 29%, 48%)" stroke-width="5.0e-3" fill-opacity="0.0" stroke-opacity="1.0"><path d="M 335.0,-67.0 C 402.36,-45.265 424.36,-64.299 493.0,-47.0"/></g><g fill="rgb(0%, 0%, 0%)" stroke="rgb(2%, 29%, 48%)" stroke-width="5.0e-3" fill-opacity="0.0" stroke-opacity="1.0"><path d="M 493.0,-47.0 C 500.97,-44.992 509.41,-42.038 516.95,-39.077"/></g><g fill="rgb(0%, 0%, 0%)" stroke="rgb(2%, 29%, 48%)" stroke-width="5.0e-3" fill-opacity="0.0" stroke-opacity="1.0"><path d="M 301.0,-74.779 C 301.0,-64.588 301.0,-49.348 301.0,-39.173"/></g><g fill="rgb(0%, 0%, 0%)" stroke="rgb(2%, 29%, 48%)" stroke-width="5.0e-3" fill-opacity="0.0" stroke-opacity="1.0"><path d="M 280.01,-74.912 C 259.71,-64.674 229.14,-49.25 208.88,-39.031"/></g><g fill="rgb(0%, 0%, 0%)" stroke="rgb(2%, 29%, 48%)" stroke-width="5.0e-3" fill-opacity="0.0" stroke-opacity="1.0"><path d="M 279.38,-82.175 C 246.67,-76.796 182.91,-64.944 131.0,-47.0"/></g><g fill="rgb(0%, 0%, 0%)" stroke="rgb(2%, 29%, 48%)" stroke-width="5.0e-3" fill-opacity="0.0" stroke-opacity="1.0"><path d="M 131.0,-47.0 C 124.7700,-44.845 118.2100,-41.986 112.29,-39.161"/></g><g fill="rgb(0%, 0%, 0%)" stroke="rgb(2%, 29%, 48%)" stroke-width="5.0e-3" fill-opacity="0.0" stroke-opacity="1.0"><path d="M 317.36,-74.779 C 332.92,-64.588 356.18,-49.348 371.71,-39.173"/></g><g fill="rgb(0%, 0%, 0%)" stroke="rgb(2%, 29%, 48%)" stroke-width="5.0e-3" fill-opacity="0.0" stroke-opacity="1.0"><path d="M 106.55,-192.7800 C 122.29,-182.5900 145.81,-167.3500 161.52,-157.1700"/></g><g fill="rgb(2%, 73%, 80%)" stroke="rgb(2%, 29%, 48%)" stroke-width="5.0e-3" fill-opacity="0.1" stroke-opacity="1.0"><rect x="214.93769759999998" width="56.12460480000004" y="-274.324" height="21.648000000000025"/></g><g fill="rgb(2%, 73%, 80%)" stroke="rgb(2%, 29%, 48%)" stroke-width="5.0e-3" fill-opacity="0.1" stroke-opacity="1.0"><rect x="253.4234536" width="69.1530928" y="-215.324" height="21.648000000000025"/></g><g fill="rgb(2%, 73%, 80%)" stroke="rgb(2%, 29%, 48%)" stroke-width="5.0e-3" fill-opacity="0.1" stroke-opacity="1.0"><rect x="48.90848799999999" width="82.183024" y="-274.324" height="21.648000000000025"/></g><g fill="rgb(2%, 73%, 80%)" stroke="rgb(2%, 29%, 48%)" stroke-width="5.0e-3" fill-opacity="0.1" stroke-opacity="1.0"><rect x="37.9376976" width="56.12460479999999" y="-156.324" height="21.648000000000025"/></g><g fill="rgb(2%, 73%, 80%)" stroke="rgb(2%, 29%, 48%)" stroke-width="5.0e-3" fill-opacity="0.1" stroke-opacity="1.0"><rect x="162.418488" width="73.16302399999998" y="-215.324" height="21.648000000000025"/></g><g fill="rgb(2%, 73%, 80%)" stroke="rgb(2%, 29%, 48%)" stroke-width="5.0e-3" fill-opacity="0.1" stroke-opacity="1.0"><rect x="283.4565464" width="39.08690720000004" y="-156.324" height="21.648000000000025"/></g><g fill="rgb(2%, 73%, 80%)" stroke="rgb(2%, 29%, 48%)" stroke-width="5.0e-3" fill-opacity="0.1" stroke-opacity="1.0"><rect x="279.4523024" width="43.095395199999984" y="-97.324" height="21.647999999999996"/></g><g fill="rgb(2%, 73%, 80%)" stroke="rgb(2%, 29%, 48%)" stroke-width="5.0e-3" fill-opacity="0.1" stroke-opacity="1.0"><rect x="427.9376976" width="56.124604799999986" y="-38.324" height="21.647999999999996"/></g><g fill="rgb(2%, 73%, 80%)" stroke="rgb(2%, 29%, 48%)" stroke-width="5.0e-3" fill-opacity="0.1" stroke-opacity="1.0"><rect x="501.914536" width="78.170928" y="-38.324" height="21.647999999999996"/></g><g fill="rgb(2%, 73%, 80%)" stroke="rgb(2%, 29%, 48%)" stroke-width="5.0e-3" fill-opacity="0.1" stroke-opacity="1.0"><rect x="253.39604799999998" width="95.20790400000001" y="-38.324" height="21.647999999999996"/></g><g fill="rgb(2%, 73%, 80%)" stroke="rgb(2%, 29%, 48%)" stroke-width="5.0e-3" fill-opacity="0.1" stroke-opacity="1.0"><rect x="140.396048" width="95.20790399999998" y="-38.324" height="21.647999999999996"/></g><g fill="rgb(2%, 73%, 80%)" stroke="rgb(2%, 29%, 48%)" stroke-width="5.0e-3" fill-opacity="0.1" stroke-opacity="1.0"><rect x="61.93345359999999" width="60.133092799999986" y="-38.324" height="21.647999999999996"/></g><g fill="rgb(2%, 73%, 80%)" stroke="rgb(2%, 29%, 48%)" stroke-width="5.0e-3" fill-opacity="0.1" stroke-opacity="1.0"><rect x="35.88" width="108.24000000000001" y="-215.324" height="21.648000000000025"/></g><g fill="rgb(2%, 73%, 80%)" stroke="rgb(2%, 29%, 48%)" stroke-width="5.0e-3" fill-opacity="0.1" stroke-opacity="1.0"><rect x="153.9465464" width="48.10690720000002" y="-156.324" height="21.648000000000025"/></g><g fill="rgb(2%, 73%, 80%)" stroke="rgb(2%, 29%, 48%)" stroke-width="5.0e-3" fill-opacity="0.1" stroke-opacity="1.0"><rect x="609.9376976" width="56.12460480000004" y="-97.324" height="21.647999999999996"/></g><g fill="rgb(2%, 73%, 80%)" stroke="rgb(2%, 29%, 48%)" stroke-width="5.0e-3" fill-opacity="0.1" stroke-opacity="1.0"><rect x="366.4523024" width="43.09539519999993" y="-38.324" height="21.647999999999996"/></g><g fill="rgb(2%, 73%, 80%)" stroke="rgb(2%, 29%, 48%)" stroke-width="5.0e-3" fill-opacity="0.1" stroke-opacity="1.0"><rect x="543.9465464" width="48.10690720000002" y="-97.324" height="21.647999999999996"/></g><g fill="rgb(2%, 73%, 80%)" stroke="rgb(2%, 29%, 48%)" stroke-width="5.0e-3" fill-opacity="0.1" stroke-opacity="1.0"><rect x="486.4565464" width="39.08690720000004" y="-97.324" height="21.647999999999996"/></g><g fill="rgb(2%, 73%, 80%)" stroke="rgb(2%, 29%, 48%)" stroke-width="5.0e-3" fill-opacity="0.1" stroke-opacity="1.0"><rect x="425.4523024" width="43.09539519999993" y="-97.324" height="21.647999999999996"/></g><g fill="rgb(2%, 73%, 80%)" stroke="rgb(2%, 29%, 48%)" stroke-width="5.0e-3" fill-opacity="0.1" stroke-opacity="1.0"><rect x="346.9334536" width="60.13309279999993" y="-97.324" height="21.647999999999996"/></g><g fill="rgb(5%, 5%, 5%)" stroke="none" stroke-width="0.0" font-size="4.0e-2" fill-opacity="1.0" text-anchor="middle"><text x="243.0" y="-261.5">Additive</text><text x="287.99999999999994" y="-202.5">Subtractive</text><text x="90.0" y="-261.5">Multiplicative</text><text x="66.0" y="-143.5">Divisive</text><text x="199.0" y="-202.5">Distributive</text><text x="303.0" y="-143.5">Ring</text><text x="301.0" y="-84.5">Field</text><text x="456.0" y="-25.5">ExpField</text><text x="541.0" y="-25.5">QuotientField</text><text x="301.0" y="-25.5">UpperBoundedField</text><text x="188.0" y="-25.5">LowerBoundedField</text><text x="92.0" y="-25.5">TrigField</text><text x="90.0" y="-202.5">MultiplicativeAction</text><text x="178.0" y="-143.5">Module</text><text x="638.0" y="-84.5">Integral</text><text x="388.0" y="-25.5">Ratio</text><text x="568.0" y="-84.5">Signed</text><text x="506.0" y="-84.5">Norm</text><text x="447.0" y="-84.5">Basis</text><text x="377.0" y="-84.5">Direction</text></g></g></g><g class="hud"></g></svg>