<svg xmlns="http://www.w3.org/2000/svg" height="300.0" viewBox="-0.6435859652373425 -0.5225 1.287171930474685 1.045" width="369.52304224153636" xmlns:xlink="http://www.w3.org/1999/xlink"><g stroke-opacity="1.0" fill-opacity="0.0" stroke="#33a02c" stroke-width="4.0e-3" fill="#000000"><path d="M -0.2707877992903644,-0.41324985807102754 C -0.25360683045987853,-0.3733914183291124 -0.22841054090527252,-0.31492467226514625 -0.21098119682178396,-0.2745142875165584"/></g><g stroke-opacity="1.0" fill-opacity="0.0" stroke="#33a02c" stroke-width="4.0e-3" fill="#000000"><path d="M -0.22060071626959776,-0.41324985807102754 C -0.15760090384403413,-0.37307583072204514 -6.491415974219972e-2,-0.3139786680641762 -1.4806790116083102e-3,-0.2735680943669968"/></g><g stroke-opacity="1.0" fill-opacity="0.0" stroke="#33a02c" stroke-width="4.0e-3" fill="#000000"><path d="M -0.3422403281724047,-0.41324985807102754 C -0.39003419016170204,-0.37307587352077826 -0.4603003842626158,-0.3139786256066954 -0.5083978145033732,-0.2735680943669968"/></g><g stroke-opacity="1.0" fill-opacity="0.0" stroke="#33a02c" stroke-width="4.0e-3" fill="#000000"><path d="M -0.29821131456864025,-0.4133681322147229 C -0.30492917598620206,-0.3759540711624456 -0.3137839650322468,-0.3206806328607768 -0.3173872746482167,-0.2720305304989592"/></g><g stroke-opacity="1.0" fill-opacity="0.0" stroke="#33a02c" stroke-width="4.0e-3" fill="#000000"><path d="M -0.3173872746482167,-0.2720305304989592 C -0.3202337390398145,-0.23359143379801933 -0.3202337390398145,-0.2237352551567527 -0.3173872746482167,-0.18529615845581282"/></g><g stroke-opacity="1.0" fill-opacity="0.0" stroke="#33a02c" stroke-width="4.0e-3" fill="#000000"><path d="M -0.3173872746482167,-0.18529615845581282 C -0.31383915782352534,-0.137395125736602 -0.3052051471183909,-8.31073050015789e-2 -0.29853065107489973,-4.5732668895477224e-2"/></g><g stroke-opacity="1.0" fill-opacity="0.0" stroke="#33a02c" stroke-width="4.0e-3" fill="#000000"><path d="M -0.14104255952497324,-0.18458651359364164 C -9.53500118224298e-2,-0.14441253648766322 -2.813131070350209e-2,-8.531527374439482e-2 1.7876632664115433e-2,-4.4904749889610795e-2"/></g><g stroke-opacity="1.0" fill-opacity="0.0" stroke="#33a02c" stroke-width="4.0e-3" fill="#000000"><path d="M -0.21023213588117545,-0.18458651359364164 C -0.2274131047781062,-0.14472807387543585 -0.2526093943529563,-8.626132776449433e-2 -0.27002296864574304,-4.5850943039172365e-2"/></g><g stroke-opacity="1.0" fill-opacity="0.0" stroke="#33a02c" stroke-width="4.0e-3" fill="#000000"><path d="M 0.3333889857004039,-0.4126979120671167 C 0.3570040256362053,-0.37666365028399496 0.3872427176404973,-0.3236375215411361 0.4001342579346202,-0.2720305304989592"/></g><g stroke-opacity="1.0" fill-opacity="0.0" stroke="#33a02c" stroke-width="4.0e-3" fill="#000000"><path d="M 0.4001342579346202,-0.2720305304989592 C 0.4194129210261923,-0.19471866511687952 0.41156740285425913,-0.10120324248459112 0.4039978354177588,-4.640288904308343e-2"/></g><g stroke-opacity="1.0" fill-opacity="0.0" stroke="#33a02c" stroke-width="4.0e-3" fill="#000000"><path d="M 0.2567087999381171,-0.41324985807102754 C 0.2161808307635197,-0.3733912986615581 0.15672870970995945,-0.31492478969442955 0.11560937328350318,-0.2745142875165584"/></g><g stroke-opacity="1.0" fill-opacity="0.0" stroke="#33a02c" stroke-width="4.0e-3" fill="#000000"><path d="M 0.30157360785456055,-0.41324985807102754 C 0.30157360785456055,-0.3733914716457453 0.30157360785456055,-0.3149246199457516 0.30157360785456055,-0.2745142875165584"/></g><g stroke-opacity="1.0" fill-opacity="0.0" stroke="#33a02c" stroke-width="4.0e-3" fill="#000000"><path d="M 0.38097406755905683,4.407683088374437e-2 C 0.3672545300847354,8.393525343817354e-2 0.3470691009459664,0.14240203354128758 0.3331524401402116,0.18280057402384403"/></g><g stroke-opacity="1.0" fill-opacity="0.0" stroke="#33a02c" stroke-width="4.0e-3" fill="#000000"><path d="M 6.89704736656187e-2,-0.18458651359364164 C 6.89704736656187e-2,-0.1447281271683594 6.89704736656187e-2,-8.626127546836561e-2 6.89704736656187e-2,-4.5850943039172365e-2"/></g><g stroke-opacity="1.0" fill-opacity="0.0" stroke="#33a02c" stroke-width="4.0e-3" fill="#000000"><path d="M 0.11687094960452782,4.407683088374437e-2 C 0.16051343508107102,8.425080013372056e-2 0.22465704545119436,0.14332836629206708 0.2685755022077564,0.18375859458777521"/></g><g stroke-opacity="1.0" fill-opacity="0.0" stroke="#33a02c" stroke-width="4.0e-3" fill="#000000"><path d="M 6.89704736656187e-2,4.3840282596353974e-2 C 6.89704736656187e-2,0.13070081372610862 6.89704736656187e-2,0.3237912382514351 6.89704736656187e-2,0.4119054753043588"/></g><g stroke-opacity="1.0" fill-opacity="0.0" stroke="#33a02c" stroke-width="4.0e-3" fill="#000000"><path d="M 0.31734331186736997,0.27275200277549994 C 0.31734331186736997,0.3126103892007822 0.31734331186736997,0.37106541348640637 0.31734331186736997,0.41146391850123004"/></g><g stroke-opacity="1.0" fill-opacity="0.0" stroke="#33a02c" stroke-width="4.0e-3" fill="#000000"><path d="M 0.26944283592846074,0.27275200277549994 C 0.22580035043630184,0.3129259720029576 0.16165674009727646,0.37199171079209575 0.1177382833252325,0.41242193906516117"/></g><g stroke-opacity="1.0" fill-opacity="0.0" stroke="#33a02c" stroke-width="4.0e-3" fill="#000000"><path d="M 0.3606705736425646,0.27275200277549994 C 0.39985811818083866,0.312610556296979 0.45729960190898544,0.37106524944984326 0.49699966483330316,0.41146391850123004"/></g><g stroke-opacity="0.8" fill-opacity="0.1" stroke="#1f78b4" stroke-width="5.0e-3" fill="#1f78b4"><rect height="8.534662209045607e-2" width="0.14619423324037478" x="-0.36288740924598734" y="-0.5"/></g><g stroke-opacity="0.8" fill-opacity="0.1" stroke="#1f78b4" stroke-width="5.0e-3" fill="#1f78b4"><rect height="8.534662209045618e-2" width="0.1817549157892605" x="-0.28210710044037013" y="-0.2713366555226141"/></g><g stroke-opacity="0.8" fill-opacity="0.1" stroke="#1f78b4" stroke-width="5.0e-3" fill="#1f78b4"><rect height="8.534662209045607e-2" width="0.2173155983381463" x="0.1929158086854873" y="-0.5"/></g><g stroke-opacity="0.8" fill-opacity="0.1" stroke="#1f78b4" stroke-width="5.0e-3" fill="#1f78b4"><rect height="8.534662209045613e-2" width="0.14619423324037495" x="0.3230947153112306" y="-4.267331104522809e-2"/></g><g stroke-opacity="0.8" fill-opacity="0.1" stroke="#1f78b4" stroke-width="5.0e-3" fill="#1f78b4"><rect height="8.534662209045618e-2" width="0.19360942492375677" x="-2.783423879625968e-2" y="-0.2713366555226141"/></g><g stroke-opacity="0.8" fill-opacity="0.1" stroke="#1f78b4" stroke-width="5.0e-3" fill="#1f78b4"><rect height="8.534662209045613e-2" width="0.10273054460182474" x="1.7605201364706335e-2" y="-4.267331104522809e-2"/></g><g stroke-opacity="0.8" fill-opacity="0.1" stroke="#1f78b4" stroke-width="5.0e-3" fill="#1f78b4"><rect height="8.534662209045607e-2" width="0.11458505373632133" x="0.2600507849992095" y="0.18599003343215792"/></g><g stroke-opacity="0.8" fill-opacity="0.1" stroke="#1f78b4" stroke-width="5.0e-3" fill="#1f78b4"><rect height="8.534662209045607e-2" width="0.14619423324037495" x="0.2442461952471825" y="0.41465337790954393"/></g><g stroke-opacity="0.8" fill-opacity="0.1" stroke="#1f78b4" stroke-width="5.0e-3" fill="#1f78b4"><rect height="8.534662209045607e-2" width="0.2054610892036498" x="-3.3760070936206144e-2" y="0.41465337790954393"/></g><g stroke-opacity="0.8" fill-opacity="0.1" stroke="#1f78b4" stroke-width="5.0e-3" fill="#1f78b4"><rect height="8.534662209045607e-2" width="0.1580487423748711" x="0.4630372228624714" y="0.41465337790954393"/></g><g stroke-opacity="0.8" fill-opacity="0.1" stroke="#1f78b4" stroke-width="5.0e-3" fill="#1f78b4"><rect height="8.534662209045618e-2" width="0.11853655678115349" x="-0.6210859652373425" y="-0.2713366555226141"/></g><g stroke-opacity="0.8" fill-opacity="0.1" stroke="#1f78b4" stroke-width="5.0e-3" fill="#1f78b4"><rect height="8.534662209045618e-2" width="0.12643671801621414" x="0.23835524884645332" y="-0.2713366555226141"/></g><g stroke-opacity="0.8" fill-opacity="0.1" stroke="#1f78b4" stroke-width="5.0e-3" fill="#1f78b4"><rect height="8.534662209045613e-2" width="0.1382912271507104" x="-0.3589359062011552" y="-4.267331104522809e-2"/></g><g fill-opacity="1.0" font-size="3.0e-2" stroke="none" stroke-width="0.0" fill="#333333" text-anchor="middle"><text x="-0.2897902926257999" y="-0.44944174604175857">Additive</text><text x="-0.19122964254573993" y="-0.22077840156437267">Subtractive</text><text x="0.30157360785456055" y="-0.44944174604175857">Multiplicative</text><text x="0.39619183193141805" y="7.884942913013337e-3">Divisive</text><text x="6.89704736656187e-2" y="-0.22077840156437267">Distributive</text><text x="6.89704736656187e-2" y="7.884942913013337e-3">Ring</text><text x="0.31734331186736997" y="0.23654828739039935">Field</text><text x="0.31734331186736997" y="0.46521163186778525">ExpField</text><text x="6.89704736656187e-2" y="0.46521163186778525">QuotientField</text><text x="0.5420615940499071" y="0.46521163186778525">TrigField</text><text x="-0.5618176868467657" y="-0.22077840156437267">Norm</text><text x="0.30157360785456055" y="-0.22077840156437267">Signed</text><text x="-0.2897902926257999" y="7.884942913013337e-3">Epsilon</text></g></svg>