<svg xmlns="http://www.w3.org/2000/svg" height="300.0" viewBox="-1.064528521305827 -0.5225 2.129057042611654 1.045" width="611.2125481181783" xmlns:xlink="http://www.w3.org/1999/xlink"><g stroke-opacity="1.0" fill-opacity="0.0" stroke="#1f78b4" stroke-width="5.0e-3" fill="#000000"><path d="M -0.4609045629850129,-0.41324985807102754 C -0.49181214883520613,-0.37339113075753977 -0.5371500468422986,-0.31492495445795865 -0.5684912995429943,-0.2745142875165584"/></g><g stroke-opacity="1.0" fill-opacity="0.0" stroke="#1f78b4" stroke-width="5.0e-3" fill="#000000"><path d="M -0.39325383380454526,-0.41324985807102754 C -0.36301644477652945,-0.3733911401686587 -0.3186641391028836,-0.31492494522286596 -0.28803250735776886,-0.2745142875165584"/></g><g stroke-opacity="1.0" fill-opacity="0.0" stroke="#1f78b4" stroke-width="5.0e-3" fill="#000000"><path d="M -0.5805154676082873,-0.18458651359364164 C -0.5592271539845707,-0.1447279256206458 -0.527963568864649,-8.62614732463157e-2 -0.5063992841238588,-4.5850943039172365e-2"/></g><g stroke-opacity="1.0" fill-opacity="0.0" stroke="#1f78b4" stroke-width="5.0e-3" fill="#000000"><path d="M 0.2653157646568254,-0.41392007821863375 C 0.3202717891133739,-0.38230078166616127 0.3872926526948477,-0.3341640319997027 0.42486267665761357,-0.2720305304989592"/></g><g stroke-opacity="1.0" fill-opacity="0.0" stroke="#1f78b4" stroke-width="5.0e-3" fill="#000000"><path d="M 0.42486267665761357,-0.2720305304989592 C 0.46759833314568006,-0.2013813896841154 0.47240814243485274,-0.10230720326042099 0.4710275973279676,-4.525957232069644e-2"/></g><g stroke-opacity="1.0" fill-opacity="0.0" stroke="#1f78b4" stroke-width="5.0e-3" fill="#000000"><path d="M 9.465142513337321e-2,-0.4137623793603733 C 1.880099043089909e-2,-0.37339075237744196 -9.355675236776062e-2,-0.3136243179624356 -0.16988027230307123,-0.27301614836308596"/></g><g stroke-opacity="1.0" fill-opacity="0.0" stroke="#1f78b4" stroke-width="5.0e-3" fill="#000000"><path d="M 0.17649461498107155,-0.41324985807102754 C 0.17649461498107155,-0.3733914716457453 0.17649461498107155,-0.3149246199457516 0.17649461498107155,-0.2745142875165584"/></g><g stroke-opacity="1.0" fill-opacity="0.0" stroke="#1f78b4" stroke-width="5.0e-3" fill="#000000"><path d="M 0.43629549219510544,4.407683088374437e-2 C 0.4074379200296473,8.393552948760329e-2 0.3650962246121434,0.14240176254547873 0.335844409472593,0.18280057402384403"/></g><g stroke-opacity="1.0" fill-opacity="0.0" stroke="#1f78b4" stroke-width="5.0e-3" fill="#000000"><path d="M -0.29729703029332233,-0.18458651359364164 C -0.3371537368063051,-0.1447276733145157 -0.3956196892875277,-8.626172083329306e-2 -0.4360283333155053,-4.5850943039172365e-2"/></g><g stroke-opacity="1.0" fill-opacity="0.0" stroke="#1f78b4" stroke-width="5.0e-3" fill="#000000"><path d="M -0.1794996067553053,-0.18458651359364164 C -0.1123223615894959,-0.14441205725127784 -1.352626547363292e-2,-8.531574915962632e-2 5.408464172620442e-2,-4.4904749889610795e-2"/></g><g stroke-opacity="1.0" fill-opacity="0.0" stroke="#1f78b4" stroke-width="5.0e-3" fill="#000000"><path d="M -0.24715033593577296,-0.18458651359364164 C -0.2416311682477439,-0.14472811017922593 -0.23358853110677524,-8.626129213973302e-2 -0.22799051403501114,-4.5850943039172365e-2"/></g><g stroke-opacity="1.0" fill-opacity="0.0" stroke="#1f78b4" stroke-width="5.0e-3" fill="#000000"><path d="M -0.40480491984759703,3.055415378792664e-2 C -0.3924259605960365,3.508804747400193e-2 -0.3796921280669503,3.950349404755502e-2 -0.36754971059611574,4.3367186021573134e-2"/></g><g stroke-opacity="1.0" fill-opacity="0.0" stroke="#1f78b4" stroke-width="5.0e-3" fill="#000000"><path d="M -0.36754971059611574,4.3367186021573134e-2 C -0.1278154620719996,0.1196341434913241 -6.0125178497518694e-2,0.11161933006634332 0.1804369651664135,0.18529615845581277"/></g><g stroke-opacity="1.0" fill-opacity="0.0" stroke="#1f78b4" stroke-width="5.0e-3" fill="#000000"><path d="M 0.1804369651664135,0.18529615845581277 C 0.19210630321041722,0.18887204307200897 0.20432762475004668,0.19288142500936484 0.21635177535487848,0.196977701381442"/></g><g stroke-opacity="1.0" fill-opacity="0.0" stroke="#1f78b4" stroke-width="5.0e-3" fill="#000000"><path d="M -0.559345047113001,1.529678925124578e-2 C -0.6468647582556085,3.6981849403266986e-2 -0.7862436644084462,8.563081987127674e-2 -0.856401133578516,0.18529615845581277"/></g><g stroke-opacity="1.0" fill-opacity="0.0" stroke="#1f78b4" stroke-width="5.0e-3" fill="#000000"><path d="M -0.856401133578516,0.18529615845581277 C -0.9039230662948343,0.2527991944704348 -0.901490563516002,0.35387619000317766 -0.8950046265933843,0.41192913013309784"/></g><g stroke-opacity="1.0" fill-opacity="0.0" stroke="#1f78b4" stroke-width="5.0e-3" fill="#000000"><path d="M -0.528988950685868,4.407683088374437e-2 C -0.571960112833743,8.425110169651777e-2 -0.6350780454235456,0.14332806733413125 -0.6783015216055087,0.18375859458777521"/></g><g stroke-opacity="1.0" fill-opacity="0.0" stroke="#1f78b4" stroke-width="5.0e-3" fill="#000000"><path d="M -0.481877865971032,4.407683088374437e-2 C -0.481877865971032,8.393521730902662e-2 -0.481877865971032,0.1424020690090203 -0.481877865971032,0.18280057402384403"/></g><g stroke-opacity="1.0" fill-opacity="0.0" stroke="#1f78b4" stroke-width="5.0e-3" fill="#000000"><path d="M -0.43701392086184065,4.407683088374437e-2 C -0.3964870148549837,8.393567878149724e-2 -0.33703547520398647,0.1424016159846994 -0.29591720772845276,0.18280057402384403"/></g><g stroke-opacity="1.0" fill-opacity="0.0" stroke="#1f78b4" stroke-width="5.0e-3" fill="#000000"><path d="M -0.4046472258401834,3.473317353182365e-2 C -0.3155110884241022,7.478957435259917e-2 -0.168776055574229,0.1407730306881265 -7.159748218249651e-2,0.1844721819214029"/></g><g stroke-opacity="1.0" fill-opacity="0.0" stroke="#1f78b4" stroke-width="5.0e-3" fill="#000000"><path d="M 0.21749505690862736,0.2599507979562228 C 0.2051160954967573,0.2641850625081483 0.1925005376316561,0.2683363695181332 0.1804369651664135,0.2720305304989592"/></g><g stroke-opacity="1.0" fill-opacity="0.0" stroke="#1f78b4" stroke-width="5.0e-3" fill="#000000"><path d="M 0.1804369651664135,0.2720305304989592 C -6.0125178497518694e-2,0.34570735888842863 -0.1251740823402057,0.34655890817509655 -0.36754971059611574,0.4139595029331988"/></g><g stroke-opacity="1.0" fill-opacity="0.0" stroke="#1f78b4" stroke-width="5.0e-3" fill="#000000"><path d="M -0.36754971059611574,0.4139595029331988 C -0.3783911601384942,0.41697554285422195 -0.38966630760561705,0.42019250800568075 -0.40094141666596184,0.4234529742004668"/></g><g stroke-opacity="1.0" fill-opacity="0.0" stroke="#1f78b4" stroke-width="5.0e-3" fill="#000000"><path d="M 0.21777102142160176,0.26090881852015396 C 0.20535263400442166,0.26500114538360753 0.19265823458011044,0.26886071589180655 0.1804369651664135,0.2720305304989592"/></g><g stroke-opacity="1.0" fill-opacity="0.0" stroke="#1f78b4" stroke-width="5.0e-3" fill="#000000"><path d="M 0.1804369651664135,0.2720305304989592 C -0.18588616831751986,0.36721683694808305 -0.28673157221313567,0.34715025736134797 -0.6592836243114191,0.4139595029331988"/></g><g stroke-opacity="1.0" fill-opacity="0.0" stroke="#1f78b4" stroke-width="5.0e-3" fill="#000000"><path d="M -0.6592836243114191,0.4139595029331988 C -0.682772133849578,0.41817013559300564 -0.7075931955411118,0.4227472087543574 -0.7318859453246762,0.42729688387056075"/></g><g stroke-opacity="1.0" fill-opacity="0.0" stroke="#1f78b4" stroke-width="5.0e-3" fill="#000000"><path d="M 0.21781044492345503,0.27221188418595854 C 0.13916093383916822,0.31258352268596057 2.270316242473809e-2,0.3723617619532932 -5.64588574707835e-2,0.4129857124834416"/></g><g stroke-opacity="1.0" fill-opacity="0.0" stroke="#1f78b4" stroke-width="5.0e-3" fill="#000000"><path d="M 0.30264982091201365,0.27275200277549994 C 0.30264982091201365,0.3126103892007822 0.30264982091201365,0.37106541348640637 0.30264982091201365,0.41146391850123004"/></g><g stroke-opacity="1.0" fill-opacity="0.0" stroke="#1f78b4" stroke-width="5.0e-3" fill="#000000"><path d="M 0.37562272284269294,0.27275200277549994 C 0.44212976674669074,0.3129264553324053 0.5398614317197306,0.37199123163841913 0.6068021377111439,0.41242193906516117"/></g><g stroke-opacity="1.0" fill-opacity="0.0" stroke="#1f78b4" stroke-width="5.0e-3" fill="#000000"><path d="M 0.38748919690057204,0.25803081435690406 C 0.49259185772164205,0.294440678060208 0.6770156138773245,0.35848042784628986 0.834867095933175,0.4139595029331988"/></g><g stroke-opacity="1.0" fill-opacity="0.0" stroke="#1f78b4" stroke-width="5.0e-3" fill="#000000"><path d="M 0.834867095933175,0.4139595029331988 C 0.8463787370489676,0.4180084822094328 0.8585212169930185,0.4222898890987962 0.8704665181068127,0.4265241594650855"/></g><g stroke-opacity="1.0" fill-opacity="0.0" stroke="#1f78b4" stroke-width="5.0e-3" fill="#000000"><path d="M 0.1673877860529316,-0.18458651359364164 C 0.1591090297565947,-0.14472808991487043 0.1470450823295676,-8.626131202506251e-2 0.13868747670364256,-4.5850943039172365e-2"/></g><g stroke-opacity="0.8" fill-opacity="0.1" stroke="#1f78b4" stroke-width="5.0e-3" fill="#a6cee3"><rect height="8.534662209045607e-2" width="0.22126284613552294" x="-0.5373163864440063" y="-0.5"/></g><g stroke-opacity="0.8" fill-opacity="0.1" stroke="#1f78b4" stroke-width="5.0e-3" fill="#a6cee3"><rect height="8.534662209045618e-2" width="0.2726257082170481" x="-0.7404035758251561" y="-0.2713366555226141"/></g><g stroke-opacity="0.8" fill-opacity="0.1" stroke="#1f78b4" stroke-width="5.0e-3" fill="#a6cee3"><rect height="8.534662209045607e-2" width="0.3239942598983614" x="1.4497485031891078e-2" y="-0.5"/></g><g stroke-opacity="0.8" fill-opacity="0.1" stroke="#1f78b4" stroke-width="5.0e-3" fill="#a6cee3"><rect height="8.534662209045613e-2" width="0.2212628461355235" x="0.35759710562861335" y="-4.267331104522809e-2"/></g><g stroke-opacity="0.8" fill-opacity="0.1" stroke="#1f78b4" stroke-width="5.0e-3" fill="#a6cee3"><rect height="8.534662209045618e-2" width="0.28843426122657656" x="-0.3974386858344878" y="-0.2713366555226141"/></g><g stroke-opacity="0.8" fill-opacity="0.1" stroke="#1f78b4" stroke-width="5.0e-3" fill="#a6cee3"><rect height="8.534662209045613e-2" width="0.15409427584436308" x="-0.5589250038932134" y="-4.267331104522809e-2"/></g><g stroke-opacity="0.8" fill-opacity="0.1" stroke="#1f78b4" stroke-width="5.0e-3" fill="#a6cee3"><rect height="8.534662209045607e-2" width="0.1698971392541042" x="0.21770125128496165" y="0.18599003343215792"/></g><g stroke-opacity="0.8" fill-opacity="0.1" stroke="#1f78b4" stroke-width="5.0e-3" fill="#a6cee3"><rect height="8.534662209045607e-2" width="0.22126284613552283" x="-0.6240480905215289" y="0.41465337790954393"/></g><g stroke-opacity="0.8" fill-opacity="0.1" stroke="#1f78b4" stroke-width="5.0e-3" fill="#a6cee3"><rect height="8.534662209045607e-2" width="0.3081771724891512" x="-1.0420285213058271" y="0.41465337790954393"/></g><g stroke-opacity="0.8" fill-opacity="0.1" stroke="#1f78b4" stroke-width="5.0e-3" fill="#a6cee3"><rect height="8.534662209045607e-2" width="0.3753428979804171" x="-0.3305071990218339" y="0.41465337790954393"/></g><g stroke-opacity="0.8" fill-opacity="0.1" stroke="#1f78b4" stroke-width="5.0e-3" fill="#a6cee3"><rect height="8.534662209045607e-2" width="0.37534289798041764" x="0.11497837192180471" y="0.41465337790954393"/></g><g stroke-opacity="0.8" fill-opacity="0.1" stroke="#1f78b4" stroke-width="5.0e-3" fill="#a6cee3"><rect height="8.534662209045607e-2" width="0.23706570954526418" x="0.5625825839322074" y="0.41465337790954393"/></g><g stroke-opacity="0.8" fill-opacity="0.1" stroke="#1f78b4" stroke-width="5.0e-3" fill="#a6cee3"><rect height="8.534662209045618e-2" width="0.4267199840614113" x="-3.686537704963411e-2" y="-0.2713366555226141"/></g><g stroke-opacity="0.8" fill-opacity="0.1" stroke="#1f78b4" stroke-width="5.0e-3" fill="#a6cee3"><rect height="8.534662209045613e-2" width="0.1896542745161478" x="3.435927549889439e-2" y="-4.267331104522809e-2"/></g><g stroke-opacity="0.8" fill-opacity="0.1" stroke="#1f78b4" stroke-width="5.0e-3" fill="#a6cee3"><rect height="8.534662209045613e-2" width="0.22126284613552305" x="-0.33231417680622555" y="-4.267331104522809e-2"/></g><g stroke-opacity="0.8" fill-opacity="0.1" stroke="#1f78b4" stroke-width="5.0e-3" fill="#a6cee3"><rect height="8.534662209045607e-2" width="0.169897139254104" x="0.8721313820517231" y="0.41465337790954393"/></g><g stroke-opacity="0.8" fill-opacity="0.1" stroke="#1f78b4" stroke-width="5.0e-3" fill="#a6cee3"><rect height="8.534662209045607e-2" width="0.18965427451614725" x="-0.8211307147203057" y="0.18599003343215792"/></g><g stroke-opacity="0.8" fill-opacity="0.1" stroke="#1f78b4" stroke-width="5.0e-3" fill="#a6cee3"><rect height="8.534662209045607e-2" width="0.15409427584436308" x="-0.5589250038932134" y="0.18599003343215792"/></g><g stroke-opacity="0.8" fill-opacity="0.1" stroke="#1f78b4" stroke-width="5.0e-3" fill="#a6cee3"><rect height="8.534662209045607e-2" width="0.1698971392541041" x="-0.33422777466290965" y="0.18599003343215792"/></g><g stroke-opacity="0.8" fill-opacity="0.1" stroke="#1f78b4" stroke-width="5.0e-3" fill="#a6cee3"><rect height="8.534662209045607e-2" width="0.23706570954526385" x="-9.184754683455398e-2" y="0.18599003343215792"/></g><g fill-opacity="1.0" font-size="4.0e-2" stroke="none" stroke-width="0.0" fill="#333333" text-anchor="middle"><text x="-0.42668496337624495" y="-0.44944174604175857">Additive</text><text x="-0.604090721716632" y="-0.22077840156437267">Subtractive</text><text x="0.17649461498107155" y="-0.44944174604175857">Multiplicative</text><text x="0.468228528696375" y="7.884942913013337e-3">Divisive</text><text x="-0.2532215552211996" y="-0.22077840156437267">Distributive</text><text x="-0.481877865971032" y="7.884942913013337e-3">Ring</text><text x="0.30264982091201365" y="0.23654828739039935">Field</text><text x="-0.5134166674537675" y="0.46521163186778525">ExpField</text><text x="-0.8879399350612516" y="0.46521163186778525">QuotientField</text><text x="-0.1428357500316253" y="0.46521163186778525">UpperBoundedField</text><text x="0.30264982091201365" y="0.46521163186778525">LowerBoundedField</text><text x="0.6811154387048395" y="0.46521163186778525">TrigField</text><text x="0.17649461498107155" y="-0.22077840156437267">MultiplicativeAction</text><text x="0.12918641275696818" y="7.884942913013337e-3">Module</text><text x="-0.22168275373846413" y="7.884942913013337e-3">Integral</text><text x="0.9570799516787751" y="0.46521163186778525">Ratio</text><text x="-0.726303577462232" y="0.23654828739039935">Signed</text><text x="-0.481877865971032" y="0.23654828739039935">Norm</text><text x="-0.24927920503585754" y="0.23654828739039935">Basis</text><text x="2.668530793807755e-2" y="0.23654828739039935">Direction</text></g></svg>