<svg xmlns="http://www.w3.org/2000/svg" width="364.8983418442269" xmlns:xlink="http://www.w3.org/1999/xlink" viewBox="16.4209536 -333.3265 385.15384879999993 316.653" height="300.0"><style>svg {
  color-scheme: light dark;
}
{
  .canvas g, .title g, .axisbar g, .ticktext g, .tickglyph g, .ticklines g, .legendContent g text {
    fill: #0d0d0d;
  }
  .ticklines g, .tickglyph g, .legendBorder g {
    stroke: #0d0d0d;
  }
}
@media (prefers-color-scheme:dark) {
  .canvas g, .title g, .axisbar g, .ticktext g, .tickglyph g, .ticklines g, .legendContent g text {
    fill: #f0f0f0;
  }
  .ticklines g, .tickglyph g, .legendBorder g {
    stroke: #f0f0f0;
  }
}</style><g class="chart"><g><g fill="rgb(0%, 0%, 0%)" stroke="rgb(65%, 81%, 89%)" stroke-width="5.0e-3" fill-opacity="0.0" stroke-opacity="1.0"><path d="M 190.5200,-310.78 C 176.75,-300.59 156.1600,-285.35 142.4200,-275.17"/></g><g fill="rgb(0%, 0%, 0%)" stroke="rgb(65%, 81%, 89%)" stroke-width="5.0e-3" fill-opacity="0.0" stroke-opacity="1.0"><path d="M 205.0,-310.78 C 205.0,-300.59 205.0,-285.35 205.0,-275.17"/></g><g fill="rgb(0%, 0%, 0%)" stroke="rgb(65%, 81%, 89%)" stroke-width="5.0e-3" fill-opacity="0.0" stroke-opacity="1.0"><path d="M 183.2600,-313.45 C 156.07,-303.39 109.4400,-286.13 79.4310,-275.02"/></g><g fill="rgb(0%, 0%, 0%)" stroke="rgb(65%, 81%, 89%)" stroke-width="5.0e-3" fill-opacity="0.0" stroke-opacity="1.0"><path d="M 226.7800,-313.93 C 255.5300,-303.94 306.3000,-286.29 338.76,-275.01"/></g><g fill="rgb(0%, 0%, 0%)" stroke="rgb(65%, 81%, 89%)" stroke-width="5.0e-3" fill-opacity="0.0" stroke-opacity="1.0"><path d="M 220.61,-310.78 C 235.45,-300.59 257.64,-285.35 272.4600,-275.17"/></g><g fill="rgb(0%, 0%, 0%)" stroke="rgb(65%, 81%, 89%)" stroke-width="5.0e-3" fill-opacity="0.0" stroke-opacity="1.0"><path d="M 144.36,-251.7800 C 159.9200,-241.5900 183.18,-226.3500 198.7100,-216.1700"/></g><g fill="rgb(0%, 0%, 0%)" stroke="rgb(65%, 81%, 89%)" stroke-width="5.0e-3" fill-opacity="0.0" stroke-opacity="1.0"><path d="M 128.0000,-251.7800 C 128.0000,-241.5900 128.0000,-226.3500 128.0000,-216.1700"/></g><g fill="rgb(0%, 0%, 0%)" stroke="rgb(65%, 81%, 89%)" stroke-width="5.0e-3" fill-opacity="0.0" stroke-opacity="1.0"><path d="M 206.8800,-251.7800 C 208.6700,-241.5900 211.3400,-226.3500 213.13,-216.1700"/></g><g fill="rgb(0%, 0%, 0%)" stroke="rgb(65%, 81%, 89%)" stroke-width="5.0e-3" fill-opacity="0.0" stroke-opacity="1.0"><path d="M 190.5200,-251.7800 C 176.75,-241.5900 156.1600,-226.3500 142.4200,-216.1700"/></g><g fill="rgb(0%, 0%, 0%)" stroke="rgb(65%, 81%, 89%)" stroke-width="5.0e-3" fill-opacity="0.0" stroke-opacity="1.0"><path d="M 74.025,-251.99 C 80.707,-249.1700 88.0720,-246.2700 95.0,-244.0"/></g><g fill="rgb(0%, 0%, 0%)" stroke="rgb(65%, 81%, 89%)" stroke-width="5.0e-3" fill-opacity="0.0" stroke-opacity="1.0"><path d="M 95.0,-244.0 C 131.05,-232.1600 142.36,-237.0100 178.0,-224.0"/></g><g fill="rgb(0%, 0%, 0%)" stroke="rgb(65%, 81%, 89%)" stroke-width="5.0e-3" fill-opacity="0.0" stroke-opacity="1.0"><path d="M 178.0,-224.0 C 183.94,-221.8300 190.1600,-218.9700 195.7800,-216.14"/></g><g fill="rgb(0%, 0%, 0%)" stroke="rgb(65%, 81%, 89%)" stroke-width="5.0e-3" fill-opacity="0.0" stroke-opacity="1.0"><path d="M 65.483,-251.7800 C 79.249,-241.5900 99.837,-226.3500 113.58,-216.1700"/></g><g fill="rgb(0%, 0%, 0%)" stroke="rgb(65%, 81%, 89%)" stroke-width="5.0e-3" fill-opacity="0.0" stroke-opacity="1.0"><path d="M 357.9300,-251.8500 C 343.35,-237.95 316.7900,-213.0400 293.0,-193.0"/></g><g fill="rgb(0%, 0%, 0%)" stroke="rgb(65%, 81%, 89%)" stroke-width="5.0e-3" fill-opacity="0.0" stroke-opacity="1.0"><path d="M 293.0,-193.0 C 277.8800,-180.26 259.8800,-166.49 247.5700,-157.26"/></g><g fill="rgb(0%, 0%, 0%)" stroke="rgb(65%, 81%, 89%)" stroke-width="5.0e-3" fill-opacity="0.0" stroke-opacity="1.0"><path d="M 362.6900,-251.81 C 348.8400,-228.8500 314.1,-173.69 277.0,-134.0"/></g><g fill="rgb(0%, 0%, 0%)" stroke="rgb(65%, 81%, 89%)" stroke-width="5.0e-3" fill-opacity="0.0" stroke-opacity="1.0"><path d="M 277.0,-134.0 C 264.76,-120.9100 249.2900,-107.41 238.4200,-98.354"/></g><g fill="rgb(0%, 0%, 0%)" stroke="rgb(65%, 81%, 89%)" stroke-width="5.0e-3" fill-opacity="0.0" stroke-opacity="1.0"><path d="M 285.02,-251.9200 C 280.3100,-236.95 269.8000,-209.57 252.0,-193.0"/></g><g fill="rgb(0%, 0%, 0%)" stroke="rgb(65%, 81%, 89%)" stroke-width="5.0e-3" fill-opacity="0.0" stroke-opacity="1.0"><path d="M 252.0,-193.0 C 231.9800,-174.36 203.3300,-162.49 180.57,-155.4200"/></g><g fill="rgb(0%, 0%, 0%)" stroke="rgb(65%, 81%, 89%)" stroke-width="5.0e-3" fill-opacity="0.0" stroke-opacity="1.0"><path d="M 218.39,-192.7800 C 221.6000,-182.5900 226.4200,-167.3500 229.6300,-157.1700"/></g><g fill="rgb(0%, 0%, 0%)" stroke="rgb(65%, 81%, 89%)" stroke-width="5.0e-3" fill-opacity="0.0" stroke-opacity="1.0"><path d="M 201.6500,-192.7800 C 188.95,-182.5900 169.9700,-167.3500 157.2900,-157.1700"/></g><g fill="rgb(0%, 0%, 0%)" stroke="rgb(65%, 81%, 89%)" stroke-width="5.0e-3" fill-opacity="0.0" stroke-opacity="1.0"><path d="M 219.0800,-133.78 C 205.8500,-123.59 186.0700,-108.35 172.8600,-98.173"/></g><g fill="rgb(0%, 0%, 0%)" stroke="rgb(65%, 81%, 89%)" stroke-width="5.0e-3" fill-opacity="0.0" stroke-opacity="1.0"><path d="M 117.42,-192.9100 C 104.4800,-178.6500 85.844,-152.88 99.0,-134.0"/></g><g fill="rgb(0%, 0%, 0%)" stroke="rgb(65%, 81%, 89%)" stroke-width="5.0e-3" fill-opacity="0.0" stroke-opacity="1.0"><path d="M 99.0,-134.0 C 104.8300,-125.63 161.57,-106.97 196.89,-96.006"/></g><g fill="rgb(0%, 0%, 0%)" stroke="rgb(65%, 81%, 89%)" stroke-width="5.0e-3" fill-opacity="0.0" stroke-opacity="1.0"><path d="M 131.01,-192.7800 C 133.87,-182.5900 138.1500,-167.3500 141.0,-157.1700"/></g><g fill="rgb(0%, 0%, 0%)" stroke="rgb(65%, 81%, 89%)" stroke-width="5.0e-3" fill-opacity="0.0" stroke-opacity="1.0"><path d="M 218.7900,-74.779 C 212.89,-64.588 204.07,-49.348 198.18,-39.173"/></g><g fill="rgb(0%, 0%, 0%)" stroke="rgb(65%, 81%, 89%)" stroke-width="5.0e-3" fill-opacity="0.0" stroke-opacity="1.0"><path d="M 146.8200,-133.78 C 149.5000,-123.59 153.51,-108.35 156.19,-98.173"/></g><g fill="rgb(0%, 0%, 0%)" stroke="rgb(65%, 81%, 89%)" stroke-width="5.0e-3" fill-opacity="0.0" stroke-opacity="1.0"><path d="M 165.2100,-74.779 C 171.1100,-64.588 179.9300,-49.348 185.8200,-39.173"/></g><g fill="rgb(69%, 35%, 16%)" stroke="rgb(65%, 81%, 89%)" stroke-width="5.0e-3" fill-opacity="0.1" stroke-opacity="1.0"><rect x="183.4523024" width="43.095395199999984" y="-333.324" height="21.648000000000025"/></g><g fill="rgb(69%, 35%, 16%)" stroke="rgb(65%, 81%, 89%)" stroke-width="5.0e-3" fill-opacity="0.1" stroke-opacity="1.0"><rect x="103.9465464" width="48.10690720000001" y="-274.324" height="21.648000000000025"/></g><g fill="rgb(69%, 35%, 16%)" stroke="rgb(65%, 81%, 89%)" stroke-width="5.0e-3" fill-opacity="0.1" stroke-opacity="1.0"><rect x="170.42345360000002" width="69.15309279999997" y="-274.324" height="21.648000000000025"/></g><g fill="rgb(69%, 35%, 16%)" stroke="rgb(65%, 81%, 89%)" stroke-width="5.0e-3" fill-opacity="0.1" stroke-opacity="1.0"><rect x="16.423453600000002" width="69.15309279999998" y="-274.324" height="21.648000000000025"/></g><g fill="rgb(69%, 35%, 16%)" stroke="rgb(65%, 81%, 89%)" stroke-width="5.0e-3" fill-opacity="0.1" stroke-opacity="1.0"><rect x="336.4276976" width="65.14460479999997" y="-274.324" height="21.648000000000025"/></g><g fill="rgb(69%, 35%, 16%)" stroke="rgb(65%, 81%, 89%)" stroke-width="5.0e-3" fill-opacity="0.1" stroke-opacity="1.0"><rect x="257.9334536" width="60.133092799999986" y="-274.324" height="21.648000000000025"/></g><g fill="rgb(69%, 35%, 16%)" stroke="rgb(65%, 81%, 89%)" stroke-width="5.0e-3" fill-opacity="0.1" stroke-opacity="1.0"><rect x="186.93769759999998" width="56.124604799999986" y="-215.32400000000007" height="21.64800000000008"/></g><g fill="rgb(69%, 35%, 16%)" stroke="rgb(65%, 81%, 89%)" stroke-width="5.0e-3" fill-opacity="0.1" stroke-opacity="1.0"><rect x="198.42345359999996" width="69.15309279999997" y="-156.324" height="21.648000000000025"/></g><g fill="rgb(69%, 35%, 16%)" stroke="rgb(65%, 81%, 89%)" stroke-width="5.0e-3" fill-opacity="0.1" stroke-opacity="1.0"><rect x="86.908488" width="82.18302400000002" y="-215.32400000000007" height="21.64800000000008"/></g><g fill="rgb(69%, 35%, 16%)" stroke="rgb(65%, 81%, 89%)" stroke-width="5.0e-3" fill-opacity="0.1" stroke-opacity="1.0"><rect x="196.93769759999998" width="56.124604799999986" y="-97.32399999999998" height="21.647999999999982"/></g><g fill="rgb(69%, 35%, 16%)" stroke="rgb(65%, 81%, 89%)" stroke-width="5.0e-3" fill-opacity="0.1" stroke-opacity="1.0"><rect x="107.418488" width="73.16302399999998" y="-156.324" height="21.648000000000025"/></g><g fill="rgb(69%, 35%, 16%)" stroke="rgb(65%, 81%, 89%)" stroke-width="5.0e-3" fill-opacity="0.1" stroke-opacity="1.0"><rect x="139.4565464" width="39.086907199999956" y="-97.32399999999998" height="21.647999999999982"/></g><g fill="rgb(69%, 35%, 16%)" stroke="rgb(65%, 81%, 89%)" stroke-width="5.0e-3" fill-opacity="0.1" stroke-opacity="1.0"><rect x="170.4523024" width="43.09539519999993" y="-38.324" height="21.647999999999996"/></g><g fill="rgb(5%, 5%, 5%)" stroke="none" stroke-width="0.0" font-size="4.0e-2" fill-opacity="1.0" text-anchor="middle"><text x="205.0" y="-320.5">Magma</text><text x="127.99999999999999" y="-261.5">Unital</text><text x="205.0" y="-261.5">Associative</text><text x="50.99999999999999" y="-261.5">Commutative</text><text x="368.99999999999994" y="-261.5">Invertible</text><text x="287.99999999999994" y="-261.5">Absorbing</text><text x="214.99999999999994" y="-202.5">Additive</text><text x="232.99999999999994" y="-143.5">Subtractive</text><text x="127.99999999999999" y="-202.5">Multiplicative</text><text x="225.0" y="-84.5">Divisive</text><text x="144.0" y="-143.5">Distributive</text><text x="159.0" y="-84.5">Ring</text><text x="192.0" y="-25.5">Field</text></g><g fill="none" stroke="rgb(90%, 20%, 2%)" stroke-dasharray="3.0e-2 1.0e-2" stroke-linecap="round" stroke-width="5.0e-3" stroke-opacity="1.0"><polyline points="49.99999999999999,-230.0
369.99999999999994,-230.0"/></g></g></g><g class="hud"></g></svg>