<svg height="300.0" width="367.03546605524576" xmlns:xlink="http://www.w3.org/1999/xlink" xmlns="http://www.w3.org/2000/svg" viewBox="-0.6392534367128863 -0.5225 1.2785068734257725 1.045"><g fill-opacity="0.0" stroke-opacity="1.0" fill="#000000" stroke-width="5.0e-3" stroke="#a6cfe3"><path d="M -0.0604,-0.4294 C -0.1040,-0.3964 -0.1684,-0.3479 -0.2120,-0.3149"/></g><g fill-opacity="0.0" stroke-opacity="1.0" fill="#000000" stroke-width="5.0e-3" stroke="#a6cfe3"><path d="M -0.0128,-0.4294 C -0.0128,-0.3964 -0.0128,-0.3479 -0.0128,-0.3149"/></g><g fill-opacity="0.0" stroke-opacity="1.0" fill="#000000" stroke-width="5.0e-3" stroke="#a6cfe3"><path d="M -0.0824,-0.4390 C -0.1687,-0.4064 -0.3161,-0.3508 -0.4123,-0.3145"/></g><g fill-opacity="0.0" stroke-opacity="1.0" fill="#000000" stroke-width="5.0e-3" stroke="#a6cfe3"><path d="M 0.0570,-0.4406 C 0.1482,-0.4082 0.3087,-0.3514 0.4127,-0.3145"/></g><g fill-opacity="0.0" stroke-opacity="1.0" fill="#000000" stroke-width="5.0e-3" stroke="#a6cfe3"><path d="M 0.0384,-0.4294 C 0.0855,-0.3964 0.1549,-0.3479 0.2019,-0.3149"/></g><g fill-opacity="0.0" stroke-opacity="1.0" fill="#000000" stroke-width="5.0e-3" stroke="#a6cfe3"><path d="M -0.2057,-0.2433 C -0.1563,-0.2103 -0.0836,-0.1618 -0.0343,-0.1288"/></g><g fill-opacity="0.0" stroke-opacity="1.0" fill="#000000" stroke-width="5.0e-3" stroke="#a6cfe3"><path d="M -0.2594,-0.2433 C -0.2594,-0.2103 -0.2594,-0.1618 -0.2594,-0.1288"/></g><g fill-opacity="0.0" stroke-opacity="1.0" fill="#000000" stroke-width="5.0e-3" stroke="#a6cfe3"><path d="M -0.0066,-0.2433 C -0.0010,-0.2103 0.0074,-0.1618 0.0131,-0.1288"/></g><g fill-opacity="0.0" stroke-opacity="1.0" fill="#000000" stroke-width="5.0e-3" stroke="#a6cfe3"><path d="M -0.0604,-0.2433 C -0.1040,-0.2103 -0.1684,-0.1618 -0.2120,-0.1288"/></g><g fill-opacity="0.0" stroke-opacity="1.0" fill="#000000" stroke-width="5.0e-3" stroke="#a6cfe3"><path d="M -0.4309,-0.2438 C -0.4099,-0.2347 -0.3868,-0.2254 -0.3651,-0.2182"/></g><g fill-opacity="0.0" stroke-opacity="1.0" fill="#000000" stroke-width="5.0e-3" stroke="#a6cfe3"><path d="M -0.3651,-0.2182 C -0.2498,-0.1797 -0.2132,-0.1964 -0.0993,-0.1540"/></g><g fill-opacity="0.0" stroke-opacity="1.0" fill="#000000" stroke-width="5.0e-3" stroke="#a6cfe3"><path d="M -0.0993,-0.1540 C -0.0806,-0.1471 -0.0611,-0.1379 -0.0435,-0.1288"/></g><g fill-opacity="0.0" stroke-opacity="1.0" fill="#000000" stroke-width="5.0e-3" stroke="#a6cfe3"><path d="M -0.4585,-0.2433 C -0.4148,-0.2103 -0.3504,-0.1618 -0.3068,-0.1288"/></g><g fill-opacity="0.0" stroke-opacity="1.0" fill="#000000" stroke-width="5.0e-3" stroke="#a6cfe3"><path d="M 0.4753,-0.2438 C 0.4281,-0.1993 0.3441,-0.1212 0.2690,-0.0578"/></g><g fill-opacity="0.0" stroke-opacity="1.0" fill="#000000" stroke-width="5.0e-3" stroke="#a6cfe3"><path d="M 0.2690,-0.0578 C 0.2211,-0.0172 0.1644,0.0268 0.1250,0.0568"/></g><g fill-opacity="0.0" stroke-opacity="1.0" fill="#000000" stroke-width="5.0e-3" stroke="#a6cfe3"><path d="M 0.4907,-0.2431 C 0.4453,-0.1691 0.3347,0.0034 0.2178,0.1283"/></g><g fill-opacity="0.0" stroke-opacity="1.0" fill="#000000" stroke-width="5.0e-3" stroke="#a6cfe3"><path d="M 0.2178,0.1283 C 0.1783,0.1705 0.1289,0.2143 0.0941,0.2438"/></g><g fill-opacity="0.0" stroke-opacity="1.0" fill="#000000" stroke-width="5.0e-3" stroke="#a6cfe3"><path d="M 0.2426,-0.2431 C 0.2270,-0.1949 0.1934,-0.1098 0.1377,-0.0578"/></g><g fill-opacity="0.0" stroke-opacity="1.0" fill="#000000" stroke-width="5.0e-3" stroke="#a6cfe3"><path d="M 0.1377,-0.0578 C 0.0735,0.0022 -0.0182,0.0407 -0.0911,0.0638"/></g><g fill-opacity="0.0" stroke-opacity="1.0" fill="#000000" stroke-width="5.0e-3" stroke="#a6cfe3"><path d="M 0.0303,-0.0572 C 0.0406,-0.0242 0.0556,0.0244 0.0658,0.0573"/></g><g fill-opacity="0.0" stroke-opacity="1.0" fill="#000000" stroke-width="5.0e-3" stroke="#a6cfe3"><path d="M -0.0246,-0.0572 C -0.0649,-0.0242 -0.1242,0.0244 -0.1645,0.0573"/></g><g fill-opacity="0.0" stroke-opacity="1.0" fill="#000000" stroke-width="5.0e-3" stroke="#a6cfe3"><path d="M 0.0312,0.1289 C -0.0108,0.1619 -0.0727,0.2105 -0.1146,0.2434"/></g><g fill-opacity="0.0" stroke-opacity="1.0" fill="#000000" stroke-width="5.0e-3" stroke="#a6cfe3"><path d="M -0.2960,-0.0562 C -0.3371,-0.0103 -0.3931,0.0694 -0.3523,0.1283"/></g><g fill-opacity="0.0" stroke-opacity="1.0" fill="#000000" stroke-width="5.0e-3" stroke="#a6cfe3"><path d="M -0.3523,0.1283 C -0.3336,0.1553 -0.1519,0.2159 -0.0388,0.2515"/></g><g fill-opacity="0.0" stroke-opacity="1.0" fill="#000000" stroke-width="5.0e-3" stroke="#a6cfe3"><path d="M -0.2495,-0.0572 C -0.2405,-0.0242 -0.2271,0.0244 -0.2180,0.0573"/></g><g fill-opacity="0.0" stroke-opacity="1.0" fill="#000000" stroke-width="5.0e-3" stroke="#a6cfe3"><path d="M 0.0309,0.3150 C 0.0121,0.3480 -0.0154,0.3966 -0.0341,0.4295"/></g><g fill-opacity="0.0" stroke-opacity="1.0" fill="#000000" stroke-width="5.0e-3" stroke="#a6cfe3"><path d="M -0.1989,0.1289 C -0.1904,0.1619 -0.1779,0.2105 -0.1694,0.2434"/></g><g fill-opacity="0.0" stroke-opacity="1.0" fill="#000000" stroke-width="5.0e-3" stroke="#a6cfe3"><path d="M -0.1398,0.3150 C -0.1210,0.3480 -0.0934,0.3966 -0.0747,0.4295"/></g><g fill-opacity="0.1" stroke-opacity="1.0" fill="#b05929" stroke-width="5.0e-3" stroke="#a6cfe3"><rect height="6.946298387924843e-2" y="-0.5" width="0.13802057661037992" x="-8.181419517777266e-2"/></g><g fill-opacity="0.1" stroke-opacity="1.0" fill="#b05929" stroke-width="5.0e-3" stroke="#a6cfe3"><rect height="6.946298387924854e-2" y="-0.3138925967758498" width="0.15407082450159398" x="-0.33644535092046735"/></g><g fill-opacity="0.1" stroke-opacity="1.0" fill="#b05929" stroke-width="5.0e-3" stroke="#a6cfe3"><rect height="6.946298387924854e-2" y="-0.3138925967758498" width="0.22147493249225647" x="-0.12354137311871094"/></g><g fill-opacity="0.1" stroke-opacity="1.0" fill="#b05929" stroke-width="5.0e-3" stroke="#a6cfe3"><rect height="6.946298387924854e-2" y="-0.3138925967758498" width="0.22147493249225653" x="-0.6167534367128863"/></g><g fill-opacity="0.1" stroke-opacity="1.0" fill="#b05929" stroke-width="5.0e-3" stroke="#a6cfe3"><rect height="6.946298387924854e-2" y="-0.3138925967758498" width="0.20863704523009718" x="0.4081163914827891"/></g><g fill-opacity="0.1" stroke-opacity="1.0" fill="#b05929" stroke-width="5.0e-3" stroke="#a6cfe3"><rect height="6.946298387924854e-2" y="-0.3138925967758498" width="0.1925867973388833" x="0.1567247806808103"/></g><g fill-opacity="0.1" stroke-opacity="1.0" fill="#b05929" stroke-width="5.0e-3" stroke="#a6cfe3"><rect height="6.946298387924843e-2" y="-0.12778519355169937" width="0.17974891007672433" x="-7.065160453469976e-2"/></g><g fill-opacity="0.1" stroke-opacity="1.0" fill="#b05929" stroke-width="5.0e-3" stroke="#a6cfe3"><rect height="6.94629838792486e-2" y="5.832220967245083e-2" width="0.22147493249225658" x="-3.386645246522468e-2"/></g><g fill-opacity="0.1" stroke-opacity="1.0" fill="#b05929" stroke-width="5.0e-3" stroke="#a6cfe3"><rect height="6.946298387924843e-2" y="-0.12778519355169937" width="0.26320557700941327" x="-0.39101272717437696"/></g><g fill-opacity="0.1" stroke-opacity="1.0" fill="#b05929" stroke-width="5.0e-3" stroke="#a6cfe3"><rect height="6.946298387924843e-2" y="0.24442961289660126" width="0.17974891007672422" x="-3.862484715845449e-2"/></g><g fill-opacity="0.1" stroke-opacity="1.0" fill="#b05929" stroke-width="5.0e-3" stroke="#a6cfe3"><rect height="6.94629838792486e-2" y="5.832220967245083e-2" width="0.23431744185604025" x="-0.32532584779569823"/></g><g fill-opacity="0.1" stroke-opacity="1.0" fill="#b05929" stroke-width="5.0e-3" stroke="#a6cfe3"><rect height="6.946298387924843e-2" y="0.24442961289660126" width="0.1251826893482209" x="-0.22271833547742087"/></g><g fill-opacity="0.1" stroke-opacity="1.0" fill="#b05929" stroke-width="5.0e-3" stroke="#a6cfe3"><rect height="6.946298387924843e-2" y="0.43053701612075157" width="0.13802057661037997" x="-0.12344897976689145"/></g><g text-anchor="middle" fill-opacity="1.0" fill="#0d0d0d" stroke-width="0.0" stroke="none" font-size="4.0e-2"><text y="-0.4588510113974741" x="-1.2803906872582704e-2">Magma</text><text y="-0.27274360817332377" x="-0.2594099386696704">Unital</text><text y="-0.27274360817332377" x="-1.2803906872582704e-2">Associative</text><text y="-0.27274360817332377" x="-0.5060159704667582">Commutative</text><text y="-0.27274360817332377" x="0.5124349140978378">Invertible</text><text y="-0.27274360817332377" x="0.25301817935025206">Absorbing</text><text y="-8.663620494917346e-2" x="1.9222850503662348e-2">Additive</text><text y="9.947119827497686e-2" x="7.687101378090355e-2">Subtractive</text><text y="-8.663620494917346e-2" x="-0.2594099386696704">Multiplicative</text><text y="0.2855786014991273" x="5.124960787990751e-2">Divisive</text><text y="9.947119827497686e-2" x="-0.2081671268676782">Distributive</text><text y="0.2855786014991273" x="-0.16012699080331044">Ring</text><text y="0.47168600472327754" x="-5.443869146170133e-2">Field</text></g><g stroke-dasharray="3.0e-2 1.0e-2" stroke-opacity="1.0" stroke-linecap="round" fill="none" stroke-width="5.0e-3" stroke="#e63305"><polyline points="-0.5092186462043825,-0.18610740322415043
0.515637589835462,-0.18610740322415043"/></g></svg>